G04 EAGLE Gerber RS-274X export*
G75*
%MOMM*%
%FSLAX34Y34*%
%LPD*%
%INBottom Copper*%
%IPPOS*%
%AMOC8*
5,1,8,0,0,1.08239X$1,22.5*%
G01*
%ADD10C,1.108000*%
%ADD11C,1.524000*%
%ADD12P,2.336880X8X22.500000*%
%ADD13C,0.534000*%
%ADD14C,0.661000*%
%ADD15C,1.143000*%
%ADD16C,1.524000*%
%ADD17C,0.480000*%
%ADD18C,0.630000*%
%ADD19C,0.680000*%
%ADD20C,0.304800*%
%ADD21C,0.254000*%
%ADD22C,0.580000*%
%ADD23C,0.508000*%
%ADD24C,1.016000*%
%ADD25C,0.780000*%

G36*
X449280Y76213D02*
X449280Y76213D01*
X449379Y76216D01*
X449437Y76233D01*
X449497Y76241D01*
X449589Y76277D01*
X449684Y76305D01*
X449736Y76335D01*
X449793Y76358D01*
X449873Y76416D01*
X449958Y76466D01*
X450034Y76532D01*
X450050Y76544D01*
X450058Y76554D01*
X450079Y76573D01*
X452837Y79331D01*
X456483Y79331D01*
X458843Y76971D01*
X458952Y76886D01*
X459059Y76797D01*
X459078Y76789D01*
X459094Y76776D01*
X459222Y76721D01*
X459347Y76662D01*
X459367Y76658D01*
X459386Y76650D01*
X459524Y76628D01*
X459660Y76602D01*
X459680Y76603D01*
X459700Y76600D01*
X459839Y76613D01*
X459977Y76622D01*
X459996Y76628D01*
X460016Y76630D01*
X460148Y76677D01*
X460279Y76720D01*
X460297Y76730D01*
X460316Y76737D01*
X460431Y76815D01*
X460548Y76890D01*
X460562Y76905D01*
X460579Y76916D01*
X460671Y77020D01*
X460766Y77121D01*
X460776Y77139D01*
X460789Y77154D01*
X460853Y77278D01*
X460920Y77400D01*
X460925Y77420D01*
X460934Y77438D01*
X460964Y77573D01*
X460999Y77708D01*
X461001Y77736D01*
X461004Y77748D01*
X461003Y77768D01*
X461009Y77869D01*
X461009Y134736D01*
X460994Y134854D01*
X460987Y134973D01*
X460974Y135011D01*
X460969Y135052D01*
X460926Y135162D01*
X460889Y135275D01*
X460867Y135310D01*
X460852Y135347D01*
X460783Y135443D01*
X460719Y135544D01*
X460689Y135572D01*
X460666Y135605D01*
X460574Y135681D01*
X460487Y135762D01*
X460452Y135782D01*
X460421Y135807D01*
X460313Y135858D01*
X460209Y135916D01*
X460169Y135926D01*
X460133Y135943D01*
X460016Y135965D01*
X459901Y135995D01*
X459841Y135999D01*
X459821Y136003D01*
X459800Y136001D01*
X459740Y136005D01*
X441299Y136005D01*
X441270Y136002D01*
X441240Y136004D01*
X441113Y135982D01*
X440984Y135965D01*
X440956Y135955D01*
X440927Y135949D01*
X440809Y135896D01*
X440688Y135848D01*
X440664Y135831D01*
X440637Y135819D01*
X440536Y135738D01*
X440431Y135662D01*
X440412Y135639D01*
X440389Y135620D01*
X440311Y135517D01*
X440228Y135417D01*
X440222Y135405D01*
X438669Y133851D01*
X436684Y133029D01*
X434536Y133029D01*
X432551Y133851D01*
X431031Y135371D01*
X430209Y137356D01*
X430209Y139504D01*
X431031Y141489D01*
X432551Y143009D01*
X434536Y143831D01*
X436684Y143831D01*
X438669Y143009D01*
X440243Y141435D01*
X440284Y141362D01*
X440305Y141341D01*
X440321Y141316D01*
X440415Y141227D01*
X440505Y141134D01*
X440531Y141118D01*
X440552Y141098D01*
X440666Y141035D01*
X440776Y140967D01*
X440805Y140959D01*
X440831Y140944D01*
X440956Y140912D01*
X441080Y140874D01*
X441110Y140872D01*
X441139Y140865D01*
X441299Y140855D01*
X459740Y140855D01*
X459858Y140870D01*
X459977Y140877D01*
X460015Y140890D01*
X460056Y140895D01*
X460166Y140938D01*
X460279Y140975D01*
X460314Y140997D01*
X460351Y141012D01*
X460447Y141081D01*
X460548Y141145D01*
X460576Y141175D01*
X460609Y141198D01*
X460685Y141290D01*
X460766Y141377D01*
X460786Y141412D01*
X460811Y141443D01*
X460862Y141551D01*
X460920Y141655D01*
X460930Y141695D01*
X460947Y141731D01*
X460969Y141848D01*
X460999Y141963D01*
X461003Y142023D01*
X461007Y142043D01*
X461005Y142064D01*
X461009Y142124D01*
X461009Y212952D01*
X460992Y213089D01*
X460979Y213228D01*
X460972Y213247D01*
X460969Y213267D01*
X460918Y213396D01*
X460871Y213527D01*
X460860Y213544D01*
X460852Y213563D01*
X460771Y213675D01*
X460693Y213790D01*
X460677Y213804D01*
X460666Y213820D01*
X460558Y213909D01*
X460454Y214001D01*
X460436Y214010D01*
X460421Y214023D01*
X460295Y214082D01*
X460171Y214145D01*
X460151Y214150D01*
X460133Y214158D01*
X459997Y214185D01*
X459861Y214215D01*
X459840Y214214D01*
X459821Y214218D01*
X459682Y214210D01*
X459543Y214205D01*
X459523Y214200D01*
X459503Y214199D01*
X459371Y214156D01*
X459237Y214117D01*
X459220Y214107D01*
X459201Y214100D01*
X459083Y214026D01*
X458963Y213955D01*
X458942Y213937D01*
X458932Y213930D01*
X458918Y213915D01*
X458843Y213849D01*
X457665Y212672D01*
X455715Y211864D01*
X453605Y211864D01*
X451655Y212672D01*
X450477Y213849D01*
X450383Y213922D01*
X450294Y214001D01*
X450258Y214019D01*
X450226Y214044D01*
X450117Y214091D01*
X450011Y214145D01*
X449972Y214154D01*
X449934Y214170D01*
X449817Y214189D01*
X449701Y214215D01*
X449660Y214214D01*
X449620Y214220D01*
X449502Y214209D01*
X449383Y214205D01*
X449344Y214194D01*
X449304Y214190D01*
X449192Y214150D01*
X449077Y214117D01*
X449042Y214096D01*
X449004Y214083D01*
X448906Y214016D01*
X448803Y213955D01*
X448758Y213916D01*
X448741Y213904D01*
X448728Y213889D01*
X448682Y213849D01*
X447505Y212672D01*
X445555Y211864D01*
X443445Y211864D01*
X441495Y212672D01*
X440002Y214165D01*
X439194Y216115D01*
X439194Y218225D01*
X440002Y220175D01*
X441179Y221353D01*
X441252Y221447D01*
X441331Y221536D01*
X441349Y221572D01*
X441374Y221604D01*
X441421Y221713D01*
X441475Y221819D01*
X441484Y221858D01*
X441500Y221896D01*
X441519Y222013D01*
X441545Y222129D01*
X441544Y222170D01*
X441550Y222210D01*
X441539Y222328D01*
X441535Y222447D01*
X441524Y222486D01*
X441520Y222526D01*
X441480Y222638D01*
X441447Y222753D01*
X441426Y222788D01*
X441413Y222826D01*
X441346Y222924D01*
X441285Y223027D01*
X441246Y223072D01*
X441234Y223089D01*
X441219Y223102D01*
X441179Y223148D01*
X440002Y224325D01*
X439194Y226275D01*
X439194Y228385D01*
X440002Y230335D01*
X441495Y231828D01*
X443445Y232636D01*
X445555Y232636D01*
X447505Y231828D01*
X448682Y230651D01*
X448777Y230578D01*
X448866Y230499D01*
X448902Y230481D01*
X448934Y230456D01*
X449043Y230409D01*
X449149Y230355D01*
X449188Y230346D01*
X449226Y230330D01*
X449343Y230311D01*
X449459Y230285D01*
X449500Y230286D01*
X449540Y230280D01*
X449658Y230291D01*
X449777Y230295D01*
X449816Y230306D01*
X449856Y230310D01*
X449969Y230350D01*
X450083Y230383D01*
X450117Y230404D01*
X450156Y230417D01*
X450254Y230484D01*
X450357Y230545D01*
X450402Y230584D01*
X450419Y230596D01*
X450432Y230611D01*
X450477Y230651D01*
X451655Y231828D01*
X453605Y232636D01*
X455715Y232636D01*
X457665Y231828D01*
X458843Y230651D01*
X458952Y230566D01*
X459059Y230477D01*
X459078Y230468D01*
X459094Y230456D01*
X459222Y230401D01*
X459347Y230342D01*
X459367Y230338D01*
X459386Y230330D01*
X459524Y230308D01*
X459660Y230282D01*
X459680Y230283D01*
X459700Y230280D01*
X459839Y230293D01*
X459977Y230301D01*
X459996Y230308D01*
X460016Y230310D01*
X460148Y230357D01*
X460279Y230400D01*
X460297Y230410D01*
X460316Y230417D01*
X460431Y230495D01*
X460548Y230570D01*
X460562Y230584D01*
X460579Y230596D01*
X460671Y230700D01*
X460766Y230801D01*
X460776Y230819D01*
X460789Y230834D01*
X460853Y230958D01*
X460920Y231080D01*
X460925Y231099D01*
X460934Y231117D01*
X460964Y231253D01*
X460999Y231388D01*
X461001Y231416D01*
X461004Y231428D01*
X461003Y231448D01*
X461009Y231548D01*
X461009Y394968D01*
X460994Y395086D01*
X460987Y395205D01*
X460974Y395243D01*
X460969Y395284D01*
X460926Y395394D01*
X460889Y395507D01*
X460867Y395542D01*
X460852Y395579D01*
X460782Y395675D01*
X460719Y395776D01*
X460689Y395804D01*
X460666Y395837D01*
X460574Y395913D01*
X460487Y395994D01*
X460452Y396014D01*
X460421Y396039D01*
X460313Y396090D01*
X460209Y396148D01*
X460169Y396158D01*
X460133Y396175D01*
X460016Y396197D01*
X459901Y396227D01*
X459840Y396231D01*
X459820Y396235D01*
X459800Y396233D01*
X459740Y396237D01*
X353060Y396237D01*
X352942Y396222D01*
X352823Y396215D01*
X352785Y396202D01*
X352744Y396197D01*
X352634Y396154D01*
X352521Y396117D01*
X352486Y396095D01*
X352449Y396080D01*
X352353Y396011D01*
X352252Y395947D01*
X352224Y395917D01*
X352191Y395894D01*
X352116Y395802D01*
X352034Y395715D01*
X352014Y395680D01*
X351989Y395649D01*
X351938Y395541D01*
X351880Y395437D01*
X351870Y395397D01*
X351853Y395361D01*
X351831Y395244D01*
X351801Y395129D01*
X351797Y395069D01*
X351793Y395049D01*
X351795Y395028D01*
X351791Y394968D01*
X351791Y91440D01*
X351803Y91342D01*
X351806Y91243D01*
X351823Y91185D01*
X351831Y91124D01*
X351867Y91032D01*
X351895Y90937D01*
X351917Y90899D01*
X351919Y90892D01*
X351928Y90879D01*
X351948Y90829D01*
X352006Y90749D01*
X352056Y90663D01*
X352086Y90630D01*
X352090Y90624D01*
X352099Y90615D01*
X352122Y90588D01*
X352134Y90571D01*
X352144Y90564D01*
X352163Y90543D01*
X366133Y76573D01*
X366211Y76512D01*
X366283Y76444D01*
X366336Y76415D01*
X366384Y76378D01*
X366475Y76338D01*
X366561Y76290D01*
X366620Y76275D01*
X366676Y76251D01*
X366774Y76236D01*
X366869Y76211D01*
X366969Y76205D01*
X366990Y76201D01*
X367002Y76203D01*
X367030Y76201D01*
X449181Y76201D01*
X449280Y76213D01*
G37*
G36*
X407969Y45929D02*
X407969Y45929D01*
X408010Y45943D01*
X408077Y45954D01*
X409134Y46324D01*
X409155Y46336D01*
X409171Y46340D01*
X409194Y46355D01*
X409235Y46372D01*
X410183Y46968D01*
X410214Y46998D01*
X410270Y47038D01*
X411062Y47830D01*
X411086Y47866D01*
X411132Y47917D01*
X411728Y48865D01*
X411743Y48905D01*
X411776Y48966D01*
X412146Y50023D01*
X412152Y50065D01*
X412171Y50132D01*
X412296Y51244D01*
X412294Y51269D01*
X412299Y51300D01*
X412299Y62300D01*
X412294Y62324D01*
X412296Y62356D01*
X412171Y63469D01*
X412157Y63510D01*
X412146Y63577D01*
X411776Y64634D01*
X411754Y64671D01*
X411728Y64735D01*
X411132Y65683D01*
X411102Y65714D01*
X411062Y65770D01*
X410270Y66562D01*
X410234Y66586D01*
X410183Y66632D01*
X409235Y67228D01*
X409195Y67243D01*
X409134Y67276D01*
X408077Y67646D01*
X408035Y67652D01*
X407969Y67671D01*
X406856Y67796D01*
X406813Y67792D01*
X406744Y67796D01*
X405632Y67671D01*
X405590Y67657D01*
X405523Y67646D01*
X404466Y67276D01*
X404429Y67254D01*
X404365Y67228D01*
X403417Y66632D01*
X403386Y66602D01*
X403330Y66562D01*
X402538Y65770D01*
X402514Y65734D01*
X402468Y65683D01*
X401872Y64735D01*
X401857Y64695D01*
X401824Y64634D01*
X401454Y63577D01*
X401448Y63535D01*
X401429Y63469D01*
X401304Y62356D01*
X401306Y62331D01*
X401301Y62300D01*
X401301Y51300D01*
X401304Y51286D01*
X401302Y51276D01*
X401305Y51263D01*
X401304Y51244D01*
X401429Y50132D01*
X401443Y50090D01*
X401454Y50023D01*
X401824Y48966D01*
X401846Y48929D01*
X401872Y48865D01*
X402468Y47917D01*
X402498Y47886D01*
X402538Y47830D01*
X403330Y47038D01*
X403366Y47014D01*
X403417Y46968D01*
X404365Y46372D01*
X404405Y46357D01*
X404466Y46324D01*
X405523Y45954D01*
X405565Y45948D01*
X405632Y45929D01*
X406744Y45804D01*
X406787Y45808D01*
X406856Y45804D01*
X407969Y45929D01*
G37*
G36*
X494369Y45929D02*
X494369Y45929D01*
X494410Y45943D01*
X494477Y45954D01*
X495534Y46324D01*
X495555Y46336D01*
X495571Y46340D01*
X495594Y46355D01*
X495635Y46372D01*
X496583Y46968D01*
X496614Y46998D01*
X496670Y47038D01*
X497462Y47830D01*
X497486Y47866D01*
X497532Y47917D01*
X498128Y48865D01*
X498143Y48905D01*
X498176Y48966D01*
X498546Y50023D01*
X498552Y50065D01*
X498571Y50132D01*
X498696Y51244D01*
X498694Y51269D01*
X498699Y51300D01*
X498699Y62300D01*
X498694Y62324D01*
X498696Y62356D01*
X498571Y63469D01*
X498557Y63510D01*
X498546Y63577D01*
X498176Y64634D01*
X498154Y64671D01*
X498128Y64735D01*
X497532Y65683D01*
X497502Y65714D01*
X497462Y65770D01*
X496670Y66562D01*
X496634Y66586D01*
X496583Y66632D01*
X495635Y67228D01*
X495595Y67243D01*
X495534Y67276D01*
X494477Y67646D01*
X494435Y67652D01*
X494369Y67671D01*
X493256Y67796D01*
X493213Y67792D01*
X493144Y67796D01*
X492032Y67671D01*
X491990Y67657D01*
X491923Y67646D01*
X490866Y67276D01*
X490829Y67254D01*
X490765Y67228D01*
X489817Y66632D01*
X489786Y66602D01*
X489730Y66562D01*
X488938Y65770D01*
X488914Y65734D01*
X488868Y65683D01*
X488272Y64735D01*
X488257Y64695D01*
X488224Y64634D01*
X487854Y63577D01*
X487848Y63535D01*
X487829Y63469D01*
X487704Y62356D01*
X487706Y62331D01*
X487701Y62300D01*
X487701Y51300D01*
X487704Y51286D01*
X487702Y51276D01*
X487705Y51263D01*
X487704Y51244D01*
X487829Y50132D01*
X487843Y50090D01*
X487854Y50023D01*
X488224Y48966D01*
X488246Y48929D01*
X488272Y48865D01*
X488868Y47917D01*
X488898Y47886D01*
X488938Y47830D01*
X489730Y47038D01*
X489766Y47014D01*
X489817Y46968D01*
X490765Y46372D01*
X490805Y46357D01*
X490866Y46324D01*
X491923Y45954D01*
X491965Y45948D01*
X492032Y45929D01*
X493144Y45804D01*
X493187Y45808D01*
X493256Y45804D01*
X494369Y45929D01*
G37*
G36*
X407969Y5629D02*
X407969Y5629D01*
X408010Y5643D01*
X408077Y5654D01*
X409134Y6024D01*
X409155Y6036D01*
X409171Y6040D01*
X409194Y6055D01*
X409235Y6072D01*
X410183Y6668D01*
X410214Y6698D01*
X410270Y6738D01*
X411062Y7530D01*
X411086Y7566D01*
X411132Y7617D01*
X411728Y8565D01*
X411743Y8605D01*
X411776Y8666D01*
X412146Y9723D01*
X412152Y9765D01*
X412171Y9832D01*
X412296Y10944D01*
X412294Y10969D01*
X412299Y11000D01*
X412299Y19000D01*
X412294Y19024D01*
X412296Y19056D01*
X412171Y20169D01*
X412157Y20210D01*
X412146Y20277D01*
X411776Y21334D01*
X411754Y21371D01*
X411728Y21435D01*
X411132Y22383D01*
X411102Y22414D01*
X411062Y22470D01*
X410270Y23262D01*
X410234Y23286D01*
X410183Y23332D01*
X409235Y23928D01*
X409195Y23943D01*
X409134Y23976D01*
X408077Y24346D01*
X408035Y24352D01*
X407969Y24371D01*
X406856Y24496D01*
X406813Y24492D01*
X406744Y24496D01*
X405632Y24371D01*
X405590Y24357D01*
X405523Y24346D01*
X404466Y23976D01*
X404429Y23954D01*
X404365Y23928D01*
X403417Y23332D01*
X403386Y23302D01*
X403330Y23262D01*
X402538Y22470D01*
X402514Y22434D01*
X402468Y22383D01*
X401872Y21435D01*
X401857Y21395D01*
X401824Y21334D01*
X401454Y20277D01*
X401448Y20235D01*
X401429Y20169D01*
X401304Y19056D01*
X401306Y19031D01*
X401301Y19000D01*
X401301Y11000D01*
X401304Y10986D01*
X401302Y10976D01*
X401305Y10963D01*
X401304Y10944D01*
X401429Y9832D01*
X401443Y9790D01*
X401454Y9723D01*
X401824Y8666D01*
X401846Y8629D01*
X401872Y8565D01*
X402468Y7617D01*
X402498Y7586D01*
X402538Y7530D01*
X403330Y6738D01*
X403366Y6714D01*
X403417Y6668D01*
X404365Y6072D01*
X404405Y6057D01*
X404466Y6024D01*
X405523Y5654D01*
X405565Y5648D01*
X405632Y5629D01*
X406744Y5504D01*
X406787Y5508D01*
X406856Y5504D01*
X407969Y5629D01*
G37*
G36*
X494369Y5629D02*
X494369Y5629D01*
X494410Y5643D01*
X494477Y5654D01*
X495534Y6024D01*
X495555Y6036D01*
X495571Y6040D01*
X495594Y6055D01*
X495635Y6072D01*
X496583Y6668D01*
X496614Y6698D01*
X496670Y6738D01*
X497462Y7530D01*
X497486Y7566D01*
X497532Y7617D01*
X498128Y8565D01*
X498143Y8605D01*
X498176Y8666D01*
X498546Y9723D01*
X498552Y9765D01*
X498571Y9832D01*
X498696Y10944D01*
X498694Y10969D01*
X498699Y11000D01*
X498699Y19000D01*
X498694Y19024D01*
X498696Y19056D01*
X498571Y20169D01*
X498557Y20210D01*
X498546Y20277D01*
X498176Y21334D01*
X498154Y21371D01*
X498128Y21435D01*
X497532Y22383D01*
X497502Y22414D01*
X497462Y22470D01*
X496670Y23262D01*
X496634Y23286D01*
X496583Y23332D01*
X495635Y23928D01*
X495595Y23943D01*
X495534Y23976D01*
X494477Y24346D01*
X494435Y24352D01*
X494369Y24371D01*
X493256Y24496D01*
X493213Y24492D01*
X493144Y24496D01*
X492032Y24371D01*
X491990Y24357D01*
X491923Y24346D01*
X490866Y23976D01*
X490829Y23954D01*
X490765Y23928D01*
X489817Y23332D01*
X489786Y23302D01*
X489730Y23262D01*
X488938Y22470D01*
X488914Y22434D01*
X488868Y22383D01*
X488272Y21435D01*
X488257Y21395D01*
X488224Y21334D01*
X487854Y20277D01*
X487848Y20235D01*
X487829Y20169D01*
X487704Y19056D01*
X487706Y19031D01*
X487701Y19000D01*
X487701Y11000D01*
X487704Y10986D01*
X487702Y10976D01*
X487705Y10963D01*
X487704Y10944D01*
X487829Y9832D01*
X487843Y9790D01*
X487854Y9723D01*
X488224Y8666D01*
X488246Y8629D01*
X488272Y8565D01*
X488868Y7617D01*
X488898Y7586D01*
X488938Y7530D01*
X489730Y6738D01*
X489766Y6714D01*
X489817Y6668D01*
X490765Y6072D01*
X490805Y6057D01*
X490866Y6024D01*
X491923Y5654D01*
X491965Y5648D01*
X492032Y5629D01*
X493144Y5504D01*
X493187Y5508D01*
X493256Y5504D01*
X494369Y5629D01*
G37*
%LPC*%
G36*
X425665Y108994D02*
X425665Y108994D01*
X423715Y109802D01*
X422222Y111295D01*
X421414Y113245D01*
X421414Y115355D01*
X422222Y117305D01*
X423715Y118798D01*
X425665Y119606D01*
X427775Y119606D01*
X429725Y118798D01*
X431218Y117305D01*
X432026Y115355D01*
X432026Y113245D01*
X431218Y111295D01*
X429725Y109802D01*
X427775Y108994D01*
X425665Y108994D01*
G37*
%LPD*%
D10*
X406800Y56800D03*
X493200Y56800D03*
X406800Y15000D03*
X493200Y15000D03*
D11*
X861880Y113050D02*
X877120Y113050D01*
X877120Y138450D02*
X861880Y138450D01*
X861880Y163850D02*
X877120Y163850D01*
X877120Y189250D02*
X861880Y189250D01*
X861880Y214650D02*
X877120Y214650D01*
X877120Y240050D02*
X861880Y240050D01*
X861880Y265450D02*
X877120Y265450D01*
X877120Y290850D02*
X861880Y290850D01*
X37620Y87650D02*
X22380Y87650D01*
X22380Y113050D02*
X37620Y113050D01*
X37620Y138450D02*
X22380Y138450D01*
X22380Y163850D02*
X37620Y163850D01*
X37620Y189250D02*
X22380Y189250D01*
X22380Y214650D02*
X37620Y214650D01*
X37620Y240050D02*
X22380Y240050D01*
X22380Y265450D02*
X37620Y265450D01*
X37620Y290850D02*
X22380Y290850D01*
X22380Y316250D02*
X37620Y316250D01*
D12*
X337820Y60960D03*
X363220Y132080D03*
X622300Y81280D03*
D13*
X532130Y267970D03*
X496570Y327660D03*
X490220Y321310D03*
X502920Y321310D03*
X509270Y327660D03*
X515620Y321310D03*
X521970Y327660D03*
X78740Y101600D03*
X138430Y101600D03*
X83820Y228600D03*
D14*
X106680Y92710D03*
X106680Y82550D03*
X96520Y82550D03*
X96520Y92710D03*
X96520Y102870D03*
X109220Y237490D03*
X109220Y207010D03*
X115570Y214630D03*
X109220Y222250D03*
X115570Y229870D03*
D15*
X186690Y167640D03*
D13*
X219710Y168910D03*
X218440Y160020D03*
D14*
X205740Y99060D03*
X214630Y104140D03*
X214630Y93980D03*
X214630Y83820D03*
X205740Y88900D03*
X205740Y78740D03*
X214630Y73660D03*
X769620Y314960D03*
X518160Y46990D03*
X528320Y46990D03*
X528320Y36830D03*
X518160Y36830D03*
X534670Y27940D03*
X542290Y20320D03*
X615950Y36830D03*
X615950Y26670D03*
X595630Y26670D03*
D16*
X637540Y247650D03*
X656590Y247650D03*
X656590Y228600D03*
X637540Y228600D03*
D17*
X454660Y74930D03*
D14*
X426720Y114300D03*
X485140Y116840D03*
D18*
X193040Y293370D03*
X193040Y283210D03*
X182880Y283210D03*
X182880Y293370D03*
D14*
X67310Y323850D03*
X67310Y334010D03*
X87630Y334010D03*
X97790Y334010D03*
X107950Y334010D03*
X77470Y323850D03*
X77470Y334010D03*
X87630Y323850D03*
X97790Y323850D03*
X107950Y323850D03*
X67310Y313690D03*
X77470Y313690D03*
X67310Y303530D03*
X77470Y303530D03*
X87630Y303530D03*
X87630Y313690D03*
X107950Y313690D03*
X118110Y313690D03*
X128270Y313690D03*
X97790Y303530D03*
X97790Y313690D03*
X107950Y303530D03*
X118110Y303530D03*
X128270Y303530D03*
X87630Y293370D03*
X107950Y293370D03*
X118110Y293370D03*
X128270Y293370D03*
X97790Y293370D03*
X67310Y293370D03*
X77470Y293370D03*
X444500Y227330D03*
X444500Y217170D03*
X454660Y217170D03*
X454660Y227330D03*
X118110Y334010D03*
X128270Y334010D03*
X118110Y323850D03*
X128270Y323850D03*
D13*
X554990Y262890D03*
X490220Y304800D03*
X496570Y311150D03*
X502920Y304800D03*
X509270Y311150D03*
X515620Y304800D03*
X521970Y311150D03*
D14*
X185420Y104140D03*
X194310Y99060D03*
X194310Y88900D03*
X185420Y93980D03*
X185420Y83820D03*
X185420Y73660D03*
X194310Y78740D03*
X603250Y80010D03*
X593090Y80010D03*
X593090Y90170D03*
X603250Y90170D03*
X603250Y100330D03*
X582930Y100330D03*
X582930Y90170D03*
X582930Y80010D03*
X582930Y69850D03*
X593090Y69850D03*
X603250Y69850D03*
X593090Y100330D03*
X190500Y210820D03*
D19*
X435610Y138430D03*
D20*
X473710Y138430D01*
D19*
X473710Y138430D03*
D13*
X129540Y151130D03*
D21*
X78740Y151130D01*
D13*
X78740Y151130D03*
X260350Y208280D03*
D21*
X260350Y194310D02*
X269240Y185420D01*
X260350Y194310D02*
X260350Y208280D01*
D13*
X269240Y185420D03*
D14*
X118110Y116840D03*
X118110Y106680D03*
X118110Y96520D03*
X118110Y86360D03*
X127000Y101600D03*
X127000Y91440D03*
X130810Y377190D03*
X130810Y367030D03*
X130810Y387350D03*
X151130Y387350D03*
X161290Y387350D03*
X171450Y387350D03*
X140970Y377190D03*
X140970Y387350D03*
X151130Y377190D03*
X161290Y377190D03*
X171450Y377190D03*
X130810Y356870D03*
X191770Y387350D03*
X201930Y387350D03*
X212090Y387350D03*
X181610Y377190D03*
X181610Y387350D03*
X191770Y377190D03*
X201930Y377190D03*
X212090Y377190D03*
X232410Y387350D03*
X242570Y387350D03*
X222250Y377190D03*
X222250Y387350D03*
X232410Y377190D03*
X242570Y377190D03*
X222250Y365760D03*
X212090Y365760D03*
D18*
X252730Y257810D03*
D21*
X259080Y257810D01*
X264160Y262890D01*
X264160Y372110D01*
X259080Y377190D02*
X242570Y377190D01*
X259080Y377190D02*
X264160Y372110D01*
D18*
X248920Y166370D03*
D21*
X237490Y177800D01*
X237490Y209550D01*
D18*
X237490Y209550D03*
X193040Y232480D03*
D21*
X193040Y252305D01*
X182521Y262824D01*
D22*
X182521Y262824D03*
D14*
X391160Y111760D03*
X401320Y111760D03*
X411480Y111760D03*
X411480Y101600D03*
X401320Y101600D03*
X391160Y101600D03*
X391160Y91440D03*
X391160Y81280D03*
X401320Y81280D03*
X411480Y81280D03*
X411480Y91440D03*
X401320Y91440D03*
X412750Y294640D03*
X422910Y294640D03*
X433070Y284480D03*
X422910Y284480D03*
X412750Y284480D03*
X412750Y274320D03*
X412750Y264160D03*
X422910Y264160D03*
X433070Y264160D03*
X433070Y274320D03*
X422910Y274320D03*
X433070Y294640D03*
X454660Y97790D03*
D23*
X450850Y101600D01*
X411480Y101600D01*
D14*
X381000Y101600D03*
X381000Y111760D03*
X381000Y121920D03*
X391160Y121920D03*
X401320Y121920D03*
X411480Y121920D03*
X391160Y142240D03*
X401320Y142240D03*
X411480Y142240D03*
X381000Y132080D03*
X381000Y142240D03*
X381000Y152400D03*
X391160Y132080D03*
X401320Y132080D03*
X411480Y132080D03*
X391160Y152400D03*
X401320Y152400D03*
X411480Y152400D03*
X381000Y81280D03*
X381000Y91440D03*
X546100Y83820D03*
X556260Y83820D03*
X566420Y83820D03*
X546100Y93980D03*
X556260Y93980D03*
X566420Y93980D03*
X546100Y104140D03*
X556260Y104140D03*
X566420Y104140D03*
X535940Y83820D03*
X535940Y93980D03*
X535940Y104140D03*
X505460Y104140D03*
X515620Y104140D03*
X525780Y104140D03*
X505460Y93980D03*
X515620Y93980D03*
X525780Y93980D03*
X505460Y83820D03*
X515620Y83820D03*
X525780Y83820D03*
X495300Y83820D03*
X495300Y93980D03*
X495300Y104140D03*
X412750Y340360D03*
X422910Y340360D03*
X433070Y330200D03*
X422910Y330200D03*
X412750Y330200D03*
X412750Y320040D03*
X412750Y309880D03*
X422910Y309880D03*
X433070Y309880D03*
X433070Y320040D03*
X422910Y320040D03*
X433070Y340360D03*
X412750Y387350D03*
X422910Y387350D03*
X433070Y377190D03*
X422910Y377190D03*
X412750Y377190D03*
X412750Y367030D03*
X412750Y356870D03*
X422910Y356870D03*
X433070Y356870D03*
X433070Y367030D03*
X422910Y367030D03*
X433070Y387350D03*
D18*
X138430Y280670D03*
X138430Y270510D03*
D24*
X138430Y280670D01*
X138430Y270510D02*
X186690Y222250D01*
X370840Y222250D01*
X412750Y264160D01*
D14*
X605790Y26670D03*
D18*
X213360Y275590D03*
X252730Y289560D03*
D21*
X227330Y289560D02*
X213360Y275590D01*
X227330Y289560D02*
X252730Y289560D01*
D25*
X210820Y210820D03*
M02*
