G04 EAGLE Gerber RS-274X export*
G75*
%MOMM*%
%FSLAX34Y34*%
%LPD*%
%INTop Copper*%
%IPPOS*%
%AMOC8*
5,1,8,0,0,1.08239X$1,22.5*%
G01*
%ADD10R,0.900000X0.700000*%
%ADD11R,0.700000X0.900000*%
%ADD12R,1.000000X1.100000*%
%ADD13R,0.355600X1.676400*%
%ADD14C,1.108000*%
%ADD15R,0.600000X1.150000*%
%ADD16R,0.300000X1.150000*%
%ADD17R,0.600000X0.700000*%
%ADD18R,0.700000X0.600000*%
%ADD19C,1.524000*%
%ADD20P,2.336880X8X22.500000*%
%ADD21R,0.558800X0.977900*%
%ADD22R,1.473200X0.558800*%
%ADD23R,1.154800X0.229200*%
%ADD24R,0.229200X1.154800*%
%ADD25R,1.800000X1.800000*%
%ADD26R,0.900000X0.900000*%
%ADD27R,1.500000X0.900000*%
%ADD28R,0.900000X1.500000*%
%ADD29R,1.550000X2.330000*%
%ADD30R,1.800000X1.600000*%
%ADD31R,4.749800X13.995400*%
%ADD32R,1.500000X1.300000*%
%ADD33R,0.812800X0.254000*%
%ADD34R,0.254000X0.812800*%
%ADD35R,1.752600X1.752600*%
%ADD36C,0.158241*%
%ADD37C,0.381000*%
%ADD38C,0.534000*%
%ADD39C,0.661000*%
%ADD40C,1.143000*%
%ADD41C,0.254000*%
%ADD42C,1.524000*%
%ADD43C,0.480000*%
%ADD44C,0.762000*%
%ADD45C,0.508000*%
%ADD46C,0.090000*%
%ADD47C,0.630000*%
%ADD48C,0.304800*%
%ADD49C,0.680000*%
%ADD50C,0.152400*%
%ADD51C,0.580000*%
%ADD52C,0.780000*%

G36*
X151146Y69474D02*
X151146Y69474D01*
X151167Y69472D01*
X152257Y69579D01*
X152287Y69589D01*
X152331Y69594D01*
X153379Y69912D01*
X153406Y69927D01*
X153448Y69940D01*
X154414Y70456D01*
X154437Y70477D01*
X154476Y70498D01*
X155323Y71193D01*
X155342Y71218D01*
X155375Y71245D01*
X156070Y72092D01*
X156084Y72120D01*
X156112Y72154D01*
X156628Y73120D01*
X156636Y73150D01*
X156657Y73189D01*
X156975Y74237D01*
X156977Y74269D01*
X156989Y74311D01*
X157096Y75401D01*
X157094Y75417D01*
X157098Y75438D01*
X157098Y147809D01*
X157229Y149141D01*
X157612Y150403D01*
X158234Y151567D01*
X159071Y152587D01*
X160091Y153424D01*
X161255Y154046D01*
X162517Y154429D01*
X163867Y154562D01*
X163870Y154562D01*
X163873Y154562D01*
X164720Y154658D01*
X164753Y154669D01*
X164803Y154677D01*
X165609Y154958D01*
X165638Y154977D01*
X165685Y154995D01*
X166408Y155449D01*
X166432Y155474D01*
X166474Y155502D01*
X166652Y155680D01*
X166666Y155702D01*
X166686Y155718D01*
X166711Y155775D01*
X166744Y155827D01*
X166746Y155853D01*
X166757Y155877D01*
X166754Y155938D01*
X166760Y156000D01*
X166751Y156024D01*
X166750Y156050D01*
X166720Y156104D01*
X166698Y156162D01*
X166680Y156179D01*
X166667Y156202D01*
X166617Y156237D01*
X166571Y156279D01*
X166547Y156287D01*
X166526Y156302D01*
X166441Y156318D01*
X166405Y156329D01*
X166395Y156327D01*
X166383Y156329D01*
X132628Y156329D01*
X132603Y156323D01*
X132577Y156326D01*
X132519Y156304D01*
X132459Y156290D01*
X132439Y156273D01*
X132415Y156264D01*
X132373Y156219D01*
X132325Y156180D01*
X132315Y156156D01*
X132297Y156137D01*
X132280Y156078D01*
X132255Y156021D01*
X132255Y155996D01*
X132248Y155971D01*
X132259Y155910D01*
X132261Y155848D01*
X132273Y155826D01*
X132278Y155800D01*
X132326Y155729D01*
X132344Y155696D01*
X132352Y155690D01*
X132359Y155680D01*
X134751Y153288D01*
X134751Y148972D01*
X132848Y147069D01*
X132821Y147026D01*
X132786Y146988D01*
X132776Y146953D01*
X132757Y146922D01*
X132752Y146871D01*
X132737Y146822D01*
X132744Y146786D01*
X132740Y146749D01*
X132758Y146702D01*
X132767Y146651D01*
X132791Y146616D01*
X132802Y146587D01*
X132824Y146567D01*
X132848Y146531D01*
X133039Y146340D01*
X133039Y140674D01*
X133056Y140600D01*
X133069Y140525D01*
X133076Y140515D01*
X133078Y140505D01*
X133102Y140476D01*
X133150Y140405D01*
X142161Y131394D01*
X142161Y128341D01*
X142172Y128291D01*
X142174Y128240D01*
X142192Y128208D01*
X142200Y128172D01*
X142233Y128133D01*
X142257Y128088D01*
X142287Y128067D01*
X142310Y128039D01*
X142336Y128027D01*
X143891Y126472D01*
X143891Y117368D01*
X142402Y115879D01*
X134271Y115879D01*
X134221Y115868D01*
X134170Y115866D01*
X134138Y115848D01*
X134102Y115840D01*
X134063Y115807D01*
X134018Y115783D01*
X133997Y115753D01*
X133969Y115730D01*
X133948Y115683D01*
X133918Y115641D01*
X133910Y115599D01*
X133898Y115571D01*
X133898Y115554D01*
X133898Y115552D01*
X133898Y115538D01*
X133891Y115499D01*
X133891Y107208D01*
X133589Y106906D01*
X133549Y106841D01*
X133505Y106779D01*
X133503Y106767D01*
X133498Y106759D01*
X133494Y106722D01*
X133478Y106637D01*
X133478Y81445D01*
X131915Y79882D01*
X111925Y79882D01*
X111886Y79921D01*
X111886Y109220D01*
X111885Y109222D01*
X111886Y109224D01*
X111866Y109267D01*
X111848Y109311D01*
X111846Y109311D01*
X111845Y109313D01*
X111760Y109346D01*
X110362Y109346D01*
X110362Y111252D01*
X110351Y111302D01*
X110349Y111353D01*
X110331Y111385D01*
X110323Y111421D01*
X110290Y111460D01*
X110266Y111505D01*
X110236Y111526D01*
X110213Y111554D01*
X110166Y111575D01*
X110124Y111605D01*
X110082Y111613D01*
X110054Y111625D01*
X110024Y111624D01*
X109982Y111632D01*
X100495Y111632D01*
X98932Y113195D01*
X98932Y121915D01*
X98926Y121940D01*
X98929Y121966D01*
X98907Y122024D01*
X98893Y122084D01*
X98876Y122104D01*
X98867Y122128D01*
X98822Y122170D01*
X98783Y122217D01*
X98759Y122228D01*
X98740Y122246D01*
X98681Y122263D01*
X98624Y122288D01*
X98599Y122287D01*
X98574Y122295D01*
X98513Y122284D01*
X98451Y122282D01*
X98429Y122269D01*
X98403Y122265D01*
X98332Y122217D01*
X98299Y122199D01*
X98293Y122191D01*
X98283Y122184D01*
X96552Y120453D01*
X94472Y118373D01*
X94432Y118308D01*
X94388Y118246D01*
X94386Y118234D01*
X94381Y118226D01*
X94377Y118189D01*
X94361Y118104D01*
X94361Y117368D01*
X94102Y117109D01*
X94075Y117065D01*
X94040Y117028D01*
X94030Y116993D01*
X94011Y116962D01*
X94006Y116911D01*
X93991Y116862D01*
X93998Y116826D01*
X93994Y116789D01*
X94012Y116742D01*
X94021Y116691D01*
X94045Y116656D01*
X94056Y116627D01*
X94078Y116606D01*
X94102Y116571D01*
X94361Y116312D01*
X94361Y107239D01*
X92841Y105719D01*
X84768Y105719D01*
X83279Y107208D01*
X83279Y115499D01*
X83268Y115549D01*
X83266Y115600D01*
X83248Y115632D01*
X83240Y115668D01*
X83207Y115707D01*
X83183Y115752D01*
X83153Y115773D01*
X83130Y115801D01*
X83083Y115822D01*
X83041Y115852D01*
X82999Y115860D01*
X82971Y115872D01*
X82941Y115871D01*
X82899Y115879D01*
X74768Y115879D01*
X73279Y117368D01*
X73279Y126472D01*
X74768Y127961D01*
X75369Y127961D01*
X75419Y127972D01*
X75470Y127974D01*
X75502Y127992D01*
X75538Y128000D01*
X75577Y128033D01*
X75622Y128057D01*
X75643Y128087D01*
X75671Y128110D01*
X75692Y128157D01*
X75722Y128199D01*
X75730Y128241D01*
X75742Y128269D01*
X75741Y128299D01*
X75749Y128341D01*
X75749Y134259D01*
X75738Y134309D01*
X75736Y134360D01*
X75718Y134392D01*
X75710Y134428D01*
X75677Y134467D01*
X75653Y134512D01*
X75623Y134533D01*
X75600Y134561D01*
X75553Y134582D01*
X75511Y134612D01*
X75469Y134620D01*
X75441Y134632D01*
X75411Y134631D01*
X75369Y134639D01*
X47293Y134639D01*
X47232Y134625D01*
X47168Y134618D01*
X47148Y134605D01*
X47125Y134600D01*
X47076Y134559D01*
X47022Y134525D01*
X47007Y134503D01*
X46991Y134490D01*
X46976Y134455D01*
X46942Y134405D01*
X46234Y132694D01*
X43376Y129836D01*
X39641Y128289D01*
X20359Y128289D01*
X16624Y129836D01*
X13766Y132694D01*
X12219Y136429D01*
X12219Y140471D01*
X13766Y144206D01*
X16624Y147064D01*
X20359Y148611D01*
X39641Y148611D01*
X43376Y147064D01*
X46234Y144206D01*
X46942Y142495D01*
X46979Y142444D01*
X47010Y142388D01*
X47029Y142374D01*
X47043Y142355D01*
X47099Y142325D01*
X47151Y142288D01*
X47178Y142283D01*
X47196Y142273D01*
X47234Y142272D01*
X47293Y142261D01*
X85021Y142261D01*
X85071Y142272D01*
X85122Y142274D01*
X85154Y142292D01*
X85190Y142300D01*
X85229Y142333D01*
X85274Y142357D01*
X85295Y142387D01*
X85323Y142410D01*
X85344Y142457D01*
X85374Y142499D01*
X85382Y142541D01*
X85394Y142569D01*
X85393Y142599D01*
X85401Y142641D01*
X85401Y146340D01*
X86890Y147829D01*
X92550Y147829D01*
X92701Y147678D01*
X92744Y147651D01*
X92782Y147616D01*
X92817Y147606D01*
X92848Y147587D01*
X92899Y147582D01*
X92948Y147567D01*
X92984Y147574D01*
X93021Y147570D01*
X93068Y147588D01*
X93119Y147597D01*
X93154Y147621D01*
X93183Y147632D01*
X93203Y147654D01*
X93239Y147678D01*
X93390Y147829D01*
X98529Y147829D01*
X98579Y147840D01*
X98630Y147842D01*
X98662Y147860D01*
X98698Y147868D01*
X98737Y147901D01*
X98782Y147925D01*
X98803Y147955D01*
X98831Y147978D01*
X98852Y148025D01*
X98882Y148067D01*
X98890Y148109D01*
X98902Y148137D01*
X98901Y148167D01*
X98909Y148209D01*
X98909Y152558D01*
X112031Y165680D01*
X112045Y165702D01*
X112064Y165718D01*
X112090Y165775D01*
X112122Y165827D01*
X112125Y165853D01*
X112135Y165877D01*
X112133Y165938D01*
X112139Y166000D01*
X112130Y166024D01*
X112129Y166050D01*
X112099Y166104D01*
X112077Y166162D01*
X112058Y166179D01*
X112046Y166202D01*
X111996Y166237D01*
X111950Y166279D01*
X111925Y166287D01*
X111904Y166302D01*
X111820Y166318D01*
X111784Y166329D01*
X111774Y166327D01*
X111762Y166329D01*
X111492Y166329D01*
X98909Y178912D01*
X98909Y181991D01*
X98898Y182041D01*
X98896Y182092D01*
X98878Y182124D01*
X98870Y182160D01*
X98837Y182199D01*
X98813Y182244D01*
X98783Y182265D01*
X98760Y182293D01*
X98713Y182314D01*
X98671Y182344D01*
X98629Y182352D01*
X98601Y182364D01*
X98571Y182363D01*
X98529Y182371D01*
X93390Y182371D01*
X93239Y182522D01*
X93196Y182549D01*
X93158Y182584D01*
X93123Y182594D01*
X93092Y182613D01*
X93041Y182618D01*
X92992Y182633D01*
X92956Y182626D01*
X92919Y182630D01*
X92872Y182612D01*
X92821Y182603D01*
X92786Y182579D01*
X92757Y182568D01*
X92737Y182546D01*
X92701Y182522D01*
X92550Y182371D01*
X86890Y182371D01*
X85401Y183860D01*
X85401Y185039D01*
X85390Y185089D01*
X85388Y185140D01*
X85370Y185172D01*
X85362Y185208D01*
X85329Y185247D01*
X85305Y185292D01*
X85275Y185313D01*
X85252Y185341D01*
X85205Y185362D01*
X85163Y185392D01*
X85121Y185400D01*
X85093Y185412D01*
X85063Y185411D01*
X85021Y185419D01*
X83456Y185419D01*
X83419Y185423D01*
X83334Y185439D01*
X47293Y185439D01*
X47232Y185425D01*
X47168Y185418D01*
X47148Y185405D01*
X47125Y185400D01*
X47076Y185359D01*
X47022Y185325D01*
X47007Y185303D01*
X46991Y185290D01*
X46976Y185255D01*
X46942Y185205D01*
X46234Y183494D01*
X43376Y180636D01*
X39641Y179089D01*
X20359Y179089D01*
X16624Y180636D01*
X13766Y183494D01*
X12219Y187229D01*
X12219Y191271D01*
X13766Y195006D01*
X16624Y197864D01*
X20359Y199411D01*
X39641Y199411D01*
X43376Y197864D01*
X46234Y195006D01*
X46942Y193295D01*
X46979Y193244D01*
X47010Y193188D01*
X47029Y193174D01*
X47043Y193155D01*
X47099Y193125D01*
X47151Y193088D01*
X47178Y193083D01*
X47196Y193073D01*
X47234Y193072D01*
X47293Y193061D01*
X85021Y193061D01*
X85071Y193072D01*
X85122Y193074D01*
X85154Y193092D01*
X85190Y193100D01*
X85229Y193133D01*
X85274Y193157D01*
X85295Y193187D01*
X85323Y193210D01*
X85344Y193257D01*
X85374Y193299D01*
X85382Y193341D01*
X85394Y193369D01*
X85393Y193399D01*
X85401Y193441D01*
X85401Y200108D01*
X85384Y200182D01*
X85371Y200256D01*
X85364Y200266D01*
X85362Y200276D01*
X85338Y200305D01*
X85290Y200376D01*
X83538Y202128D01*
X83474Y202168D01*
X83412Y202212D01*
X83400Y202214D01*
X83391Y202219D01*
X83354Y202223D01*
X83270Y202239D01*
X79848Y202239D01*
X78359Y203728D01*
X78359Y212832D01*
X79848Y214321D01*
X87979Y214321D01*
X88029Y214332D01*
X88080Y214334D01*
X88112Y214352D01*
X88148Y214360D01*
X88187Y214393D01*
X88232Y214417D01*
X88253Y214447D01*
X88281Y214470D01*
X88302Y214517D01*
X88332Y214559D01*
X88340Y214601D01*
X88352Y214629D01*
X88351Y214651D01*
X88352Y214653D01*
X88352Y214663D01*
X88359Y214701D01*
X88359Y222992D01*
X89848Y224481D01*
X97952Y224481D01*
X99441Y222992D01*
X99441Y213888D01*
X99182Y213629D01*
X99155Y213586D01*
X99120Y213548D01*
X99110Y213513D01*
X99091Y213482D01*
X99086Y213431D01*
X99071Y213382D01*
X99078Y213346D01*
X99074Y213309D01*
X99092Y213262D01*
X99101Y213211D01*
X99125Y213176D01*
X99136Y213147D01*
X99158Y213126D01*
X99182Y213091D01*
X99441Y212832D01*
X99441Y208286D01*
X99458Y208212D01*
X99471Y208137D01*
X99478Y208127D01*
X99480Y208117D01*
X99504Y208088D01*
X99552Y208017D01*
X100031Y207538D01*
X100031Y204597D01*
X100042Y204547D01*
X100044Y204496D01*
X100062Y204464D01*
X100070Y204428D01*
X100103Y204389D01*
X100127Y204344D01*
X100157Y204323D01*
X100180Y204295D01*
X100227Y204274D01*
X100269Y204244D01*
X100311Y204236D01*
X100339Y204224D01*
X100369Y204225D01*
X100411Y204217D01*
X105550Y204217D01*
X106554Y203213D01*
X106554Y184150D01*
X106555Y184148D01*
X106554Y184146D01*
X106574Y184103D01*
X106592Y184059D01*
X106594Y184059D01*
X106595Y184057D01*
X106680Y184024D01*
X107039Y184024D01*
X107039Y183860D01*
X106642Y183463D01*
X106602Y183398D01*
X106558Y183336D01*
X106556Y183324D01*
X106551Y183316D01*
X106547Y183279D01*
X106540Y183242D01*
X106538Y183237D01*
X106538Y183231D01*
X106531Y183194D01*
X106531Y182226D01*
X106548Y182152D01*
X106561Y182077D01*
X106568Y182067D01*
X106570Y182057D01*
X106594Y182028D01*
X106642Y181957D01*
X114537Y174062D01*
X114602Y174022D01*
X114664Y173978D01*
X114676Y173976D01*
X114684Y173971D01*
X114721Y173967D01*
X114806Y173951D01*
X161721Y173951D01*
X161771Y173962D01*
X161822Y173964D01*
X161854Y173982D01*
X161890Y173990D01*
X161929Y174023D01*
X161974Y174047D01*
X161995Y174077D01*
X162023Y174100D01*
X162044Y174147D01*
X162074Y174189D01*
X162082Y174231D01*
X162094Y174259D01*
X162093Y174289D01*
X162101Y174331D01*
X162101Y177338D01*
X163590Y178827D01*
X167640Y178827D01*
X167690Y178838D01*
X167741Y178840D01*
X167773Y178858D01*
X167809Y178866D01*
X167848Y178899D01*
X167893Y178923D01*
X167914Y178953D01*
X167942Y178976D01*
X167963Y179023D01*
X167993Y179065D01*
X168001Y179107D01*
X168013Y179135D01*
X168012Y179165D01*
X168020Y179207D01*
X168020Y219710D01*
X168016Y219726D01*
X168018Y219747D01*
X167848Y221482D01*
X167838Y221511D01*
X167833Y221555D01*
X167327Y223222D01*
X167312Y223249D01*
X167299Y223291D01*
X166477Y224828D01*
X166457Y224852D01*
X166436Y224890D01*
X165330Y226237D01*
X165305Y226256D01*
X165277Y226290D01*
X163930Y227396D01*
X163902Y227409D01*
X163868Y227437D01*
X162331Y228259D01*
X162301Y228267D01*
X162262Y228287D01*
X160595Y228793D01*
X160564Y228795D01*
X160522Y228808D01*
X158787Y228978D01*
X158771Y228976D01*
X158750Y228980D01*
X138449Y228980D01*
X137266Y229097D01*
X136146Y229436D01*
X135114Y229988D01*
X134210Y230730D01*
X133468Y231634D01*
X132916Y232666D01*
X132577Y233786D01*
X132460Y234969D01*
X132460Y246380D01*
X132456Y246396D01*
X132458Y246417D01*
X132336Y247656D01*
X132326Y247686D01*
X132322Y247729D01*
X131961Y248920D01*
X131945Y248947D01*
X131932Y248989D01*
X131345Y250087D01*
X131325Y250111D01*
X131304Y250149D01*
X130514Y251111D01*
X130489Y251130D01*
X130461Y251164D01*
X129499Y251954D01*
X129471Y251968D01*
X129437Y251995D01*
X128339Y252582D01*
X128309Y252590D01*
X128270Y252611D01*
X127079Y252972D01*
X127048Y252974D01*
X127006Y252986D01*
X125767Y253108D01*
X125751Y253106D01*
X125730Y253110D01*
X16510Y253110D01*
X16494Y253106D01*
X16473Y253108D01*
X14986Y252962D01*
X14957Y252952D01*
X14913Y252947D01*
X13484Y252514D01*
X13457Y252498D01*
X13415Y252485D01*
X12097Y251781D01*
X12074Y251761D01*
X12035Y251740D01*
X10881Y250792D01*
X10862Y250767D01*
X10828Y250739D01*
X9880Y249585D01*
X9870Y249564D01*
X9864Y249559D01*
X9858Y249546D01*
X9839Y249523D01*
X9135Y248205D01*
X9127Y248175D01*
X9106Y248136D01*
X8673Y246707D01*
X8671Y246676D01*
X8658Y246634D01*
X8512Y245147D01*
X8514Y245131D01*
X8510Y245110D01*
X8510Y77470D01*
X8514Y77454D01*
X8512Y77433D01*
X8658Y75946D01*
X8668Y75917D01*
X8673Y75873D01*
X9106Y74444D01*
X9122Y74417D01*
X9135Y74375D01*
X9839Y73057D01*
X9859Y73034D01*
X9880Y72995D01*
X10828Y71841D01*
X10853Y71822D01*
X10881Y71788D01*
X12035Y70840D01*
X12063Y70827D01*
X12097Y70799D01*
X13415Y70095D01*
X13445Y70087D01*
X13484Y70066D01*
X14913Y69633D01*
X14944Y69631D01*
X14986Y69618D01*
X16473Y69472D01*
X16489Y69474D01*
X16510Y69470D01*
X151130Y69470D01*
X151146Y69474D01*
G37*
G36*
X435639Y236733D02*
X435639Y236733D01*
X435695Y236734D01*
X436543Y236829D01*
X436544Y236829D01*
X436546Y236829D01*
X436709Y236867D01*
X437515Y237149D01*
X437516Y237149D01*
X437517Y237150D01*
X437668Y237223D01*
X438391Y237677D01*
X438392Y237678D01*
X438393Y237678D01*
X438524Y237783D01*
X439127Y238386D01*
X439128Y238387D01*
X439129Y238388D01*
X439233Y238520D01*
X439687Y239242D01*
X439688Y239243D01*
X439689Y239244D01*
X439761Y239395D01*
X440043Y240201D01*
X440043Y240202D01*
X440044Y240203D01*
X440081Y240367D01*
X440176Y241215D01*
X440175Y241244D01*
X440181Y241300D01*
X440181Y387350D01*
X440177Y387376D01*
X440178Y387425D01*
X440031Y388911D01*
X440025Y388934D01*
X440002Y389058D01*
X439568Y390487D01*
X439558Y390508D01*
X439511Y390625D01*
X438807Y391942D01*
X438793Y391961D01*
X438724Y392066D01*
X437777Y393221D01*
X437759Y393237D01*
X437671Y393327D01*
X436516Y394274D01*
X436496Y394286D01*
X436392Y394357D01*
X435075Y395061D01*
X435052Y395069D01*
X434937Y395118D01*
X433508Y395552D01*
X433484Y395555D01*
X433361Y395581D01*
X431875Y395728D01*
X431848Y395726D01*
X431800Y395731D01*
X360680Y395731D01*
X360651Y395727D01*
X360595Y395726D01*
X359464Y395599D01*
X359463Y395599D01*
X359462Y395599D01*
X359298Y395561D01*
X358224Y395185D01*
X358223Y395185D01*
X358222Y395185D01*
X358071Y395112D01*
X357108Y394506D01*
X357107Y394505D01*
X357105Y394505D01*
X356974Y394400D01*
X356170Y393596D01*
X356169Y393595D01*
X356168Y393594D01*
X356064Y393462D01*
X355459Y392499D01*
X355458Y392498D01*
X355457Y392497D01*
X355385Y392346D01*
X355009Y391272D01*
X355009Y391271D01*
X355008Y391269D01*
X354971Y391106D01*
X354844Y389975D01*
X354845Y389946D01*
X354839Y389890D01*
X354839Y246380D01*
X354843Y246354D01*
X354842Y246305D01*
X355013Y244571D01*
X355019Y244548D01*
X355042Y244425D01*
X355548Y242757D01*
X355559Y242736D01*
X355605Y242619D01*
X356427Y241082D01*
X356441Y241063D01*
X356510Y240958D01*
X357615Y239611D01*
X357633Y239595D01*
X357721Y239505D01*
X359068Y238400D01*
X359089Y238388D01*
X359125Y238363D01*
X359127Y238362D01*
X359127Y238361D01*
X359192Y238317D01*
X360729Y237495D01*
X360752Y237488D01*
X360867Y237438D01*
X362535Y236932D01*
X362558Y236929D01*
X362681Y236903D01*
X364415Y236732D01*
X364442Y236734D01*
X364490Y236729D01*
X435610Y236729D01*
X435639Y236733D01*
G37*
G36*
X501537Y200308D02*
X501537Y200308D01*
X501612Y200321D01*
X501622Y200328D01*
X501632Y200330D01*
X501661Y200354D01*
X501732Y200402D01*
X555491Y254161D01*
X556322Y254161D01*
X556377Y254174D01*
X556434Y254178D01*
X556460Y254193D01*
X556490Y254200D01*
X556534Y254236D01*
X556583Y254265D01*
X556600Y254291D01*
X556624Y254310D01*
X556647Y254362D01*
X556678Y254410D01*
X556682Y254440D01*
X556695Y254469D01*
X556693Y254525D01*
X556700Y254582D01*
X556689Y254615D01*
X556688Y254642D01*
X556672Y254672D01*
X556657Y254720D01*
X556267Y255449D01*
X556247Y255473D01*
X556226Y255511D01*
X555515Y256377D01*
X555490Y256396D01*
X555481Y256407D01*
X555480Y256410D01*
X555478Y256411D01*
X555462Y256430D01*
X554596Y257141D01*
X554568Y257155D01*
X554534Y257182D01*
X553546Y257710D01*
X553516Y257718D01*
X553477Y257739D01*
X552405Y258064D01*
X552374Y258066D01*
X552332Y258079D01*
X551217Y258188D01*
X551201Y258186D01*
X551180Y258190D01*
X455930Y258190D01*
X455914Y258186D01*
X455893Y258188D01*
X454158Y258018D01*
X454129Y258008D01*
X454085Y258003D01*
X452418Y257497D01*
X452391Y257482D01*
X452349Y257469D01*
X450812Y256647D01*
X450788Y256627D01*
X450750Y256606D01*
X449403Y255500D01*
X449384Y255475D01*
X449350Y255447D01*
X448244Y254100D01*
X448231Y254072D01*
X448203Y254038D01*
X447381Y252501D01*
X447373Y252471D01*
X447353Y252432D01*
X446847Y250765D01*
X446845Y250734D01*
X446832Y250692D01*
X446662Y248957D01*
X446664Y248941D01*
X446660Y248920D01*
X446660Y246397D01*
X446490Y244461D01*
X445992Y242601D01*
X445178Y240856D01*
X444074Y239278D01*
X442712Y237916D01*
X441134Y236812D01*
X439389Y235998D01*
X437529Y235500D01*
X435593Y235330D01*
X215698Y235330D01*
X215673Y235324D01*
X215647Y235327D01*
X215589Y235305D01*
X215529Y235291D01*
X215509Y235274D01*
X215485Y235265D01*
X215443Y235220D01*
X215395Y235181D01*
X215385Y235157D01*
X215367Y235138D01*
X215350Y235079D01*
X215324Y235022D01*
X215325Y234997D01*
X215318Y234972D01*
X215329Y234911D01*
X215331Y234849D01*
X215343Y234827D01*
X215348Y234801D01*
X215396Y234730D01*
X215414Y234697D01*
X215422Y234691D01*
X215429Y234681D01*
X235298Y214812D01*
X235362Y214772D01*
X235424Y214728D01*
X235437Y214726D01*
X235445Y214721D01*
X235482Y214717D01*
X235567Y214701D01*
X239624Y214701D01*
X242641Y211684D01*
X242641Y207416D01*
X239974Y204750D01*
X239960Y204728D01*
X239941Y204712D01*
X239915Y204655D01*
X239883Y204603D01*
X239880Y204577D01*
X239870Y204553D01*
X239872Y204492D01*
X239866Y204430D01*
X239875Y204406D01*
X239876Y204380D01*
X239906Y204326D01*
X239928Y204268D01*
X239947Y204251D01*
X239959Y204228D01*
X240009Y204193D01*
X240055Y204151D01*
X240080Y204143D01*
X240101Y204128D01*
X240185Y204112D01*
X240221Y204101D01*
X240231Y204103D01*
X240243Y204101D01*
X252943Y204101D01*
X253017Y204118D01*
X253092Y204131D01*
X253102Y204138D01*
X253112Y204140D01*
X253141Y204164D01*
X253212Y204212D01*
X255568Y206568D01*
X255608Y206632D01*
X255652Y206694D01*
X255654Y206707D01*
X255659Y206715D01*
X255663Y206752D01*
X255679Y206837D01*
X255679Y210215D01*
X258415Y212951D01*
X262285Y212951D01*
X265021Y210215D01*
X265021Y206345D01*
X262285Y203609D01*
X258907Y203609D01*
X258833Y203592D01*
X258758Y203579D01*
X258748Y203572D01*
X258738Y203570D01*
X258709Y203546D01*
X258638Y203498D01*
X256282Y201142D01*
X256080Y200940D01*
X256066Y200918D01*
X256046Y200902D01*
X256021Y200845D01*
X255988Y200793D01*
X255986Y200767D01*
X255975Y200743D01*
X255978Y200682D01*
X255972Y200620D01*
X255981Y200596D01*
X255982Y200570D01*
X256011Y200516D01*
X256033Y200458D01*
X256052Y200441D01*
X256065Y200418D01*
X256115Y200383D01*
X256160Y200341D01*
X256185Y200333D01*
X256206Y200318D01*
X256291Y200302D01*
X256327Y200291D01*
X256337Y200293D01*
X256349Y200291D01*
X501463Y200291D01*
X501537Y200308D01*
G37*
G36*
X309930Y253631D02*
X309930Y253631D01*
X309981Y253633D01*
X310013Y253651D01*
X310049Y253659D01*
X310088Y253692D01*
X310133Y253716D01*
X310154Y253746D01*
X310182Y253769D01*
X310203Y253816D01*
X310233Y253858D01*
X310241Y253900D01*
X310253Y253928D01*
X310252Y253958D01*
X310260Y254000D01*
X310260Y392430D01*
X310254Y392455D01*
X310256Y392490D01*
X310193Y392882D01*
X310189Y392892D01*
X310189Y392893D01*
X310179Y392918D01*
X310157Y392995D01*
X309976Y393349D01*
X309951Y393379D01*
X309938Y393398D01*
X309924Y393424D01*
X309917Y393429D01*
X309906Y393445D01*
X309625Y393726D01*
X309593Y393747D01*
X309529Y393796D01*
X309175Y393977D01*
X309138Y393986D01*
X309062Y394013D01*
X308670Y394076D01*
X308644Y394074D01*
X308610Y394080D01*
X257810Y394080D01*
X257794Y394076D01*
X257773Y394078D01*
X256534Y393956D01*
X256504Y393946D01*
X256461Y393942D01*
X255270Y393581D01*
X255243Y393565D01*
X255201Y393552D01*
X254103Y392965D01*
X254079Y392945D01*
X254041Y392924D01*
X253079Y392134D01*
X253060Y392109D01*
X253026Y392081D01*
X252236Y391119D01*
X252222Y391091D01*
X252195Y391057D01*
X251608Y389959D01*
X251600Y389929D01*
X251580Y389890D01*
X251218Y388699D01*
X251217Y388687D01*
X251215Y388681D01*
X251215Y388665D01*
X251204Y388626D01*
X251082Y387387D01*
X251084Y387371D01*
X251080Y387350D01*
X251080Y346727D01*
X250930Y345012D01*
X250489Y343366D01*
X249768Y341821D01*
X248791Y340425D01*
X247585Y339219D01*
X246189Y338242D01*
X244644Y337521D01*
X242998Y337080D01*
X241283Y336930D01*
X228600Y336930D01*
X228584Y336926D01*
X228563Y336928D01*
X227324Y336806D01*
X227294Y336796D01*
X227251Y336792D01*
X226060Y336431D01*
X226033Y336415D01*
X225991Y336402D01*
X224893Y335815D01*
X224869Y335795D01*
X224831Y335774D01*
X223869Y334984D01*
X223850Y334959D01*
X223816Y334931D01*
X223026Y333969D01*
X223012Y333941D01*
X222985Y333907D01*
X222398Y332809D01*
X222390Y332779D01*
X222370Y332740D01*
X222008Y331549D01*
X222006Y331518D01*
X221994Y331476D01*
X221872Y330240D01*
X221781Y329437D01*
X221528Y328713D01*
X221120Y328063D01*
X220577Y327520D01*
X219927Y327112D01*
X219203Y326859D01*
X218419Y326770D01*
X205740Y326770D01*
X205719Y326765D01*
X205690Y326767D01*
X205033Y326680D01*
X204997Y326667D01*
X204937Y326655D01*
X204325Y326401D01*
X204294Y326379D01*
X204239Y326351D01*
X203712Y325948D01*
X203688Y325918D01*
X203642Y325878D01*
X203239Y325351D01*
X203223Y325317D01*
X203189Y325266D01*
X202935Y324653D01*
X202929Y324616D01*
X202910Y324557D01*
X202823Y323900D01*
X202825Y323878D01*
X202820Y323850D01*
X202820Y321331D01*
X202700Y320265D01*
X202352Y319272D01*
X201793Y318381D01*
X201049Y317637D01*
X200158Y317078D01*
X199165Y316730D01*
X198099Y316610D01*
X191770Y316610D01*
X191749Y316605D01*
X191720Y316607D01*
X191063Y316520D01*
X191027Y316507D01*
X190967Y316495D01*
X190355Y316241D01*
X190324Y316219D01*
X190269Y316191D01*
X189742Y315788D01*
X189718Y315758D01*
X189672Y315718D01*
X189269Y315191D01*
X189253Y315157D01*
X189219Y315106D01*
X188965Y314493D01*
X188959Y314456D01*
X188940Y314397D01*
X188853Y313740D01*
X188855Y313718D01*
X188850Y313690D01*
X188850Y299720D01*
X188861Y299670D01*
X188863Y299619D01*
X188881Y299587D01*
X188889Y299551D01*
X188922Y299512D01*
X188946Y299467D01*
X188976Y299446D01*
X188999Y299418D01*
X189046Y299397D01*
X189088Y299367D01*
X189130Y299359D01*
X189158Y299347D01*
X189188Y299348D01*
X189230Y299340D01*
X196825Y299340D01*
X197408Y299263D01*
X197928Y299048D01*
X198375Y298705D01*
X198718Y298258D01*
X198933Y297738D01*
X199010Y297155D01*
X199010Y294640D01*
X199021Y294590D01*
X199023Y294539D01*
X199041Y294507D01*
X199049Y294471D01*
X199082Y294432D01*
X199106Y294387D01*
X199136Y294366D01*
X199159Y294338D01*
X199206Y294317D01*
X199248Y294287D01*
X199290Y294279D01*
X199318Y294267D01*
X199348Y294268D01*
X199390Y294260D01*
X209752Y294260D01*
X209826Y294277D01*
X209901Y294290D01*
X209911Y294297D01*
X209921Y294299D01*
X209950Y294323D01*
X210021Y294371D01*
X213731Y298081D01*
X229557Y298081D01*
X229631Y298098D01*
X229706Y298111D01*
X229716Y298118D01*
X229726Y298120D01*
X229755Y298144D01*
X229826Y298192D01*
X230985Y299351D01*
X233835Y299351D01*
X236414Y296772D01*
X238541Y294645D01*
X238541Y294640D01*
X238552Y294590D01*
X238554Y294539D01*
X238572Y294507D01*
X238580Y294471D01*
X238613Y294432D01*
X238637Y294387D01*
X238667Y294366D01*
X238690Y294338D01*
X238737Y294317D01*
X238779Y294287D01*
X238821Y294279D01*
X238849Y294267D01*
X238879Y294268D01*
X238921Y294260D01*
X249988Y294260D01*
X250062Y294277D01*
X250137Y294290D01*
X250147Y294297D01*
X250157Y294299D01*
X250186Y294323D01*
X250257Y294371D01*
X250596Y294711D01*
X254864Y294711D01*
X255203Y294371D01*
X255268Y294331D01*
X255330Y294287D01*
X255342Y294285D01*
X255350Y294280D01*
X255387Y294276D01*
X255472Y294260D01*
X257789Y294260D01*
X258855Y294140D01*
X259848Y293792D01*
X260739Y293233D01*
X261483Y292489D01*
X262042Y291598D01*
X262390Y290605D01*
X262510Y289539D01*
X262510Y254000D01*
X262521Y253950D01*
X262523Y253899D01*
X262541Y253867D01*
X262549Y253831D01*
X262582Y253792D01*
X262606Y253747D01*
X262636Y253726D01*
X262659Y253698D01*
X262706Y253677D01*
X262748Y253647D01*
X262790Y253639D01*
X262818Y253627D01*
X262848Y253628D01*
X262890Y253620D01*
X309880Y253620D01*
X309930Y253631D01*
G37*
G36*
X191785Y271531D02*
X191785Y271531D01*
X191801Y271529D01*
X191852Y271550D01*
X191905Y271566D01*
X191916Y271578D01*
X191930Y271584D01*
X191962Y271630D01*
X191999Y271671D01*
X192001Y271687D01*
X192010Y271700D01*
X192023Y271780D01*
X192023Y276843D01*
X192103Y277451D01*
X192172Y277617D01*
X192173Y277626D01*
X192178Y277634D01*
X192191Y277714D01*
X192191Y278451D01*
X193363Y279623D01*
X196374Y279623D01*
X196389Y279627D01*
X196405Y279625D01*
X196456Y279646D01*
X196509Y279662D01*
X196520Y279674D01*
X196534Y279680D01*
X196566Y279726D01*
X196603Y279767D01*
X196605Y279783D01*
X196614Y279796D01*
X196627Y279876D01*
X196627Y282887D01*
X196850Y283110D01*
X196858Y283123D01*
X196870Y283133D01*
X196891Y283184D01*
X196918Y283233D01*
X196917Y283249D01*
X196923Y283263D01*
X196913Y283318D01*
X196910Y283374D01*
X196900Y283387D01*
X196898Y283402D01*
X196850Y283468D01*
X196627Y283691D01*
X196627Y287888D01*
X197029Y288290D01*
X197057Y288341D01*
X197090Y288389D01*
X197093Y288406D01*
X197097Y288413D01*
X197096Y288426D01*
X197103Y288469D01*
X197103Y293112D01*
X197087Y293168D01*
X197077Y293225D01*
X197066Y293240D01*
X197064Y293248D01*
X197054Y293256D01*
X197029Y293291D01*
X196627Y293693D01*
X196627Y296704D01*
X196623Y296719D01*
X196625Y296735D01*
X196604Y296786D01*
X196588Y296839D01*
X196576Y296850D01*
X196570Y296864D01*
X196524Y296896D01*
X196483Y296933D01*
X196467Y296935D01*
X196454Y296944D01*
X196374Y296957D01*
X193363Y296957D01*
X193140Y297180D01*
X193127Y297188D01*
X193117Y297200D01*
X193066Y297221D01*
X193017Y297248D01*
X193001Y297247D01*
X192987Y297253D01*
X192932Y297243D01*
X192876Y297240D01*
X192863Y297230D01*
X192848Y297228D01*
X192782Y297180D01*
X192559Y296957D01*
X188362Y296957D01*
X188139Y297180D01*
X188125Y297188D01*
X188116Y297200D01*
X188064Y297221D01*
X188016Y297248D01*
X188000Y297247D01*
X187985Y297253D01*
X187931Y297243D01*
X187875Y297240D01*
X187862Y297230D01*
X187847Y297228D01*
X187781Y297180D01*
X187558Y296957D01*
X183361Y296957D01*
X182189Y298129D01*
X182189Y307915D01*
X183361Y309087D01*
X186690Y309087D01*
X186705Y309091D01*
X186721Y309089D01*
X186772Y309110D01*
X186825Y309126D01*
X186836Y309138D01*
X186850Y309144D01*
X186882Y309190D01*
X186919Y309231D01*
X186921Y309247D01*
X186930Y309260D01*
X186943Y309340D01*
X186943Y316213D01*
X187023Y316821D01*
X187252Y317372D01*
X187615Y317845D01*
X188088Y318209D01*
X188639Y318437D01*
X189247Y318517D01*
X198120Y318517D01*
X198130Y318520D01*
X198153Y318519D01*
X198810Y318605D01*
X198821Y318610D01*
X198874Y318623D01*
X199487Y318876D01*
X199496Y318883D01*
X199544Y318909D01*
X200070Y319313D01*
X200077Y319322D01*
X200117Y319360D01*
X200521Y319886D01*
X200525Y319896D01*
X200554Y319943D01*
X200807Y320556D01*
X200809Y320567D01*
X200825Y320620D01*
X200911Y321277D01*
X200910Y321287D01*
X200913Y321310D01*
X200913Y325106D01*
X201004Y325911D01*
X201267Y326662D01*
X201691Y327337D01*
X202253Y327899D01*
X202928Y328323D01*
X203679Y328586D01*
X204484Y328677D01*
X217170Y328677D01*
X217180Y328680D01*
X217203Y328679D01*
X217860Y328765D01*
X217871Y328770D01*
X217924Y328783D01*
X218537Y329036D01*
X218546Y329043D01*
X218560Y329051D01*
X218569Y329054D01*
X218573Y329058D01*
X218594Y329069D01*
X219120Y329473D01*
X219127Y329482D01*
X219167Y329520D01*
X219571Y330046D01*
X219575Y330056D01*
X219604Y330103D01*
X219857Y330716D01*
X219859Y330727D01*
X219875Y330780D01*
X219961Y331437D01*
X219960Y331447D01*
X219963Y331470D01*
X219963Y336550D01*
X219960Y336560D01*
X219961Y336583D01*
X219875Y337240D01*
X219870Y337251D01*
X219857Y337304D01*
X219604Y337917D01*
X219597Y337926D01*
X219571Y337974D01*
X219167Y338500D01*
X219158Y338507D01*
X219120Y338547D01*
X218594Y338951D01*
X218584Y338955D01*
X218537Y338984D01*
X217924Y339237D01*
X217913Y339239D01*
X217860Y339255D01*
X217203Y339341D01*
X217193Y339340D01*
X217170Y339343D01*
X67310Y339343D01*
X67301Y339341D01*
X67282Y339342D01*
X66151Y339214D01*
X66139Y339209D01*
X66096Y339202D01*
X65022Y338826D01*
X65012Y338819D01*
X64971Y338801D01*
X64649Y338599D01*
X64246Y338346D01*
X64008Y338196D01*
X63999Y338187D01*
X63964Y338161D01*
X63159Y337356D01*
X63153Y337345D01*
X63124Y337312D01*
X62519Y336349D01*
X62515Y336337D01*
X62494Y336298D01*
X62118Y335224D01*
X62118Y335211D01*
X62106Y335169D01*
X61978Y334038D01*
X61980Y334029D01*
X61977Y334010D01*
X61977Y293370D01*
X61979Y293361D01*
X61978Y293342D01*
X62106Y292211D01*
X62111Y292199D01*
X62118Y292156D01*
X62494Y291082D01*
X62501Y291072D01*
X62519Y291031D01*
X63124Y290068D01*
X63133Y290059D01*
X63159Y290024D01*
X63964Y289219D01*
X63975Y289213D01*
X64008Y289184D01*
X64971Y288579D01*
X64983Y288575D01*
X65022Y288554D01*
X66096Y288178D01*
X66109Y288178D01*
X66151Y288166D01*
X67282Y288038D01*
X67291Y288040D01*
X67310Y288037D01*
X150142Y288037D01*
X150198Y288053D01*
X150256Y288063D01*
X150270Y288074D01*
X150278Y288076D01*
X150286Y288086D01*
X150321Y288111D01*
X150381Y288171D01*
X153172Y288171D01*
X153181Y288173D01*
X153190Y288171D01*
X153269Y288190D01*
X153767Y288396D01*
X153776Y288403D01*
X153824Y288429D01*
X154350Y288833D01*
X154357Y288842D01*
X154397Y288880D01*
X154801Y289406D01*
X154805Y289416D01*
X154834Y289463D01*
X155087Y290076D01*
X155089Y290087D01*
X155105Y290140D01*
X155191Y290797D01*
X155190Y290807D01*
X155193Y290830D01*
X155193Y290922D01*
X155177Y290978D01*
X155167Y291036D01*
X155156Y291050D01*
X155154Y291058D01*
X155144Y291066D01*
X155119Y291101D01*
X154789Y291431D01*
X154789Y300089D01*
X155422Y300722D01*
X155427Y300730D01*
X155435Y300735D01*
X155468Y300790D01*
X155473Y300795D01*
X155474Y300799D01*
X155477Y300804D01*
X155501Y300862D01*
X155865Y301335D01*
X156338Y301699D01*
X156889Y301927D01*
X157497Y302007D01*
X166350Y302007D01*
X166683Y301954D01*
X166966Y301810D01*
X167190Y301586D01*
X167334Y301303D01*
X167387Y300970D01*
X167387Y300598D01*
X167403Y300542D01*
X167413Y300484D01*
X167424Y300470D01*
X167426Y300462D01*
X167436Y300454D01*
X167461Y300419D01*
X167791Y300089D01*
X167791Y295002D01*
X167807Y294946D01*
X167817Y294889D01*
X167828Y294875D01*
X167830Y294867D01*
X167840Y294858D01*
X167865Y294823D01*
X167984Y294703D01*
X167987Y294702D01*
X168049Y294657D01*
X168403Y294477D01*
X168405Y294476D01*
X168478Y294452D01*
X168870Y294390D01*
X168882Y294391D01*
X168910Y294387D01*
X176513Y294387D01*
X177121Y294307D01*
X177667Y294081D01*
X177671Y294080D01*
X177673Y294079D01*
X177679Y294078D01*
X177684Y294074D01*
X177764Y294061D01*
X178121Y294061D01*
X179293Y292889D01*
X179293Y288692D01*
X179070Y288469D01*
X179062Y288455D01*
X179050Y288446D01*
X179029Y288394D01*
X179002Y288346D01*
X179003Y288330D01*
X178997Y288315D01*
X179007Y288261D01*
X179010Y288205D01*
X179020Y288192D01*
X179022Y288177D01*
X179070Y288111D01*
X179293Y287888D01*
X179293Y283691D01*
X179070Y283468D01*
X179062Y283454D01*
X179050Y283445D01*
X179029Y283393D01*
X179002Y283344D01*
X179003Y283329D01*
X178997Y283314D01*
X179007Y283260D01*
X179010Y283204D01*
X179020Y283191D01*
X179022Y283176D01*
X179070Y283110D01*
X179293Y282887D01*
X179293Y279876D01*
X179296Y279864D01*
X179295Y279853D01*
X179296Y279851D01*
X179295Y279845D01*
X179316Y279794D01*
X179332Y279741D01*
X179344Y279730D01*
X179350Y279716D01*
X179396Y279684D01*
X179437Y279647D01*
X179453Y279645D01*
X179466Y279636D01*
X179546Y279623D01*
X182557Y279623D01*
X182780Y279400D01*
X182793Y279392D01*
X182803Y279380D01*
X182854Y279359D01*
X182903Y279332D01*
X182919Y279333D01*
X182933Y279327D01*
X182988Y279337D01*
X183044Y279340D01*
X183057Y279350D01*
X183072Y279352D01*
X183138Y279400D01*
X183361Y279623D01*
X187558Y279623D01*
X188730Y278451D01*
X188730Y277904D01*
X188733Y277895D01*
X188731Y277886D01*
X188749Y277807D01*
X188897Y277451D01*
X188977Y276843D01*
X188977Y271780D01*
X188981Y271765D01*
X188979Y271749D01*
X189000Y271698D01*
X189016Y271645D01*
X189028Y271634D01*
X189034Y271620D01*
X189080Y271588D01*
X189121Y271551D01*
X189137Y271549D01*
X189150Y271540D01*
X189230Y271527D01*
X191770Y271527D01*
X191785Y271531D01*
G37*
G36*
X242586Y338714D02*
X242586Y338714D01*
X242607Y338712D01*
X243846Y338834D01*
X243876Y338844D01*
X243919Y338848D01*
X245110Y339210D01*
X245137Y339225D01*
X245179Y339238D01*
X246277Y339825D01*
X246301Y339845D01*
X246339Y339866D01*
X247301Y340656D01*
X247320Y340681D01*
X247354Y340709D01*
X248144Y341671D01*
X248158Y341699D01*
X248185Y341733D01*
X248772Y342831D01*
X248780Y342861D01*
X248801Y342900D01*
X249162Y344091D01*
X249164Y344122D01*
X249176Y344164D01*
X249298Y345403D01*
X249296Y345419D01*
X249300Y345440D01*
X249300Y388620D01*
X249296Y388638D01*
X249298Y388663D01*
X249202Y389510D01*
X249191Y389543D01*
X249183Y389593D01*
X248902Y390399D01*
X248883Y390428D01*
X248865Y390475D01*
X248411Y391198D01*
X248386Y391222D01*
X248358Y391264D01*
X247754Y391868D01*
X247725Y391886D01*
X247688Y391921D01*
X246965Y392375D01*
X246933Y392386D01*
X246889Y392412D01*
X246083Y392693D01*
X246049Y392697D01*
X246000Y392712D01*
X245153Y392808D01*
X245134Y392806D01*
X245110Y392810D01*
X130810Y392810D01*
X130792Y392806D01*
X130767Y392808D01*
X129920Y392712D01*
X129887Y392701D01*
X129837Y392693D01*
X129031Y392412D01*
X129002Y392393D01*
X128955Y392375D01*
X128232Y391921D01*
X128208Y391896D01*
X128166Y391868D01*
X127562Y391264D01*
X127544Y391235D01*
X127509Y391198D01*
X127055Y390475D01*
X127044Y390443D01*
X127018Y390399D01*
X126737Y389593D01*
X126733Y389559D01*
X126718Y389510D01*
X126622Y388663D01*
X126624Y388644D01*
X126620Y388620D01*
X126620Y351790D01*
X126624Y351774D01*
X126622Y351753D01*
X126768Y350266D01*
X126778Y350237D01*
X126783Y350193D01*
X127216Y348764D01*
X127232Y348737D01*
X127245Y348695D01*
X127949Y347377D01*
X127969Y347354D01*
X127990Y347315D01*
X128938Y346161D01*
X128963Y346142D01*
X128991Y346108D01*
X130145Y345160D01*
X130173Y345147D01*
X130207Y345119D01*
X131525Y344415D01*
X131555Y344407D01*
X131594Y344386D01*
X133023Y343953D01*
X133054Y343951D01*
X133096Y343938D01*
X134583Y343792D01*
X134599Y343794D01*
X134620Y343790D01*
X220959Y343790D01*
X221743Y343701D01*
X222467Y343448D01*
X223117Y343040D01*
X223660Y342497D01*
X224068Y341847D01*
X224321Y341123D01*
X224412Y340317D01*
X224415Y340310D01*
X224414Y340301D01*
X224477Y339908D01*
X224491Y339873D01*
X224513Y339795D01*
X224694Y339441D01*
X224719Y339411D01*
X224764Y339345D01*
X225045Y339064D01*
X225077Y339043D01*
X225141Y338994D01*
X225495Y338813D01*
X225532Y338804D01*
X225608Y338777D01*
X226001Y338714D01*
X226026Y338716D01*
X226060Y338710D01*
X242570Y338710D01*
X242586Y338714D01*
G37*
G36*
X361975Y9786D02*
X361975Y9786D01*
X362010Y9784D01*
X362402Y9847D01*
X362438Y9861D01*
X362515Y9883D01*
X362869Y10064D01*
X362899Y10089D01*
X362965Y10134D01*
X363246Y10415D01*
X363267Y10447D01*
X363316Y10511D01*
X363497Y10865D01*
X363506Y10902D01*
X363533Y10978D01*
X363596Y11371D01*
X363594Y11396D01*
X363600Y11430D01*
X363600Y30480D01*
X363594Y30505D01*
X363596Y30540D01*
X363533Y30932D01*
X363519Y30968D01*
X363497Y31045D01*
X363316Y31399D01*
X363291Y31429D01*
X363246Y31495D01*
X362965Y31776D01*
X362933Y31797D01*
X362869Y31846D01*
X362515Y32027D01*
X362478Y32036D01*
X362402Y32063D01*
X362010Y32126D01*
X361984Y32124D01*
X361950Y32130D01*
X151130Y32130D01*
X151109Y32125D01*
X151080Y32127D01*
X150423Y32040D01*
X150387Y32027D01*
X150327Y32015D01*
X149715Y31761D01*
X149684Y31739D01*
X149629Y31711D01*
X149102Y31308D01*
X149078Y31278D01*
X149032Y31238D01*
X148629Y30711D01*
X148613Y30677D01*
X148579Y30626D01*
X148325Y30013D01*
X148319Y29976D01*
X148300Y29917D01*
X148213Y29260D01*
X148215Y29238D01*
X148210Y29210D01*
X148210Y11430D01*
X148216Y11405D01*
X148214Y11371D01*
X148277Y10978D01*
X148291Y10943D01*
X148313Y10865D01*
X148494Y10511D01*
X148519Y10481D01*
X148564Y10415D01*
X148845Y10134D01*
X148877Y10113D01*
X148941Y10064D01*
X149295Y9883D01*
X149332Y9874D01*
X149408Y9847D01*
X149801Y9784D01*
X149826Y9786D01*
X149860Y9780D01*
X361950Y9780D01*
X361975Y9786D01*
G37*
G36*
X474424Y56404D02*
X474424Y56404D01*
X474515Y56411D01*
X474544Y56423D01*
X474576Y56429D01*
X474657Y56471D01*
X474741Y56507D01*
X474773Y56533D01*
X474794Y56544D01*
X474816Y56567D01*
X474872Y56612D01*
X475359Y57099D01*
X476529Y57584D01*
X476629Y57646D01*
X476729Y57705D01*
X476733Y57710D01*
X476738Y57713D01*
X476813Y57804D01*
X476889Y57892D01*
X476891Y57898D01*
X476895Y57903D01*
X476937Y58011D01*
X476981Y58120D01*
X476982Y58128D01*
X476983Y58132D01*
X476984Y58151D01*
X476999Y58287D01*
X476999Y69029D01*
X478171Y70201D01*
X485829Y70201D01*
X486718Y69312D01*
X486792Y69259D01*
X486861Y69199D01*
X486891Y69187D01*
X486917Y69168D01*
X487004Y69141D01*
X487089Y69107D01*
X487130Y69103D01*
X487153Y69096D01*
X487185Y69097D01*
X487256Y69089D01*
X500065Y69089D01*
X512542Y56612D01*
X512616Y56559D01*
X512685Y56499D01*
X512715Y56487D01*
X512741Y56468D01*
X512828Y56441D01*
X512913Y56407D01*
X512954Y56403D01*
X512977Y56396D01*
X513009Y56397D01*
X513080Y56389D01*
X560070Y56389D01*
X560160Y56404D01*
X560251Y56411D01*
X560281Y56423D01*
X560313Y56429D01*
X560393Y56471D01*
X560477Y56507D01*
X560509Y56533D01*
X560530Y56544D01*
X560552Y56567D01*
X560608Y56612D01*
X570768Y66772D01*
X570821Y66846D01*
X570881Y66915D01*
X570893Y66945D01*
X570912Y66971D01*
X570939Y67058D01*
X570973Y67143D01*
X570977Y67184D01*
X570984Y67207D01*
X570983Y67239D01*
X570991Y67310D01*
X570991Y105410D01*
X570977Y105500D01*
X570969Y105591D01*
X570957Y105621D01*
X570952Y105653D01*
X570909Y105733D01*
X570873Y105817D01*
X570847Y105849D01*
X570836Y105870D01*
X570813Y105892D01*
X570768Y105948D01*
X568228Y108488D01*
X568154Y108541D01*
X568085Y108601D01*
X568055Y108613D01*
X568029Y108632D01*
X567942Y108659D01*
X567857Y108693D01*
X567816Y108697D01*
X567793Y108704D01*
X567761Y108703D01*
X567690Y108711D01*
X494030Y108711D01*
X493940Y108697D01*
X493849Y108689D01*
X493819Y108677D01*
X493787Y108672D01*
X493707Y108629D01*
X493623Y108593D01*
X493591Y108567D01*
X493570Y108556D01*
X493548Y108533D01*
X493492Y108488D01*
X490952Y105948D01*
X490899Y105874D01*
X490839Y105805D01*
X490827Y105775D01*
X490808Y105749D01*
X490781Y105662D01*
X490747Y105577D01*
X490743Y105536D01*
X490736Y105513D01*
X490737Y105481D01*
X490729Y105410D01*
X490729Y89215D01*
X488635Y87121D01*
X481330Y87121D01*
X481240Y87107D01*
X481149Y87099D01*
X481119Y87087D01*
X481087Y87082D01*
X481007Y87039D01*
X480923Y87003D01*
X480891Y86977D01*
X480870Y86966D01*
X480848Y86943D01*
X480792Y86898D01*
X474442Y80548D01*
X474389Y80474D01*
X474329Y80405D01*
X474317Y80375D01*
X474298Y80349D01*
X474271Y80262D01*
X474237Y80177D01*
X474233Y80136D01*
X474226Y80113D01*
X474227Y80081D01*
X474219Y80010D01*
X474219Y77785D01*
X470632Y74198D01*
X470579Y74124D01*
X470519Y74055D01*
X470507Y74025D01*
X470488Y73999D01*
X470461Y73912D01*
X470427Y73827D01*
X470423Y73786D01*
X470416Y73763D01*
X470417Y73731D01*
X470409Y73660D01*
X470409Y69936D01*
X470424Y69846D01*
X470431Y69755D01*
X470443Y69725D01*
X470449Y69693D01*
X470491Y69613D01*
X470527Y69529D01*
X470553Y69497D01*
X470564Y69476D01*
X470587Y69454D01*
X470632Y69398D01*
X471001Y69029D01*
X471001Y57150D01*
X471004Y57130D01*
X471002Y57111D01*
X471024Y57009D01*
X471040Y56907D01*
X471050Y56890D01*
X471054Y56870D01*
X471107Y56781D01*
X471156Y56690D01*
X471170Y56676D01*
X471180Y56659D01*
X471259Y56592D01*
X471334Y56521D01*
X471352Y56512D01*
X471367Y56499D01*
X471463Y56460D01*
X471557Y56417D01*
X471577Y56415D01*
X471595Y56407D01*
X471762Y56389D01*
X474334Y56389D01*
X474424Y56404D01*
G37*
G36*
X428430Y56527D02*
X428430Y56527D01*
X428496Y56529D01*
X428539Y56547D01*
X428586Y56555D01*
X428643Y56589D01*
X428703Y56614D01*
X428738Y56645D01*
X428779Y56670D01*
X428821Y56721D01*
X428869Y56765D01*
X428891Y56807D01*
X428920Y56844D01*
X428941Y56906D01*
X428972Y56965D01*
X428980Y57019D01*
X428992Y57056D01*
X428991Y57096D01*
X428999Y57150D01*
X428999Y69029D01*
X429708Y69738D01*
X429733Y69773D01*
X429764Y69801D01*
X429796Y69864D01*
X429837Y69922D01*
X429847Y69963D01*
X429867Y70001D01*
X429880Y70091D01*
X429893Y70139D01*
X429890Y70160D01*
X429894Y70186D01*
X429894Y76200D01*
X429887Y76242D01*
X429889Y76284D01*
X429867Y76351D01*
X429855Y76421D01*
X429833Y76457D01*
X429820Y76498D01*
X429766Y76571D01*
X429740Y76614D01*
X429724Y76627D01*
X429708Y76648D01*
X417194Y89163D01*
X417194Y156210D01*
X417183Y156275D01*
X417181Y156341D01*
X417163Y156384D01*
X417155Y156431D01*
X417121Y156488D01*
X417096Y156548D01*
X417065Y156583D01*
X417040Y156624D01*
X416989Y156666D01*
X416945Y156714D01*
X416903Y156736D01*
X416866Y156765D01*
X416804Y156786D01*
X416745Y156817D01*
X416691Y156825D01*
X416654Y156837D01*
X416614Y156836D01*
X416560Y156844D01*
X377190Y156844D01*
X377125Y156833D01*
X377059Y156831D01*
X377016Y156813D01*
X376969Y156805D01*
X376912Y156771D01*
X376852Y156746D01*
X376817Y156715D01*
X376776Y156690D01*
X376735Y156639D01*
X376686Y156595D01*
X376664Y156553D01*
X376635Y156516D01*
X376614Y156454D01*
X376583Y156395D01*
X376575Y156341D01*
X376563Y156304D01*
X376564Y156264D01*
X376556Y156210D01*
X376556Y77470D01*
X376567Y77405D01*
X376569Y77339D01*
X376587Y77296D01*
X376595Y77249D01*
X376629Y77192D01*
X376654Y77132D01*
X376685Y77097D01*
X376710Y77056D01*
X376761Y77015D01*
X376805Y76966D01*
X376847Y76944D01*
X376884Y76915D01*
X376946Y76894D01*
X377005Y76863D01*
X377059Y76855D01*
X377096Y76843D01*
X377136Y76844D01*
X377190Y76836D01*
X415027Y76836D01*
X421477Y70387D01*
X421511Y70362D01*
X421540Y70331D01*
X421603Y70299D01*
X421661Y70258D01*
X421702Y70248D01*
X421740Y70228D01*
X421812Y70218D01*
X423001Y69029D01*
X423001Y58202D01*
X423010Y58149D01*
X423010Y58095D01*
X423030Y58039D01*
X423040Y57981D01*
X423068Y57935D01*
X423086Y57884D01*
X423125Y57839D01*
X423155Y57788D01*
X423197Y57754D01*
X423232Y57713D01*
X423293Y57676D01*
X423329Y57647D01*
X423358Y57637D01*
X423392Y57616D01*
X424641Y57099D01*
X425038Y56702D01*
X425073Y56677D01*
X425102Y56646D01*
X425165Y56614D01*
X425223Y56573D01*
X425264Y56563D01*
X425301Y56543D01*
X425391Y56530D01*
X425440Y56518D01*
X425461Y56520D01*
X425487Y56516D01*
X428365Y56516D01*
X428430Y56527D01*
G37*
G36*
X671948Y214646D02*
X671948Y214646D01*
X672067Y214653D01*
X672105Y214666D01*
X672146Y214671D01*
X672256Y214714D01*
X672369Y214751D01*
X672404Y214773D01*
X672441Y214788D01*
X672537Y214858D01*
X672638Y214921D01*
X672666Y214951D01*
X672699Y214974D01*
X672775Y215066D01*
X672856Y215153D01*
X672876Y215188D01*
X672901Y215219D01*
X672952Y215327D01*
X673010Y215431D01*
X673020Y215471D01*
X673037Y215507D01*
X673059Y215624D01*
X673089Y215739D01*
X673093Y215800D01*
X673097Y215820D01*
X673095Y215840D01*
X673099Y215900D01*
X673099Y261620D01*
X673084Y261738D01*
X673077Y261857D01*
X673064Y261895D01*
X673059Y261936D01*
X673016Y262046D01*
X672979Y262159D01*
X672957Y262194D01*
X672942Y262231D01*
X672873Y262327D01*
X672809Y262428D01*
X672779Y262456D01*
X672756Y262489D01*
X672664Y262565D01*
X672577Y262646D01*
X672542Y262666D01*
X672511Y262691D01*
X672403Y262742D01*
X672299Y262800D01*
X672259Y262810D01*
X672223Y262827D01*
X672106Y262849D01*
X671991Y262879D01*
X671931Y262883D01*
X671911Y262887D01*
X671890Y262885D01*
X671830Y262889D01*
X623570Y262889D01*
X623452Y262874D01*
X623333Y262867D01*
X623295Y262854D01*
X623254Y262849D01*
X623144Y262806D01*
X623031Y262769D01*
X622996Y262747D01*
X622959Y262732D01*
X622863Y262663D01*
X622762Y262599D01*
X622734Y262569D01*
X622701Y262546D01*
X622626Y262454D01*
X622544Y262367D01*
X622524Y262332D01*
X622499Y262301D01*
X622448Y262193D01*
X622390Y262089D01*
X622380Y262049D01*
X622363Y262013D01*
X622341Y261896D01*
X622311Y261781D01*
X622307Y261721D01*
X622303Y261701D01*
X622305Y261680D01*
X622303Y261674D01*
X622304Y261667D01*
X622301Y261620D01*
X622301Y215900D01*
X622316Y215782D01*
X622323Y215663D01*
X622336Y215625D01*
X622341Y215584D01*
X622384Y215474D01*
X622421Y215361D01*
X622443Y215326D01*
X622458Y215289D01*
X622528Y215193D01*
X622591Y215092D01*
X622621Y215064D01*
X622644Y215031D01*
X622736Y214956D01*
X622823Y214874D01*
X622858Y214854D01*
X622889Y214829D01*
X622997Y214778D01*
X623101Y214720D01*
X623141Y214710D01*
X623177Y214693D01*
X623294Y214671D01*
X623409Y214641D01*
X623470Y214637D01*
X623490Y214633D01*
X623510Y214635D01*
X623570Y214631D01*
X671830Y214631D01*
X671948Y214646D01*
G37*
G36*
X600713Y49405D02*
X600713Y49405D01*
X600716Y49404D01*
X600799Y49441D01*
X607149Y55791D01*
X607151Y55794D01*
X607153Y55795D01*
X607186Y55880D01*
X607186Y104140D01*
X607185Y104142D01*
X607186Y104144D01*
X607166Y104187D01*
X607148Y104231D01*
X607146Y104231D01*
X607145Y104233D01*
X607060Y104266D01*
X575310Y104266D01*
X575308Y104265D01*
X575306Y104266D01*
X575263Y104246D01*
X575219Y104228D01*
X575219Y104226D01*
X575217Y104225D01*
X575184Y104140D01*
X575184Y66092D01*
X570141Y61049D01*
X570140Y61046D01*
X570137Y61045D01*
X570104Y60960D01*
X570104Y49530D01*
X570105Y49528D01*
X570104Y49526D01*
X570124Y49483D01*
X570142Y49439D01*
X570144Y49439D01*
X570145Y49437D01*
X570230Y49404D01*
X600710Y49404D01*
X600713Y49405D01*
G37*
G36*
X581725Y297827D02*
X581725Y297827D01*
X581791Y297829D01*
X581834Y297847D01*
X581881Y297855D01*
X581938Y297889D01*
X581998Y297914D01*
X582033Y297945D01*
X582074Y297970D01*
X582116Y298021D01*
X582164Y298065D01*
X582186Y298107D01*
X582215Y298144D01*
X582236Y298206D01*
X582267Y298265D01*
X582275Y298319D01*
X582287Y298356D01*
X582286Y298396D01*
X582294Y298450D01*
X582294Y307340D01*
X582283Y307405D01*
X582281Y307471D01*
X582263Y307514D01*
X582255Y307561D01*
X582221Y307618D01*
X582196Y307678D01*
X582165Y307713D01*
X582140Y307754D01*
X582089Y307796D01*
X582045Y307844D01*
X582003Y307866D01*
X581966Y307895D01*
X581904Y307916D01*
X581845Y307947D01*
X581791Y307955D01*
X581754Y307967D01*
X581714Y307966D01*
X581660Y307974D01*
X566683Y307974D01*
X560518Y314138D01*
X560488Y314160D01*
X560473Y314176D01*
X560470Y314178D01*
X560455Y314194D01*
X560392Y314226D01*
X560334Y314267D01*
X560293Y314277D01*
X560255Y314297D01*
X560166Y314310D01*
X560117Y314323D01*
X560096Y314320D01*
X560070Y314324D01*
X487680Y314324D01*
X487615Y314313D01*
X487549Y314311D01*
X487506Y314293D01*
X487459Y314285D01*
X487402Y314251D01*
X487342Y314226D01*
X487307Y314195D01*
X487266Y314170D01*
X487225Y314119D01*
X487176Y314075D01*
X487154Y314033D01*
X487125Y313996D01*
X487104Y313934D01*
X487073Y313875D01*
X487065Y313821D01*
X487053Y313784D01*
X487053Y313767D01*
X487053Y313766D01*
X487053Y313741D01*
X487046Y313690D01*
X487046Y302260D01*
X487057Y302195D01*
X487059Y302129D01*
X487077Y302086D01*
X487085Y302039D01*
X487119Y301982D01*
X487144Y301922D01*
X487175Y301887D01*
X487200Y301846D01*
X487251Y301805D01*
X487295Y301756D01*
X487337Y301734D01*
X487374Y301705D01*
X487436Y301684D01*
X487495Y301653D01*
X487549Y301645D01*
X487586Y301633D01*
X487626Y301634D01*
X487680Y301626D01*
X561077Y301626D01*
X564702Y298002D01*
X564736Y297977D01*
X564765Y297946D01*
X564828Y297914D01*
X564886Y297873D01*
X564927Y297863D01*
X564965Y297843D01*
X565054Y297830D01*
X565103Y297818D01*
X565124Y297820D01*
X565150Y297816D01*
X581660Y297816D01*
X581725Y297827D01*
G37*
G36*
X183770Y198375D02*
X183770Y198375D01*
X183850Y198389D01*
X183855Y198392D01*
X183859Y198393D01*
X183881Y198410D01*
X183970Y198470D01*
X189601Y204101D01*
X234737Y204101D01*
X234762Y204107D01*
X234788Y204104D01*
X234846Y204126D01*
X234906Y204140D01*
X234926Y204157D01*
X234950Y204166D01*
X234992Y204211D01*
X235039Y204250D01*
X235050Y204274D01*
X235068Y204293D01*
X235085Y204352D01*
X235110Y204409D01*
X235109Y204434D01*
X235117Y204459D01*
X235106Y204520D01*
X235104Y204582D01*
X235091Y204604D01*
X235087Y204630D01*
X235039Y204701D01*
X235021Y204734D01*
X235013Y204740D01*
X235006Y204750D01*
X232339Y207416D01*
X232339Y211473D01*
X232322Y211547D01*
X232309Y211622D01*
X232302Y211632D01*
X232300Y211642D01*
X232276Y211671D01*
X232228Y211742D01*
X213772Y230198D01*
X213708Y230238D01*
X213646Y230282D01*
X213633Y230284D01*
X213625Y230289D01*
X213588Y230293D01*
X213503Y230309D01*
X198311Y230309D01*
X198237Y230292D01*
X198162Y230279D01*
X198152Y230272D01*
X198142Y230270D01*
X198113Y230246D01*
X198042Y230198D01*
X195174Y227329D01*
X190906Y227329D01*
X187889Y230346D01*
X187889Y234206D01*
X187886Y234219D01*
X187888Y234233D01*
X187867Y234303D01*
X187850Y234375D01*
X187841Y234385D01*
X187837Y234398D01*
X187786Y234452D01*
X187740Y234509D01*
X187727Y234514D01*
X187718Y234524D01*
X187649Y234549D01*
X187581Y234580D01*
X187568Y234579D01*
X187555Y234584D01*
X187411Y234574D01*
X187408Y234573D01*
X187328Y234551D01*
X187303Y234538D01*
X187266Y234529D01*
X185259Y233593D01*
X185237Y233576D01*
X185202Y233560D01*
X183389Y232290D01*
X183370Y232269D01*
X183338Y232248D01*
X181772Y230682D01*
X181757Y230658D01*
X181730Y230632D01*
X180460Y228818D01*
X180450Y228792D01*
X180427Y228761D01*
X179491Y226754D01*
X179485Y226727D01*
X179469Y226692D01*
X178896Y224554D01*
X178895Y224526D01*
X178884Y224488D01*
X178691Y222283D01*
X178693Y222268D01*
X178690Y222250D01*
X178690Y205740D01*
X178694Y205724D01*
X178692Y205703D01*
X178838Y204216D01*
X178848Y204187D01*
X178853Y204143D01*
X179111Y203292D01*
X179139Y203243D01*
X179159Y203190D01*
X179182Y203169D01*
X179197Y203142D01*
X179245Y203111D01*
X179286Y203072D01*
X179316Y203063D01*
X179342Y203046D01*
X179398Y203039D01*
X179453Y203023D01*
X179483Y203028D01*
X179514Y203024D01*
X179567Y203043D01*
X179623Y203052D01*
X179652Y203072D01*
X179677Y203081D01*
X179701Y203105D01*
X179743Y203134D01*
X185083Y208473D01*
X185123Y208538D01*
X185167Y208599D01*
X185169Y208612D01*
X185174Y208620D01*
X185178Y208657D01*
X185194Y208742D01*
X185194Y213018D01*
X188302Y216126D01*
X192698Y216126D01*
X195806Y213018D01*
X195806Y208622D01*
X192698Y205514D01*
X188422Y205514D01*
X188348Y205497D01*
X188273Y205484D01*
X188263Y205477D01*
X188253Y205475D01*
X188224Y205451D01*
X188153Y205403D01*
X182341Y199591D01*
X182330Y199574D01*
X182315Y199562D01*
X182285Y199501D01*
X182249Y199444D01*
X182248Y199424D01*
X182239Y199406D01*
X182239Y199339D01*
X182233Y199272D01*
X182240Y199253D01*
X182240Y199233D01*
X182270Y199173D01*
X182295Y199110D01*
X182309Y199096D01*
X182318Y199078D01*
X182401Y199011D01*
X182422Y198992D01*
X182426Y198991D01*
X182430Y198987D01*
X183522Y198404D01*
X183601Y198383D01*
X183679Y198359D01*
X183684Y198360D01*
X183689Y198359D01*
X183770Y198375D01*
G37*
G36*
X561343Y15115D02*
X561343Y15115D01*
X561346Y15114D01*
X561429Y15151D01*
X562699Y16421D01*
X562701Y16424D01*
X562703Y16425D01*
X562736Y16510D01*
X562736Y30480D01*
X562735Y30482D01*
X562736Y30484D01*
X562716Y30527D01*
X562698Y30571D01*
X562696Y30571D01*
X562695Y30573D01*
X562610Y30606D01*
X548692Y30606D01*
X545370Y33928D01*
X545367Y33930D01*
X545366Y33932D01*
X545281Y33965D01*
X545017Y33965D01*
X543845Y35137D01*
X543845Y35401D01*
X543844Y35404D01*
X543845Y35407D01*
X543808Y35490D01*
X543686Y35612D01*
X543686Y43128D01*
X546152Y45594D01*
X560070Y45594D01*
X560072Y45595D01*
X560074Y45594D01*
X560117Y45614D01*
X560161Y45632D01*
X560161Y45634D01*
X560163Y45635D01*
X560196Y45720D01*
X560196Y50800D01*
X560195Y50802D01*
X560196Y50804D01*
X560176Y50847D01*
X560158Y50891D01*
X560156Y50891D01*
X560155Y50893D01*
X560070Y50926D01*
X514350Y50926D01*
X514348Y50925D01*
X514346Y50926D01*
X514303Y50906D01*
X514259Y50888D01*
X514259Y50886D01*
X514257Y50885D01*
X514224Y50800D01*
X514224Y31750D01*
X514225Y31748D01*
X514224Y31746D01*
X514244Y31703D01*
X514262Y31659D01*
X514264Y31659D01*
X514265Y31657D01*
X514350Y31624D01*
X525728Y31624D01*
X542201Y15151D01*
X542204Y15150D01*
X542205Y15147D01*
X542290Y15114D01*
X561340Y15114D01*
X561343Y15115D01*
G37*
G36*
X581662Y311025D02*
X581662Y311025D01*
X581664Y311024D01*
X581707Y311044D01*
X581751Y311062D01*
X581751Y311064D01*
X581753Y311065D01*
X581786Y311150D01*
X581786Y320040D01*
X581785Y320042D01*
X581786Y320044D01*
X581766Y320087D01*
X581748Y320131D01*
X581746Y320131D01*
X581745Y320133D01*
X581660Y320166D01*
X566472Y320166D01*
X556349Y330289D01*
X556346Y330291D01*
X556345Y330293D01*
X556260Y330326D01*
X487680Y330326D01*
X487678Y330325D01*
X487676Y330326D01*
X487633Y330306D01*
X487589Y330288D01*
X487589Y330286D01*
X487587Y330285D01*
X487554Y330200D01*
X487554Y318770D01*
X487555Y318768D01*
X487554Y318766D01*
X487574Y318723D01*
X487592Y318679D01*
X487594Y318679D01*
X487595Y318677D01*
X487680Y318644D01*
X558748Y318644D01*
X566331Y311061D01*
X566334Y311060D01*
X566335Y311057D01*
X566420Y311024D01*
X581660Y311024D01*
X581662Y311025D01*
G37*
G36*
X218442Y69725D02*
X218442Y69725D01*
X218444Y69724D01*
X218487Y69744D01*
X218531Y69762D01*
X218531Y69764D01*
X218533Y69765D01*
X218566Y69850D01*
X218566Y105410D01*
X218565Y105413D01*
X218566Y105416D01*
X218529Y105499D01*
X214719Y109309D01*
X214716Y109311D01*
X214715Y109313D01*
X214630Y109346D01*
X207136Y109346D01*
X207136Y144780D01*
X207135Y144783D01*
X207136Y144786D01*
X207099Y144869D01*
X202019Y149949D01*
X202016Y149951D01*
X202015Y149953D01*
X201930Y149986D01*
X196902Y149986D01*
X195706Y151182D01*
X195706Y157480D01*
X195705Y157482D01*
X195706Y157484D01*
X195686Y157527D01*
X195668Y157571D01*
X195666Y157571D01*
X195665Y157573D01*
X195580Y157606D01*
X193040Y157606D01*
X193038Y157605D01*
X193036Y157606D01*
X192993Y157586D01*
X192949Y157568D01*
X192949Y157566D01*
X192947Y157565D01*
X192914Y157480D01*
X192914Y146050D01*
X192915Y146047D01*
X192914Y146044D01*
X192951Y145961D01*
X196761Y142151D01*
X196764Y142150D01*
X196765Y142147D01*
X196850Y142114D01*
X199264Y142114D01*
X199264Y105410D01*
X199265Y105407D01*
X199264Y105404D01*
X199301Y105321D01*
X201804Y102818D01*
X201804Y76200D01*
X201805Y76197D01*
X201804Y76194D01*
X201841Y76111D01*
X208191Y69761D01*
X208194Y69760D01*
X208195Y69757D01*
X208280Y69724D01*
X218440Y69724D01*
X218442Y69725D01*
G37*
%LPC*%
G36*
X76582Y145919D02*
X76582Y145919D01*
X75293Y147208D01*
X75228Y147248D01*
X75166Y147292D01*
X75154Y147294D01*
X75146Y147299D01*
X75109Y147303D01*
X75024Y147319D01*
X70812Y147319D01*
X58203Y159928D01*
X58138Y159968D01*
X58076Y160012D01*
X58064Y160014D01*
X58056Y160019D01*
X58019Y160023D01*
X57934Y160039D01*
X47293Y160039D01*
X47232Y160025D01*
X47168Y160018D01*
X47148Y160005D01*
X47125Y160000D01*
X47076Y159959D01*
X47022Y159925D01*
X47007Y159903D01*
X46991Y159890D01*
X46976Y159855D01*
X46942Y159805D01*
X46234Y158094D01*
X43376Y155236D01*
X39641Y153689D01*
X20359Y153689D01*
X16624Y155236D01*
X13766Y158094D01*
X12219Y161829D01*
X12219Y165871D01*
X13766Y169606D01*
X16624Y172464D01*
X20359Y174011D01*
X39641Y174011D01*
X43376Y172464D01*
X46234Y169606D01*
X46942Y167895D01*
X46979Y167844D01*
X47010Y167788D01*
X47029Y167774D01*
X47043Y167755D01*
X47099Y167725D01*
X47151Y167688D01*
X47178Y167683D01*
X47196Y167673D01*
X47234Y167672D01*
X47293Y167661D01*
X61248Y167661D01*
X73857Y155052D01*
X73922Y155012D01*
X73984Y154968D01*
X73996Y154966D01*
X74004Y154961D01*
X74041Y154957D01*
X74126Y154941D01*
X75024Y154941D01*
X75098Y154958D01*
X75173Y154971D01*
X75183Y154978D01*
X75193Y154980D01*
X75222Y155004D01*
X75293Y155052D01*
X76582Y156341D01*
X80898Y156341D01*
X83951Y153288D01*
X83951Y148972D01*
X80898Y145919D01*
X76582Y145919D01*
G37*
%LPD*%
G36*
X191773Y69725D02*
X191773Y69725D01*
X191776Y69724D01*
X191859Y69761D01*
X198209Y76111D01*
X198211Y76114D01*
X198213Y76115D01*
X198246Y76200D01*
X198246Y101600D01*
X198245Y101603D01*
X198246Y101606D01*
X198209Y101689D01*
X194436Y105462D01*
X194436Y142240D01*
X194435Y142242D01*
X194436Y142244D01*
X194436Y142245D01*
X194436Y142246D01*
X194399Y142329D01*
X193174Y143554D01*
X193171Y143556D01*
X193170Y143558D01*
X193085Y143591D01*
X192215Y143591D01*
X191043Y144763D01*
X191043Y145633D01*
X191042Y145636D01*
X191043Y145639D01*
X191006Y145722D01*
X190626Y146102D01*
X190626Y156513D01*
X190625Y156515D01*
X190626Y156517D01*
X190606Y156560D01*
X190588Y156604D01*
X190586Y156604D01*
X190585Y156606D01*
X190500Y156639D01*
X187960Y156639D01*
X187958Y156638D01*
X187956Y156639D01*
X187913Y156619D01*
X187869Y156601D01*
X187869Y156599D01*
X187867Y156598D01*
X187834Y156513D01*
X187834Y146102D01*
X187374Y145642D01*
X187372Y145639D01*
X187370Y145638D01*
X187337Y145553D01*
X187337Y144763D01*
X186601Y144027D01*
X186600Y144024D01*
X186597Y144023D01*
X186564Y143938D01*
X186564Y111812D01*
X181521Y106769D01*
X181520Y106766D01*
X181517Y106765D01*
X181484Y106680D01*
X181484Y69850D01*
X181485Y69848D01*
X181484Y69846D01*
X181504Y69803D01*
X181522Y69759D01*
X181524Y69759D01*
X181525Y69757D01*
X181610Y69724D01*
X191770Y69724D01*
X191773Y69725D01*
G37*
G36*
X130812Y82425D02*
X130812Y82425D01*
X130814Y82424D01*
X130857Y82444D01*
X130901Y82462D01*
X130901Y82464D01*
X130903Y82465D01*
X130936Y82550D01*
X130936Y105410D01*
X130935Y105412D01*
X130936Y105414D01*
X130916Y105457D01*
X130898Y105501D01*
X130896Y105501D01*
X130895Y105503D01*
X130810Y105536D01*
X122046Y105536D01*
X122046Y121920D01*
X122045Y121922D01*
X122046Y121924D01*
X122026Y121967D01*
X122008Y122011D01*
X122006Y122011D01*
X122005Y122013D01*
X121920Y122046D01*
X111886Y122046D01*
X111886Y146050D01*
X111885Y146052D01*
X111886Y146054D01*
X111866Y146097D01*
X111848Y146141D01*
X111846Y146141D01*
X111845Y146143D01*
X111760Y146176D01*
X106680Y146176D01*
X106678Y146175D01*
X106676Y146176D01*
X106633Y146156D01*
X106589Y146138D01*
X106589Y146136D01*
X106587Y146135D01*
X106554Y146050D01*
X106554Y122046D01*
X101600Y122046D01*
X101598Y122045D01*
X101596Y122046D01*
X101553Y122026D01*
X101509Y122008D01*
X101509Y122006D01*
X101507Y122005D01*
X101474Y121920D01*
X101474Y114300D01*
X101475Y114298D01*
X101474Y114296D01*
X101494Y114253D01*
X101512Y114209D01*
X101514Y114209D01*
X101515Y114207D01*
X101600Y114174D01*
X112904Y114174D01*
X112904Y109918D01*
X112905Y109915D01*
X112904Y109912D01*
X112941Y109829D01*
X113181Y109589D01*
X113181Y100931D01*
X112941Y100691D01*
X112940Y100688D01*
X112937Y100687D01*
X112904Y100602D01*
X112904Y82550D01*
X112905Y82548D01*
X112904Y82546D01*
X112924Y82503D01*
X112942Y82459D01*
X112944Y82459D01*
X112945Y82457D01*
X113030Y82424D01*
X130810Y82424D01*
X130812Y82425D01*
G37*
%LPC*%
G36*
X20359Y204489D02*
X20359Y204489D01*
X16624Y206036D01*
X13766Y208894D01*
X12219Y212629D01*
X12219Y216671D01*
X13766Y220406D01*
X16624Y223264D01*
X20359Y224811D01*
X39641Y224811D01*
X43376Y223264D01*
X46234Y220406D01*
X47781Y216671D01*
X47781Y212629D01*
X46234Y208894D01*
X43376Y206036D01*
X39641Y204489D01*
X20359Y204489D01*
G37*
%LPD*%
%LPC*%
G36*
X20359Y229889D02*
X20359Y229889D01*
X16624Y231436D01*
X13766Y234294D01*
X12219Y238029D01*
X12219Y242071D01*
X13766Y245806D01*
X16624Y248664D01*
X20359Y250211D01*
X39641Y250211D01*
X43376Y248664D01*
X46234Y245806D01*
X47781Y242071D01*
X47781Y238029D01*
X46234Y234294D01*
X43376Y231436D01*
X39641Y229889D01*
X20359Y229889D01*
G37*
%LPD*%
%LPC*%
G36*
X20359Y77489D02*
X20359Y77489D01*
X16624Y79036D01*
X13766Y81894D01*
X12219Y85629D01*
X12219Y89671D01*
X13766Y93406D01*
X16624Y96264D01*
X20359Y97811D01*
X39641Y97811D01*
X43376Y96264D01*
X46234Y93406D01*
X47781Y89671D01*
X47781Y85629D01*
X46234Y81894D01*
X43376Y79036D01*
X39641Y77489D01*
X20359Y77489D01*
G37*
%LPD*%
G36*
X601919Y22734D02*
X601919Y22734D01*
X601920Y22734D01*
X601964Y22753D01*
X602009Y22772D01*
X602009Y22773D01*
X602010Y22774D01*
X602027Y22819D01*
X602044Y22864D01*
X602044Y22865D01*
X602044Y22866D01*
X602007Y22949D01*
X600484Y24472D01*
X600484Y28868D01*
X603592Y31976D01*
X607988Y31976D01*
X611096Y28868D01*
X611096Y24472D01*
X609573Y22949D01*
X609572Y22948D01*
X609571Y22948D01*
X609554Y22902D01*
X609536Y22858D01*
X609536Y22857D01*
X609536Y22856D01*
X609556Y22812D01*
X609576Y22768D01*
X609577Y22768D01*
X609577Y22767D01*
X609662Y22734D01*
X618490Y22734D01*
X618493Y22735D01*
X618496Y22734D01*
X618579Y22771D01*
X619849Y24041D01*
X619851Y24044D01*
X619853Y24045D01*
X619886Y24130D01*
X619886Y40640D01*
X619885Y40643D01*
X619886Y40646D01*
X619849Y40729D01*
X616039Y44539D01*
X616037Y44540D01*
X616036Y44542D01*
X616035Y44543D01*
X615950Y44576D01*
X590550Y44576D01*
X590548Y44575D01*
X590546Y44576D01*
X590503Y44556D01*
X590459Y44538D01*
X590459Y44536D01*
X590457Y44535D01*
X590424Y44450D01*
X590424Y24130D01*
X590425Y24127D01*
X590424Y24124D01*
X590461Y24041D01*
X591731Y22771D01*
X591734Y22770D01*
X591735Y22767D01*
X591820Y22734D01*
X601918Y22734D01*
X601919Y22734D01*
G37*
%LPC*%
G36*
X119390Y182371D02*
X119390Y182371D01*
X117901Y183860D01*
X117901Y184024D01*
X118110Y184024D01*
X118112Y184025D01*
X118114Y184024D01*
X118157Y184044D01*
X118201Y184062D01*
X118201Y184064D01*
X118203Y184065D01*
X118236Y184150D01*
X118236Y203063D01*
X119390Y204217D01*
X125050Y204217D01*
X125201Y204066D01*
X125244Y204039D01*
X125282Y204004D01*
X125317Y203994D01*
X125348Y203975D01*
X125399Y203970D01*
X125448Y203955D01*
X125484Y203962D01*
X125521Y203958D01*
X125568Y203976D01*
X125619Y203985D01*
X125654Y204009D01*
X125683Y204020D01*
X125703Y204042D01*
X125739Y204066D01*
X125890Y204217D01*
X131550Y204217D01*
X133039Y202728D01*
X133039Y195420D01*
X133056Y195346D01*
X133069Y195271D01*
X133076Y195261D01*
X133078Y195251D01*
X133102Y195223D01*
X133150Y195151D01*
X133166Y195135D01*
X133166Y191453D01*
X133150Y191437D01*
X133110Y191372D01*
X133066Y191310D01*
X133064Y191298D01*
X133059Y191290D01*
X133055Y191253D01*
X133052Y191236D01*
X133046Y191222D01*
X133046Y191207D01*
X133039Y191168D01*
X133039Y183860D01*
X131550Y182371D01*
X125890Y182371D01*
X125739Y182522D01*
X125696Y182549D01*
X125658Y182584D01*
X125623Y182594D01*
X125592Y182613D01*
X125541Y182618D01*
X125492Y182633D01*
X125456Y182626D01*
X125419Y182630D01*
X125372Y182612D01*
X125321Y182603D01*
X125286Y182579D01*
X125257Y182568D01*
X125237Y182546D01*
X125201Y182522D01*
X125050Y182371D01*
X119390Y182371D01*
G37*
%LPD*%
G36*
X45745Y376816D02*
X45745Y376816D01*
X45780Y376814D01*
X46172Y376877D01*
X46208Y376891D01*
X46285Y376913D01*
X46639Y377094D01*
X46669Y377119D01*
X46735Y377164D01*
X47016Y377445D01*
X47037Y377477D01*
X47086Y377541D01*
X47267Y377895D01*
X47276Y377932D01*
X47303Y378008D01*
X47366Y378401D01*
X47364Y378426D01*
X47370Y378460D01*
X47370Y386080D01*
X47364Y386105D01*
X47366Y386140D01*
X47303Y386532D01*
X47289Y386568D01*
X47267Y386645D01*
X47086Y386999D01*
X47061Y387029D01*
X47016Y387095D01*
X46735Y387376D01*
X46703Y387397D01*
X46639Y387446D01*
X46285Y387627D01*
X46248Y387636D01*
X46172Y387663D01*
X45780Y387726D01*
X45754Y387724D01*
X45720Y387730D01*
X29210Y387730D01*
X29189Y387725D01*
X29160Y387727D01*
X28503Y387640D01*
X28467Y387627D01*
X28407Y387615D01*
X27795Y387361D01*
X27764Y387339D01*
X27709Y387311D01*
X27182Y386908D01*
X27158Y386878D01*
X27112Y386838D01*
X26889Y386547D01*
X26709Y386311D01*
X26693Y386277D01*
X26659Y386226D01*
X26405Y385613D01*
X26399Y385576D01*
X26380Y385517D01*
X26293Y384860D01*
X26295Y384838D01*
X26290Y384810D01*
X26290Y378460D01*
X26296Y378435D01*
X26294Y378401D01*
X26357Y378008D01*
X26371Y377973D01*
X26393Y377895D01*
X26574Y377541D01*
X26599Y377511D01*
X26644Y377445D01*
X26925Y377164D01*
X26957Y377143D01*
X27021Y377094D01*
X27375Y376913D01*
X27412Y376904D01*
X27488Y376877D01*
X27881Y376814D01*
X27906Y376816D01*
X27940Y376810D01*
X45720Y376810D01*
X45745Y376816D01*
G37*
G36*
X873865Y21596D02*
X873865Y21596D01*
X873900Y21594D01*
X874292Y21657D01*
X874328Y21671D01*
X874405Y21693D01*
X874759Y21874D01*
X874789Y21899D01*
X874855Y21944D01*
X875136Y22225D01*
X875157Y22257D01*
X875206Y22321D01*
X875387Y22675D01*
X875396Y22712D01*
X875423Y22788D01*
X875486Y23181D01*
X875484Y23206D01*
X875490Y23240D01*
X875490Y30860D01*
X875484Y30885D01*
X875486Y30920D01*
X875423Y31312D01*
X875409Y31348D01*
X875387Y31425D01*
X875206Y31779D01*
X875181Y31809D01*
X875136Y31875D01*
X874855Y32156D01*
X874823Y32177D01*
X874759Y32226D01*
X874405Y32407D01*
X874368Y32416D01*
X874292Y32443D01*
X873900Y32506D01*
X873874Y32504D01*
X873840Y32510D01*
X857330Y32510D01*
X857309Y32505D01*
X857280Y32507D01*
X856623Y32420D01*
X856587Y32407D01*
X856527Y32395D01*
X855915Y32141D01*
X855884Y32119D01*
X855829Y32091D01*
X855302Y31688D01*
X855278Y31658D01*
X855232Y31618D01*
X855009Y31327D01*
X854829Y31091D01*
X854813Y31057D01*
X854779Y31006D01*
X854525Y30393D01*
X854519Y30356D01*
X854500Y30297D01*
X854413Y29640D01*
X854415Y29618D01*
X854410Y29590D01*
X854410Y23240D01*
X854416Y23215D01*
X854414Y23181D01*
X854477Y22788D01*
X854491Y22753D01*
X854513Y22675D01*
X854694Y22321D01*
X854719Y22291D01*
X854764Y22225D01*
X855045Y21944D01*
X855077Y21923D01*
X855141Y21874D01*
X855495Y21693D01*
X855532Y21684D01*
X855608Y21657D01*
X856001Y21594D01*
X856026Y21596D01*
X856060Y21590D01*
X873840Y21590D01*
X873865Y21596D01*
G37*
G36*
X407969Y45929D02*
X407969Y45929D01*
X408010Y45943D01*
X408077Y45954D01*
X409134Y46324D01*
X409155Y46336D01*
X409171Y46340D01*
X409194Y46355D01*
X409235Y46372D01*
X410183Y46968D01*
X410214Y46998D01*
X410270Y47038D01*
X411062Y47830D01*
X411086Y47866D01*
X411132Y47917D01*
X411728Y48865D01*
X411743Y48905D01*
X411776Y48966D01*
X412146Y50023D01*
X412152Y50065D01*
X412171Y50132D01*
X412296Y51244D01*
X412294Y51269D01*
X412299Y51300D01*
X412299Y62300D01*
X412294Y62324D01*
X412296Y62356D01*
X412171Y63469D01*
X412157Y63510D01*
X412146Y63577D01*
X411776Y64634D01*
X411754Y64671D01*
X411728Y64735D01*
X411132Y65683D01*
X411102Y65714D01*
X411062Y65770D01*
X410270Y66562D01*
X410234Y66586D01*
X410183Y66632D01*
X409235Y67228D01*
X409195Y67243D01*
X409134Y67276D01*
X408077Y67646D01*
X408035Y67652D01*
X407969Y67671D01*
X406856Y67796D01*
X406813Y67792D01*
X406744Y67796D01*
X405632Y67671D01*
X405590Y67657D01*
X405523Y67646D01*
X404466Y67276D01*
X404429Y67254D01*
X404365Y67228D01*
X403417Y66632D01*
X403386Y66602D01*
X403330Y66562D01*
X402538Y65770D01*
X402514Y65734D01*
X402468Y65683D01*
X401872Y64735D01*
X401857Y64695D01*
X401824Y64634D01*
X401454Y63577D01*
X401448Y63535D01*
X401429Y63469D01*
X401304Y62356D01*
X401306Y62331D01*
X401301Y62300D01*
X401301Y51300D01*
X401304Y51286D01*
X401302Y51276D01*
X401305Y51263D01*
X401304Y51244D01*
X401429Y50132D01*
X401443Y50090D01*
X401454Y50023D01*
X401824Y48966D01*
X401846Y48929D01*
X401872Y48865D01*
X402468Y47917D01*
X402498Y47886D01*
X402538Y47830D01*
X403330Y47038D01*
X403366Y47014D01*
X403417Y46968D01*
X404365Y46372D01*
X404405Y46357D01*
X404466Y46324D01*
X405523Y45954D01*
X405565Y45948D01*
X405632Y45929D01*
X406744Y45804D01*
X406787Y45808D01*
X406856Y45804D01*
X407969Y45929D01*
G37*
G36*
X494369Y45929D02*
X494369Y45929D01*
X494410Y45943D01*
X494477Y45954D01*
X495534Y46324D01*
X495555Y46336D01*
X495571Y46340D01*
X495594Y46355D01*
X495635Y46372D01*
X496583Y46968D01*
X496614Y46998D01*
X496670Y47038D01*
X497462Y47830D01*
X497486Y47866D01*
X497532Y47917D01*
X498128Y48865D01*
X498143Y48905D01*
X498176Y48966D01*
X498546Y50023D01*
X498552Y50065D01*
X498571Y50132D01*
X498696Y51244D01*
X498694Y51269D01*
X498699Y51300D01*
X498699Y62300D01*
X498694Y62324D01*
X498696Y62356D01*
X498571Y63469D01*
X498557Y63510D01*
X498546Y63577D01*
X498176Y64634D01*
X498154Y64671D01*
X498128Y64735D01*
X497532Y65683D01*
X497502Y65714D01*
X497462Y65770D01*
X496670Y66562D01*
X496634Y66586D01*
X496583Y66632D01*
X495635Y67228D01*
X495595Y67243D01*
X495534Y67276D01*
X494477Y67646D01*
X494435Y67652D01*
X494369Y67671D01*
X493256Y67796D01*
X493213Y67792D01*
X493144Y67796D01*
X492032Y67671D01*
X491990Y67657D01*
X491923Y67646D01*
X490866Y67276D01*
X490829Y67254D01*
X490765Y67228D01*
X489817Y66632D01*
X489786Y66602D01*
X489730Y66562D01*
X488938Y65770D01*
X488914Y65734D01*
X488868Y65683D01*
X488272Y64735D01*
X488257Y64695D01*
X488224Y64634D01*
X487854Y63577D01*
X487848Y63535D01*
X487829Y63469D01*
X487704Y62356D01*
X487706Y62331D01*
X487701Y62300D01*
X487701Y51300D01*
X487704Y51286D01*
X487702Y51276D01*
X487705Y51263D01*
X487704Y51244D01*
X487829Y50132D01*
X487843Y50090D01*
X487854Y50023D01*
X488224Y48966D01*
X488246Y48929D01*
X488272Y48865D01*
X488868Y47917D01*
X488898Y47886D01*
X488938Y47830D01*
X489730Y47038D01*
X489766Y47014D01*
X489817Y46968D01*
X490765Y46372D01*
X490805Y46357D01*
X490866Y46324D01*
X491923Y45954D01*
X491965Y45948D01*
X492032Y45929D01*
X493144Y45804D01*
X493187Y45808D01*
X493256Y45804D01*
X494369Y45929D01*
G37*
G36*
X407969Y5629D02*
X407969Y5629D01*
X408010Y5643D01*
X408077Y5654D01*
X409134Y6024D01*
X409155Y6036D01*
X409171Y6040D01*
X409194Y6055D01*
X409235Y6072D01*
X410183Y6668D01*
X410214Y6698D01*
X410270Y6738D01*
X411062Y7530D01*
X411086Y7566D01*
X411132Y7617D01*
X411728Y8565D01*
X411743Y8605D01*
X411776Y8666D01*
X412146Y9723D01*
X412152Y9765D01*
X412171Y9832D01*
X412296Y10944D01*
X412294Y10969D01*
X412299Y11000D01*
X412299Y19000D01*
X412294Y19024D01*
X412296Y19056D01*
X412171Y20169D01*
X412157Y20210D01*
X412146Y20277D01*
X411776Y21334D01*
X411754Y21371D01*
X411728Y21435D01*
X411132Y22383D01*
X411102Y22414D01*
X411062Y22470D01*
X410270Y23262D01*
X410234Y23286D01*
X410183Y23332D01*
X409235Y23928D01*
X409195Y23943D01*
X409134Y23976D01*
X408077Y24346D01*
X408035Y24352D01*
X407969Y24371D01*
X406856Y24496D01*
X406813Y24492D01*
X406744Y24496D01*
X405632Y24371D01*
X405590Y24357D01*
X405523Y24346D01*
X404466Y23976D01*
X404429Y23954D01*
X404365Y23928D01*
X403417Y23332D01*
X403386Y23302D01*
X403330Y23262D01*
X402538Y22470D01*
X402514Y22434D01*
X402468Y22383D01*
X401872Y21435D01*
X401857Y21395D01*
X401824Y21334D01*
X401454Y20277D01*
X401448Y20235D01*
X401429Y20169D01*
X401304Y19056D01*
X401306Y19031D01*
X401301Y19000D01*
X401301Y11000D01*
X401304Y10986D01*
X401302Y10976D01*
X401305Y10963D01*
X401304Y10944D01*
X401429Y9832D01*
X401443Y9790D01*
X401454Y9723D01*
X401824Y8666D01*
X401846Y8629D01*
X401872Y8565D01*
X402468Y7617D01*
X402498Y7586D01*
X402538Y7530D01*
X403330Y6738D01*
X403366Y6714D01*
X403417Y6668D01*
X404365Y6072D01*
X404405Y6057D01*
X404466Y6024D01*
X405523Y5654D01*
X405565Y5648D01*
X405632Y5629D01*
X406744Y5504D01*
X406787Y5508D01*
X406856Y5504D01*
X407969Y5629D01*
G37*
G36*
X494369Y5629D02*
X494369Y5629D01*
X494410Y5643D01*
X494477Y5654D01*
X495534Y6024D01*
X495555Y6036D01*
X495571Y6040D01*
X495594Y6055D01*
X495635Y6072D01*
X496583Y6668D01*
X496614Y6698D01*
X496670Y6738D01*
X497462Y7530D01*
X497486Y7566D01*
X497532Y7617D01*
X498128Y8565D01*
X498143Y8605D01*
X498176Y8666D01*
X498546Y9723D01*
X498552Y9765D01*
X498571Y9832D01*
X498696Y10944D01*
X498694Y10969D01*
X498699Y11000D01*
X498699Y19000D01*
X498694Y19024D01*
X498696Y19056D01*
X498571Y20169D01*
X498557Y20210D01*
X498546Y20277D01*
X498176Y21334D01*
X498154Y21371D01*
X498128Y21435D01*
X497532Y22383D01*
X497502Y22414D01*
X497462Y22470D01*
X496670Y23262D01*
X496634Y23286D01*
X496583Y23332D01*
X495635Y23928D01*
X495595Y23943D01*
X495534Y23976D01*
X494477Y24346D01*
X494435Y24352D01*
X494369Y24371D01*
X493256Y24496D01*
X493213Y24492D01*
X493144Y24496D01*
X492032Y24371D01*
X491990Y24357D01*
X491923Y24346D01*
X490866Y23976D01*
X490829Y23954D01*
X490765Y23928D01*
X489817Y23332D01*
X489786Y23302D01*
X489730Y23262D01*
X488938Y22470D01*
X488914Y22434D01*
X488868Y22383D01*
X488272Y21435D01*
X488257Y21395D01*
X488224Y21334D01*
X487854Y20277D01*
X487848Y20235D01*
X487829Y20169D01*
X487704Y19056D01*
X487706Y19031D01*
X487701Y19000D01*
X487701Y11000D01*
X487704Y10986D01*
X487702Y10976D01*
X487705Y10963D01*
X487704Y10944D01*
X487829Y9832D01*
X487843Y9790D01*
X487854Y9723D01*
X488224Y8666D01*
X488246Y8629D01*
X488272Y8565D01*
X488868Y7617D01*
X488898Y7586D01*
X488938Y7530D01*
X489730Y6738D01*
X489766Y6714D01*
X489817Y6668D01*
X490765Y6072D01*
X490805Y6057D01*
X490866Y6024D01*
X491923Y5654D01*
X491965Y5648D01*
X492032Y5629D01*
X493144Y5504D01*
X493187Y5508D01*
X493256Y5504D01*
X494369Y5629D01*
G37*
%LPC*%
G36*
X209646Y204919D02*
X209646Y204919D01*
X207477Y205818D01*
X205818Y207477D01*
X204919Y209646D01*
X204919Y211994D01*
X205818Y214163D01*
X207477Y215822D01*
X209646Y216721D01*
X211994Y216721D01*
X214163Y215822D01*
X215822Y214163D01*
X216721Y211994D01*
X216721Y209646D01*
X215822Y207477D01*
X214163Y205818D01*
X211994Y204919D01*
X209646Y204919D01*
G37*
%LPD*%
D10*
X106680Y118260D03*
X106680Y105260D03*
D11*
X190350Y137160D03*
X203350Y137160D03*
D12*
X539750Y307730D03*
X539750Y324730D03*
D10*
X554990Y309730D03*
X554990Y322730D03*
X543560Y279250D03*
X543560Y292250D03*
D11*
X190350Y114300D03*
X203350Y114300D03*
D12*
X595630Y55490D03*
X595630Y38490D03*
D11*
X190350Y125730D03*
X203350Y125730D03*
D10*
X538480Y46840D03*
X538480Y59840D03*
D11*
X571650Y25400D03*
X558650Y25400D03*
D13*
X89720Y136906D03*
X96220Y136906D03*
X102720Y136906D03*
X109220Y136906D03*
X115720Y136906D03*
X122220Y136906D03*
X128720Y136906D03*
X128720Y193294D03*
X122220Y193294D03*
X115720Y193294D03*
X109220Y193294D03*
X102720Y193294D03*
X96220Y193294D03*
X89720Y193294D03*
D14*
X406800Y56800D03*
X493200Y56800D03*
X406800Y15000D03*
X493200Y15000D03*
D15*
X418000Y62450D03*
X426000Y62450D03*
D16*
X432500Y62450D03*
X437500Y62450D03*
X442500Y62450D03*
X447500Y62450D03*
X452500Y62450D03*
X457500Y62450D03*
X462500Y62450D03*
X467500Y62450D03*
D15*
X482000Y62450D03*
X474000Y62450D03*
D17*
X93900Y218440D03*
X83900Y218440D03*
D18*
X483870Y94060D03*
X483870Y104060D03*
X554990Y280750D03*
X554990Y290750D03*
D17*
X128350Y111760D03*
X138350Y111760D03*
X88820Y111760D03*
X78820Y111760D03*
X93900Y208280D03*
X83900Y208280D03*
X128350Y121920D03*
X138350Y121920D03*
X88820Y121920D03*
X78820Y121920D03*
D18*
X426720Y104060D03*
X426720Y94060D03*
D19*
X861880Y113050D02*
X877120Y113050D01*
X877120Y138450D02*
X861880Y138450D01*
X861880Y163850D02*
X877120Y163850D01*
X877120Y189250D02*
X861880Y189250D01*
X861880Y214650D02*
X877120Y214650D01*
X877120Y240050D02*
X861880Y240050D01*
X861880Y265450D02*
X877120Y265450D01*
X877120Y290850D02*
X861880Y290850D01*
X37620Y87650D02*
X22380Y87650D01*
X22380Y113050D02*
X37620Y113050D01*
X37620Y138450D02*
X22380Y138450D01*
X22380Y163850D02*
X37620Y163850D01*
X37620Y189250D02*
X22380Y189250D01*
X22380Y214650D02*
X37620Y214650D01*
X37620Y240050D02*
X22380Y240050D01*
X22380Y265450D02*
X37620Y265450D01*
X37620Y290850D02*
X22380Y290850D01*
X22380Y316250D02*
X37620Y316250D01*
D20*
X337820Y60960D03*
X363220Y132080D03*
X622300Y81280D03*
D21*
X445160Y85408D03*
X454660Y85408D03*
X464160Y85408D03*
X464160Y112713D03*
X454660Y112713D03*
X445160Y112713D03*
D22*
X553212Y57760D03*
X553212Y48260D03*
X553212Y38760D03*
X577088Y38760D03*
X577088Y57760D03*
D23*
X170416Y175140D03*
X170416Y170140D03*
X170416Y165140D03*
X170416Y160140D03*
D24*
X179190Y151366D03*
X184190Y151366D03*
X189190Y151366D03*
X194190Y151366D03*
D23*
X202964Y160140D03*
X202964Y165140D03*
X202964Y170140D03*
X202964Y175140D03*
D24*
X194190Y183914D03*
X189190Y183914D03*
X184190Y183914D03*
X179190Y183914D03*
D25*
X186690Y167640D03*
D26*
X646670Y238290D03*
D27*
X574170Y315490D03*
D26*
X632670Y238290D03*
X660670Y238290D03*
X632670Y224290D03*
X646670Y224290D03*
X660670Y224290D03*
X632670Y252290D03*
X646670Y252290D03*
X660670Y252290D03*
D27*
X574170Y302790D03*
X574170Y290090D03*
X574170Y277390D03*
X574170Y264690D03*
X574170Y251990D03*
X574170Y239290D03*
X574170Y226590D03*
X574170Y213890D03*
X574170Y201190D03*
X574170Y188490D03*
X574170Y175790D03*
X574170Y163090D03*
X574170Y150390D03*
D28*
X591820Y137890D03*
D27*
X749170Y150390D03*
X749170Y163090D03*
X749170Y175790D03*
X749170Y188490D03*
X749170Y201190D03*
X749170Y213890D03*
X749170Y226590D03*
X749170Y239290D03*
X749170Y251990D03*
X749170Y264690D03*
X749170Y277390D03*
X749170Y290090D03*
X749170Y302790D03*
X749170Y315490D03*
D28*
X604520Y137890D03*
X617220Y137890D03*
X629920Y137890D03*
X642620Y137890D03*
X655320Y137890D03*
X668020Y137890D03*
X680720Y137890D03*
X693420Y137890D03*
X706120Y137890D03*
X718820Y137890D03*
X731520Y137890D03*
D11*
X214780Y261620D03*
X201780Y261620D03*
X214780Y250190D03*
X201780Y250190D03*
D17*
X228680Y261620D03*
X238680Y261620D03*
D11*
X235100Y287020D03*
X222100Y287020D03*
D18*
X171450Y252650D03*
X171450Y242650D03*
D29*
X238760Y357900D03*
X238760Y315200D03*
D18*
X252730Y269320D03*
X252730Y279320D03*
D17*
X224870Y276860D03*
X234870Y276860D03*
D30*
X190500Y330140D03*
X190500Y358140D03*
D12*
X212090Y334790D03*
X212090Y351790D03*
D31*
X286512Y323850D03*
X378968Y323850D03*
D12*
X156210Y263670D03*
X156210Y280670D03*
D10*
X161290Y308760D03*
X161290Y295760D03*
D30*
X168910Y330140D03*
X168910Y358140D03*
X147320Y330140D03*
X147320Y358140D03*
D32*
X419100Y225450D03*
X419100Y244450D03*
D33*
X173228Y295792D03*
X173228Y290791D03*
X173228Y285789D03*
X173228Y280788D03*
D34*
X180458Y273558D03*
X185459Y273558D03*
X190461Y273558D03*
X195462Y273558D03*
D33*
X202692Y280788D03*
X202692Y285789D03*
X202692Y290791D03*
X202692Y295792D03*
D34*
X195462Y303022D03*
X190461Y303022D03*
X185459Y303022D03*
X180458Y303022D03*
D35*
X187960Y288290D03*
D18*
X181610Y252650D03*
X181610Y242650D03*
D36*
X464160Y120767D02*
X464160Y112713D01*
X464160Y120767D02*
X456467Y128460D01*
X562077Y150390D02*
X574170Y150390D01*
X562077Y150390D02*
X557534Y154933D01*
X474302Y154933D01*
X456467Y137098D01*
X456467Y128460D01*
X445160Y120767D02*
X445160Y112713D01*
X445160Y120767D02*
X452853Y128460D01*
X561482Y163090D02*
X574170Y163090D01*
X561482Y163090D02*
X556939Y158547D01*
X472805Y158547D01*
X452853Y138595D01*
X452853Y128460D01*
D37*
X532280Y267970D02*
X543560Y279250D01*
X532280Y267970D02*
X532130Y267970D01*
D38*
X532130Y267970D03*
X496570Y327660D03*
X490220Y321310D03*
X502920Y321310D03*
X509270Y327660D03*
X515620Y321310D03*
X521970Y327660D03*
D37*
X78820Y111760D02*
X78740Y111680D01*
X78740Y101600D01*
D38*
X78740Y101600D03*
D37*
X138350Y111760D02*
X138430Y111680D01*
X138430Y101600D01*
D38*
X138430Y101600D03*
D37*
X83900Y218440D02*
X83820Y218520D01*
X83820Y228600D01*
D38*
X83820Y228600D03*
D39*
X106680Y92710D03*
X106680Y82550D03*
X96520Y82550D03*
X96520Y92710D03*
X96520Y102870D03*
X109220Y237490D03*
X109220Y207010D03*
X115570Y214630D03*
X109220Y222250D03*
X115570Y229870D03*
D40*
X186690Y167640D03*
D41*
X202964Y170140D02*
X215860Y170140D01*
X215900Y170180D01*
X218440Y170180D01*
X219710Y168910D01*
D38*
X219710Y168910D03*
D41*
X213320Y165140D02*
X202964Y165140D01*
X213320Y165140D02*
X218440Y160020D01*
D38*
X218440Y160020D03*
D39*
X205740Y99060D03*
X214630Y104140D03*
X214630Y93980D03*
X214630Y83820D03*
X205740Y88900D03*
X205740Y78740D03*
X214630Y73660D03*
D37*
X749170Y315490D02*
X769090Y315490D01*
X769620Y314960D01*
D39*
X769620Y314960D03*
X518160Y46990D03*
X528320Y46990D03*
X528320Y36830D03*
X518160Y36830D03*
X534670Y27940D03*
X542290Y20320D03*
X615950Y36830D03*
X615950Y26670D03*
X595630Y26670D03*
D42*
X637540Y247650D03*
X656590Y247650D03*
X656590Y228600D03*
X637540Y228600D03*
D36*
X454660Y85408D02*
X454660Y74930D01*
D43*
X454660Y74930D03*
D41*
X426720Y104060D02*
X426720Y114300D01*
D39*
X426720Y114300D03*
D41*
X483870Y115570D02*
X483870Y104060D01*
X483870Y115570D02*
X485140Y116840D01*
D39*
X485140Y116840D03*
D44*
X416260Y62450D02*
X412450Y62450D01*
X406800Y56800D01*
D45*
X416260Y62450D02*
X418000Y62450D01*
X487550Y62450D02*
X493200Y56800D01*
X487550Y62450D02*
X482000Y62450D01*
D46*
X186690Y167640D02*
X186055Y167005D01*
D41*
X184190Y165140D02*
X184190Y151366D01*
X184190Y165140D02*
X186055Y167005D01*
X202692Y290791D02*
X209511Y290791D01*
X214630Y295910D02*
X232410Y295910D01*
D45*
X235100Y293220D01*
X235100Y287020D01*
D41*
X214630Y295910D02*
X209511Y290791D01*
D45*
X235100Y287020D02*
X235100Y277090D01*
X234870Y276860D01*
X238680Y273050D01*
X238680Y261620D01*
X238680Y253920D01*
X234950Y250190D02*
X214780Y250190D01*
X234950Y250190D02*
X238680Y253920D01*
X190461Y247650D02*
X190461Y265391D01*
X190461Y247650D02*
X190500Y247650D01*
X190500Y242650D02*
X190500Y242570D01*
X190500Y242650D02*
X190500Y247650D01*
X214780Y246230D02*
X214780Y250190D01*
X214780Y246230D02*
X209701Y241150D01*
X191920Y241150D01*
X190500Y242570D01*
X181610Y242650D02*
X171450Y242650D01*
X181610Y242650D02*
X190500Y242650D01*
X156210Y251460D02*
X156210Y263670D01*
X156210Y251460D02*
X165020Y242650D01*
X171450Y242650D01*
D47*
X193040Y293370D03*
X193040Y283210D03*
X182880Y283210D03*
X182880Y293370D03*
D39*
X67310Y323850D03*
X67310Y334010D03*
X87630Y334010D03*
X97790Y334010D03*
X107950Y334010D03*
X77470Y323850D03*
X77470Y334010D03*
X87630Y323850D03*
X97790Y323850D03*
X107950Y323850D03*
X67310Y313690D03*
X77470Y313690D03*
X67310Y303530D03*
X77470Y303530D03*
X87630Y303530D03*
X87630Y313690D03*
X107950Y313690D03*
X118110Y313690D03*
X128270Y313690D03*
X97790Y303530D03*
X97790Y313690D03*
X107950Y303530D03*
X118110Y303530D03*
X128270Y303530D03*
X87630Y293370D03*
X107950Y293370D03*
X118110Y293370D03*
X128270Y293370D03*
X97790Y293370D03*
X67310Y293370D03*
X77470Y293370D03*
X444500Y227330D03*
X444500Y217170D03*
X454660Y217170D03*
X454660Y227330D03*
D41*
X190461Y265391D02*
X190461Y273558D01*
D39*
X118110Y334010D03*
X128270Y334010D03*
X118110Y323850D03*
X128270Y323850D03*
D37*
X554990Y280750D02*
X554990Y262890D01*
D38*
X554990Y262890D03*
X490220Y304800D03*
X496570Y311150D03*
X502920Y304800D03*
X509270Y311150D03*
X515620Y304800D03*
X521970Y311150D03*
D39*
X185420Y104140D03*
X194310Y99060D03*
X194310Y88900D03*
X185420Y93980D03*
X185420Y83820D03*
X185420Y73660D03*
X194310Y78740D03*
X603250Y80010D03*
X593090Y80010D03*
X593090Y90170D03*
X603250Y90170D03*
X603250Y100330D03*
X582930Y100330D03*
X582930Y90170D03*
X582930Y80010D03*
X582930Y69850D03*
X593090Y69850D03*
X603250Y69850D03*
X593090Y100330D03*
D41*
X179190Y183914D02*
X179190Y199510D01*
X190500Y210820D01*
D39*
X190500Y210820D03*
D45*
X571650Y25400D02*
X577088Y30838D01*
X577088Y38760D01*
D41*
X437500Y62450D02*
X437500Y73040D01*
X426720Y83820D02*
X426720Y94060D01*
X426720Y83820D02*
X437500Y73040D01*
D48*
X433150Y94060D02*
X426720Y94060D01*
X433150Y94060D02*
X435610Y96520D01*
X435610Y138430D01*
D49*
X435610Y138430D03*
X473710Y138430D03*
D48*
X499110Y138430D01*
X515620Y121920D01*
X617220Y128270D02*
X617220Y137890D01*
X610870Y121920D02*
X515620Y121920D01*
X610870Y121920D02*
X617220Y128270D01*
D50*
X467500Y73810D02*
X467500Y62450D01*
X469748Y79938D02*
X483870Y94060D01*
X469748Y76058D02*
X467500Y73810D01*
X469748Y76058D02*
X469748Y79938D01*
D48*
X476170Y94060D02*
X483870Y94060D01*
X476170Y94060D02*
X473710Y96520D01*
X473710Y119380D01*
X480060Y125730D01*
X501650Y125730D02*
X511810Y115570D01*
X619760Y115570D01*
X501650Y125730D02*
X480060Y125730D01*
X629920Y125730D02*
X629920Y137890D01*
X629920Y125730D02*
X619760Y115570D01*
D36*
X452500Y62450D02*
X451823Y62450D01*
X451823Y69369D01*
X450169Y71023D01*
X447040Y71023D01*
X444831Y71023D01*
X443177Y69369D01*
X443177Y62450D01*
X442500Y62450D01*
X447040Y83528D02*
X445160Y85408D01*
X447040Y83528D02*
X447040Y71023D01*
X447500Y62450D02*
X447500Y55420D01*
X449043Y53877D01*
X455169Y53877D01*
X456823Y55531D01*
X456823Y61773D01*
X457500Y62450D01*
X457500Y68880D01*
X464160Y75540D02*
X464160Y85408D01*
X464160Y75540D02*
X457500Y68880D01*
D37*
X555650Y290090D02*
X574170Y290090D01*
X555650Y290090D02*
X554990Y290750D01*
X545060Y290750D01*
X543560Y292250D01*
D41*
X83900Y208280D02*
X83900Y207156D01*
X89720Y201336D02*
X89720Y193294D01*
X89720Y201336D02*
X83900Y207156D01*
X85070Y189250D02*
X30000Y189250D01*
X85070Y189250D02*
X85090Y189230D01*
X89720Y189230D01*
X89720Y193294D01*
X131260Y136906D02*
X138350Y129816D01*
X131260Y136906D02*
X128720Y136906D01*
X138350Y129816D02*
X138350Y121920D01*
X128720Y136906D02*
X128720Y150310D01*
X129540Y151130D01*
D38*
X129540Y151130D03*
X78740Y151130D03*
D41*
X72390Y151130D01*
X59670Y163850D02*
X30000Y163850D01*
X59670Y163850D02*
X72390Y151130D01*
X78820Y123045D02*
X78820Y121920D01*
X78820Y123045D02*
X79560Y123785D01*
X80010Y138450D02*
X30000Y138450D01*
X80010Y138450D02*
X89720Y138450D01*
X89720Y136906D01*
X80010Y138450D02*
X79560Y138000D01*
X79560Y123785D01*
X234830Y183914D02*
X244486Y193570D01*
X234830Y183914D02*
X194190Y183914D01*
X244486Y193570D02*
X506860Y193570D01*
X552580Y239290D01*
X574170Y239290D01*
X189190Y194270D02*
X189190Y183914D01*
X189190Y194270D02*
X193040Y198120D01*
X502520Y198120D01*
X556390Y251990D01*
X574170Y251990D01*
X574170Y213890D02*
X551310Y213890D01*
X512560Y175140D01*
X202964Y175140D01*
X184190Y183914D02*
X184190Y195620D01*
X190500Y201930D01*
X254000Y201930D02*
X260350Y208280D01*
X254000Y201930D02*
X190500Y201930D01*
D38*
X260350Y208280D03*
X269240Y185420D03*
D41*
X507600Y185420D01*
X548770Y226590D01*
X574170Y226590D01*
D39*
X118110Y116840D03*
X118110Y106680D03*
X118110Y96520D03*
X118110Y86360D03*
X127000Y101600D03*
X127000Y91440D03*
X130810Y377190D03*
X130810Y367030D03*
X130810Y387350D03*
X151130Y387350D03*
X161290Y387350D03*
X171450Y387350D03*
X140970Y377190D03*
X140970Y387350D03*
X151130Y377190D03*
X161290Y377190D03*
X171450Y377190D03*
X130810Y356870D03*
X191770Y387350D03*
X201930Y387350D03*
X212090Y387350D03*
X181610Y377190D03*
X181610Y387350D03*
X191770Y377190D03*
X201930Y377190D03*
X212090Y377190D03*
X232410Y387350D03*
X242570Y387350D03*
X222250Y377190D03*
X222250Y387350D03*
X232410Y377190D03*
X242570Y377190D03*
X222250Y365760D03*
X212090Y365760D03*
D41*
X252730Y269320D02*
X252730Y257810D01*
D47*
X252730Y257810D03*
D41*
X96220Y205960D02*
X96220Y193294D01*
X96220Y205960D02*
X93900Y208280D01*
X93900Y218440D01*
X122220Y136906D02*
X122220Y128050D01*
X128350Y121920D01*
X128350Y111760D01*
X88820Y111760D02*
X88820Y121920D01*
X96220Y125510D02*
X96220Y136906D01*
X96220Y125510D02*
X92630Y121920D01*
X88820Y121920D01*
X116880Y165140D02*
X170416Y165140D01*
X102720Y150980D02*
X102720Y136906D01*
X102720Y150980D02*
X116880Y165140D01*
X123310Y160140D02*
X170416Y160140D01*
X115720Y152550D02*
X115720Y136906D01*
X115720Y152550D02*
X123310Y160140D01*
X113070Y170140D02*
X170416Y170140D01*
X102720Y180490D02*
X102720Y193294D01*
X102720Y180490D02*
X113070Y170140D01*
X551710Y175790D02*
X574170Y175790D01*
D47*
X248920Y166370D03*
D41*
X542290Y166370D02*
X551710Y175790D01*
X542290Y166370D02*
X248920Y166370D01*
D47*
X237490Y209550D03*
D41*
X214560Y232480D02*
X193040Y232480D01*
X214560Y232480D02*
X237490Y209550D01*
D47*
X193040Y232480D03*
D51*
X182521Y262824D03*
D48*
X185459Y265763D02*
X185459Y273558D01*
X185459Y265763D02*
X182521Y262824D01*
X182521Y253561D01*
X181610Y252650D01*
D37*
X128720Y193294D02*
X122220Y193294D01*
D39*
X391160Y111760D03*
X401320Y111760D03*
X411480Y111760D03*
X411480Y101600D03*
X401320Y101600D03*
X391160Y101600D03*
X391160Y91440D03*
X391160Y81280D03*
X401320Y81280D03*
X411480Y81280D03*
X411480Y91440D03*
X401320Y91440D03*
D45*
X553212Y57760D02*
X562000Y57760D01*
X565150Y54610D01*
X565150Y43180D01*
X560730Y38760D01*
X553212Y38760D01*
D39*
X412750Y294640D03*
X422910Y294640D03*
X433070Y284480D03*
X422910Y284480D03*
X412750Y284480D03*
X412750Y274320D03*
X412750Y264160D03*
X422910Y264160D03*
X433070Y264160D03*
X433070Y274320D03*
X422910Y274320D03*
X433070Y294640D03*
D45*
X454660Y112713D02*
X454660Y97790D01*
D39*
X454660Y97790D03*
D44*
X391160Y81280D02*
X391160Y48260D01*
X406400Y33020D01*
X492760Y33020D01*
X505460Y45720D01*
D39*
X381000Y101600D03*
X381000Y111760D03*
X381000Y121920D03*
X391160Y121920D03*
X401320Y121920D03*
X411480Y121920D03*
X391160Y142240D03*
X401320Y142240D03*
X411480Y142240D03*
X381000Y132080D03*
X381000Y142240D03*
X381000Y152400D03*
X391160Y132080D03*
X401320Y132080D03*
X411480Y132080D03*
X391160Y152400D03*
X401320Y152400D03*
X411480Y152400D03*
X381000Y81280D03*
X381000Y91440D03*
X546100Y83820D03*
X556260Y83820D03*
X566420Y83820D03*
X546100Y93980D03*
X556260Y93980D03*
X566420Y93980D03*
X546100Y104140D03*
X556260Y104140D03*
X566420Y104140D03*
X535940Y83820D03*
X535940Y93980D03*
X535940Y104140D03*
X505460Y104140D03*
X515620Y104140D03*
X525780Y104140D03*
X505460Y93980D03*
X515620Y93980D03*
X525780Y93980D03*
X505460Y83820D03*
X515620Y83820D03*
X525780Y83820D03*
X495300Y83820D03*
X495300Y93980D03*
X495300Y104140D03*
X412750Y340360D03*
X422910Y340360D03*
X433070Y330200D03*
X422910Y330200D03*
X412750Y330200D03*
X412750Y320040D03*
X412750Y309880D03*
X422910Y309880D03*
X433070Y309880D03*
X433070Y320040D03*
X422910Y320040D03*
X433070Y340360D03*
X412750Y387350D03*
X422910Y387350D03*
X433070Y377190D03*
X422910Y377190D03*
X412750Y377190D03*
X412750Y367030D03*
X412750Y356870D03*
X422910Y356870D03*
X433070Y356870D03*
X433070Y367030D03*
X422910Y367030D03*
X433070Y387350D03*
D45*
X161329Y285789D02*
X156210Y280670D01*
X161329Y285789D02*
X166475Y285789D01*
D41*
X173228Y285789D01*
D45*
X156210Y280670D02*
X138430Y280670D01*
D47*
X138430Y280670D03*
X138430Y270510D03*
D44*
X505460Y83820D02*
X505460Y45720D01*
D39*
X605790Y26670D03*
D45*
X201780Y250190D02*
X201780Y261620D01*
X201780Y267240D01*
X196271Y272749D01*
D41*
X195462Y273558D01*
D45*
X214780Y261620D02*
X228680Y261620D01*
D41*
X220869Y285789D02*
X202692Y285789D01*
X220869Y285789D02*
X222100Y287020D01*
D37*
X171450Y264550D02*
X171450Y252650D01*
X171450Y264550D02*
X180284Y273384D01*
D41*
X180458Y273558D01*
X223600Y275590D02*
X224870Y276860D01*
X205740Y275590D02*
X202692Y278638D01*
X202692Y280788D01*
X213360Y275590D02*
X223600Y275590D01*
X213360Y275590D02*
X205740Y275590D01*
D47*
X213360Y275590D03*
D41*
X252730Y279320D02*
X252730Y289560D01*
D47*
X252730Y289560D03*
D45*
X165281Y291769D02*
X161290Y295760D01*
X165281Y291769D02*
X165496Y291769D01*
D41*
X166475Y290791D01*
X173228Y290791D01*
D52*
X210820Y210820D03*
M02*
