G04 EAGLE Gerber RS-274X export*
G75*
%MOMM*%
%FSLAX34Y34*%
%LPD*%
%INCopper Layer 15*%
%IPPOS*%
%AMOC8*
5,1,8,0,0,1.08239X$1,22.5*%
G01*
%ADD10C,1.108000*%
%ADD11C,1.524000*%
%ADD12C,1.981200*%
%ADD13C,0.660400*%
%ADD14C,0.787400*%
%ADD15C,1.168400*%
%ADD16C,0.606400*%
%ADD17C,0.756400*%
%ADD18C,0.806400*%
%ADD19C,0.706400*%
%ADD20C,0.906400*%

G36*
X402062Y3778D02*
X402062Y3778D01*
X402184Y3786D01*
X402219Y3798D01*
X402256Y3803D01*
X402370Y3848D01*
X402486Y3886D01*
X402517Y3906D01*
X402552Y3920D01*
X402651Y3991D01*
X402754Y4057D01*
X402779Y4085D01*
X402809Y4106D01*
X402887Y4200D01*
X402971Y4290D01*
X402988Y4323D01*
X403012Y4351D01*
X403064Y4462D01*
X403123Y4569D01*
X403132Y4605D01*
X403148Y4639D01*
X403171Y4759D01*
X403201Y4878D01*
X403200Y4915D01*
X403207Y4951D01*
X403200Y5073D01*
X403199Y5196D01*
X403190Y5232D01*
X403188Y5269D01*
X403150Y5385D01*
X403119Y5503D01*
X403101Y5536D01*
X403090Y5571D01*
X403024Y5674D01*
X402965Y5781D01*
X402939Y5809D01*
X402920Y5840D01*
X402831Y5924D01*
X402747Y6013D01*
X402702Y6045D01*
X402688Y6058D01*
X402669Y6068D01*
X402616Y6107D01*
X402275Y6321D01*
X402262Y6340D01*
X402258Y6344D01*
X402254Y6349D01*
X402139Y6450D01*
X402134Y6454D01*
X401865Y6883D01*
X401826Y6931D01*
X401794Y6984D01*
X401688Y7105D01*
X401347Y7445D01*
X401339Y7467D01*
X401335Y7472D01*
X401333Y7477D01*
X401243Y7601D01*
X401239Y7607D01*
X401072Y8084D01*
X401045Y8139D01*
X401026Y8199D01*
X400949Y8340D01*
X400693Y8748D01*
X400690Y8770D01*
X400687Y8776D01*
X400686Y8782D01*
X400626Y8923D01*
X400624Y8929D01*
X400567Y9432D01*
X400553Y9492D01*
X400547Y9554D01*
X400504Y9709D01*
X400383Y10053D01*
X400389Y10076D01*
X400399Y10236D01*
X400399Y10495D01*
X400398Y10505D01*
X400399Y10514D01*
X400378Y10663D01*
X400359Y10811D01*
X400356Y10820D01*
X400355Y10829D01*
X400303Y10981D01*
X399259Y13500D01*
X399259Y16500D01*
X400303Y19019D01*
X400305Y19028D01*
X400310Y19036D01*
X400347Y19181D01*
X400387Y19326D01*
X400387Y19335D01*
X400389Y19344D01*
X400399Y19505D01*
X400399Y19764D01*
X400394Y19808D01*
X400396Y19853D01*
X400380Y19936D01*
X400504Y20291D01*
X400517Y20352D01*
X400539Y20410D01*
X400567Y20568D01*
X400621Y21047D01*
X400632Y21066D01*
X400634Y21072D01*
X400637Y21077D01*
X400678Y21224D01*
X400680Y21232D01*
X400949Y21660D01*
X400975Y21716D01*
X401010Y21768D01*
X401072Y21916D01*
X401231Y22370D01*
X401247Y22387D01*
X401250Y22392D01*
X401254Y22397D01*
X401327Y22532D01*
X401330Y22538D01*
X401688Y22895D01*
X401726Y22944D01*
X401771Y22987D01*
X401865Y23117D01*
X402036Y23390D01*
X402121Y23525D01*
X402140Y23538D01*
X402144Y23542D01*
X402149Y23546D01*
X402249Y23660D01*
X402254Y23666D01*
X402683Y23935D01*
X402731Y23974D01*
X402784Y24006D01*
X402905Y24112D01*
X403245Y24453D01*
X403267Y24461D01*
X403272Y24465D01*
X403277Y24467D01*
X403401Y24557D01*
X403407Y24561D01*
X403884Y24728D01*
X403939Y24755D01*
X403999Y24774D01*
X404140Y24851D01*
X404548Y25107D01*
X404570Y25110D01*
X404576Y25113D01*
X404582Y25114D01*
X404723Y25174D01*
X404729Y25176D01*
X405232Y25233D01*
X405292Y25247D01*
X405354Y25253D01*
X405509Y25296D01*
X405963Y25455D01*
X405986Y25453D01*
X405992Y25454D01*
X405998Y25454D01*
X406149Y25481D01*
X406155Y25482D01*
X406658Y25426D01*
X406720Y25426D01*
X406781Y25418D01*
X406942Y25426D01*
X407420Y25480D01*
X407442Y25473D01*
X407448Y25472D01*
X407454Y25470D01*
X407606Y25464D01*
X407614Y25463D01*
X408091Y25296D01*
X408152Y25283D01*
X408210Y25261D01*
X408368Y25233D01*
X408847Y25179D01*
X408866Y25168D01*
X408872Y25166D01*
X408877Y25163D01*
X409024Y25122D01*
X409032Y25120D01*
X409460Y24851D01*
X409516Y24825D01*
X409568Y24790D01*
X409716Y24728D01*
X410170Y24569D01*
X410187Y24553D01*
X410192Y24550D01*
X410197Y24546D01*
X410333Y24473D01*
X410338Y24470D01*
X410695Y24112D01*
X410744Y24074D01*
X410787Y24029D01*
X410917Y23935D01*
X411325Y23679D01*
X411338Y23660D01*
X411342Y23656D01*
X411346Y23651D01*
X411462Y23550D01*
X411466Y23546D01*
X411735Y23117D01*
X411774Y23069D01*
X411806Y23016D01*
X411912Y22895D01*
X412253Y22555D01*
X412261Y22533D01*
X412265Y22528D01*
X412267Y22523D01*
X412357Y22399D01*
X412361Y22393D01*
X412528Y21916D01*
X412555Y21861D01*
X412574Y21801D01*
X412651Y21660D01*
X412907Y21252D01*
X412910Y21230D01*
X412913Y21224D01*
X412914Y21218D01*
X412974Y21077D01*
X412976Y21071D01*
X413033Y20568D01*
X413047Y20508D01*
X413053Y20446D01*
X413096Y20291D01*
X413217Y19947D01*
X413211Y19924D01*
X413201Y19764D01*
X413201Y19505D01*
X413202Y19495D01*
X413201Y19486D01*
X413222Y19337D01*
X413241Y19189D01*
X413244Y19180D01*
X413245Y19171D01*
X413297Y19019D01*
X414341Y16500D01*
X414341Y13500D01*
X413297Y10981D01*
X413295Y10972D01*
X413290Y10964D01*
X413253Y10819D01*
X413213Y10674D01*
X413213Y10665D01*
X413211Y10656D01*
X413201Y10495D01*
X413201Y10236D01*
X413206Y10192D01*
X413204Y10147D01*
X413220Y10064D01*
X413096Y9709D01*
X413083Y9648D01*
X413061Y9590D01*
X413033Y9432D01*
X412979Y8953D01*
X412968Y8934D01*
X412966Y8928D01*
X412963Y8923D01*
X412922Y8775D01*
X412920Y8768D01*
X412651Y8340D01*
X412625Y8284D01*
X412590Y8232D01*
X412528Y8084D01*
X412369Y7630D01*
X412353Y7613D01*
X412350Y7608D01*
X412346Y7603D01*
X412273Y7468D01*
X412270Y7462D01*
X411912Y7105D01*
X411874Y7056D01*
X411829Y7013D01*
X411735Y6883D01*
X411479Y6475D01*
X411460Y6462D01*
X411456Y6458D01*
X411451Y6454D01*
X411350Y6339D01*
X411346Y6334D01*
X410984Y6107D01*
X410890Y6029D01*
X410791Y5958D01*
X410767Y5929D01*
X410738Y5905D01*
X410666Y5807D01*
X410588Y5713D01*
X410572Y5679D01*
X410550Y5649D01*
X410504Y5535D01*
X410452Y5425D01*
X410445Y5388D01*
X410431Y5354D01*
X410415Y5232D01*
X410393Y5112D01*
X410395Y5075D01*
X410390Y5038D01*
X410405Y4917D01*
X410412Y4795D01*
X410424Y4760D01*
X410428Y4723D01*
X410473Y4609D01*
X410510Y4493D01*
X410530Y4461D01*
X410544Y4426D01*
X410615Y4327D01*
X410680Y4224D01*
X410708Y4198D01*
X410729Y4168D01*
X410823Y4090D01*
X410912Y4006D01*
X410945Y3988D01*
X410973Y3964D01*
X411084Y3911D01*
X411191Y3852D01*
X411227Y3843D01*
X411260Y3827D01*
X411380Y3803D01*
X411499Y3773D01*
X411553Y3769D01*
X411572Y3766D01*
X411594Y3767D01*
X411659Y3763D01*
X488341Y3763D01*
X488462Y3778D01*
X488584Y3786D01*
X488619Y3798D01*
X488656Y3803D01*
X488770Y3848D01*
X488886Y3886D01*
X488917Y3906D01*
X488952Y3920D01*
X489051Y3991D01*
X489154Y4057D01*
X489179Y4085D01*
X489209Y4106D01*
X489287Y4200D01*
X489371Y4290D01*
X489388Y4323D01*
X489412Y4351D01*
X489464Y4462D01*
X489523Y4569D01*
X489532Y4605D01*
X489548Y4639D01*
X489571Y4759D01*
X489601Y4878D01*
X489600Y4915D01*
X489607Y4951D01*
X489600Y5073D01*
X489599Y5196D01*
X489590Y5232D01*
X489588Y5269D01*
X489550Y5385D01*
X489519Y5503D01*
X489501Y5536D01*
X489490Y5571D01*
X489424Y5674D01*
X489365Y5781D01*
X489339Y5809D01*
X489320Y5840D01*
X489231Y5924D01*
X489147Y6013D01*
X489102Y6045D01*
X489088Y6058D01*
X489069Y6068D01*
X489016Y6107D01*
X488675Y6321D01*
X488662Y6340D01*
X488658Y6344D01*
X488654Y6349D01*
X488539Y6450D01*
X488534Y6454D01*
X488265Y6883D01*
X488226Y6931D01*
X488194Y6984D01*
X488088Y7105D01*
X487747Y7445D01*
X487739Y7467D01*
X487735Y7472D01*
X487733Y7477D01*
X487643Y7601D01*
X487639Y7607D01*
X487472Y8084D01*
X487445Y8139D01*
X487426Y8199D01*
X487349Y8340D01*
X487093Y8748D01*
X487090Y8770D01*
X487087Y8776D01*
X487086Y8782D01*
X487026Y8923D01*
X487024Y8929D01*
X486967Y9432D01*
X486953Y9492D01*
X486947Y9554D01*
X486904Y9709D01*
X486783Y10053D01*
X486789Y10076D01*
X486799Y10236D01*
X486799Y10495D01*
X486798Y10505D01*
X486799Y10514D01*
X486778Y10663D01*
X486759Y10811D01*
X486756Y10820D01*
X486755Y10829D01*
X486703Y10981D01*
X485659Y13500D01*
X485659Y16500D01*
X486703Y19019D01*
X486705Y19028D01*
X486710Y19036D01*
X486747Y19181D01*
X486787Y19326D01*
X486787Y19335D01*
X486789Y19344D01*
X486799Y19505D01*
X486799Y19764D01*
X486794Y19808D01*
X486796Y19853D01*
X486780Y19936D01*
X486904Y20291D01*
X486917Y20352D01*
X486939Y20410D01*
X486967Y20568D01*
X487021Y21047D01*
X487032Y21066D01*
X487034Y21072D01*
X487037Y21077D01*
X487078Y21224D01*
X487080Y21232D01*
X487349Y21660D01*
X487375Y21716D01*
X487410Y21768D01*
X487472Y21916D01*
X487631Y22370D01*
X487647Y22387D01*
X487650Y22392D01*
X487654Y22397D01*
X487727Y22532D01*
X487730Y22538D01*
X488088Y22895D01*
X488126Y22944D01*
X488171Y22987D01*
X488265Y23117D01*
X488436Y23390D01*
X488521Y23525D01*
X488540Y23538D01*
X488544Y23542D01*
X488549Y23546D01*
X488649Y23660D01*
X488654Y23666D01*
X489083Y23935D01*
X489131Y23974D01*
X489184Y24006D01*
X489305Y24112D01*
X489645Y24453D01*
X489667Y24461D01*
X489672Y24465D01*
X489677Y24467D01*
X489801Y24557D01*
X489807Y24561D01*
X490284Y24728D01*
X490339Y24755D01*
X490399Y24774D01*
X490540Y24851D01*
X490948Y25107D01*
X490970Y25110D01*
X490976Y25113D01*
X490982Y25114D01*
X491123Y25174D01*
X491129Y25176D01*
X491632Y25233D01*
X491692Y25247D01*
X491754Y25253D01*
X491909Y25296D01*
X492363Y25455D01*
X492386Y25453D01*
X492392Y25454D01*
X492398Y25454D01*
X492549Y25481D01*
X492555Y25482D01*
X493058Y25426D01*
X493120Y25426D01*
X493181Y25418D01*
X493342Y25426D01*
X493820Y25480D01*
X493842Y25473D01*
X493848Y25472D01*
X493854Y25470D01*
X494006Y25464D01*
X494014Y25463D01*
X494491Y25296D01*
X494552Y25283D01*
X494610Y25261D01*
X494768Y25233D01*
X495247Y25179D01*
X495266Y25168D01*
X495272Y25166D01*
X495277Y25163D01*
X495424Y25122D01*
X495432Y25120D01*
X495860Y24851D01*
X495916Y24825D01*
X495968Y24790D01*
X496116Y24728D01*
X496570Y24569D01*
X496587Y24553D01*
X496592Y24550D01*
X496597Y24546D01*
X496733Y24473D01*
X496738Y24470D01*
X497095Y24112D01*
X497144Y24074D01*
X497187Y24029D01*
X497317Y23935D01*
X497725Y23679D01*
X497738Y23660D01*
X497742Y23656D01*
X497746Y23651D01*
X497862Y23550D01*
X497866Y23546D01*
X498135Y23117D01*
X498174Y23069D01*
X498206Y23016D01*
X498312Y22895D01*
X498653Y22555D01*
X498661Y22533D01*
X498665Y22528D01*
X498667Y22523D01*
X498757Y22399D01*
X498761Y22393D01*
X498928Y21916D01*
X498955Y21861D01*
X498974Y21801D01*
X499051Y21660D01*
X499307Y21252D01*
X499310Y21230D01*
X499313Y21224D01*
X499314Y21218D01*
X499374Y21077D01*
X499376Y21071D01*
X499433Y20568D01*
X499447Y20508D01*
X499453Y20446D01*
X499496Y20291D01*
X499617Y19947D01*
X499611Y19924D01*
X499601Y19764D01*
X499601Y19505D01*
X499602Y19495D01*
X499601Y19486D01*
X499622Y19337D01*
X499641Y19189D01*
X499644Y19180D01*
X499645Y19171D01*
X499697Y19019D01*
X500741Y16500D01*
X500741Y13500D01*
X499697Y10981D01*
X499695Y10972D01*
X499690Y10964D01*
X499653Y10819D01*
X499613Y10674D01*
X499613Y10665D01*
X499611Y10656D01*
X499601Y10495D01*
X499601Y10236D01*
X499606Y10192D01*
X499604Y10147D01*
X499620Y10064D01*
X499496Y9709D01*
X499483Y9648D01*
X499461Y9590D01*
X499433Y9432D01*
X499379Y8953D01*
X499368Y8934D01*
X499366Y8928D01*
X499363Y8923D01*
X499322Y8775D01*
X499320Y8768D01*
X499051Y8340D01*
X499025Y8284D01*
X498990Y8232D01*
X498928Y8084D01*
X498769Y7630D01*
X498753Y7613D01*
X498750Y7608D01*
X498746Y7603D01*
X498673Y7468D01*
X498670Y7462D01*
X498312Y7105D01*
X498274Y7056D01*
X498229Y7013D01*
X498135Y6883D01*
X497879Y6475D01*
X497860Y6462D01*
X497856Y6458D01*
X497851Y6455D01*
X497750Y6339D01*
X497746Y6334D01*
X497384Y6107D01*
X497290Y6029D01*
X497191Y5958D01*
X497167Y5929D01*
X497138Y5905D01*
X497066Y5807D01*
X496988Y5713D01*
X496972Y5679D01*
X496950Y5649D01*
X496904Y5535D01*
X496852Y5425D01*
X496845Y5388D01*
X496831Y5354D01*
X496815Y5232D01*
X496793Y5112D01*
X496795Y5075D01*
X496790Y5038D01*
X496805Y4917D01*
X496812Y4795D01*
X496824Y4760D01*
X496828Y4723D01*
X496873Y4609D01*
X496910Y4493D01*
X496930Y4461D01*
X496944Y4426D01*
X497015Y4327D01*
X497080Y4224D01*
X497108Y4198D01*
X497129Y4168D01*
X497223Y4090D01*
X497312Y4006D01*
X497345Y3988D01*
X497373Y3964D01*
X497484Y3911D01*
X497591Y3852D01*
X497627Y3843D01*
X497660Y3827D01*
X497780Y3803D01*
X497899Y3773D01*
X497953Y3769D01*
X497972Y3766D01*
X497994Y3767D01*
X498059Y3763D01*
X850000Y3763D01*
X850019Y3765D01*
X850071Y3765D01*
X855106Y4047D01*
X855132Y4052D01*
X855158Y4052D01*
X855317Y4077D01*
X865134Y6318D01*
X865193Y6339D01*
X865253Y6351D01*
X865403Y6412D01*
X874475Y10781D01*
X874527Y10815D01*
X874584Y10840D01*
X874716Y10932D01*
X882589Y17210D01*
X882632Y17255D01*
X882681Y17292D01*
X882790Y17411D01*
X889068Y25284D01*
X889100Y25337D01*
X889140Y25385D01*
X889219Y25525D01*
X893588Y34597D01*
X893608Y34656D01*
X893636Y34711D01*
X893682Y34866D01*
X895923Y44683D01*
X895925Y44709D01*
X895933Y44734D01*
X895953Y44894D01*
X896235Y49929D01*
X896234Y49948D01*
X896237Y50000D01*
X896237Y350000D01*
X896235Y350019D01*
X896235Y350071D01*
X895953Y355106D01*
X895948Y355132D01*
X895948Y355158D01*
X895923Y355317D01*
X893682Y365134D01*
X893661Y365193D01*
X893649Y365253D01*
X893588Y365403D01*
X889219Y374475D01*
X889185Y374527D01*
X889160Y374584D01*
X889068Y374716D01*
X882790Y382589D01*
X882745Y382632D01*
X882708Y382681D01*
X882589Y382790D01*
X874716Y389068D01*
X874663Y389100D01*
X874615Y389140D01*
X874475Y389219D01*
X865403Y393588D01*
X865344Y393608D01*
X865289Y393636D01*
X865134Y393682D01*
X855317Y395923D01*
X855291Y395925D01*
X855266Y395933D01*
X855106Y395953D01*
X850071Y396235D01*
X850052Y396234D01*
X850000Y396237D01*
X772070Y396237D01*
X772050Y396235D01*
X771945Y396231D01*
X770976Y396136D01*
X770873Y396112D01*
X770767Y396097D01*
X770688Y396070D01*
X770666Y396065D01*
X770652Y396058D01*
X770615Y396045D01*
X768824Y395303D01*
X768816Y395299D01*
X768807Y395296D01*
X768678Y395220D01*
X768548Y395146D01*
X768541Y395139D01*
X768533Y395135D01*
X768412Y395028D01*
X767042Y393658D01*
X767036Y393650D01*
X767029Y393644D01*
X766939Y393525D01*
X766847Y393406D01*
X766843Y393398D01*
X766838Y393390D01*
X766767Y393246D01*
X766025Y391455D01*
X765997Y391352D01*
X765960Y391253D01*
X765947Y391169D01*
X765941Y391148D01*
X765941Y391132D01*
X765934Y391094D01*
X765839Y390125D01*
X765839Y390105D01*
X765833Y390000D01*
X765833Y337262D01*
X763737Y332204D01*
X759866Y328333D01*
X754808Y326237D01*
X569332Y326237D01*
X564274Y328333D01*
X560403Y332204D01*
X558307Y337262D01*
X558307Y390000D01*
X558305Y390020D01*
X558301Y390124D01*
X558206Y391094D01*
X558182Y391197D01*
X558167Y391303D01*
X558140Y391382D01*
X558135Y391404D01*
X558128Y391418D01*
X558115Y391455D01*
X557373Y393246D01*
X557369Y393254D01*
X557366Y393263D01*
X557290Y393392D01*
X557216Y393522D01*
X557209Y393529D01*
X557205Y393537D01*
X557098Y393658D01*
X555728Y395028D01*
X555720Y395034D01*
X555714Y395041D01*
X555595Y395131D01*
X555476Y395223D01*
X555468Y395227D01*
X555460Y395232D01*
X555316Y395303D01*
X553525Y396045D01*
X553422Y396073D01*
X553323Y396110D01*
X553239Y396123D01*
X553218Y396129D01*
X553202Y396129D01*
X553164Y396136D01*
X552194Y396231D01*
X552175Y396231D01*
X552070Y396237D01*
X449850Y396237D01*
X449732Y396222D01*
X449613Y396215D01*
X449575Y396202D01*
X449534Y396197D01*
X449424Y396154D01*
X449311Y396117D01*
X449276Y396095D01*
X449239Y396080D01*
X449143Y396011D01*
X449042Y395947D01*
X449014Y395917D01*
X448981Y395894D01*
X448905Y395802D01*
X448824Y395715D01*
X448804Y395680D01*
X448779Y395649D01*
X448728Y395541D01*
X448670Y395437D01*
X448660Y395397D01*
X448643Y395361D01*
X448621Y395244D01*
X448591Y395129D01*
X448587Y395069D01*
X448583Y395049D01*
X448585Y395028D01*
X448581Y394968D01*
X448581Y256396D01*
X434724Y242539D01*
X180000Y242539D01*
X179882Y242524D01*
X179763Y242517D01*
X179725Y242504D01*
X179684Y242499D01*
X179574Y242456D01*
X179461Y242419D01*
X179426Y242397D01*
X179389Y242382D01*
X179293Y242313D01*
X179192Y242249D01*
X179164Y242219D01*
X179131Y242196D01*
X179056Y242104D01*
X178974Y242017D01*
X178954Y241982D01*
X178929Y241951D01*
X178878Y241843D01*
X178820Y241739D01*
X178810Y241699D01*
X178793Y241663D01*
X178771Y241546D01*
X178741Y241431D01*
X178737Y241371D01*
X178733Y241351D01*
X178735Y241330D01*
X178731Y241270D01*
X178731Y173836D01*
X178746Y173712D01*
X178753Y173605D01*
X178759Y173588D01*
X178761Y173560D01*
X178768Y173541D01*
X178771Y173521D01*
X178822Y173391D01*
X178828Y173375D01*
X178851Y173303D01*
X178857Y173293D01*
X178869Y173261D01*
X178880Y173244D01*
X178888Y173225D01*
X178969Y173112D01*
X179003Y173063D01*
X179021Y173034D01*
X179025Y173031D01*
X179047Y172998D01*
X179063Y172984D01*
X179074Y172968D01*
X179182Y172879D01*
X179286Y172787D01*
X179304Y172778D01*
X179319Y172765D01*
X179445Y172706D01*
X179569Y172642D01*
X179589Y172638D01*
X179607Y172629D01*
X179744Y172603D01*
X179879Y172573D01*
X179900Y172573D01*
X179920Y172570D01*
X179987Y172574D01*
X180000Y172573D01*
X180006Y172573D01*
X180037Y172577D01*
X180058Y172578D01*
X180197Y172582D01*
X180217Y172588D01*
X180237Y172589D01*
X180302Y172610D01*
X180321Y172613D01*
X180374Y172634D01*
X180503Y172671D01*
X180520Y172681D01*
X180539Y172687D01*
X180589Y172719D01*
X180617Y172730D01*
X180679Y172775D01*
X180777Y172832D01*
X180798Y172851D01*
X180808Y172858D01*
X180822Y172873D01*
X180863Y172908D01*
X180875Y172917D01*
X180880Y172924D01*
X180898Y172939D01*
X182247Y174289D01*
X185130Y175483D01*
X188250Y175483D01*
X191133Y174289D01*
X193339Y172083D01*
X194533Y169200D01*
X194533Y166080D01*
X193339Y163197D01*
X191133Y160991D01*
X188250Y159797D01*
X185130Y159797D01*
X182247Y160991D01*
X180898Y162341D01*
X180788Y162426D01*
X180681Y162515D01*
X180662Y162524D01*
X180646Y162536D01*
X180519Y162591D01*
X180393Y162651D01*
X180373Y162654D01*
X180354Y162662D01*
X180216Y162684D01*
X180081Y162710D01*
X180060Y162709D01*
X180040Y162712D01*
X179901Y162699D01*
X179763Y162691D01*
X179744Y162684D01*
X179724Y162683D01*
X179592Y162635D01*
X179461Y162593D01*
X179443Y162582D01*
X179424Y162575D01*
X179309Y162497D01*
X179192Y162422D01*
X179178Y162408D01*
X179161Y162396D01*
X179069Y162292D01*
X178974Y162191D01*
X178964Y162173D01*
X178951Y162158D01*
X178887Y162034D01*
X178820Y161912D01*
X178815Y161893D01*
X178806Y161875D01*
X178776Y161738D01*
X178741Y161604D01*
X178739Y161576D01*
X178737Y161564D01*
X178737Y161544D01*
X178731Y161444D01*
X178731Y5032D01*
X178746Y4914D01*
X178753Y4795D01*
X178766Y4757D01*
X178771Y4716D01*
X178814Y4606D01*
X178851Y4493D01*
X178873Y4458D01*
X178888Y4421D01*
X178958Y4325D01*
X179021Y4224D01*
X179051Y4196D01*
X179074Y4163D01*
X179166Y4087D01*
X179253Y4006D01*
X179288Y3986D01*
X179319Y3961D01*
X179427Y3910D01*
X179531Y3852D01*
X179571Y3842D01*
X179607Y3825D01*
X179724Y3803D01*
X179839Y3773D01*
X179900Y3769D01*
X179920Y3765D01*
X179940Y3767D01*
X180000Y3763D01*
X401941Y3763D01*
X402062Y3778D01*
G37*
G36*
X150794Y3781D02*
X150794Y3781D01*
X150874Y3798D01*
X150878Y3801D01*
X150883Y3802D01*
X150946Y3854D01*
X151010Y3904D01*
X151013Y3909D01*
X151017Y3912D01*
X151028Y3938D01*
X151078Y4033D01*
X151372Y5001D01*
X151374Y5032D01*
X151386Y5074D01*
X151508Y6313D01*
X151506Y6329D01*
X151510Y6350D01*
X151510Y237473D01*
X151680Y239409D01*
X152178Y241269D01*
X152992Y243014D01*
X154096Y244592D01*
X155458Y245954D01*
X157036Y247058D01*
X158781Y247872D01*
X160641Y248370D01*
X162577Y248540D01*
X241300Y248540D01*
X241316Y248544D01*
X241337Y248542D01*
X243072Y248712D01*
X243101Y248722D01*
X243145Y248727D01*
X244812Y249233D01*
X244839Y249248D01*
X244881Y249261D01*
X246418Y250083D01*
X246442Y250103D01*
X246480Y250124D01*
X247827Y251230D01*
X247846Y251255D01*
X247880Y251283D01*
X248986Y252630D01*
X248999Y252658D01*
X249027Y252692D01*
X249849Y254229D01*
X249857Y254259D01*
X249877Y254298D01*
X250383Y255965D01*
X250385Y255996D01*
X250398Y256038D01*
X250568Y257773D01*
X250566Y257789D01*
X250570Y257810D01*
X250570Y283941D01*
X250556Y284003D01*
X250549Y284066D01*
X250536Y284087D01*
X250531Y284110D01*
X250490Y284159D01*
X250456Y284213D01*
X250434Y284228D01*
X250421Y284244D01*
X250386Y284259D01*
X250336Y284293D01*
X249454Y284658D01*
X247828Y286284D01*
X246947Y288410D01*
X246947Y290710D01*
X247828Y292836D01*
X249454Y294462D01*
X250336Y294827D01*
X250387Y294864D01*
X250443Y294895D01*
X250457Y294914D01*
X250476Y294928D01*
X250506Y294985D01*
X250543Y295036D01*
X250548Y295063D01*
X250558Y295081D01*
X250559Y295119D01*
X250570Y295179D01*
X250570Y388620D01*
X250567Y388635D01*
X250569Y388653D01*
X250395Y390638D01*
X250386Y390665D01*
X250384Y390703D01*
X250112Y391718D01*
X249868Y392628D01*
X249855Y392653D01*
X249845Y392690D01*
X249003Y394496D01*
X248986Y394518D01*
X248970Y394553D01*
X247904Y396075D01*
X247888Y396090D01*
X247877Y396110D01*
X247824Y396147D01*
X247775Y396191D01*
X247754Y396197D01*
X247735Y396210D01*
X247641Y396228D01*
X247608Y396237D01*
X247601Y396236D01*
X247593Y396237D01*
X50000Y396237D01*
X49990Y396235D01*
X49979Y396237D01*
X44844Y395948D01*
X44818Y395941D01*
X44781Y395939D01*
X34770Y393654D01*
X34739Y393639D01*
X34689Y393626D01*
X25438Y389171D01*
X25411Y389149D01*
X25366Y389126D01*
X17337Y382723D01*
X17316Y382696D01*
X17277Y382663D01*
X10874Y374634D01*
X10860Y374603D01*
X10829Y374562D01*
X6374Y365311D01*
X6366Y365277D01*
X6346Y365230D01*
X4061Y355219D01*
X4061Y355195D01*
X4057Y355186D01*
X4057Y355177D01*
X4052Y355156D01*
X3763Y350021D01*
X3765Y350012D01*
X3763Y350000D01*
X3763Y50000D01*
X3765Y49990D01*
X3763Y49979D01*
X4052Y44844D01*
X4059Y44818D01*
X4061Y44781D01*
X6346Y34770D01*
X6361Y34739D01*
X6374Y34689D01*
X10829Y25438D01*
X10851Y25411D01*
X10874Y25366D01*
X17277Y17337D01*
X17304Y17316D01*
X17337Y17277D01*
X25366Y10874D01*
X25397Y10860D01*
X25438Y10829D01*
X34689Y6374D01*
X34723Y6366D01*
X34770Y6346D01*
X44781Y4061D01*
X44808Y4061D01*
X44844Y4052D01*
X49979Y3763D01*
X49988Y3765D01*
X50000Y3763D01*
X150714Y3763D01*
X150794Y3781D01*
G37*
%LPC*%
G36*
X379819Y75342D02*
X379819Y75342D01*
X377637Y76246D01*
X375966Y77917D01*
X375062Y80099D01*
X375062Y82461D01*
X375966Y84643D01*
X376785Y85462D01*
X376858Y85556D01*
X376937Y85646D01*
X376955Y85682D01*
X376980Y85714D01*
X377027Y85823D01*
X377082Y85929D01*
X377090Y85968D01*
X377107Y86006D01*
X377125Y86123D01*
X377151Y86239D01*
X377150Y86280D01*
X377156Y86320D01*
X377145Y86438D01*
X377142Y86557D01*
X377130Y86596D01*
X377127Y86636D01*
X377086Y86749D01*
X377053Y86863D01*
X377033Y86897D01*
X377019Y86936D01*
X376952Y87034D01*
X376892Y87137D01*
X376852Y87182D01*
X376840Y87199D01*
X376825Y87212D01*
X376785Y87257D01*
X375966Y88077D01*
X375062Y90259D01*
X375062Y92621D01*
X375966Y94803D01*
X376785Y95622D01*
X376858Y95716D01*
X376937Y95806D01*
X376955Y95842D01*
X376980Y95874D01*
X377027Y95983D01*
X377082Y96089D01*
X377090Y96128D01*
X377107Y96166D01*
X377125Y96283D01*
X377151Y96399D01*
X377150Y96440D01*
X377156Y96480D01*
X377145Y96598D01*
X377142Y96717D01*
X377130Y96756D01*
X377127Y96796D01*
X377086Y96909D01*
X377053Y97023D01*
X377033Y97057D01*
X377019Y97096D01*
X376952Y97194D01*
X376892Y97297D01*
X376852Y97342D01*
X376840Y97359D01*
X376825Y97372D01*
X376785Y97417D01*
X375966Y98237D01*
X375062Y100419D01*
X375062Y102781D01*
X375966Y104963D01*
X376785Y105782D01*
X376858Y105876D01*
X376937Y105966D01*
X376955Y106002D01*
X376980Y106034D01*
X377027Y106143D01*
X377082Y106249D01*
X377090Y106288D01*
X377107Y106326D01*
X377125Y106443D01*
X377151Y106559D01*
X377150Y106600D01*
X377156Y106640D01*
X377145Y106758D01*
X377142Y106877D01*
X377130Y106916D01*
X377127Y106956D01*
X377086Y107069D01*
X377053Y107183D01*
X377033Y107217D01*
X377019Y107256D01*
X376952Y107354D01*
X376892Y107457D01*
X376852Y107502D01*
X376840Y107519D01*
X376825Y107532D01*
X376785Y107577D01*
X375966Y108397D01*
X375062Y110579D01*
X375062Y112941D01*
X375966Y115123D01*
X376785Y115942D01*
X376858Y116036D01*
X376937Y116126D01*
X376955Y116162D01*
X376980Y116194D01*
X377027Y116303D01*
X377082Y116409D01*
X377090Y116448D01*
X377107Y116486D01*
X377125Y116603D01*
X377151Y116719D01*
X377150Y116760D01*
X377156Y116800D01*
X377145Y116918D01*
X377142Y117037D01*
X377130Y117076D01*
X377127Y117116D01*
X377086Y117229D01*
X377053Y117343D01*
X377033Y117377D01*
X377019Y117416D01*
X376952Y117514D01*
X376892Y117617D01*
X376852Y117662D01*
X376840Y117679D01*
X376825Y117692D01*
X376785Y117737D01*
X375966Y118557D01*
X375062Y120739D01*
X375062Y123101D01*
X375436Y124004D01*
X375455Y124072D01*
X375483Y124136D01*
X375497Y124225D01*
X375520Y124311D01*
X375521Y124381D01*
X375532Y124450D01*
X375524Y124539D01*
X375525Y124629D01*
X375509Y124697D01*
X375503Y124766D01*
X375472Y124851D01*
X375451Y124938D01*
X375419Y125000D01*
X375395Y125066D01*
X375345Y125140D01*
X375303Y125220D01*
X375256Y125271D01*
X375216Y125329D01*
X375149Y125388D01*
X375089Y125455D01*
X375030Y125493D01*
X374978Y125539D01*
X374898Y125580D01*
X374823Y125630D01*
X374757Y125652D01*
X374695Y125684D01*
X374607Y125704D01*
X374522Y125733D01*
X374452Y125738D01*
X374384Y125754D01*
X374295Y125751D01*
X374205Y125758D01*
X374136Y125746D01*
X374067Y125744D01*
X373980Y125719D01*
X373892Y125704D01*
X373828Y125675D01*
X373761Y125656D01*
X373684Y125610D01*
X373602Y125573D01*
X373547Y125529D01*
X373487Y125494D01*
X373366Y125388D01*
X369965Y121986D01*
X365588Y120173D01*
X360852Y120173D01*
X356475Y121986D01*
X353126Y125335D01*
X351313Y129712D01*
X351313Y134448D01*
X353126Y138825D01*
X356475Y142174D01*
X360852Y143987D01*
X365588Y143987D01*
X369965Y142174D01*
X373366Y138772D01*
X373421Y138730D01*
X373470Y138679D01*
X373547Y138632D01*
X373618Y138577D01*
X373682Y138550D01*
X373741Y138513D01*
X373827Y138487D01*
X373909Y138451D01*
X373978Y138440D01*
X374045Y138420D01*
X374135Y138415D01*
X374224Y138401D01*
X374293Y138408D01*
X374363Y138404D01*
X374451Y138423D01*
X374540Y138431D01*
X374606Y138455D01*
X374674Y138469D01*
X374755Y138508D01*
X374839Y138539D01*
X374897Y138578D01*
X374960Y138608D01*
X375028Y138667D01*
X375103Y138717D01*
X375149Y138770D01*
X375202Y138815D01*
X375254Y138888D01*
X375313Y138956D01*
X375345Y139018D01*
X375385Y139075D01*
X375417Y139159D01*
X375458Y139239D01*
X375473Y139307D01*
X375498Y139372D01*
X375508Y139462D01*
X375527Y139549D01*
X375525Y139619D01*
X375533Y139688D01*
X375520Y139777D01*
X375518Y139867D01*
X375498Y139934D01*
X375488Y140003D01*
X375436Y140156D01*
X375062Y141059D01*
X375062Y143421D01*
X375966Y145603D01*
X376785Y146423D01*
X376858Y146517D01*
X376937Y146606D01*
X376955Y146642D01*
X376980Y146674D01*
X377028Y146783D01*
X377082Y146889D01*
X377090Y146928D01*
X377107Y146966D01*
X377125Y147083D01*
X377151Y147199D01*
X377150Y147240D01*
X377156Y147280D01*
X377145Y147398D01*
X377142Y147517D01*
X377130Y147556D01*
X377127Y147596D01*
X377086Y147708D01*
X377053Y147823D01*
X377033Y147858D01*
X377019Y147896D01*
X376952Y147994D01*
X376892Y148097D01*
X376852Y148142D01*
X376840Y148159D01*
X376825Y148172D01*
X376785Y148218D01*
X375966Y149037D01*
X375062Y151219D01*
X375062Y153581D01*
X375966Y155763D01*
X377637Y157434D01*
X379819Y158338D01*
X382181Y158338D01*
X384363Y157434D01*
X385182Y156615D01*
X385276Y156542D01*
X385366Y156463D01*
X385402Y156445D01*
X385434Y156420D01*
X385543Y156373D01*
X385649Y156318D01*
X385688Y156310D01*
X385726Y156293D01*
X385843Y156275D01*
X385959Y156249D01*
X386000Y156250D01*
X386040Y156244D01*
X386158Y156255D01*
X386277Y156258D01*
X386316Y156270D01*
X386356Y156273D01*
X386469Y156314D01*
X386583Y156347D01*
X386617Y156367D01*
X386656Y156381D01*
X386754Y156448D01*
X386857Y156508D01*
X386902Y156548D01*
X386919Y156560D01*
X386932Y156575D01*
X386977Y156615D01*
X387797Y157434D01*
X389979Y158338D01*
X392341Y158338D01*
X394523Y157434D01*
X395342Y156615D01*
X395436Y156542D01*
X395526Y156463D01*
X395562Y156445D01*
X395594Y156420D01*
X395703Y156373D01*
X395809Y156318D01*
X395848Y156310D01*
X395886Y156293D01*
X396003Y156275D01*
X396119Y156249D01*
X396160Y156250D01*
X396200Y156244D01*
X396318Y156255D01*
X396437Y156258D01*
X396476Y156270D01*
X396516Y156273D01*
X396629Y156314D01*
X396743Y156347D01*
X396777Y156367D01*
X396816Y156381D01*
X396914Y156448D01*
X397017Y156508D01*
X397062Y156548D01*
X397079Y156560D01*
X397092Y156575D01*
X397137Y156615D01*
X397957Y157434D01*
X400139Y158338D01*
X402501Y158338D01*
X404683Y157434D01*
X405502Y156615D01*
X405596Y156542D01*
X405686Y156463D01*
X405722Y156445D01*
X405754Y156420D01*
X405863Y156373D01*
X405969Y156318D01*
X406008Y156310D01*
X406046Y156293D01*
X406163Y156275D01*
X406279Y156249D01*
X406320Y156250D01*
X406360Y156244D01*
X406478Y156255D01*
X406597Y156258D01*
X406636Y156270D01*
X406676Y156273D01*
X406789Y156314D01*
X406903Y156347D01*
X406937Y156367D01*
X406976Y156381D01*
X407074Y156448D01*
X407177Y156508D01*
X407222Y156548D01*
X407239Y156560D01*
X407252Y156575D01*
X407297Y156615D01*
X408117Y157434D01*
X410299Y158338D01*
X412661Y158338D01*
X414843Y157434D01*
X416514Y155763D01*
X417418Y153581D01*
X417418Y151219D01*
X416514Y149037D01*
X415695Y148218D01*
X415622Y148124D01*
X415543Y148034D01*
X415525Y147998D01*
X415500Y147966D01*
X415453Y147857D01*
X415398Y147751D01*
X415390Y147712D01*
X415373Y147674D01*
X415355Y147557D01*
X415329Y147441D01*
X415330Y147400D01*
X415324Y147360D01*
X415335Y147242D01*
X415338Y147123D01*
X415350Y147084D01*
X415353Y147044D01*
X415394Y146931D01*
X415427Y146817D01*
X415447Y146783D01*
X415461Y146744D01*
X415528Y146646D01*
X415588Y146543D01*
X415628Y146498D01*
X415640Y146481D01*
X415655Y146468D01*
X415695Y146423D01*
X416514Y145603D01*
X417418Y143421D01*
X417418Y141059D01*
X416514Y138877D01*
X415695Y138057D01*
X415622Y137963D01*
X415543Y137874D01*
X415525Y137838D01*
X415500Y137806D01*
X415452Y137697D01*
X415398Y137591D01*
X415390Y137552D01*
X415373Y137514D01*
X415355Y137397D01*
X415329Y137281D01*
X415330Y137240D01*
X415324Y137200D01*
X415335Y137082D01*
X415338Y136963D01*
X415350Y136924D01*
X415353Y136884D01*
X415394Y136772D01*
X415427Y136657D01*
X415447Y136622D01*
X415461Y136584D01*
X415528Y136486D01*
X415588Y136383D01*
X415628Y136338D01*
X415640Y136321D01*
X415655Y136308D01*
X415695Y136262D01*
X416514Y135443D01*
X417418Y133261D01*
X417418Y130899D01*
X416514Y128717D01*
X415695Y127898D01*
X415622Y127804D01*
X415543Y127714D01*
X415525Y127678D01*
X415500Y127646D01*
X415453Y127537D01*
X415398Y127431D01*
X415390Y127392D01*
X415373Y127354D01*
X415355Y127237D01*
X415329Y127121D01*
X415330Y127080D01*
X415324Y127040D01*
X415335Y126922D01*
X415338Y126803D01*
X415350Y126764D01*
X415353Y126724D01*
X415394Y126611D01*
X415427Y126497D01*
X415447Y126463D01*
X415461Y126424D01*
X415528Y126326D01*
X415588Y126223D01*
X415628Y126178D01*
X415640Y126161D01*
X415655Y126148D01*
X415695Y126103D01*
X416514Y125283D01*
X417418Y123101D01*
X417418Y120739D01*
X416514Y118557D01*
X415695Y117737D01*
X415622Y117643D01*
X415543Y117554D01*
X415525Y117518D01*
X415500Y117486D01*
X415452Y117377D01*
X415398Y117271D01*
X415390Y117232D01*
X415373Y117194D01*
X415355Y117077D01*
X415329Y116961D01*
X415330Y116920D01*
X415324Y116880D01*
X415335Y116762D01*
X415338Y116643D01*
X415350Y116604D01*
X415353Y116564D01*
X415394Y116452D01*
X415427Y116337D01*
X415447Y116302D01*
X415461Y116264D01*
X415528Y116166D01*
X415588Y116063D01*
X415628Y116018D01*
X415640Y116001D01*
X415655Y115988D01*
X415695Y115942D01*
X416514Y115123D01*
X417418Y112941D01*
X417418Y110579D01*
X416514Y108397D01*
X415695Y107578D01*
X415622Y107484D01*
X415543Y107394D01*
X415525Y107358D01*
X415500Y107326D01*
X415453Y107217D01*
X415398Y107111D01*
X415390Y107072D01*
X415373Y107034D01*
X415355Y106917D01*
X415329Y106801D01*
X415330Y106760D01*
X415324Y106720D01*
X415335Y106602D01*
X415338Y106483D01*
X415350Y106444D01*
X415353Y106404D01*
X415394Y106291D01*
X415427Y106177D01*
X415447Y106143D01*
X415461Y106104D01*
X415528Y106006D01*
X415588Y105903D01*
X415628Y105858D01*
X415640Y105841D01*
X415655Y105828D01*
X415695Y105783D01*
X416514Y104963D01*
X417418Y102781D01*
X417418Y100419D01*
X416514Y98237D01*
X415695Y97418D01*
X415622Y97324D01*
X415543Y97234D01*
X415525Y97198D01*
X415500Y97166D01*
X415453Y97057D01*
X415398Y96951D01*
X415390Y96912D01*
X415373Y96874D01*
X415355Y96757D01*
X415329Y96641D01*
X415330Y96600D01*
X415324Y96560D01*
X415335Y96442D01*
X415338Y96323D01*
X415350Y96284D01*
X415353Y96244D01*
X415394Y96131D01*
X415427Y96017D01*
X415447Y95983D01*
X415461Y95944D01*
X415528Y95846D01*
X415588Y95743D01*
X415628Y95698D01*
X415640Y95681D01*
X415655Y95668D01*
X415695Y95623D01*
X416514Y94803D01*
X417418Y92621D01*
X417418Y90259D01*
X416514Y88077D01*
X415695Y87257D01*
X415622Y87163D01*
X415543Y87074D01*
X415525Y87038D01*
X415500Y87006D01*
X415452Y86897D01*
X415398Y86791D01*
X415390Y86752D01*
X415373Y86714D01*
X415355Y86597D01*
X415329Y86481D01*
X415330Y86440D01*
X415324Y86400D01*
X415335Y86282D01*
X415338Y86163D01*
X415350Y86124D01*
X415353Y86084D01*
X415394Y85972D01*
X415427Y85857D01*
X415447Y85822D01*
X415461Y85784D01*
X415528Y85686D01*
X415588Y85583D01*
X415628Y85538D01*
X415640Y85521D01*
X415655Y85508D01*
X415695Y85462D01*
X416514Y84643D01*
X417418Y82461D01*
X417418Y80099D01*
X416514Y77917D01*
X414843Y76246D01*
X412661Y75342D01*
X410299Y75342D01*
X408117Y76246D01*
X407297Y77065D01*
X407203Y77138D01*
X407114Y77217D01*
X407078Y77235D01*
X407046Y77260D01*
X406937Y77308D01*
X406831Y77362D01*
X406792Y77370D01*
X406754Y77387D01*
X406637Y77405D01*
X406521Y77431D01*
X406480Y77430D01*
X406440Y77436D01*
X406322Y77425D01*
X406203Y77422D01*
X406164Y77410D01*
X406124Y77407D01*
X406012Y77366D01*
X405897Y77333D01*
X405862Y77313D01*
X405824Y77299D01*
X405726Y77232D01*
X405623Y77172D01*
X405578Y77132D01*
X405561Y77120D01*
X405548Y77105D01*
X405502Y77065D01*
X404683Y76246D01*
X402501Y75342D01*
X400139Y75342D01*
X397957Y76246D01*
X397137Y77065D01*
X397043Y77138D01*
X396954Y77217D01*
X396918Y77235D01*
X396886Y77260D01*
X396777Y77308D01*
X396671Y77362D01*
X396632Y77370D01*
X396594Y77387D01*
X396477Y77405D01*
X396361Y77431D01*
X396320Y77430D01*
X396280Y77436D01*
X396162Y77425D01*
X396043Y77422D01*
X396004Y77410D01*
X395964Y77407D01*
X395852Y77366D01*
X395737Y77333D01*
X395702Y77313D01*
X395664Y77299D01*
X395566Y77232D01*
X395463Y77172D01*
X395418Y77132D01*
X395401Y77120D01*
X395388Y77105D01*
X395342Y77065D01*
X394523Y76246D01*
X392341Y75342D01*
X389979Y75342D01*
X387797Y76246D01*
X386977Y77065D01*
X386883Y77138D01*
X386794Y77217D01*
X386758Y77235D01*
X386726Y77260D01*
X386617Y77308D01*
X386511Y77362D01*
X386472Y77370D01*
X386434Y77387D01*
X386317Y77405D01*
X386201Y77431D01*
X386160Y77430D01*
X386120Y77436D01*
X386002Y77425D01*
X385883Y77422D01*
X385844Y77410D01*
X385804Y77407D01*
X385692Y77366D01*
X385577Y77333D01*
X385542Y77313D01*
X385504Y77299D01*
X385406Y77232D01*
X385303Y77172D01*
X385258Y77132D01*
X385241Y77120D01*
X385228Y77105D01*
X385182Y77065D01*
X384363Y76246D01*
X382181Y75342D01*
X379819Y75342D01*
G37*
%LPD*%
%LPC*%
G36*
X66129Y287432D02*
X66129Y287432D01*
X63947Y288336D01*
X62276Y290007D01*
X61372Y292189D01*
X61372Y294551D01*
X62276Y296733D01*
X63724Y298181D01*
X63751Y298224D01*
X63785Y298262D01*
X63796Y298297D01*
X63815Y298328D01*
X63820Y298379D01*
X63821Y298383D01*
X63822Y298384D01*
X63822Y298385D01*
X63835Y298428D01*
X63828Y298464D01*
X63832Y298501D01*
X63816Y298543D01*
X63815Y298557D01*
X63811Y298565D01*
X63805Y298599D01*
X63781Y298634D01*
X63770Y298663D01*
X63748Y298684D01*
X63741Y298693D01*
X63732Y298709D01*
X63728Y298712D01*
X63724Y298719D01*
X62276Y300167D01*
X61372Y302349D01*
X61372Y304711D01*
X62276Y306893D01*
X63724Y308341D01*
X63751Y308384D01*
X63785Y308422D01*
X63796Y308457D01*
X63815Y308488D01*
X63820Y308539D01*
X63835Y308588D01*
X63828Y308624D01*
X63832Y308661D01*
X63814Y308708D01*
X63805Y308759D01*
X63781Y308794D01*
X63770Y308823D01*
X63748Y308844D01*
X63724Y308879D01*
X62276Y310327D01*
X61372Y312509D01*
X61372Y314871D01*
X62276Y317053D01*
X63724Y318501D01*
X63751Y318544D01*
X63785Y318582D01*
X63796Y318617D01*
X63815Y318648D01*
X63820Y318699D01*
X63835Y318748D01*
X63828Y318784D01*
X63832Y318821D01*
X63814Y318869D01*
X63805Y318919D01*
X63781Y318954D01*
X63770Y318983D01*
X63748Y319004D01*
X63724Y319039D01*
X62276Y320487D01*
X61372Y322669D01*
X61372Y325031D01*
X62276Y327213D01*
X63724Y328661D01*
X63751Y328704D01*
X63785Y328742D01*
X63796Y328777D01*
X63815Y328808D01*
X63820Y328859D01*
X63835Y328908D01*
X63828Y328944D01*
X63832Y328981D01*
X63814Y329028D01*
X63805Y329079D01*
X63781Y329114D01*
X63770Y329143D01*
X63748Y329164D01*
X63724Y329199D01*
X62276Y330647D01*
X61372Y332829D01*
X61372Y335191D01*
X62276Y337373D01*
X63947Y339044D01*
X66129Y339948D01*
X68491Y339948D01*
X70673Y339044D01*
X72121Y337596D01*
X72164Y337569D01*
X72202Y337535D01*
X72237Y337524D01*
X72268Y337505D01*
X72319Y337500D01*
X72368Y337485D01*
X72404Y337492D01*
X72441Y337488D01*
X72488Y337506D01*
X72539Y337515D01*
X72574Y337539D01*
X72603Y337550D01*
X72624Y337572D01*
X72659Y337596D01*
X74107Y339044D01*
X76289Y339948D01*
X78651Y339948D01*
X80833Y339044D01*
X82281Y337596D01*
X82324Y337569D01*
X82362Y337535D01*
X82397Y337524D01*
X82428Y337505D01*
X82479Y337500D01*
X82528Y337485D01*
X82564Y337492D01*
X82601Y337488D01*
X82649Y337506D01*
X82699Y337515D01*
X82734Y337539D01*
X82763Y337550D01*
X82784Y337572D01*
X82819Y337596D01*
X84267Y339044D01*
X86449Y339948D01*
X88811Y339948D01*
X90993Y339044D01*
X92441Y337596D01*
X92484Y337569D01*
X92522Y337535D01*
X92557Y337524D01*
X92588Y337505D01*
X92639Y337500D01*
X92688Y337485D01*
X92724Y337492D01*
X92761Y337488D01*
X92808Y337506D01*
X92859Y337515D01*
X92894Y337539D01*
X92923Y337550D01*
X92944Y337572D01*
X92979Y337596D01*
X94427Y339044D01*
X96609Y339948D01*
X98971Y339948D01*
X101153Y339044D01*
X102601Y337596D01*
X102644Y337569D01*
X102682Y337535D01*
X102717Y337524D01*
X102748Y337505D01*
X102799Y337500D01*
X102848Y337485D01*
X102884Y337492D01*
X102921Y337488D01*
X102968Y337506D01*
X103019Y337515D01*
X103054Y337539D01*
X103083Y337550D01*
X103104Y337572D01*
X103139Y337596D01*
X104587Y339044D01*
X106769Y339948D01*
X109131Y339948D01*
X111313Y339044D01*
X112761Y337596D01*
X112804Y337569D01*
X112842Y337535D01*
X112877Y337524D01*
X112908Y337505D01*
X112959Y337500D01*
X113008Y337485D01*
X113044Y337492D01*
X113081Y337488D01*
X113129Y337506D01*
X113179Y337515D01*
X113214Y337539D01*
X113243Y337550D01*
X113264Y337572D01*
X113299Y337596D01*
X114747Y339044D01*
X116929Y339948D01*
X119291Y339948D01*
X121473Y339044D01*
X122921Y337596D01*
X122964Y337569D01*
X123002Y337535D01*
X123037Y337524D01*
X123068Y337505D01*
X123119Y337500D01*
X123168Y337485D01*
X123204Y337492D01*
X123241Y337488D01*
X123288Y337506D01*
X123339Y337515D01*
X123374Y337539D01*
X123403Y337550D01*
X123424Y337572D01*
X123459Y337596D01*
X124907Y339044D01*
X127089Y339948D01*
X129451Y339948D01*
X131633Y339044D01*
X133304Y337373D01*
X134208Y335191D01*
X134208Y332829D01*
X133304Y330647D01*
X131856Y329199D01*
X131829Y329156D01*
X131795Y329118D01*
X131784Y329083D01*
X131765Y329052D01*
X131760Y329001D01*
X131745Y328952D01*
X131752Y328916D01*
X131748Y328879D01*
X131766Y328832D01*
X131775Y328781D01*
X131799Y328746D01*
X131810Y328717D01*
X131832Y328696D01*
X131856Y328661D01*
X133304Y327213D01*
X134208Y325031D01*
X134208Y322669D01*
X133304Y320487D01*
X131856Y319039D01*
X131829Y318996D01*
X131795Y318958D01*
X131784Y318923D01*
X131765Y318892D01*
X131760Y318841D01*
X131745Y318792D01*
X131752Y318756D01*
X131748Y318719D01*
X131766Y318671D01*
X131775Y318621D01*
X131799Y318586D01*
X131810Y318557D01*
X131832Y318536D01*
X131856Y318501D01*
X133304Y317053D01*
X134208Y314871D01*
X134208Y312509D01*
X133304Y310327D01*
X131856Y308879D01*
X131829Y308836D01*
X131795Y308798D01*
X131784Y308763D01*
X131765Y308732D01*
X131760Y308681D01*
X131745Y308632D01*
X131752Y308596D01*
X131748Y308559D01*
X131766Y308512D01*
X131775Y308461D01*
X131799Y308426D01*
X131810Y308397D01*
X131832Y308376D01*
X131856Y308341D01*
X133304Y306893D01*
X134208Y304711D01*
X134208Y302349D01*
X133304Y300167D01*
X131856Y298719D01*
X131844Y298699D01*
X131829Y298687D01*
X131819Y298664D01*
X131795Y298638D01*
X131784Y298603D01*
X131765Y298572D01*
X131761Y298536D01*
X131758Y298529D01*
X131759Y298517D01*
X131745Y298472D01*
X131752Y298436D01*
X131748Y298399D01*
X131766Y298352D01*
X131775Y298301D01*
X131799Y298266D01*
X131810Y298237D01*
X131832Y298216D01*
X131856Y298181D01*
X133304Y296733D01*
X134208Y294551D01*
X134208Y292189D01*
X133304Y290007D01*
X131633Y288336D01*
X129451Y287432D01*
X127089Y287432D01*
X124907Y288336D01*
X123459Y289784D01*
X123416Y289811D01*
X123378Y289845D01*
X123343Y289856D01*
X123312Y289875D01*
X123261Y289880D01*
X123212Y289895D01*
X123176Y289888D01*
X123139Y289892D01*
X123091Y289874D01*
X123041Y289865D01*
X123006Y289841D01*
X122977Y289830D01*
X122956Y289808D01*
X122921Y289784D01*
X121473Y288336D01*
X119291Y287432D01*
X116929Y287432D01*
X114747Y288336D01*
X113299Y289784D01*
X113256Y289811D01*
X113218Y289845D01*
X113183Y289856D01*
X113152Y289875D01*
X113101Y289880D01*
X113052Y289895D01*
X113016Y289888D01*
X112979Y289892D01*
X112931Y289874D01*
X112881Y289865D01*
X112846Y289841D01*
X112817Y289830D01*
X112796Y289808D01*
X112761Y289784D01*
X111313Y288336D01*
X109131Y287432D01*
X106769Y287432D01*
X104587Y288336D01*
X103139Y289784D01*
X103096Y289811D01*
X103058Y289845D01*
X103023Y289856D01*
X102992Y289875D01*
X102941Y289880D01*
X102892Y289895D01*
X102856Y289888D01*
X102819Y289892D01*
X102772Y289874D01*
X102721Y289865D01*
X102686Y289841D01*
X102657Y289830D01*
X102636Y289808D01*
X102601Y289784D01*
X101153Y288336D01*
X98971Y287432D01*
X96609Y287432D01*
X94427Y288336D01*
X92979Y289784D01*
X92936Y289811D01*
X92898Y289845D01*
X92863Y289856D01*
X92832Y289875D01*
X92781Y289880D01*
X92732Y289895D01*
X92696Y289888D01*
X92659Y289892D01*
X92611Y289874D01*
X92561Y289865D01*
X92526Y289841D01*
X92497Y289830D01*
X92476Y289808D01*
X92441Y289784D01*
X90993Y288336D01*
X88811Y287432D01*
X86449Y287432D01*
X84267Y288336D01*
X82819Y289784D01*
X82776Y289811D01*
X82738Y289845D01*
X82703Y289856D01*
X82672Y289875D01*
X82621Y289880D01*
X82572Y289895D01*
X82536Y289888D01*
X82499Y289892D01*
X82452Y289874D01*
X82401Y289865D01*
X82366Y289841D01*
X82337Y289830D01*
X82316Y289808D01*
X82281Y289784D01*
X80833Y288336D01*
X78651Y287432D01*
X76289Y287432D01*
X74107Y288336D01*
X72659Y289784D01*
X72616Y289811D01*
X72578Y289845D01*
X72543Y289856D01*
X72512Y289875D01*
X72461Y289880D01*
X72412Y289895D01*
X72376Y289888D01*
X72339Y289892D01*
X72291Y289874D01*
X72241Y289865D01*
X72206Y289841D01*
X72177Y289830D01*
X72156Y289808D01*
X72121Y289784D01*
X70673Y288336D01*
X68491Y287432D01*
X66129Y287432D01*
G37*
%LPD*%
%LPC*%
G36*
X494119Y77882D02*
X494119Y77882D01*
X491937Y78786D01*
X490266Y80457D01*
X489362Y82639D01*
X489362Y85001D01*
X490266Y87183D01*
X491085Y88002D01*
X491158Y88096D01*
X491237Y88186D01*
X491255Y88222D01*
X491280Y88254D01*
X491327Y88363D01*
X491382Y88469D01*
X491390Y88508D01*
X491407Y88546D01*
X491425Y88663D01*
X491451Y88779D01*
X491450Y88820D01*
X491456Y88860D01*
X491445Y88978D01*
X491442Y89097D01*
X491430Y89136D01*
X491427Y89176D01*
X491386Y89289D01*
X491353Y89403D01*
X491333Y89437D01*
X491319Y89476D01*
X491252Y89574D01*
X491192Y89677D01*
X491152Y89722D01*
X491140Y89739D01*
X491125Y89752D01*
X491085Y89797D01*
X490266Y90617D01*
X489362Y92799D01*
X489362Y95161D01*
X490266Y97343D01*
X491085Y98162D01*
X491158Y98256D01*
X491237Y98346D01*
X491255Y98382D01*
X491280Y98414D01*
X491327Y98523D01*
X491382Y98629D01*
X491390Y98668D01*
X491407Y98706D01*
X491425Y98823D01*
X491451Y98939D01*
X491450Y98980D01*
X491456Y99020D01*
X491445Y99138D01*
X491442Y99257D01*
X491430Y99296D01*
X491427Y99336D01*
X491386Y99449D01*
X491353Y99563D01*
X491333Y99597D01*
X491319Y99636D01*
X491252Y99734D01*
X491192Y99837D01*
X491152Y99882D01*
X491140Y99899D01*
X491125Y99912D01*
X491085Y99957D01*
X490266Y100777D01*
X489362Y102959D01*
X489362Y105321D01*
X490266Y107503D01*
X491937Y109174D01*
X494119Y110078D01*
X496481Y110078D01*
X498663Y109174D01*
X499483Y108355D01*
X499577Y108282D01*
X499666Y108203D01*
X499702Y108185D01*
X499734Y108160D01*
X499843Y108112D01*
X499949Y108058D01*
X499988Y108050D01*
X500026Y108033D01*
X500143Y108015D01*
X500259Y107989D01*
X500300Y107990D01*
X500340Y107984D01*
X500458Y107995D01*
X500577Y107998D01*
X500616Y108010D01*
X500656Y108013D01*
X500768Y108054D01*
X500883Y108087D01*
X500918Y108107D01*
X500956Y108121D01*
X501054Y108188D01*
X501157Y108248D01*
X501202Y108288D01*
X501219Y108300D01*
X501232Y108315D01*
X501278Y108355D01*
X502097Y109174D01*
X504279Y110078D01*
X506641Y110078D01*
X508823Y109174D01*
X509642Y108355D01*
X509736Y108282D01*
X509826Y108203D01*
X509862Y108185D01*
X509894Y108160D01*
X510003Y108113D01*
X510109Y108058D01*
X510148Y108050D01*
X510186Y108033D01*
X510303Y108015D01*
X510419Y107989D01*
X510460Y107990D01*
X510500Y107984D01*
X510618Y107995D01*
X510737Y107998D01*
X510776Y108010D01*
X510816Y108013D01*
X510929Y108054D01*
X511043Y108087D01*
X511077Y108107D01*
X511116Y108121D01*
X511214Y108188D01*
X511317Y108248D01*
X511362Y108288D01*
X511379Y108300D01*
X511392Y108315D01*
X511437Y108355D01*
X512257Y109174D01*
X514439Y110078D01*
X516801Y110078D01*
X518983Y109174D01*
X519802Y108355D01*
X519896Y108282D01*
X519986Y108203D01*
X520022Y108185D01*
X520054Y108160D01*
X520163Y108113D01*
X520269Y108058D01*
X520308Y108050D01*
X520346Y108033D01*
X520463Y108015D01*
X520579Y107989D01*
X520620Y107990D01*
X520660Y107984D01*
X520778Y107995D01*
X520897Y107998D01*
X520936Y108010D01*
X520976Y108013D01*
X521089Y108054D01*
X521203Y108087D01*
X521237Y108107D01*
X521276Y108121D01*
X521374Y108188D01*
X521477Y108248D01*
X521522Y108288D01*
X521539Y108300D01*
X521552Y108315D01*
X521597Y108355D01*
X522417Y109174D01*
X524599Y110078D01*
X526961Y110078D01*
X529143Y109174D01*
X529963Y108355D01*
X530057Y108282D01*
X530146Y108203D01*
X530182Y108185D01*
X530214Y108160D01*
X530323Y108112D01*
X530429Y108058D01*
X530468Y108050D01*
X530506Y108033D01*
X530623Y108015D01*
X530739Y107989D01*
X530780Y107990D01*
X530820Y107984D01*
X530938Y107995D01*
X531057Y107998D01*
X531096Y108010D01*
X531136Y108013D01*
X531248Y108054D01*
X531363Y108087D01*
X531398Y108107D01*
X531436Y108121D01*
X531534Y108188D01*
X531637Y108248D01*
X531682Y108288D01*
X531699Y108300D01*
X531712Y108315D01*
X531758Y108355D01*
X532577Y109174D01*
X534759Y110078D01*
X537121Y110078D01*
X539303Y109174D01*
X540123Y108355D01*
X540217Y108282D01*
X540306Y108203D01*
X540342Y108185D01*
X540374Y108160D01*
X540483Y108112D01*
X540589Y108058D01*
X540628Y108050D01*
X540666Y108033D01*
X540783Y108015D01*
X540899Y107989D01*
X540940Y107990D01*
X540980Y107984D01*
X541098Y107995D01*
X541217Y107998D01*
X541256Y108010D01*
X541296Y108013D01*
X541408Y108054D01*
X541523Y108087D01*
X541558Y108107D01*
X541596Y108121D01*
X541694Y108188D01*
X541797Y108248D01*
X541842Y108288D01*
X541859Y108300D01*
X541872Y108315D01*
X541918Y108355D01*
X542737Y109174D01*
X544919Y110078D01*
X547281Y110078D01*
X549463Y109174D01*
X550282Y108355D01*
X550376Y108282D01*
X550466Y108203D01*
X550502Y108185D01*
X550534Y108160D01*
X550643Y108113D01*
X550749Y108058D01*
X550788Y108050D01*
X550826Y108033D01*
X550943Y108015D01*
X551059Y107989D01*
X551100Y107990D01*
X551140Y107984D01*
X551258Y107995D01*
X551377Y107998D01*
X551416Y108010D01*
X551456Y108013D01*
X551569Y108054D01*
X551683Y108087D01*
X551717Y108107D01*
X551756Y108121D01*
X551854Y108188D01*
X551957Y108248D01*
X552002Y108288D01*
X552019Y108300D01*
X552032Y108315D01*
X552077Y108355D01*
X552897Y109174D01*
X555079Y110078D01*
X557441Y110078D01*
X559623Y109174D01*
X560442Y108355D01*
X560536Y108282D01*
X560626Y108203D01*
X560662Y108185D01*
X560694Y108160D01*
X560803Y108113D01*
X560909Y108058D01*
X560948Y108050D01*
X560986Y108033D01*
X561103Y108015D01*
X561219Y107989D01*
X561260Y107990D01*
X561300Y107984D01*
X561418Y107995D01*
X561537Y107998D01*
X561576Y108010D01*
X561616Y108013D01*
X561729Y108054D01*
X561843Y108087D01*
X561877Y108107D01*
X561916Y108121D01*
X562014Y108188D01*
X562117Y108248D01*
X562162Y108288D01*
X562179Y108300D01*
X562192Y108315D01*
X562237Y108355D01*
X563057Y109174D01*
X565239Y110078D01*
X567601Y110078D01*
X569783Y109174D01*
X571454Y107503D01*
X572358Y105321D01*
X572358Y102959D01*
X571454Y100777D01*
X570635Y99957D01*
X570562Y99863D01*
X570483Y99774D01*
X570465Y99738D01*
X570440Y99706D01*
X570392Y99597D01*
X570338Y99491D01*
X570330Y99452D01*
X570313Y99414D01*
X570295Y99297D01*
X570269Y99181D01*
X570270Y99140D01*
X570264Y99100D01*
X570275Y98982D01*
X570278Y98863D01*
X570290Y98824D01*
X570293Y98784D01*
X570334Y98672D01*
X570367Y98557D01*
X570387Y98522D01*
X570401Y98484D01*
X570468Y98386D01*
X570528Y98283D01*
X570568Y98238D01*
X570580Y98221D01*
X570595Y98208D01*
X570635Y98162D01*
X571454Y97343D01*
X572358Y95161D01*
X572358Y92799D01*
X571454Y90617D01*
X570635Y89797D01*
X570562Y89703D01*
X570483Y89614D01*
X570465Y89578D01*
X570440Y89546D01*
X570392Y89437D01*
X570338Y89331D01*
X570330Y89292D01*
X570313Y89254D01*
X570295Y89137D01*
X570269Y89021D01*
X570270Y88980D01*
X570264Y88940D01*
X570275Y88822D01*
X570278Y88703D01*
X570290Y88664D01*
X570293Y88624D01*
X570334Y88512D01*
X570367Y88397D01*
X570387Y88362D01*
X570401Y88324D01*
X570468Y88226D01*
X570528Y88123D01*
X570568Y88078D01*
X570580Y88061D01*
X570595Y88048D01*
X570635Y88002D01*
X571454Y87183D01*
X572358Y85001D01*
X572358Y82639D01*
X571454Y80457D01*
X569783Y78786D01*
X567601Y77882D01*
X565239Y77882D01*
X563057Y78786D01*
X562237Y79605D01*
X562143Y79678D01*
X562054Y79757D01*
X562018Y79775D01*
X561986Y79800D01*
X561877Y79848D01*
X561771Y79902D01*
X561732Y79910D01*
X561694Y79927D01*
X561577Y79945D01*
X561461Y79971D01*
X561420Y79970D01*
X561380Y79976D01*
X561262Y79965D01*
X561143Y79962D01*
X561104Y79950D01*
X561064Y79947D01*
X560952Y79906D01*
X560837Y79873D01*
X560802Y79853D01*
X560764Y79839D01*
X560666Y79772D01*
X560563Y79712D01*
X560518Y79672D01*
X560501Y79660D01*
X560488Y79645D01*
X560442Y79605D01*
X559623Y78786D01*
X557441Y77882D01*
X555079Y77882D01*
X552897Y78786D01*
X552077Y79605D01*
X551983Y79678D01*
X551894Y79757D01*
X551858Y79775D01*
X551826Y79800D01*
X551717Y79848D01*
X551611Y79902D01*
X551572Y79910D01*
X551534Y79927D01*
X551417Y79945D01*
X551301Y79971D01*
X551260Y79970D01*
X551220Y79976D01*
X551102Y79965D01*
X550983Y79962D01*
X550944Y79950D01*
X550904Y79947D01*
X550792Y79906D01*
X550677Y79873D01*
X550642Y79853D01*
X550604Y79839D01*
X550506Y79772D01*
X550403Y79712D01*
X550358Y79672D01*
X550341Y79660D01*
X550328Y79645D01*
X550282Y79605D01*
X549463Y78786D01*
X547281Y77882D01*
X544919Y77882D01*
X542737Y78786D01*
X541918Y79605D01*
X541824Y79678D01*
X541734Y79757D01*
X541698Y79775D01*
X541666Y79800D01*
X541557Y79847D01*
X541451Y79902D01*
X541412Y79910D01*
X541374Y79927D01*
X541257Y79945D01*
X541141Y79971D01*
X541100Y79970D01*
X541060Y79976D01*
X540942Y79965D01*
X540823Y79962D01*
X540784Y79950D01*
X540744Y79947D01*
X540631Y79906D01*
X540517Y79873D01*
X540483Y79853D01*
X540444Y79839D01*
X540346Y79772D01*
X540243Y79712D01*
X540198Y79672D01*
X540181Y79660D01*
X540168Y79645D01*
X540123Y79605D01*
X539303Y78786D01*
X537121Y77882D01*
X534759Y77882D01*
X532577Y78786D01*
X531758Y79605D01*
X531664Y79678D01*
X531574Y79757D01*
X531538Y79775D01*
X531506Y79800D01*
X531397Y79847D01*
X531291Y79902D01*
X531252Y79910D01*
X531214Y79927D01*
X531097Y79945D01*
X530981Y79971D01*
X530940Y79970D01*
X530900Y79976D01*
X530782Y79965D01*
X530663Y79962D01*
X530624Y79950D01*
X530584Y79947D01*
X530471Y79906D01*
X530357Y79873D01*
X530323Y79853D01*
X530284Y79839D01*
X530186Y79772D01*
X530083Y79712D01*
X530038Y79672D01*
X530021Y79660D01*
X530008Y79645D01*
X529963Y79605D01*
X529143Y78786D01*
X526961Y77882D01*
X524599Y77882D01*
X522417Y78786D01*
X521597Y79605D01*
X521503Y79678D01*
X521414Y79757D01*
X521378Y79775D01*
X521346Y79800D01*
X521237Y79848D01*
X521131Y79902D01*
X521092Y79910D01*
X521054Y79927D01*
X520937Y79945D01*
X520821Y79971D01*
X520780Y79970D01*
X520740Y79976D01*
X520622Y79965D01*
X520503Y79962D01*
X520464Y79950D01*
X520424Y79947D01*
X520312Y79906D01*
X520197Y79873D01*
X520162Y79853D01*
X520124Y79839D01*
X520026Y79772D01*
X519923Y79712D01*
X519878Y79672D01*
X519861Y79660D01*
X519848Y79645D01*
X519802Y79605D01*
X518983Y78786D01*
X516801Y77882D01*
X514439Y77882D01*
X512257Y78786D01*
X511437Y79605D01*
X511343Y79678D01*
X511254Y79757D01*
X511218Y79775D01*
X511186Y79800D01*
X511077Y79848D01*
X510971Y79902D01*
X510932Y79910D01*
X510894Y79927D01*
X510777Y79945D01*
X510661Y79971D01*
X510620Y79970D01*
X510580Y79976D01*
X510462Y79965D01*
X510343Y79962D01*
X510304Y79950D01*
X510264Y79947D01*
X510152Y79906D01*
X510037Y79873D01*
X510002Y79853D01*
X509964Y79839D01*
X509866Y79772D01*
X509763Y79712D01*
X509718Y79672D01*
X509701Y79660D01*
X509688Y79645D01*
X509642Y79605D01*
X508823Y78786D01*
X506641Y77882D01*
X504279Y77882D01*
X502097Y78786D01*
X501278Y79605D01*
X501184Y79678D01*
X501094Y79757D01*
X501058Y79775D01*
X501026Y79800D01*
X500917Y79847D01*
X500811Y79902D01*
X500772Y79910D01*
X500734Y79927D01*
X500617Y79945D01*
X500501Y79971D01*
X500460Y79970D01*
X500420Y79976D01*
X500302Y79965D01*
X500183Y79962D01*
X500144Y79950D01*
X500104Y79947D01*
X499991Y79906D01*
X499877Y79873D01*
X499843Y79853D01*
X499804Y79839D01*
X499706Y79772D01*
X499603Y79712D01*
X499558Y79672D01*
X499541Y79660D01*
X499528Y79645D01*
X499483Y79605D01*
X498663Y78786D01*
X496481Y77882D01*
X494119Y77882D01*
G37*
%LPD*%
%LPC*%
G36*
X635626Y218979D02*
X635626Y218979D01*
X632090Y220444D01*
X629384Y223150D01*
X627919Y226686D01*
X627919Y230514D01*
X629384Y234050D01*
X632090Y236756D01*
X632564Y236952D01*
X632685Y237021D01*
X632808Y237086D01*
X632823Y237100D01*
X632841Y237110D01*
X632941Y237207D01*
X633043Y237300D01*
X633054Y237317D01*
X633069Y237331D01*
X633142Y237450D01*
X633218Y237566D01*
X633225Y237585D01*
X633235Y237602D01*
X633276Y237735D01*
X633321Y237867D01*
X633323Y237887D01*
X633329Y237906D01*
X633335Y238045D01*
X633346Y238184D01*
X633343Y238204D01*
X633344Y238224D01*
X633316Y238360D01*
X633292Y238497D01*
X633284Y238515D01*
X633280Y238535D01*
X633218Y238661D01*
X633161Y238787D01*
X633149Y238803D01*
X633140Y238821D01*
X633050Y238927D01*
X632963Y239036D01*
X632947Y239048D01*
X632934Y239063D01*
X632820Y239143D01*
X632709Y239227D01*
X632684Y239239D01*
X632674Y239246D01*
X632654Y239253D01*
X632564Y239298D01*
X632090Y239494D01*
X629384Y242200D01*
X627919Y245736D01*
X627919Y249564D01*
X629384Y253100D01*
X632090Y255806D01*
X635626Y257271D01*
X639454Y257271D01*
X642990Y255806D01*
X645696Y253100D01*
X645892Y252626D01*
X645961Y252505D01*
X646026Y252382D01*
X646040Y252367D01*
X646050Y252350D01*
X646147Y252249D01*
X646240Y252147D01*
X646257Y252136D01*
X646271Y252121D01*
X646390Y252048D01*
X646506Y251972D01*
X646525Y251965D01*
X646542Y251955D01*
X646675Y251914D01*
X646807Y251869D01*
X646827Y251867D01*
X646846Y251861D01*
X646985Y251855D01*
X647124Y251844D01*
X647144Y251847D01*
X647164Y251846D01*
X647300Y251874D01*
X647437Y251898D01*
X647456Y251906D01*
X647475Y251910D01*
X647600Y251972D01*
X647727Y252029D01*
X647743Y252041D01*
X647761Y252050D01*
X647867Y252141D01*
X647975Y252227D01*
X647988Y252243D01*
X648003Y252256D01*
X648083Y252370D01*
X648167Y252481D01*
X648179Y252506D01*
X648186Y252516D01*
X648193Y252535D01*
X648238Y252626D01*
X648434Y253100D01*
X651140Y255806D01*
X654676Y257271D01*
X658504Y257271D01*
X662040Y255806D01*
X664746Y253100D01*
X666211Y249564D01*
X666211Y245736D01*
X664746Y242200D01*
X662040Y239494D01*
X661566Y239298D01*
X661445Y239229D01*
X661322Y239164D01*
X661307Y239150D01*
X661290Y239140D01*
X661189Y239043D01*
X661087Y238950D01*
X661076Y238933D01*
X661061Y238919D01*
X660988Y238800D01*
X660912Y238684D01*
X660905Y238665D01*
X660895Y238648D01*
X660854Y238514D01*
X660809Y238383D01*
X660807Y238363D01*
X660801Y238344D01*
X660795Y238205D01*
X660784Y238066D01*
X660787Y238046D01*
X660786Y238026D01*
X660814Y237890D01*
X660838Y237753D01*
X660846Y237734D01*
X660850Y237715D01*
X660912Y237590D01*
X660969Y237463D01*
X660981Y237447D01*
X660990Y237429D01*
X661081Y237323D01*
X661167Y237215D01*
X661183Y237202D01*
X661196Y237187D01*
X661310Y237107D01*
X661421Y237023D01*
X661446Y237011D01*
X661456Y237004D01*
X661475Y236997D01*
X661566Y236952D01*
X662040Y236756D01*
X664746Y234050D01*
X666211Y230514D01*
X666211Y226686D01*
X664746Y223150D01*
X662040Y220444D01*
X658504Y218979D01*
X654676Y218979D01*
X651140Y220444D01*
X648434Y223150D01*
X648238Y223624D01*
X648169Y223745D01*
X648104Y223868D01*
X648090Y223883D01*
X648080Y223900D01*
X647983Y224001D01*
X647890Y224103D01*
X647873Y224114D01*
X647859Y224129D01*
X647740Y224202D01*
X647624Y224278D01*
X647605Y224285D01*
X647588Y224295D01*
X647455Y224336D01*
X647323Y224381D01*
X647303Y224383D01*
X647284Y224389D01*
X647145Y224395D01*
X647006Y224406D01*
X646986Y224403D01*
X646966Y224404D01*
X646830Y224376D01*
X646693Y224352D01*
X646674Y224344D01*
X646655Y224340D01*
X646530Y224278D01*
X646403Y224221D01*
X646387Y224209D01*
X646369Y224200D01*
X646263Y224109D01*
X646155Y224023D01*
X646142Y224007D01*
X646127Y223994D01*
X646047Y223880D01*
X645963Y223769D01*
X645951Y223744D01*
X645944Y223734D01*
X645937Y223715D01*
X645892Y223624D01*
X645696Y223150D01*
X642990Y220444D01*
X639454Y218979D01*
X635626Y218979D01*
G37*
%LPD*%
%LPC*%
G36*
X791168Y18249D02*
X791168Y18249D01*
X785011Y20799D01*
X780299Y25511D01*
X777749Y31668D01*
X777749Y38332D01*
X780299Y44489D01*
X785011Y49201D01*
X791168Y51751D01*
X797832Y51751D01*
X803989Y49201D01*
X808701Y44489D01*
X811251Y38332D01*
X811251Y31668D01*
X808701Y25511D01*
X803989Y20799D01*
X797832Y18249D01*
X791168Y18249D01*
G37*
%LPD*%
%LPC*%
G36*
X791168Y352149D02*
X791168Y352149D01*
X785011Y354699D01*
X780299Y359411D01*
X777749Y365568D01*
X777749Y372232D01*
X780299Y378389D01*
X785011Y383101D01*
X791168Y385651D01*
X797832Y385651D01*
X803989Y383101D01*
X808701Y378389D01*
X811251Y372232D01*
X811251Y365568D01*
X808701Y359411D01*
X803989Y354699D01*
X797832Y352149D01*
X791168Y352149D01*
G37*
%LPD*%
%LPC*%
G36*
X101668Y352149D02*
X101668Y352149D01*
X95511Y354699D01*
X90799Y359411D01*
X88249Y365568D01*
X88249Y372232D01*
X90799Y378389D01*
X95511Y383101D01*
X101668Y385651D01*
X108332Y385651D01*
X114489Y383101D01*
X119201Y378389D01*
X121751Y372232D01*
X121751Y365568D01*
X119201Y359411D01*
X114489Y354699D01*
X108332Y352149D01*
X101668Y352149D01*
G37*
%LPD*%
%LPC*%
G36*
X101668Y18249D02*
X101668Y18249D01*
X95511Y20799D01*
X90799Y25511D01*
X88249Y31668D01*
X88249Y38332D01*
X90799Y44489D01*
X95511Y49201D01*
X101668Y51751D01*
X108332Y51751D01*
X114489Y49201D01*
X119201Y44489D01*
X121751Y38332D01*
X121751Y31668D01*
X119201Y25511D01*
X114489Y20799D01*
X108332Y18249D01*
X101668Y18249D01*
G37*
%LPD*%
%LPC*%
G36*
X213449Y67722D02*
X213449Y67722D01*
X211267Y68626D01*
X209596Y70297D01*
X208804Y72208D01*
X208745Y72312D01*
X208693Y72419D01*
X208667Y72450D01*
X208647Y72485D01*
X208564Y72570D01*
X208487Y72661D01*
X208454Y72684D01*
X208425Y72713D01*
X208324Y72776D01*
X208227Y72844D01*
X208189Y72858D01*
X208154Y72879D01*
X208041Y72914D01*
X207929Y72957D01*
X207889Y72961D01*
X207850Y72973D01*
X207732Y72979D01*
X207613Y72992D01*
X207573Y72986D01*
X207533Y72988D01*
X207416Y72964D01*
X207298Y72947D01*
X207241Y72928D01*
X207221Y72924D01*
X207203Y72915D01*
X207146Y72895D01*
X206921Y72802D01*
X204559Y72802D01*
X202377Y73706D01*
X200706Y75377D01*
X199802Y77559D01*
X199802Y79921D01*
X200706Y82103D01*
X201525Y82923D01*
X201598Y83017D01*
X201677Y83106D01*
X201695Y83142D01*
X201720Y83174D01*
X201768Y83283D01*
X201822Y83389D01*
X201830Y83428D01*
X201847Y83466D01*
X201865Y83583D01*
X201891Y83699D01*
X201890Y83740D01*
X201896Y83780D01*
X201885Y83898D01*
X201882Y84017D01*
X201870Y84056D01*
X201867Y84096D01*
X201826Y84208D01*
X201793Y84323D01*
X201773Y84358D01*
X201759Y84396D01*
X201692Y84494D01*
X201632Y84597D01*
X201592Y84642D01*
X201580Y84659D01*
X201565Y84672D01*
X201525Y84718D01*
X200706Y85537D01*
X199802Y87719D01*
X199802Y90081D01*
X200706Y92263D01*
X201525Y93082D01*
X201598Y93176D01*
X201677Y93266D01*
X201695Y93302D01*
X201720Y93334D01*
X201767Y93443D01*
X201822Y93549D01*
X201830Y93588D01*
X201847Y93626D01*
X201865Y93743D01*
X201891Y93859D01*
X201890Y93900D01*
X201896Y93940D01*
X201885Y94058D01*
X201882Y94177D01*
X201870Y94216D01*
X201867Y94256D01*
X201826Y94369D01*
X201793Y94483D01*
X201773Y94517D01*
X201759Y94556D01*
X201692Y94654D01*
X201632Y94757D01*
X201592Y94802D01*
X201580Y94819D01*
X201565Y94832D01*
X201525Y94877D01*
X200706Y95697D01*
X199802Y97879D01*
X199802Y100241D01*
X200706Y102423D01*
X202377Y104094D01*
X204559Y104998D01*
X206921Y104998D01*
X207146Y104905D01*
X207261Y104873D01*
X207373Y104835D01*
X207414Y104831D01*
X207453Y104821D01*
X207572Y104819D01*
X207690Y104809D01*
X207730Y104816D01*
X207771Y104816D01*
X207886Y104843D01*
X208004Y104864D01*
X208041Y104880D01*
X208080Y104890D01*
X208185Y104945D01*
X208294Y104994D01*
X208325Y105020D01*
X208361Y105038D01*
X208449Y105118D01*
X208542Y105193D01*
X208566Y105225D01*
X208596Y105252D01*
X208662Y105352D01*
X208733Y105447D01*
X208760Y105501D01*
X208771Y105518D01*
X208778Y105537D01*
X208804Y105592D01*
X209596Y107503D01*
X211267Y109174D01*
X213449Y110078D01*
X215811Y110078D01*
X217993Y109174D01*
X219664Y107503D01*
X220568Y105321D01*
X220568Y102959D01*
X219664Y100777D01*
X218845Y99958D01*
X218772Y99864D01*
X218693Y99774D01*
X218675Y99738D01*
X218650Y99706D01*
X218603Y99597D01*
X218548Y99491D01*
X218540Y99452D01*
X218523Y99414D01*
X218505Y99297D01*
X218479Y99181D01*
X218480Y99140D01*
X218474Y99100D01*
X218485Y98982D01*
X218488Y98863D01*
X218500Y98824D01*
X218503Y98784D01*
X218544Y98671D01*
X218577Y98557D01*
X218597Y98523D01*
X218611Y98484D01*
X218678Y98386D01*
X218738Y98283D01*
X218778Y98238D01*
X218790Y98221D01*
X218805Y98208D01*
X218845Y98163D01*
X219664Y97343D01*
X220568Y95161D01*
X220568Y92799D01*
X219664Y90617D01*
X218845Y89798D01*
X218772Y89704D01*
X218693Y89614D01*
X218675Y89578D01*
X218650Y89546D01*
X218603Y89437D01*
X218548Y89331D01*
X218540Y89292D01*
X218523Y89254D01*
X218505Y89137D01*
X218479Y89021D01*
X218480Y88980D01*
X218474Y88940D01*
X218485Y88822D01*
X218488Y88703D01*
X218500Y88664D01*
X218503Y88624D01*
X218544Y88511D01*
X218577Y88397D01*
X218597Y88363D01*
X218611Y88324D01*
X218678Y88226D01*
X218738Y88123D01*
X218778Y88078D01*
X218790Y88061D01*
X218805Y88048D01*
X218845Y88003D01*
X219664Y87183D01*
X220568Y85001D01*
X220568Y82639D01*
X219664Y80457D01*
X218845Y79637D01*
X218772Y79543D01*
X218693Y79454D01*
X218675Y79418D01*
X218650Y79386D01*
X218602Y79277D01*
X218548Y79171D01*
X218540Y79132D01*
X218523Y79094D01*
X218505Y78977D01*
X218479Y78861D01*
X218480Y78820D01*
X218474Y78780D01*
X218485Y78662D01*
X218488Y78543D01*
X218500Y78504D01*
X218503Y78464D01*
X218544Y78352D01*
X218577Y78237D01*
X218597Y78202D01*
X218611Y78164D01*
X218678Y78066D01*
X218738Y77963D01*
X218778Y77918D01*
X218790Y77901D01*
X218805Y77888D01*
X218845Y77842D01*
X219664Y77023D01*
X220568Y74841D01*
X220568Y72479D01*
X219664Y70297D01*
X217993Y68626D01*
X215811Y67722D01*
X213449Y67722D01*
G37*
%LPD*%
%LPC*%
G36*
X541109Y14382D02*
X541109Y14382D01*
X538927Y15286D01*
X537256Y16957D01*
X536352Y19139D01*
X536352Y20733D01*
X536337Y20851D01*
X536330Y20970D01*
X536317Y21008D01*
X536312Y21049D01*
X536269Y21159D01*
X536232Y21272D01*
X536210Y21307D01*
X536195Y21344D01*
X536126Y21440D01*
X536062Y21541D01*
X536032Y21569D01*
X536009Y21602D01*
X535917Y21678D01*
X535830Y21759D01*
X535795Y21779D01*
X535764Y21804D01*
X535656Y21855D01*
X535552Y21913D01*
X535512Y21923D01*
X535476Y21940D01*
X535359Y21962D01*
X535244Y21992D01*
X535184Y21996D01*
X535164Y22000D01*
X535143Y21998D01*
X535083Y22002D01*
X533489Y22002D01*
X531307Y22906D01*
X529636Y24577D01*
X528732Y26759D01*
X528732Y29121D01*
X528739Y29137D01*
X528752Y29185D01*
X528773Y29230D01*
X528794Y29338D01*
X528823Y29444D01*
X528824Y29494D01*
X528833Y29543D01*
X528826Y29652D01*
X528828Y29762D01*
X528816Y29810D01*
X528813Y29860D01*
X528779Y29964D01*
X528754Y30071D01*
X528731Y30115D01*
X528715Y30162D01*
X528657Y30255D01*
X528605Y30352D01*
X528572Y30389D01*
X528545Y30431D01*
X528465Y30506D01*
X528391Y30588D01*
X528350Y30615D01*
X528313Y30649D01*
X528218Y30702D01*
X528126Y30762D01*
X528078Y30779D01*
X528035Y30803D01*
X527929Y30830D01*
X527825Y30866D01*
X527775Y30870D01*
X527727Y30882D01*
X527566Y30892D01*
X527139Y30892D01*
X524957Y31796D01*
X524138Y32615D01*
X524048Y32685D01*
X524019Y32712D01*
X524012Y32716D01*
X523954Y32767D01*
X523918Y32785D01*
X523886Y32810D01*
X523777Y32857D01*
X523671Y32912D01*
X523632Y32920D01*
X523594Y32937D01*
X523477Y32955D01*
X523361Y32981D01*
X523320Y32980D01*
X523280Y32986D01*
X523162Y32975D01*
X523043Y32972D01*
X523004Y32960D01*
X522964Y32957D01*
X522851Y32916D01*
X522737Y32883D01*
X522703Y32863D01*
X522664Y32849D01*
X522566Y32782D01*
X522463Y32722D01*
X522418Y32682D01*
X522401Y32670D01*
X522388Y32655D01*
X522343Y32615D01*
X521523Y31796D01*
X519341Y30892D01*
X516979Y30892D01*
X514797Y31796D01*
X513126Y33467D01*
X512222Y35649D01*
X512222Y38011D01*
X513126Y40193D01*
X513945Y41013D01*
X514018Y41107D01*
X514097Y41196D01*
X514115Y41232D01*
X514140Y41264D01*
X514188Y41373D01*
X514242Y41479D01*
X514250Y41518D01*
X514267Y41556D01*
X514285Y41673D01*
X514311Y41789D01*
X514310Y41830D01*
X514316Y41870D01*
X514305Y41988D01*
X514302Y42107D01*
X514290Y42146D01*
X514287Y42186D01*
X514246Y42298D01*
X514213Y42413D01*
X514193Y42448D01*
X514179Y42486D01*
X514112Y42584D01*
X514052Y42687D01*
X514012Y42732D01*
X514000Y42749D01*
X513985Y42762D01*
X513945Y42808D01*
X513126Y43627D01*
X512222Y45809D01*
X512222Y48171D01*
X513126Y50353D01*
X514797Y52024D01*
X516979Y52928D01*
X519341Y52928D01*
X521523Y52024D01*
X522342Y51205D01*
X522436Y51132D01*
X522526Y51053D01*
X522562Y51035D01*
X522594Y51010D01*
X522703Y50963D01*
X522809Y50908D01*
X522848Y50900D01*
X522886Y50883D01*
X523003Y50865D01*
X523119Y50839D01*
X523160Y50840D01*
X523200Y50834D01*
X523318Y50845D01*
X523437Y50848D01*
X523476Y50860D01*
X523516Y50863D01*
X523629Y50904D01*
X523743Y50937D01*
X523777Y50957D01*
X523816Y50971D01*
X523914Y51038D01*
X524017Y51098D01*
X524062Y51138D01*
X524079Y51150D01*
X524092Y51165D01*
X524137Y51205D01*
X524957Y52024D01*
X527139Y52928D01*
X529501Y52928D01*
X531683Y52024D01*
X533354Y50353D01*
X534258Y48171D01*
X534258Y45809D01*
X533354Y43627D01*
X532535Y42808D01*
X532462Y42714D01*
X532383Y42624D01*
X532365Y42588D01*
X532340Y42556D01*
X532293Y42447D01*
X532238Y42341D01*
X532230Y42302D01*
X532213Y42264D01*
X532195Y42147D01*
X532169Y42031D01*
X532170Y41990D01*
X532164Y41950D01*
X532175Y41832D01*
X532178Y41713D01*
X532190Y41674D01*
X532193Y41634D01*
X532234Y41521D01*
X532267Y41407D01*
X532287Y41373D01*
X532301Y41334D01*
X532368Y41236D01*
X532428Y41133D01*
X532468Y41088D01*
X532480Y41071D01*
X532495Y41058D01*
X532535Y41013D01*
X533354Y40193D01*
X534258Y38011D01*
X534258Y35649D01*
X534251Y35633D01*
X534238Y35585D01*
X534217Y35540D01*
X534196Y35432D01*
X534167Y35326D01*
X534166Y35276D01*
X534157Y35227D01*
X534164Y35118D01*
X534162Y35008D01*
X534174Y34960D01*
X534177Y34910D01*
X534211Y34806D01*
X534236Y34699D01*
X534259Y34655D01*
X534275Y34608D01*
X534333Y34515D01*
X534385Y34418D01*
X534418Y34381D01*
X534445Y34339D01*
X534525Y34264D01*
X534599Y34182D01*
X534640Y34155D01*
X534677Y34121D01*
X534772Y34068D01*
X534864Y34008D01*
X534912Y33991D01*
X534955Y33967D01*
X535061Y33940D01*
X535165Y33904D01*
X535215Y33900D01*
X535263Y33888D01*
X535424Y33878D01*
X535851Y33878D01*
X538033Y32974D01*
X539704Y31303D01*
X540608Y29121D01*
X540608Y27527D01*
X540623Y27409D01*
X540630Y27290D01*
X540643Y27252D01*
X540648Y27211D01*
X540691Y27101D01*
X540728Y26988D01*
X540750Y26953D01*
X540765Y26916D01*
X540834Y26820D01*
X540898Y26719D01*
X540928Y26691D01*
X540951Y26658D01*
X541043Y26582D01*
X541130Y26501D01*
X541165Y26481D01*
X541196Y26456D01*
X541304Y26405D01*
X541408Y26347D01*
X541448Y26337D01*
X541484Y26320D01*
X541601Y26298D01*
X541716Y26268D01*
X541776Y26264D01*
X541796Y26260D01*
X541817Y26262D01*
X541877Y26258D01*
X543471Y26258D01*
X545653Y25354D01*
X547324Y23683D01*
X548228Y21501D01*
X548228Y19139D01*
X547324Y16957D01*
X545653Y15286D01*
X543471Y14382D01*
X541109Y14382D01*
G37*
%LPD*%
%LPC*%
G36*
X95339Y76612D02*
X95339Y76612D01*
X93157Y77516D01*
X91486Y79187D01*
X90582Y81369D01*
X90582Y83731D01*
X91486Y85913D01*
X92934Y87361D01*
X92961Y87404D01*
X92995Y87442D01*
X93006Y87477D01*
X93025Y87508D01*
X93030Y87559D01*
X93045Y87608D01*
X93038Y87644D01*
X93042Y87681D01*
X93024Y87728D01*
X93015Y87779D01*
X92991Y87814D01*
X92980Y87843D01*
X92958Y87864D01*
X92934Y87899D01*
X91486Y89347D01*
X90582Y91529D01*
X90582Y93891D01*
X91486Y96073D01*
X92934Y97521D01*
X92961Y97564D01*
X92995Y97602D01*
X93006Y97637D01*
X93025Y97668D01*
X93030Y97719D01*
X93045Y97768D01*
X93038Y97804D01*
X93042Y97841D01*
X93024Y97888D01*
X93015Y97939D01*
X92991Y97974D01*
X92980Y98003D01*
X92958Y98024D01*
X92934Y98059D01*
X91486Y99507D01*
X90582Y101689D01*
X90582Y104051D01*
X91486Y106233D01*
X93157Y107904D01*
X95339Y108808D01*
X97701Y108808D01*
X99883Y107904D01*
X101554Y106233D01*
X102458Y104051D01*
X102458Y101689D01*
X101554Y99507D01*
X100106Y98059D01*
X100079Y98016D01*
X100045Y97978D01*
X100034Y97943D01*
X100015Y97912D01*
X100010Y97861D01*
X99995Y97812D01*
X100002Y97776D01*
X99998Y97739D01*
X100016Y97692D01*
X100025Y97641D01*
X100049Y97606D01*
X100060Y97577D01*
X100082Y97556D01*
X100106Y97521D01*
X101331Y96296D01*
X101374Y96269D01*
X101412Y96235D01*
X101447Y96224D01*
X101478Y96205D01*
X101529Y96200D01*
X101578Y96185D01*
X101614Y96192D01*
X101651Y96188D01*
X101699Y96206D01*
X101749Y96215D01*
X101784Y96239D01*
X101813Y96250D01*
X101834Y96272D01*
X101869Y96296D01*
X103317Y97744D01*
X105499Y98648D01*
X107861Y98648D01*
X110043Y97744D01*
X111714Y96073D01*
X112618Y93891D01*
X112618Y91529D01*
X111714Y89347D01*
X110266Y87899D01*
X110239Y87856D01*
X110205Y87818D01*
X110194Y87783D01*
X110175Y87752D01*
X110170Y87701D01*
X110155Y87652D01*
X110162Y87616D01*
X110158Y87579D01*
X110176Y87532D01*
X110185Y87481D01*
X110209Y87446D01*
X110220Y87417D01*
X110242Y87396D01*
X110266Y87361D01*
X111714Y85913D01*
X112618Y83731D01*
X112618Y81369D01*
X111714Y79187D01*
X110043Y77516D01*
X107861Y76612D01*
X105499Y76612D01*
X103317Y77516D01*
X101869Y78964D01*
X101826Y78991D01*
X101788Y79025D01*
X101753Y79036D01*
X101722Y79055D01*
X101671Y79060D01*
X101622Y79075D01*
X101586Y79068D01*
X101549Y79072D01*
X101502Y79054D01*
X101451Y79045D01*
X101416Y79021D01*
X101387Y79010D01*
X101366Y78988D01*
X101331Y78964D01*
X99883Y77516D01*
X97701Y76612D01*
X95339Y76612D01*
G37*
%LPD*%
%LPC*%
G36*
X108039Y201072D02*
X108039Y201072D01*
X105857Y201976D01*
X104186Y203647D01*
X103282Y205829D01*
X103282Y208191D01*
X104186Y210373D01*
X105857Y212044D01*
X108039Y212948D01*
X109271Y212948D01*
X109308Y212957D01*
X109347Y212955D01*
X109392Y212976D01*
X109440Y212987D01*
X109469Y213012D01*
X109504Y213028D01*
X109535Y213066D01*
X109573Y213097D01*
X109589Y213133D01*
X109613Y213163D01*
X109624Y213211D01*
X109644Y213256D01*
X109643Y213294D01*
X109651Y213332D01*
X109639Y213391D01*
X109637Y213429D01*
X109632Y213438D01*
X109632Y215833D01*
X109644Y215860D01*
X109642Y215909D01*
X109650Y215957D01*
X109639Y215994D01*
X109637Y216033D01*
X109614Y216076D01*
X109600Y216123D01*
X109573Y216151D01*
X109555Y216185D01*
X109515Y216213D01*
X109481Y216249D01*
X109445Y216262D01*
X109413Y216285D01*
X109354Y216296D01*
X109318Y216309D01*
X109297Y216307D01*
X109271Y216312D01*
X108039Y216312D01*
X105857Y217216D01*
X104186Y218887D01*
X103282Y221069D01*
X103282Y223431D01*
X104186Y225613D01*
X105857Y227284D01*
X108039Y228188D01*
X109271Y228188D01*
X109308Y228197D01*
X109347Y228195D01*
X109392Y228216D01*
X109440Y228227D01*
X109469Y228252D01*
X109504Y228268D01*
X109535Y228306D01*
X109573Y228337D01*
X109589Y228373D01*
X109613Y228403D01*
X109624Y228451D01*
X109644Y228496D01*
X109643Y228534D01*
X109651Y228572D01*
X109639Y228631D01*
X109637Y228669D01*
X109632Y228678D01*
X109632Y231072D01*
X109636Y231080D01*
X109636Y231081D01*
X109644Y231100D01*
X109642Y231149D01*
X109650Y231197D01*
X109639Y231234D01*
X109637Y231273D01*
X109614Y231316D01*
X109600Y231363D01*
X109573Y231391D01*
X109555Y231425D01*
X109515Y231453D01*
X109481Y231489D01*
X109445Y231502D01*
X109413Y231525D01*
X109354Y231536D01*
X109318Y231549D01*
X109297Y231547D01*
X109271Y231552D01*
X108039Y231552D01*
X105857Y232456D01*
X104186Y234127D01*
X103282Y236309D01*
X103282Y238671D01*
X104186Y240853D01*
X105857Y242524D01*
X108039Y243428D01*
X110401Y243428D01*
X112583Y242524D01*
X114254Y240853D01*
X115158Y238671D01*
X115158Y236287D01*
X115146Y236260D01*
X115148Y236211D01*
X115140Y236163D01*
X115151Y236126D01*
X115153Y236087D01*
X115176Y236044D01*
X115190Y235997D01*
X115217Y235969D01*
X115235Y235935D01*
X115275Y235907D01*
X115309Y235871D01*
X115345Y235858D01*
X115377Y235835D01*
X115436Y235824D01*
X115472Y235811D01*
X115493Y235813D01*
X115519Y235808D01*
X116751Y235808D01*
X118933Y234904D01*
X120604Y233233D01*
X121508Y231051D01*
X121508Y228689D01*
X120604Y226507D01*
X118933Y224836D01*
X116751Y223932D01*
X115519Y223932D01*
X115482Y223923D01*
X115443Y223925D01*
X115398Y223904D01*
X115350Y223893D01*
X115321Y223868D01*
X115286Y223852D01*
X115255Y223814D01*
X115217Y223783D01*
X115201Y223747D01*
X115177Y223717D01*
X115166Y223669D01*
X115146Y223624D01*
X115147Y223586D01*
X115139Y223548D01*
X115151Y223489D01*
X115153Y223451D01*
X115154Y223448D01*
X115155Y223447D01*
X115158Y223441D01*
X115158Y221047D01*
X115146Y221020D01*
X115148Y220971D01*
X115140Y220923D01*
X115151Y220886D01*
X115153Y220847D01*
X115176Y220804D01*
X115190Y220757D01*
X115217Y220729D01*
X115235Y220695D01*
X115275Y220667D01*
X115309Y220631D01*
X115345Y220618D01*
X115377Y220595D01*
X115436Y220584D01*
X115472Y220571D01*
X115493Y220573D01*
X115519Y220568D01*
X116751Y220568D01*
X118933Y219664D01*
X120604Y217993D01*
X121508Y215811D01*
X121508Y213449D01*
X120604Y211267D01*
X118933Y209596D01*
X116751Y208692D01*
X115519Y208692D01*
X115482Y208683D01*
X115443Y208685D01*
X115398Y208664D01*
X115350Y208653D01*
X115321Y208628D01*
X115286Y208612D01*
X115255Y208574D01*
X115217Y208543D01*
X115201Y208507D01*
X115177Y208477D01*
X115166Y208429D01*
X115146Y208384D01*
X115147Y208346D01*
X115139Y208308D01*
X115151Y208249D01*
X115153Y208211D01*
X115158Y208202D01*
X115158Y205829D01*
X114254Y203647D01*
X112583Y201976D01*
X110401Y201072D01*
X108039Y201072D01*
G37*
%LPD*%
%LPC*%
G36*
X489165Y316007D02*
X489165Y316007D01*
X487216Y316815D01*
X485725Y318306D01*
X484917Y320255D01*
X484917Y322365D01*
X485725Y324314D01*
X487216Y325805D01*
X489165Y326613D01*
X489998Y326613D01*
X490116Y326628D01*
X490235Y326635D01*
X490273Y326648D01*
X490314Y326653D01*
X490424Y326696D01*
X490537Y326733D01*
X490572Y326755D01*
X490609Y326770D01*
X490705Y326839D01*
X490806Y326903D01*
X490834Y326933D01*
X490867Y326956D01*
X490943Y327048D01*
X491024Y327135D01*
X491044Y327170D01*
X491069Y327201D01*
X491120Y327309D01*
X491178Y327413D01*
X491188Y327453D01*
X491205Y327489D01*
X491227Y327606D01*
X491257Y327721D01*
X491261Y327781D01*
X491265Y327801D01*
X491263Y327822D01*
X491267Y327882D01*
X491267Y328715D01*
X492075Y330664D01*
X493566Y332155D01*
X495515Y332963D01*
X497625Y332963D01*
X499574Y332155D01*
X501065Y330664D01*
X501747Y329017D01*
X501816Y328897D01*
X501881Y328774D01*
X501895Y328759D01*
X501905Y328741D01*
X502002Y328641D01*
X502095Y328538D01*
X502112Y328527D01*
X502126Y328513D01*
X502244Y328440D01*
X502361Y328364D01*
X502380Y328357D01*
X502397Y328347D01*
X502530Y328306D01*
X502662Y328260D01*
X502682Y328259D01*
X502701Y328253D01*
X502840Y328246D01*
X502979Y328235D01*
X502999Y328239D01*
X503019Y328238D01*
X503155Y328266D01*
X503292Y328290D01*
X503311Y328298D01*
X503330Y328302D01*
X503455Y328363D01*
X503582Y328420D01*
X503598Y328433D01*
X503616Y328442D01*
X503722Y328532D01*
X503830Y328619D01*
X503843Y328635D01*
X503858Y328648D01*
X503938Y328762D01*
X504022Y328873D01*
X504034Y328898D01*
X504041Y328908D01*
X504048Y328927D01*
X504093Y329017D01*
X504775Y330664D01*
X506266Y332155D01*
X508215Y332963D01*
X510325Y332963D01*
X512274Y332155D01*
X513765Y330664D01*
X514447Y329017D01*
X514516Y328897D01*
X514581Y328774D01*
X514595Y328759D01*
X514605Y328741D01*
X514702Y328641D01*
X514795Y328538D01*
X514812Y328527D01*
X514826Y328513D01*
X514944Y328440D01*
X515061Y328364D01*
X515080Y328357D01*
X515097Y328347D01*
X515230Y328306D01*
X515362Y328260D01*
X515382Y328259D01*
X515401Y328253D01*
X515540Y328246D01*
X515679Y328235D01*
X515699Y328239D01*
X515719Y328238D01*
X515855Y328266D01*
X515992Y328290D01*
X516011Y328298D01*
X516030Y328302D01*
X516155Y328363D01*
X516282Y328420D01*
X516298Y328433D01*
X516316Y328442D01*
X516422Y328532D01*
X516530Y328619D01*
X516543Y328635D01*
X516558Y328648D01*
X516638Y328762D01*
X516722Y328873D01*
X516734Y328898D01*
X516741Y328908D01*
X516748Y328927D01*
X516793Y329017D01*
X517475Y330664D01*
X518966Y332155D01*
X520915Y332963D01*
X523025Y332963D01*
X524974Y332155D01*
X526465Y330664D01*
X527273Y328715D01*
X527273Y326605D01*
X526465Y324656D01*
X524974Y323165D01*
X523025Y322357D01*
X522192Y322357D01*
X522074Y322342D01*
X521955Y322335D01*
X521917Y322322D01*
X521876Y322317D01*
X521766Y322274D01*
X521653Y322237D01*
X521618Y322215D01*
X521581Y322200D01*
X521485Y322131D01*
X521384Y322067D01*
X521356Y322037D01*
X521323Y322014D01*
X521247Y321922D01*
X521166Y321835D01*
X521146Y321800D01*
X521121Y321769D01*
X521070Y321661D01*
X521012Y321557D01*
X521002Y321517D01*
X520985Y321481D01*
X520963Y321364D01*
X520933Y321249D01*
X520929Y321189D01*
X520925Y321169D01*
X520926Y321159D01*
X520925Y321156D01*
X520926Y321142D01*
X520923Y321088D01*
X520923Y320255D01*
X520115Y318306D01*
X518624Y316815D01*
X516675Y316007D01*
X514565Y316007D01*
X512616Y316815D01*
X511125Y318306D01*
X510443Y319953D01*
X510374Y320073D01*
X510309Y320196D01*
X510295Y320211D01*
X510285Y320229D01*
X510189Y320328D01*
X510095Y320432D01*
X510078Y320443D01*
X510064Y320457D01*
X509945Y320530D01*
X509829Y320606D01*
X509810Y320613D01*
X509793Y320623D01*
X509660Y320664D01*
X509528Y320710D01*
X509508Y320711D01*
X509489Y320717D01*
X509350Y320724D01*
X509211Y320735D01*
X509191Y320731D01*
X509171Y320732D01*
X509035Y320704D01*
X508898Y320680D01*
X508879Y320672D01*
X508860Y320668D01*
X508735Y320607D01*
X508608Y320550D01*
X508592Y320537D01*
X508574Y320528D01*
X508468Y320438D01*
X508360Y320351D01*
X508347Y320335D01*
X508332Y320322D01*
X508252Y320208D01*
X508168Y320097D01*
X508156Y320072D01*
X508149Y320062D01*
X508142Y320043D01*
X508097Y319953D01*
X507415Y318306D01*
X505924Y316815D01*
X503975Y316007D01*
X501865Y316007D01*
X499916Y316815D01*
X498425Y318306D01*
X497743Y319953D01*
X497674Y320073D01*
X497609Y320196D01*
X497595Y320211D01*
X497585Y320229D01*
X497489Y320328D01*
X497395Y320432D01*
X497378Y320443D01*
X497364Y320457D01*
X497245Y320530D01*
X497129Y320606D01*
X497110Y320613D01*
X497093Y320623D01*
X496960Y320664D01*
X496828Y320710D01*
X496808Y320711D01*
X496789Y320717D01*
X496650Y320724D01*
X496511Y320735D01*
X496491Y320731D01*
X496471Y320732D01*
X496335Y320704D01*
X496198Y320680D01*
X496179Y320672D01*
X496160Y320668D01*
X496035Y320607D01*
X495908Y320550D01*
X495892Y320537D01*
X495874Y320528D01*
X495768Y320438D01*
X495660Y320351D01*
X495647Y320335D01*
X495632Y320322D01*
X495552Y320208D01*
X495468Y320097D01*
X495456Y320072D01*
X495449Y320062D01*
X495442Y320043D01*
X495397Y319953D01*
X494715Y318306D01*
X493224Y316815D01*
X491275Y316007D01*
X489165Y316007D01*
G37*
%LPD*%
%LPC*%
G36*
X335452Y49053D02*
X335452Y49053D01*
X331075Y50866D01*
X327726Y54215D01*
X325913Y58592D01*
X325913Y63328D01*
X327726Y67705D01*
X331075Y71054D01*
X335452Y72867D01*
X340188Y72867D01*
X344565Y71054D01*
X347914Y67705D01*
X349727Y63328D01*
X349727Y58592D01*
X347914Y54215D01*
X344565Y50866D01*
X340188Y49053D01*
X335452Y49053D01*
G37*
%LPD*%
%LPC*%
G36*
X594449Y20732D02*
X594449Y20732D01*
X592267Y21636D01*
X590596Y23307D01*
X589692Y25489D01*
X589692Y27851D01*
X590596Y30033D01*
X592267Y31704D01*
X594449Y32608D01*
X596811Y32608D01*
X598993Y31704D01*
X599812Y30885D01*
X599906Y30812D01*
X599996Y30733D01*
X600032Y30715D01*
X600064Y30690D01*
X600173Y30643D01*
X600279Y30588D01*
X600318Y30580D01*
X600356Y30563D01*
X600473Y30545D01*
X600589Y30519D01*
X600630Y30520D01*
X600670Y30514D01*
X600788Y30525D01*
X600907Y30528D01*
X600946Y30540D01*
X600986Y30543D01*
X601099Y30584D01*
X601213Y30617D01*
X601247Y30637D01*
X601286Y30651D01*
X601384Y30718D01*
X601487Y30778D01*
X601532Y30818D01*
X601549Y30830D01*
X601562Y30845D01*
X601607Y30885D01*
X602427Y31704D01*
X604609Y32608D01*
X606971Y32608D01*
X609332Y31630D01*
X609466Y31593D01*
X609599Y31552D01*
X609619Y31551D01*
X609638Y31546D01*
X609778Y31544D01*
X609916Y31537D01*
X609936Y31541D01*
X609956Y31541D01*
X610092Y31574D01*
X610228Y31601D01*
X610246Y31610D01*
X610266Y31615D01*
X610389Y31680D01*
X610514Y31741D01*
X610529Y31754D01*
X610547Y31764D01*
X610650Y31857D01*
X610756Y31948D01*
X610767Y31964D01*
X610782Y31978D01*
X610859Y32094D01*
X610939Y32208D01*
X610946Y32226D01*
X610957Y32243D01*
X611002Y32375D01*
X611051Y32505D01*
X611054Y32525D01*
X611060Y32544D01*
X611071Y32683D01*
X611087Y32821D01*
X611084Y32841D01*
X611085Y32861D01*
X611062Y32998D01*
X611042Y33136D01*
X611033Y33163D01*
X611031Y33175D01*
X611023Y33193D01*
X610990Y33288D01*
X610012Y35649D01*
X610012Y38011D01*
X610916Y40193D01*
X612587Y41864D01*
X614769Y42768D01*
X617131Y42768D01*
X619313Y41864D01*
X620984Y40193D01*
X621888Y38011D01*
X621888Y35649D01*
X620984Y33467D01*
X620165Y32648D01*
X620092Y32554D01*
X620013Y32464D01*
X619995Y32428D01*
X619970Y32396D01*
X619923Y32287D01*
X619868Y32181D01*
X619860Y32142D01*
X619843Y32104D01*
X619825Y31987D01*
X619799Y31871D01*
X619800Y31830D01*
X619794Y31790D01*
X619805Y31672D01*
X619808Y31553D01*
X619820Y31514D01*
X619823Y31474D01*
X619864Y31361D01*
X619897Y31247D01*
X619917Y31213D01*
X619931Y31174D01*
X619998Y31076D01*
X620058Y30973D01*
X620098Y30928D01*
X620110Y30911D01*
X620125Y30898D01*
X620165Y30853D01*
X620984Y30033D01*
X621888Y27851D01*
X621888Y25489D01*
X620984Y23307D01*
X619313Y21636D01*
X617131Y20732D01*
X614769Y20732D01*
X612587Y21636D01*
X611768Y22455D01*
X611680Y22523D01*
X611643Y22558D01*
X611634Y22563D01*
X611584Y22607D01*
X611548Y22625D01*
X611516Y22650D01*
X611407Y22697D01*
X611301Y22752D01*
X611262Y22760D01*
X611224Y22777D01*
X611107Y22795D01*
X610991Y22821D01*
X610950Y22820D01*
X610910Y22826D01*
X610792Y22815D01*
X610673Y22812D01*
X610634Y22800D01*
X610594Y22797D01*
X610481Y22756D01*
X610367Y22723D01*
X610333Y22703D01*
X610294Y22689D01*
X610196Y22622D01*
X610093Y22562D01*
X610048Y22522D01*
X610031Y22510D01*
X610018Y22495D01*
X609973Y22455D01*
X609153Y21636D01*
X606971Y20732D01*
X604609Y20732D01*
X602427Y21636D01*
X601607Y22455D01*
X601520Y22523D01*
X601483Y22558D01*
X601474Y22563D01*
X601424Y22607D01*
X601388Y22625D01*
X601356Y22650D01*
X601247Y22698D01*
X601141Y22752D01*
X601102Y22760D01*
X601064Y22777D01*
X600947Y22795D01*
X600831Y22821D01*
X600790Y22820D01*
X600750Y22826D01*
X600632Y22815D01*
X600513Y22812D01*
X600474Y22800D01*
X600434Y22797D01*
X600322Y22756D01*
X600207Y22723D01*
X600172Y22703D01*
X600134Y22689D01*
X600036Y22622D01*
X599933Y22562D01*
X599888Y22522D01*
X599871Y22510D01*
X599858Y22495D01*
X599812Y22455D01*
X598993Y21636D01*
X596811Y20732D01*
X594449Y20732D01*
G37*
%LPD*%
%LPC*%
G36*
X443319Y211232D02*
X443319Y211232D01*
X441137Y212136D01*
X439466Y213807D01*
X438562Y215989D01*
X438562Y218351D01*
X439466Y220533D01*
X440285Y221353D01*
X440358Y221447D01*
X440437Y221536D01*
X440455Y221572D01*
X440480Y221604D01*
X440528Y221713D01*
X440582Y221819D01*
X440590Y221858D01*
X440607Y221896D01*
X440625Y222013D01*
X440651Y222129D01*
X440650Y222170D01*
X440656Y222210D01*
X440645Y222328D01*
X440642Y222447D01*
X440630Y222486D01*
X440627Y222526D01*
X440586Y222638D01*
X440553Y222753D01*
X440533Y222788D01*
X440519Y222826D01*
X440452Y222924D01*
X440392Y223027D01*
X440352Y223072D01*
X440340Y223089D01*
X440325Y223102D01*
X440285Y223148D01*
X439466Y223967D01*
X438562Y226149D01*
X438562Y228511D01*
X439466Y230693D01*
X441137Y232364D01*
X443319Y233268D01*
X445681Y233268D01*
X447863Y232364D01*
X448682Y231545D01*
X448776Y231472D01*
X448866Y231393D01*
X448902Y231375D01*
X448934Y231350D01*
X449043Y231303D01*
X449149Y231248D01*
X449188Y231240D01*
X449226Y231223D01*
X449343Y231205D01*
X449459Y231179D01*
X449500Y231180D01*
X449540Y231174D01*
X449658Y231185D01*
X449777Y231188D01*
X449816Y231200D01*
X449856Y231203D01*
X449969Y231244D01*
X450083Y231277D01*
X450117Y231297D01*
X450156Y231311D01*
X450254Y231378D01*
X450357Y231438D01*
X450402Y231478D01*
X450419Y231490D01*
X450432Y231505D01*
X450477Y231545D01*
X451297Y232364D01*
X453479Y233268D01*
X455841Y233268D01*
X458023Y232364D01*
X459694Y230693D01*
X460598Y228511D01*
X460598Y226149D01*
X459694Y223967D01*
X458875Y223147D01*
X458802Y223053D01*
X458723Y222964D01*
X458705Y222928D01*
X458680Y222896D01*
X458632Y222787D01*
X458578Y222681D01*
X458570Y222642D01*
X458553Y222604D01*
X458535Y222487D01*
X458509Y222371D01*
X458510Y222330D01*
X458504Y222290D01*
X458515Y222172D01*
X458518Y222053D01*
X458530Y222014D01*
X458533Y221974D01*
X458574Y221862D01*
X458607Y221747D01*
X458627Y221712D01*
X458641Y221674D01*
X458708Y221576D01*
X458768Y221473D01*
X458808Y221428D01*
X458820Y221411D01*
X458835Y221398D01*
X458875Y221352D01*
X459694Y220533D01*
X460598Y218351D01*
X460598Y215989D01*
X459694Y213807D01*
X458023Y212136D01*
X455841Y211232D01*
X453479Y211232D01*
X451297Y212136D01*
X450477Y212955D01*
X450383Y213028D01*
X450294Y213107D01*
X450258Y213125D01*
X450226Y213150D01*
X450117Y213198D01*
X450011Y213252D01*
X449972Y213260D01*
X449934Y213277D01*
X449817Y213295D01*
X449701Y213321D01*
X449660Y213320D01*
X449620Y213326D01*
X449502Y213315D01*
X449383Y213312D01*
X449344Y213300D01*
X449304Y213297D01*
X449192Y213256D01*
X449077Y213223D01*
X449042Y213203D01*
X449004Y213189D01*
X448906Y213122D01*
X448803Y213062D01*
X448758Y213022D01*
X448741Y213010D01*
X448728Y212995D01*
X448682Y212955D01*
X447863Y212136D01*
X445681Y211232D01*
X443319Y211232D01*
G37*
%LPD*%
%LPC*%
G36*
X406942Y44874D02*
X406942Y44874D01*
X406880Y44874D01*
X406819Y44882D01*
X406658Y44874D01*
X406180Y44820D01*
X406158Y44827D01*
X406152Y44828D01*
X406146Y44830D01*
X405994Y44836D01*
X405986Y44837D01*
X405509Y45004D01*
X405448Y45017D01*
X405390Y45039D01*
X405232Y45067D01*
X404753Y45121D01*
X404734Y45132D01*
X404728Y45134D01*
X404723Y45137D01*
X404576Y45178D01*
X404568Y45180D01*
X404140Y45449D01*
X404084Y45475D01*
X404032Y45510D01*
X403933Y45552D01*
X403921Y45558D01*
X403912Y45561D01*
X403884Y45572D01*
X403430Y45731D01*
X403413Y45747D01*
X403408Y45750D01*
X403403Y45754D01*
X403268Y45827D01*
X403262Y45830D01*
X402905Y46188D01*
X402856Y46226D01*
X402813Y46271D01*
X402683Y46365D01*
X402275Y46621D01*
X402262Y46640D01*
X402258Y46644D01*
X402254Y46649D01*
X402139Y46750D01*
X402134Y46754D01*
X401865Y47183D01*
X401826Y47231D01*
X401794Y47284D01*
X401688Y47405D01*
X401347Y47745D01*
X401339Y47767D01*
X401335Y47772D01*
X401333Y47777D01*
X401243Y47901D01*
X401239Y47907D01*
X401072Y48384D01*
X401045Y48439D01*
X401026Y48499D01*
X400949Y48640D01*
X400693Y49048D01*
X400690Y49070D01*
X400687Y49076D01*
X400686Y49082D01*
X400626Y49223D01*
X400624Y49229D01*
X400567Y49732D01*
X400553Y49792D01*
X400547Y49854D01*
X400504Y50009D01*
X400383Y50353D01*
X400389Y50376D01*
X400399Y50536D01*
X400399Y51150D01*
X400398Y51163D01*
X400391Y51292D01*
X400329Y51842D01*
X400342Y51893D01*
X400381Y52019D01*
X400382Y52047D01*
X400389Y52074D01*
X400399Y52234D01*
X400399Y52295D01*
X400398Y52305D01*
X400399Y52314D01*
X400378Y52463D01*
X400359Y52611D01*
X400356Y52620D01*
X400355Y52629D01*
X400303Y52781D01*
X399259Y55300D01*
X399259Y58300D01*
X400303Y60819D01*
X400305Y60828D01*
X400310Y60836D01*
X400347Y60981D01*
X400387Y61126D01*
X400387Y61135D01*
X400389Y61144D01*
X400399Y61305D01*
X400399Y61366D01*
X400396Y61393D01*
X400398Y61421D01*
X400376Y61551D01*
X400359Y61681D01*
X400349Y61707D01*
X400344Y61735D01*
X400330Y61766D01*
X400391Y62308D01*
X400391Y62322D01*
X400399Y62450D01*
X400399Y63064D01*
X400394Y63108D01*
X400396Y63153D01*
X400380Y63236D01*
X400504Y63591D01*
X400517Y63652D01*
X400539Y63710D01*
X400567Y63868D01*
X400621Y64347D01*
X400632Y64366D01*
X400634Y64372D01*
X400637Y64377D01*
X400678Y64524D01*
X400680Y64532D01*
X400949Y64960D01*
X400975Y65016D01*
X401010Y65068D01*
X401072Y65216D01*
X401231Y65670D01*
X401247Y65687D01*
X401250Y65692D01*
X401254Y65697D01*
X401327Y65832D01*
X401330Y65838D01*
X401688Y66195D01*
X401726Y66244D01*
X401771Y66287D01*
X401865Y66417D01*
X402121Y66825D01*
X402140Y66838D01*
X402144Y66842D01*
X402149Y66846D01*
X402250Y66961D01*
X402254Y66966D01*
X402683Y67235D01*
X402731Y67274D01*
X402784Y67306D01*
X402905Y67412D01*
X403245Y67753D01*
X403267Y67761D01*
X403272Y67765D01*
X403277Y67767D01*
X403401Y67857D01*
X403407Y67861D01*
X403884Y68028D01*
X403939Y68055D01*
X403999Y68074D01*
X404140Y68151D01*
X404548Y68407D01*
X404570Y68410D01*
X404576Y68413D01*
X404582Y68414D01*
X404723Y68474D01*
X404729Y68476D01*
X405232Y68533D01*
X405292Y68547D01*
X405354Y68553D01*
X405509Y68596D01*
X405963Y68755D01*
X405986Y68753D01*
X405992Y68754D01*
X405998Y68754D01*
X406149Y68781D01*
X406155Y68782D01*
X406658Y68726D01*
X406720Y68726D01*
X406781Y68718D01*
X406942Y68726D01*
X407420Y68780D01*
X407442Y68773D01*
X407448Y68772D01*
X407454Y68770D01*
X407606Y68764D01*
X407614Y68763D01*
X408091Y68596D01*
X408152Y68583D01*
X408210Y68561D01*
X408368Y68533D01*
X408847Y68479D01*
X408866Y68468D01*
X408872Y68466D01*
X408877Y68463D01*
X409024Y68422D01*
X409032Y68420D01*
X409460Y68151D01*
X409516Y68125D01*
X409568Y68090D01*
X409716Y68028D01*
X410170Y67869D01*
X410187Y67853D01*
X410192Y67850D01*
X410197Y67846D01*
X410333Y67773D01*
X410338Y67770D01*
X410695Y67412D01*
X410744Y67374D01*
X410787Y67329D01*
X410917Y67235D01*
X411325Y66979D01*
X411338Y66960D01*
X411342Y66956D01*
X411346Y66951D01*
X411462Y66850D01*
X411466Y66846D01*
X411735Y66417D01*
X411774Y66369D01*
X411806Y66316D01*
X411912Y66195D01*
X412253Y65855D01*
X412261Y65833D01*
X412265Y65828D01*
X412267Y65823D01*
X412357Y65699D01*
X412361Y65693D01*
X412528Y65216D01*
X412555Y65161D01*
X412574Y65101D01*
X412651Y64960D01*
X412907Y64552D01*
X412910Y64530D01*
X412913Y64524D01*
X412914Y64518D01*
X412974Y64377D01*
X412976Y64371D01*
X413033Y63868D01*
X413047Y63808D01*
X413053Y63746D01*
X413096Y63591D01*
X413217Y63247D01*
X413211Y63224D01*
X413201Y63063D01*
X413201Y62450D01*
X413202Y62437D01*
X413209Y62308D01*
X413271Y61758D01*
X413258Y61707D01*
X413219Y61581D01*
X413218Y61553D01*
X413211Y61526D01*
X413201Y61366D01*
X413201Y61305D01*
X413202Y61295D01*
X413201Y61286D01*
X413222Y61137D01*
X413241Y60989D01*
X413244Y60980D01*
X413245Y60971D01*
X413297Y60819D01*
X414341Y58300D01*
X414341Y56945D01*
X414358Y56807D01*
X414371Y56668D01*
X414378Y56649D01*
X414381Y56629D01*
X414432Y56500D01*
X414479Y56369D01*
X414490Y56352D01*
X414498Y56334D01*
X414579Y56221D01*
X414657Y56106D01*
X414673Y56093D01*
X414684Y56076D01*
X414792Y55987D01*
X414896Y55896D01*
X414914Y55886D01*
X414929Y55873D01*
X415055Y55814D01*
X415179Y55751D01*
X415199Y55747D01*
X415217Y55738D01*
X415354Y55712D01*
X415489Y55681D01*
X415510Y55682D01*
X415529Y55678D01*
X415668Y55687D01*
X415807Y55691D01*
X415827Y55697D01*
X415847Y55698D01*
X415979Y55741D01*
X416113Y55779D01*
X416130Y55790D01*
X416149Y55796D01*
X416267Y55870D01*
X416387Y55941D01*
X416408Y55959D01*
X416418Y55966D01*
X416432Y55981D01*
X416507Y56047D01*
X417559Y57099D01*
X419857Y58051D01*
X422343Y58051D01*
X424641Y57099D01*
X426399Y55341D01*
X427351Y53043D01*
X427351Y50557D01*
X426399Y48259D01*
X424641Y46501D01*
X422343Y45549D01*
X419857Y45549D01*
X417559Y46501D01*
X415801Y48259D01*
X415377Y49282D01*
X415377Y49283D01*
X415377Y49284D01*
X415300Y49418D01*
X415256Y49495D01*
X415245Y49516D01*
X415242Y49519D01*
X415220Y49558D01*
X415219Y49559D01*
X415219Y49560D01*
X415110Y49671D01*
X414999Y49786D01*
X414998Y49787D01*
X414997Y49788D01*
X414866Y49868D01*
X414727Y49953D01*
X414726Y49953D01*
X414725Y49954D01*
X414571Y50001D01*
X414423Y50046D01*
X414422Y50046D01*
X414421Y50047D01*
X414257Y50054D01*
X414106Y50061D01*
X414105Y50061D01*
X414104Y50061D01*
X413954Y50030D01*
X413794Y49997D01*
X413793Y49997D01*
X413792Y49996D01*
X413664Y49933D01*
X413509Y49857D01*
X413508Y49857D01*
X413507Y49856D01*
X413452Y49809D01*
X413413Y49782D01*
X413343Y49726D01*
X413285Y49667D01*
X413267Y49651D01*
X413266Y49650D01*
X413265Y49649D01*
X413257Y49638D01*
X413238Y49618D01*
X413128Y49508D01*
X413125Y49503D01*
X413121Y49498D01*
X413045Y49367D01*
X412968Y49234D01*
X412966Y49228D01*
X412963Y49223D01*
X412922Y49075D01*
X412920Y49068D01*
X412651Y48640D01*
X412625Y48584D01*
X412590Y48532D01*
X412528Y48384D01*
X412369Y47930D01*
X412353Y47913D01*
X412350Y47908D01*
X412346Y47903D01*
X412273Y47768D01*
X412270Y47762D01*
X411912Y47405D01*
X411874Y47356D01*
X411829Y47313D01*
X411735Y47183D01*
X411479Y46775D01*
X411460Y46762D01*
X411456Y46758D01*
X411451Y46754D01*
X411350Y46639D01*
X411346Y46634D01*
X410917Y46365D01*
X410869Y46326D01*
X410816Y46294D01*
X410695Y46188D01*
X410355Y45847D01*
X410333Y45839D01*
X410328Y45835D01*
X410323Y45833D01*
X410199Y45743D01*
X410193Y45739D01*
X409716Y45572D01*
X409661Y45545D01*
X409601Y45526D01*
X409540Y45492D01*
X409536Y45491D01*
X409534Y45489D01*
X409460Y45449D01*
X409052Y45193D01*
X409030Y45190D01*
X409024Y45187D01*
X409018Y45186D01*
X408877Y45126D01*
X408871Y45124D01*
X408368Y45067D01*
X408308Y45053D01*
X408246Y45047D01*
X408091Y45004D01*
X407637Y44845D01*
X407614Y44847D01*
X407608Y44846D01*
X407602Y44846D01*
X407451Y44819D01*
X407445Y44818D01*
X406942Y44874D01*
G37*
%LPD*%
%LPC*%
G36*
X493342Y44874D02*
X493342Y44874D01*
X493280Y44874D01*
X493219Y44882D01*
X493058Y44874D01*
X492580Y44820D01*
X492558Y44827D01*
X492552Y44828D01*
X492546Y44830D01*
X492394Y44836D01*
X492386Y44837D01*
X491909Y45004D01*
X491848Y45017D01*
X491790Y45039D01*
X491632Y45067D01*
X491153Y45121D01*
X491134Y45132D01*
X491128Y45134D01*
X491123Y45137D01*
X490976Y45178D01*
X490968Y45180D01*
X490540Y45449D01*
X490484Y45475D01*
X490432Y45510D01*
X490333Y45552D01*
X490321Y45558D01*
X490312Y45561D01*
X490284Y45572D01*
X489830Y45731D01*
X489813Y45747D01*
X489808Y45750D01*
X489803Y45754D01*
X489668Y45827D01*
X489662Y45830D01*
X489305Y46188D01*
X489256Y46226D01*
X489213Y46271D01*
X489083Y46365D01*
X488675Y46621D01*
X488662Y46640D01*
X488658Y46644D01*
X488654Y46649D01*
X488539Y46750D01*
X488534Y46754D01*
X488265Y47183D01*
X488226Y47231D01*
X488194Y47284D01*
X488088Y47405D01*
X487747Y47745D01*
X487739Y47767D01*
X487735Y47772D01*
X487733Y47777D01*
X487643Y47901D01*
X487639Y47907D01*
X487472Y48384D01*
X487445Y48439D01*
X487426Y48499D01*
X487349Y48640D01*
X487093Y49048D01*
X487090Y49070D01*
X487087Y49076D01*
X487086Y49082D01*
X487026Y49223D01*
X486968Y49364D01*
X486964Y49369D01*
X486962Y49375D01*
X486869Y49495D01*
X486776Y49618D01*
X486770Y49624D01*
X486768Y49627D01*
X486760Y49633D01*
X486657Y49726D01*
X486638Y49741D01*
X486622Y49759D01*
X486621Y49760D01*
X486620Y49761D01*
X486485Y49850D01*
X486356Y49935D01*
X486355Y49935D01*
X486354Y49936D01*
X486206Y49987D01*
X486056Y50038D01*
X486055Y50038D01*
X486054Y50039D01*
X485895Y50051D01*
X485739Y50064D01*
X485738Y50064D01*
X485737Y50064D01*
X485581Y50037D01*
X485425Y50010D01*
X485424Y50010D01*
X485423Y50010D01*
X485285Y49947D01*
X485135Y49880D01*
X485134Y49879D01*
X485133Y49879D01*
X485012Y49782D01*
X484886Y49682D01*
X484886Y49681D01*
X484885Y49680D01*
X484856Y49642D01*
X484853Y49638D01*
X484783Y49545D01*
X484695Y49428D01*
X484694Y49427D01*
X484694Y49426D01*
X484623Y49282D01*
X484199Y48259D01*
X482441Y46501D01*
X480143Y45549D01*
X477657Y45549D01*
X475359Y46501D01*
X473601Y48259D01*
X472649Y50557D01*
X472649Y53043D01*
X473601Y55341D01*
X475359Y57099D01*
X477657Y58051D01*
X480143Y58051D01*
X482441Y57099D01*
X483493Y56047D01*
X483602Y55963D01*
X483709Y55873D01*
X483728Y55865D01*
X483744Y55852D01*
X483871Y55797D01*
X483997Y55738D01*
X484017Y55734D01*
X484036Y55726D01*
X484174Y55704D01*
X484310Y55678D01*
X484330Y55679D01*
X484350Y55676D01*
X484489Y55689D01*
X484627Y55698D01*
X484646Y55704D01*
X484666Y55706D01*
X484798Y55753D01*
X484929Y55796D01*
X484947Y55807D01*
X484966Y55814D01*
X485081Y55892D01*
X485198Y55966D01*
X485212Y55981D01*
X485229Y55992D01*
X485321Y56096D01*
X485416Y56198D01*
X485426Y56215D01*
X485439Y56231D01*
X485502Y56354D01*
X485570Y56476D01*
X485575Y56496D01*
X485584Y56514D01*
X485614Y56650D01*
X485649Y56784D01*
X485651Y56812D01*
X485654Y56824D01*
X485653Y56845D01*
X485659Y56945D01*
X485659Y58300D01*
X486703Y60819D01*
X486705Y60828D01*
X486710Y60836D01*
X486747Y60981D01*
X486787Y61126D01*
X486787Y61135D01*
X486789Y61144D01*
X486799Y61305D01*
X486799Y61366D01*
X486796Y61393D01*
X486798Y61421D01*
X486776Y61551D01*
X486759Y61681D01*
X486749Y61707D01*
X486744Y61735D01*
X486730Y61766D01*
X486791Y62308D01*
X486791Y62322D01*
X486799Y62450D01*
X486799Y63064D01*
X486794Y63108D01*
X486796Y63153D01*
X486780Y63236D01*
X486904Y63591D01*
X486917Y63652D01*
X486939Y63710D01*
X486967Y63868D01*
X487021Y64347D01*
X487032Y64366D01*
X487034Y64372D01*
X487037Y64377D01*
X487078Y64524D01*
X487080Y64532D01*
X487349Y64960D01*
X487375Y65016D01*
X487410Y65068D01*
X487472Y65216D01*
X487631Y65670D01*
X487647Y65687D01*
X487650Y65692D01*
X487654Y65697D01*
X487727Y65832D01*
X487730Y65838D01*
X488088Y66195D01*
X488126Y66244D01*
X488171Y66287D01*
X488265Y66417D01*
X488521Y66825D01*
X488540Y66838D01*
X488544Y66842D01*
X488549Y66846D01*
X488650Y66961D01*
X488654Y66966D01*
X489083Y67235D01*
X489131Y67274D01*
X489184Y67306D01*
X489305Y67412D01*
X489645Y67753D01*
X489667Y67761D01*
X489672Y67765D01*
X489677Y67767D01*
X489801Y67857D01*
X489807Y67861D01*
X490284Y68028D01*
X490339Y68055D01*
X490399Y68074D01*
X490540Y68151D01*
X490948Y68407D01*
X490970Y68410D01*
X490976Y68413D01*
X490982Y68414D01*
X491123Y68474D01*
X491129Y68476D01*
X491632Y68533D01*
X491692Y68547D01*
X491754Y68553D01*
X491909Y68596D01*
X492363Y68755D01*
X492386Y68753D01*
X492392Y68754D01*
X492398Y68754D01*
X492549Y68781D01*
X492555Y68782D01*
X493058Y68726D01*
X493120Y68726D01*
X493181Y68718D01*
X493342Y68726D01*
X493820Y68780D01*
X493842Y68773D01*
X493848Y68772D01*
X493854Y68770D01*
X494006Y68764D01*
X494014Y68763D01*
X494491Y68596D01*
X494552Y68583D01*
X494610Y68561D01*
X494768Y68533D01*
X495247Y68479D01*
X495266Y68468D01*
X495272Y68466D01*
X495277Y68463D01*
X495424Y68422D01*
X495432Y68420D01*
X495860Y68151D01*
X495916Y68125D01*
X495968Y68090D01*
X496116Y68028D01*
X496570Y67869D01*
X496587Y67853D01*
X496592Y67850D01*
X496597Y67846D01*
X496733Y67773D01*
X496738Y67770D01*
X497095Y67412D01*
X497144Y67374D01*
X497187Y67329D01*
X497317Y67235D01*
X497725Y66979D01*
X497738Y66960D01*
X497742Y66956D01*
X497746Y66951D01*
X497862Y66850D01*
X497866Y66846D01*
X498135Y66417D01*
X498174Y66369D01*
X498206Y66316D01*
X498312Y66195D01*
X498653Y65855D01*
X498661Y65833D01*
X498665Y65828D01*
X498667Y65823D01*
X498757Y65699D01*
X498761Y65693D01*
X498928Y65216D01*
X498955Y65161D01*
X498974Y65101D01*
X499051Y64960D01*
X499307Y64552D01*
X499310Y64530D01*
X499313Y64524D01*
X499314Y64518D01*
X499374Y64377D01*
X499376Y64371D01*
X499433Y63868D01*
X499447Y63808D01*
X499453Y63746D01*
X499496Y63591D01*
X499617Y63247D01*
X499611Y63224D01*
X499601Y63064D01*
X499601Y62450D01*
X499602Y62437D01*
X499609Y62308D01*
X499671Y61758D01*
X499658Y61707D01*
X499619Y61581D01*
X499618Y61553D01*
X499611Y61526D01*
X499601Y61366D01*
X499601Y61305D01*
X499602Y61295D01*
X499601Y61286D01*
X499622Y61137D01*
X499641Y60989D01*
X499644Y60980D01*
X499645Y60971D01*
X499697Y60819D01*
X500741Y58300D01*
X500741Y55300D01*
X499697Y52781D01*
X499695Y52772D01*
X499690Y52764D01*
X499653Y52619D01*
X499613Y52474D01*
X499613Y52465D01*
X499611Y52456D01*
X499601Y52295D01*
X499601Y52234D01*
X499604Y52207D01*
X499602Y52179D01*
X499624Y52049D01*
X499641Y51919D01*
X499651Y51893D01*
X499656Y51865D01*
X499670Y51834D01*
X499609Y51292D01*
X499609Y51278D01*
X499601Y51150D01*
X499601Y50536D01*
X499606Y50492D01*
X499604Y50447D01*
X499620Y50364D01*
X499496Y50009D01*
X499483Y49948D01*
X499461Y49890D01*
X499433Y49732D01*
X499379Y49253D01*
X499368Y49234D01*
X499366Y49228D01*
X499363Y49223D01*
X499322Y49075D01*
X499320Y49068D01*
X499051Y48640D01*
X499025Y48584D01*
X498990Y48532D01*
X498928Y48384D01*
X498769Y47930D01*
X498753Y47913D01*
X498750Y47908D01*
X498746Y47903D01*
X498673Y47768D01*
X498670Y47762D01*
X498312Y47405D01*
X498274Y47356D01*
X498229Y47313D01*
X498135Y47183D01*
X497879Y46775D01*
X497860Y46762D01*
X497856Y46758D01*
X497851Y46754D01*
X497750Y46639D01*
X497746Y46634D01*
X497317Y46365D01*
X497269Y46326D01*
X497216Y46294D01*
X497095Y46188D01*
X496755Y45847D01*
X496733Y45839D01*
X496728Y45835D01*
X496723Y45833D01*
X496599Y45743D01*
X496593Y45739D01*
X496116Y45572D01*
X496061Y45545D01*
X496001Y45526D01*
X495940Y45492D01*
X495936Y45491D01*
X495934Y45489D01*
X495860Y45449D01*
X495452Y45193D01*
X495430Y45190D01*
X495424Y45187D01*
X495418Y45186D01*
X495277Y45126D01*
X495271Y45124D01*
X494768Y45067D01*
X494708Y45053D01*
X494646Y45047D01*
X494491Y45004D01*
X494037Y44845D01*
X494014Y44847D01*
X494008Y44846D01*
X494002Y44846D01*
X493851Y44819D01*
X493845Y44818D01*
X493342Y44874D01*
G37*
%LPD*%
%LPC*%
G36*
X181730Y277427D02*
X181730Y277427D01*
X179604Y278308D01*
X177978Y279934D01*
X177097Y282060D01*
X177097Y284360D01*
X177978Y286486D01*
X179513Y288021D01*
X179540Y288064D01*
X179575Y288102D01*
X179585Y288137D01*
X179604Y288168D01*
X179609Y288219D01*
X179624Y288268D01*
X179618Y288304D01*
X179621Y288341D01*
X179603Y288388D01*
X179594Y288439D01*
X179570Y288474D01*
X179559Y288503D01*
X179537Y288524D01*
X179513Y288559D01*
X177978Y290094D01*
X177097Y292220D01*
X177097Y294520D01*
X177978Y296646D01*
X179604Y298272D01*
X181730Y299153D01*
X184030Y299153D01*
X186156Y298272D01*
X187691Y296737D01*
X187734Y296710D01*
X187772Y296675D01*
X187807Y296665D01*
X187838Y296646D01*
X187889Y296641D01*
X187938Y296626D01*
X187974Y296632D01*
X188011Y296629D01*
X188059Y296647D01*
X188109Y296656D01*
X188144Y296680D01*
X188173Y296691D01*
X188194Y296713D01*
X188229Y296737D01*
X189764Y298272D01*
X191890Y299153D01*
X194190Y299153D01*
X196316Y298272D01*
X197942Y296646D01*
X198823Y294520D01*
X198823Y292220D01*
X197942Y290094D01*
X196407Y288559D01*
X196380Y288516D01*
X196345Y288478D01*
X196335Y288443D01*
X196316Y288412D01*
X196311Y288361D01*
X196296Y288312D01*
X196302Y288276D01*
X196299Y288239D01*
X196317Y288192D01*
X196326Y288141D01*
X196350Y288106D01*
X196361Y288077D01*
X196383Y288056D01*
X196407Y288021D01*
X197942Y286486D01*
X198823Y284360D01*
X198823Y282060D01*
X197942Y279934D01*
X196316Y278308D01*
X194190Y277427D01*
X191890Y277427D01*
X189764Y278308D01*
X188229Y279843D01*
X188186Y279870D01*
X188148Y279905D01*
X188113Y279915D01*
X188082Y279934D01*
X188031Y279939D01*
X187982Y279954D01*
X187946Y279948D01*
X187909Y279951D01*
X187862Y279933D01*
X187811Y279924D01*
X187776Y279900D01*
X187747Y279889D01*
X187726Y279867D01*
X187691Y279843D01*
X186156Y278308D01*
X184030Y277427D01*
X181730Y277427D01*
G37*
%LPD*%
%LPC*%
G36*
X867586Y154229D02*
X867586Y154229D01*
X864050Y155694D01*
X861344Y158400D01*
X859879Y161936D01*
X859879Y165764D01*
X861344Y169300D01*
X864050Y172006D01*
X867586Y173471D01*
X871414Y173471D01*
X874950Y172006D01*
X877656Y169300D01*
X879121Y165764D01*
X879121Y161936D01*
X877656Y158400D01*
X874950Y155694D01*
X871414Y154229D01*
X867586Y154229D01*
G37*
%LPD*%
%LPC*%
G36*
X867586Y103429D02*
X867586Y103429D01*
X864050Y104894D01*
X861344Y107600D01*
X859879Y111136D01*
X859879Y114964D01*
X861344Y118500D01*
X864050Y121206D01*
X867586Y122671D01*
X871414Y122671D01*
X874950Y121206D01*
X877656Y118500D01*
X879121Y114964D01*
X879121Y111136D01*
X877656Y107600D01*
X874950Y104894D01*
X871414Y103429D01*
X867586Y103429D01*
G37*
%LPD*%
%LPC*%
G36*
X867586Y128829D02*
X867586Y128829D01*
X864050Y130294D01*
X861344Y133000D01*
X859879Y136536D01*
X859879Y140364D01*
X861344Y143900D01*
X864050Y146606D01*
X867586Y148071D01*
X871414Y148071D01*
X874950Y146606D01*
X877656Y143900D01*
X879121Y140364D01*
X879121Y136536D01*
X877656Y133000D01*
X874950Y130294D01*
X871414Y128829D01*
X867586Y128829D01*
G37*
%LPD*%
%LPC*%
G36*
X867586Y205029D02*
X867586Y205029D01*
X864050Y206494D01*
X861344Y209200D01*
X859879Y212736D01*
X859879Y216564D01*
X861344Y220100D01*
X864050Y222806D01*
X867586Y224271D01*
X871414Y224271D01*
X874950Y222806D01*
X877656Y220100D01*
X879121Y216564D01*
X879121Y212736D01*
X877656Y209200D01*
X874950Y206494D01*
X871414Y205029D01*
X867586Y205029D01*
G37*
%LPD*%
%LPC*%
G36*
X867586Y230429D02*
X867586Y230429D01*
X864050Y231894D01*
X861344Y234600D01*
X859879Y238136D01*
X859879Y241964D01*
X861344Y245500D01*
X864050Y248206D01*
X867586Y249671D01*
X871414Y249671D01*
X874950Y248206D01*
X877656Y245500D01*
X879121Y241964D01*
X879121Y238136D01*
X877656Y234600D01*
X874950Y231894D01*
X871414Y230429D01*
X867586Y230429D01*
G37*
%LPD*%
%LPC*%
G36*
X867586Y281229D02*
X867586Y281229D01*
X864050Y282694D01*
X861344Y285400D01*
X859879Y288936D01*
X859879Y292764D01*
X861344Y296300D01*
X864050Y299006D01*
X867586Y300471D01*
X871414Y300471D01*
X874950Y299006D01*
X877656Y296300D01*
X879121Y292764D01*
X879121Y288936D01*
X877656Y285400D01*
X874950Y282694D01*
X871414Y281229D01*
X867586Y281229D01*
G37*
%LPD*%
%LPC*%
G36*
X867586Y255829D02*
X867586Y255829D01*
X864050Y257294D01*
X861344Y260000D01*
X859879Y263536D01*
X859879Y267364D01*
X861344Y270900D01*
X864050Y273606D01*
X867586Y275071D01*
X871414Y275071D01*
X874950Y273606D01*
X877656Y270900D01*
X879121Y267364D01*
X879121Y263536D01*
X877656Y260000D01*
X874950Y257294D01*
X871414Y255829D01*
X867586Y255829D01*
G37*
%LPD*%
%LPC*%
G36*
X867586Y179629D02*
X867586Y179629D01*
X864050Y181094D01*
X861344Y183800D01*
X859879Y187336D01*
X859879Y191164D01*
X861344Y194700D01*
X864050Y197406D01*
X867586Y198871D01*
X871414Y198871D01*
X874950Y197406D01*
X877656Y194700D01*
X879121Y191164D01*
X879121Y187336D01*
X877656Y183800D01*
X874950Y181094D01*
X871414Y179629D01*
X867586Y179629D01*
G37*
%LPD*%
%LPC*%
G36*
X28086Y179629D02*
X28086Y179629D01*
X24550Y181094D01*
X21844Y183800D01*
X20379Y187336D01*
X20379Y191164D01*
X21844Y194700D01*
X24550Y197406D01*
X28086Y198871D01*
X31914Y198871D01*
X35450Y197406D01*
X38156Y194700D01*
X39621Y191164D01*
X39621Y187336D01*
X38156Y183800D01*
X35450Y181094D01*
X31914Y179629D01*
X28086Y179629D01*
G37*
%LPD*%
%LPC*%
G36*
X28086Y281229D02*
X28086Y281229D01*
X24550Y282694D01*
X21844Y285400D01*
X20379Y288936D01*
X20379Y292764D01*
X21844Y296300D01*
X24550Y299006D01*
X28086Y300471D01*
X31914Y300471D01*
X35450Y299006D01*
X38156Y296300D01*
X39621Y292764D01*
X39621Y288936D01*
X38156Y285400D01*
X35450Y282694D01*
X31914Y281229D01*
X28086Y281229D01*
G37*
%LPD*%
%LPC*%
G36*
X28086Y103429D02*
X28086Y103429D01*
X24550Y104894D01*
X21844Y107600D01*
X20379Y111136D01*
X20379Y114964D01*
X21844Y118500D01*
X24550Y121206D01*
X28086Y122671D01*
X31914Y122671D01*
X35450Y121206D01*
X38156Y118500D01*
X39621Y114964D01*
X39621Y111136D01*
X38156Y107600D01*
X35450Y104894D01*
X31914Y103429D01*
X28086Y103429D01*
G37*
%LPD*%
%LPC*%
G36*
X28086Y205029D02*
X28086Y205029D01*
X24550Y206494D01*
X21844Y209200D01*
X20379Y212736D01*
X20379Y216564D01*
X21844Y220100D01*
X24550Y222806D01*
X28086Y224271D01*
X31914Y224271D01*
X35450Y222806D01*
X38156Y220100D01*
X39621Y216564D01*
X39621Y212736D01*
X38156Y209200D01*
X35450Y206494D01*
X31914Y205029D01*
X28086Y205029D01*
G37*
%LPD*%
%LPC*%
G36*
X28086Y154229D02*
X28086Y154229D01*
X24550Y155694D01*
X21844Y158400D01*
X20379Y161936D01*
X20379Y165764D01*
X21844Y169300D01*
X24550Y172006D01*
X28086Y173471D01*
X31914Y173471D01*
X35450Y172006D01*
X38156Y169300D01*
X39621Y165764D01*
X39621Y161936D01*
X38156Y158400D01*
X35450Y155694D01*
X31914Y154229D01*
X28086Y154229D01*
G37*
%LPD*%
%LPC*%
G36*
X28086Y255829D02*
X28086Y255829D01*
X24550Y257294D01*
X21844Y260000D01*
X20379Y263536D01*
X20379Y267364D01*
X21844Y270900D01*
X24550Y273606D01*
X28086Y275071D01*
X31914Y275071D01*
X35450Y273606D01*
X38156Y270900D01*
X39621Y267364D01*
X39621Y263536D01*
X38156Y260000D01*
X35450Y257294D01*
X31914Y255829D01*
X28086Y255829D01*
G37*
%LPD*%
%LPC*%
G36*
X28086Y128829D02*
X28086Y128829D01*
X24550Y130294D01*
X21844Y133000D01*
X20379Y136536D01*
X20379Y140364D01*
X21844Y143900D01*
X24550Y146606D01*
X28086Y148071D01*
X31914Y148071D01*
X35450Y146606D01*
X38156Y143900D01*
X39621Y140364D01*
X39621Y136536D01*
X38156Y133000D01*
X35450Y130294D01*
X31914Y128829D01*
X28086Y128829D01*
G37*
%LPD*%
%LPC*%
G36*
X28086Y78029D02*
X28086Y78029D01*
X24550Y79494D01*
X21844Y82200D01*
X20379Y85736D01*
X20379Y89564D01*
X21844Y93100D01*
X24550Y95806D01*
X28086Y97271D01*
X31914Y97271D01*
X35450Y95806D01*
X38156Y93100D01*
X39621Y89564D01*
X39621Y85736D01*
X38156Y82200D01*
X35450Y79494D01*
X31914Y78029D01*
X28086Y78029D01*
G37*
%LPD*%
%LPC*%
G36*
X28086Y230429D02*
X28086Y230429D01*
X24550Y231894D01*
X21844Y234600D01*
X20379Y238136D01*
X20379Y241964D01*
X21844Y245500D01*
X24550Y248206D01*
X28086Y249671D01*
X31914Y249671D01*
X35450Y248206D01*
X38156Y245500D01*
X39621Y241964D01*
X39621Y238136D01*
X38156Y234600D01*
X35450Y231894D01*
X31914Y230429D01*
X28086Y230429D01*
G37*
%LPD*%
G36*
X407969Y45929D02*
X407969Y45929D01*
X408010Y45943D01*
X408077Y45954D01*
X409134Y46324D01*
X409155Y46336D01*
X409171Y46340D01*
X409194Y46355D01*
X409235Y46372D01*
X410183Y46968D01*
X410214Y46998D01*
X410270Y47038D01*
X411062Y47830D01*
X411086Y47866D01*
X411132Y47917D01*
X411728Y48865D01*
X411743Y48905D01*
X411776Y48966D01*
X412146Y50023D01*
X412152Y50065D01*
X412171Y50132D01*
X412296Y51244D01*
X412294Y51269D01*
X412299Y51300D01*
X412299Y62300D01*
X412294Y62324D01*
X412296Y62356D01*
X412171Y63469D01*
X412157Y63510D01*
X412146Y63577D01*
X411776Y64634D01*
X411754Y64671D01*
X411728Y64735D01*
X411132Y65683D01*
X411102Y65714D01*
X411062Y65770D01*
X410270Y66562D01*
X410234Y66586D01*
X410183Y66632D01*
X409235Y67228D01*
X409195Y67243D01*
X409134Y67276D01*
X408077Y67646D01*
X408035Y67652D01*
X407969Y67671D01*
X406856Y67796D01*
X406813Y67792D01*
X406744Y67796D01*
X405632Y67671D01*
X405590Y67657D01*
X405523Y67646D01*
X404466Y67276D01*
X404429Y67254D01*
X404365Y67228D01*
X403417Y66632D01*
X403386Y66602D01*
X403330Y66562D01*
X402538Y65770D01*
X402514Y65734D01*
X402468Y65683D01*
X401872Y64735D01*
X401857Y64695D01*
X401824Y64634D01*
X401454Y63577D01*
X401448Y63535D01*
X401429Y63469D01*
X401304Y62356D01*
X401306Y62331D01*
X401301Y62300D01*
X401301Y51300D01*
X401304Y51286D01*
X401302Y51276D01*
X401305Y51263D01*
X401304Y51244D01*
X401429Y50132D01*
X401443Y50090D01*
X401454Y50023D01*
X401824Y48966D01*
X401846Y48929D01*
X401872Y48865D01*
X402468Y47917D01*
X402498Y47886D01*
X402538Y47830D01*
X403330Y47038D01*
X403366Y47014D01*
X403417Y46968D01*
X404365Y46372D01*
X404405Y46357D01*
X404466Y46324D01*
X405523Y45954D01*
X405565Y45948D01*
X405632Y45929D01*
X406744Y45804D01*
X406787Y45808D01*
X406856Y45804D01*
X407969Y45929D01*
G37*
G36*
X494369Y45929D02*
X494369Y45929D01*
X494410Y45943D01*
X494477Y45954D01*
X495534Y46324D01*
X495555Y46336D01*
X495571Y46340D01*
X495594Y46355D01*
X495635Y46372D01*
X496583Y46968D01*
X496614Y46998D01*
X496670Y47038D01*
X497462Y47830D01*
X497486Y47866D01*
X497532Y47917D01*
X498128Y48865D01*
X498143Y48905D01*
X498176Y48966D01*
X498546Y50023D01*
X498552Y50065D01*
X498571Y50132D01*
X498696Y51244D01*
X498694Y51269D01*
X498699Y51300D01*
X498699Y62300D01*
X498694Y62324D01*
X498696Y62356D01*
X498571Y63469D01*
X498557Y63510D01*
X498546Y63577D01*
X498176Y64634D01*
X498154Y64671D01*
X498128Y64735D01*
X497532Y65683D01*
X497502Y65714D01*
X497462Y65770D01*
X496670Y66562D01*
X496634Y66586D01*
X496583Y66632D01*
X495635Y67228D01*
X495595Y67243D01*
X495534Y67276D01*
X494477Y67646D01*
X494435Y67652D01*
X494369Y67671D01*
X493256Y67796D01*
X493213Y67792D01*
X493144Y67796D01*
X492032Y67671D01*
X491990Y67657D01*
X491923Y67646D01*
X490866Y67276D01*
X490829Y67254D01*
X490765Y67228D01*
X489817Y66632D01*
X489786Y66602D01*
X489730Y66562D01*
X488938Y65770D01*
X488914Y65734D01*
X488868Y65683D01*
X488272Y64735D01*
X488257Y64695D01*
X488224Y64634D01*
X487854Y63577D01*
X487848Y63535D01*
X487829Y63469D01*
X487704Y62356D01*
X487706Y62331D01*
X487701Y62300D01*
X487701Y51300D01*
X487704Y51286D01*
X487702Y51276D01*
X487705Y51263D01*
X487704Y51244D01*
X487829Y50132D01*
X487843Y50090D01*
X487854Y50023D01*
X488224Y48966D01*
X488246Y48929D01*
X488272Y48865D01*
X488868Y47917D01*
X488898Y47886D01*
X488938Y47830D01*
X489730Y47038D01*
X489766Y47014D01*
X489817Y46968D01*
X490765Y46372D01*
X490805Y46357D01*
X490866Y46324D01*
X491923Y45954D01*
X491965Y45948D01*
X492032Y45929D01*
X493144Y45804D01*
X493187Y45808D01*
X493256Y45804D01*
X494369Y45929D01*
G37*
%LPC*%
G36*
X137280Y264727D02*
X137280Y264727D01*
X135154Y265608D01*
X133528Y267234D01*
X132647Y269360D01*
X132647Y271660D01*
X133528Y273786D01*
X135063Y275321D01*
X135090Y275364D01*
X135125Y275402D01*
X135135Y275437D01*
X135154Y275468D01*
X135159Y275519D01*
X135174Y275568D01*
X135168Y275604D01*
X135171Y275641D01*
X135153Y275689D01*
X135144Y275739D01*
X135120Y275774D01*
X135109Y275803D01*
X135087Y275824D01*
X135063Y275859D01*
X133528Y277394D01*
X132647Y279520D01*
X132647Y281820D01*
X133528Y283946D01*
X135154Y285572D01*
X137280Y286453D01*
X139580Y286453D01*
X141706Y285572D01*
X143332Y283946D01*
X144213Y281820D01*
X144213Y279520D01*
X143332Y277394D01*
X141797Y275859D01*
X141770Y275816D01*
X141735Y275778D01*
X141725Y275743D01*
X141706Y275712D01*
X141701Y275661D01*
X141686Y275612D01*
X141692Y275576D01*
X141689Y275539D01*
X141707Y275492D01*
X141716Y275441D01*
X141740Y275406D01*
X141751Y275377D01*
X141773Y275356D01*
X141797Y275321D01*
X143332Y273786D01*
X144213Y271660D01*
X144213Y269360D01*
X143332Y267234D01*
X141706Y265608D01*
X139580Y264727D01*
X137280Y264727D01*
G37*
%LPD*%
G36*
X407969Y5629D02*
X407969Y5629D01*
X408010Y5643D01*
X408077Y5654D01*
X409134Y6024D01*
X409155Y6036D01*
X409171Y6040D01*
X409194Y6055D01*
X409235Y6072D01*
X410183Y6668D01*
X410214Y6698D01*
X410270Y6738D01*
X411062Y7530D01*
X411086Y7566D01*
X411132Y7617D01*
X411728Y8565D01*
X411743Y8605D01*
X411776Y8666D01*
X412146Y9723D01*
X412152Y9765D01*
X412171Y9832D01*
X412296Y10944D01*
X412294Y10969D01*
X412299Y11000D01*
X412299Y19000D01*
X412294Y19024D01*
X412296Y19056D01*
X412171Y20169D01*
X412157Y20210D01*
X412146Y20277D01*
X411776Y21334D01*
X411754Y21371D01*
X411728Y21435D01*
X411132Y22383D01*
X411102Y22414D01*
X411062Y22470D01*
X410270Y23262D01*
X410234Y23286D01*
X410183Y23332D01*
X409235Y23928D01*
X409195Y23943D01*
X409134Y23976D01*
X408077Y24346D01*
X408035Y24352D01*
X407969Y24371D01*
X406856Y24496D01*
X406813Y24492D01*
X406744Y24496D01*
X405632Y24371D01*
X405590Y24357D01*
X405523Y24346D01*
X404466Y23976D01*
X404429Y23954D01*
X404365Y23928D01*
X403417Y23332D01*
X403386Y23302D01*
X403330Y23262D01*
X402538Y22470D01*
X402514Y22434D01*
X402468Y22383D01*
X401872Y21435D01*
X401857Y21395D01*
X401824Y21334D01*
X401454Y20277D01*
X401448Y20235D01*
X401429Y20169D01*
X401304Y19056D01*
X401306Y19031D01*
X401301Y19000D01*
X401301Y11000D01*
X401304Y10986D01*
X401302Y10976D01*
X401305Y10963D01*
X401304Y10944D01*
X401429Y9832D01*
X401443Y9790D01*
X401454Y9723D01*
X401824Y8666D01*
X401846Y8629D01*
X401872Y8565D01*
X402468Y7617D01*
X402498Y7586D01*
X402538Y7530D01*
X403330Y6738D01*
X403366Y6714D01*
X403417Y6668D01*
X404365Y6072D01*
X404405Y6057D01*
X404466Y6024D01*
X405523Y5654D01*
X405565Y5648D01*
X405632Y5629D01*
X406744Y5504D01*
X406787Y5508D01*
X406856Y5504D01*
X407969Y5629D01*
G37*
G36*
X494369Y5629D02*
X494369Y5629D01*
X494410Y5643D01*
X494477Y5654D01*
X495534Y6024D01*
X495555Y6036D01*
X495571Y6040D01*
X495594Y6055D01*
X495635Y6072D01*
X496583Y6668D01*
X496614Y6698D01*
X496670Y6738D01*
X497462Y7530D01*
X497486Y7566D01*
X497532Y7617D01*
X498128Y8565D01*
X498143Y8605D01*
X498176Y8666D01*
X498546Y9723D01*
X498552Y9765D01*
X498571Y9832D01*
X498696Y10944D01*
X498694Y10969D01*
X498699Y11000D01*
X498699Y19000D01*
X498694Y19024D01*
X498696Y19056D01*
X498571Y20169D01*
X498557Y20210D01*
X498546Y20277D01*
X498176Y21334D01*
X498154Y21371D01*
X498128Y21435D01*
X497532Y22383D01*
X497502Y22414D01*
X497462Y22470D01*
X496670Y23262D01*
X496634Y23286D01*
X496583Y23332D01*
X495635Y23928D01*
X495595Y23943D01*
X495534Y23976D01*
X494477Y24346D01*
X494435Y24352D01*
X494369Y24371D01*
X493256Y24496D01*
X493213Y24492D01*
X493144Y24496D01*
X492032Y24371D01*
X491990Y24357D01*
X491923Y24346D01*
X490866Y23976D01*
X490829Y23954D01*
X490765Y23928D01*
X489817Y23332D01*
X489786Y23302D01*
X489730Y23262D01*
X488938Y22470D01*
X488914Y22434D01*
X488868Y22383D01*
X488272Y21435D01*
X488257Y21395D01*
X488224Y21334D01*
X487854Y20277D01*
X487848Y20235D01*
X487829Y20169D01*
X487704Y19056D01*
X487706Y19031D01*
X487701Y19000D01*
X487701Y11000D01*
X487704Y10986D01*
X487702Y10976D01*
X487705Y10963D01*
X487704Y10944D01*
X487829Y9832D01*
X487843Y9790D01*
X487854Y9723D01*
X488224Y8666D01*
X488246Y8629D01*
X488272Y8565D01*
X488868Y7617D01*
X488898Y7586D01*
X488938Y7530D01*
X489730Y6738D01*
X489766Y6714D01*
X489817Y6668D01*
X490765Y6072D01*
X490805Y6057D01*
X490866Y6024D01*
X491923Y5654D01*
X491965Y5648D01*
X492032Y5629D01*
X493144Y5504D01*
X493187Y5508D01*
X493256Y5504D01*
X494369Y5629D01*
G37*
%LPC*%
G36*
X217385Y154717D02*
X217385Y154717D01*
X215436Y155525D01*
X213945Y157016D01*
X213137Y158965D01*
X213137Y161075D01*
X213945Y163024D01*
X215123Y164203D01*
X215196Y164297D01*
X215275Y164386D01*
X215294Y164422D01*
X215318Y164454D01*
X215366Y164563D01*
X215420Y164669D01*
X215429Y164709D01*
X215445Y164746D01*
X215463Y164863D01*
X215489Y164980D01*
X215488Y165020D01*
X215494Y165060D01*
X215483Y165178D01*
X215480Y165297D01*
X215468Y165336D01*
X215465Y165376D01*
X215424Y165489D01*
X215391Y165603D01*
X215371Y165638D01*
X215357Y165676D01*
X215290Y165774D01*
X215230Y165877D01*
X215224Y165883D01*
X214407Y167855D01*
X214407Y169965D01*
X215215Y171914D01*
X216706Y173405D01*
X218655Y174213D01*
X220765Y174213D01*
X222714Y173405D01*
X224205Y171914D01*
X225013Y169965D01*
X225013Y167855D01*
X224205Y165906D01*
X223027Y164728D01*
X222954Y164633D01*
X222875Y164544D01*
X222857Y164508D01*
X222832Y164476D01*
X222785Y164367D01*
X222730Y164261D01*
X222721Y164222D01*
X222705Y164184D01*
X222687Y164067D01*
X222661Y163951D01*
X222662Y163910D01*
X222656Y163870D01*
X222667Y163752D01*
X222670Y163633D01*
X222682Y163594D01*
X222685Y163554D01*
X222726Y163441D01*
X222759Y163327D01*
X222779Y163293D01*
X222793Y163254D01*
X222860Y163156D01*
X222920Y163053D01*
X222926Y163047D01*
X223743Y161075D01*
X223743Y158965D01*
X222935Y157016D01*
X221444Y155525D01*
X219495Y154717D01*
X217385Y154717D01*
G37*
%LPD*%
%LPC*%
G36*
X209521Y204287D02*
X209521Y204287D01*
X207120Y205282D01*
X205282Y207120D01*
X204287Y209521D01*
X204287Y212119D01*
X205282Y214520D01*
X207120Y216358D01*
X209521Y217353D01*
X212119Y217353D01*
X214520Y216358D01*
X216358Y214520D01*
X217353Y212119D01*
X217353Y209521D01*
X216358Y207120D01*
X214520Y205282D01*
X212119Y204287D01*
X209521Y204287D01*
G37*
%LPD*%
%LPC*%
G36*
X434410Y132397D02*
X434410Y132397D01*
X432193Y133316D01*
X430496Y135013D01*
X429577Y137230D01*
X429577Y139630D01*
X430496Y141847D01*
X432193Y143544D01*
X434410Y144463D01*
X436810Y144463D01*
X439027Y143544D01*
X440724Y141847D01*
X441643Y139630D01*
X441643Y137230D01*
X440724Y135013D01*
X439027Y133316D01*
X436810Y132397D01*
X434410Y132397D01*
G37*
%LPD*%
%LPC*%
G36*
X472510Y132397D02*
X472510Y132397D01*
X470293Y133316D01*
X468596Y135013D01*
X467677Y137230D01*
X467677Y139630D01*
X468596Y141847D01*
X470293Y143544D01*
X472510Y144463D01*
X474910Y144463D01*
X477127Y143544D01*
X478824Y141847D01*
X479743Y139630D01*
X479743Y137230D01*
X478824Y135013D01*
X477127Y133316D01*
X474910Y132397D01*
X472510Y132397D01*
G37*
%LPD*%
%LPC*%
G36*
X768439Y309022D02*
X768439Y309022D01*
X766257Y309926D01*
X764586Y311597D01*
X763682Y313779D01*
X763682Y316141D01*
X764586Y318323D01*
X766257Y319994D01*
X768439Y320898D01*
X770801Y320898D01*
X772983Y319994D01*
X774654Y318323D01*
X775558Y316141D01*
X775558Y313779D01*
X774654Y311597D01*
X772983Y309926D01*
X770801Y309022D01*
X768439Y309022D01*
G37*
%LPD*%
%LPC*%
G36*
X483959Y110902D02*
X483959Y110902D01*
X481777Y111806D01*
X480106Y113477D01*
X479202Y115659D01*
X479202Y118021D01*
X480106Y120203D01*
X481777Y121874D01*
X483959Y122778D01*
X486321Y122778D01*
X488503Y121874D01*
X490174Y120203D01*
X491078Y118021D01*
X491078Y115659D01*
X490174Y113477D01*
X488503Y111806D01*
X486321Y110902D01*
X483959Y110902D01*
G37*
%LPD*%
%LPC*%
G36*
X425539Y108362D02*
X425539Y108362D01*
X423357Y109266D01*
X421686Y110937D01*
X420782Y113119D01*
X420782Y115481D01*
X421686Y117663D01*
X423357Y119334D01*
X425539Y120238D01*
X427901Y120238D01*
X430083Y119334D01*
X431754Y117663D01*
X432658Y115481D01*
X432658Y113119D01*
X431754Y110937D01*
X430083Y109266D01*
X427901Y108362D01*
X425539Y108362D01*
G37*
%LPD*%
%LPC*%
G36*
X453479Y91852D02*
X453479Y91852D01*
X451297Y92756D01*
X449626Y94427D01*
X448722Y96609D01*
X448722Y98971D01*
X449626Y101153D01*
X451297Y102824D01*
X453479Y103728D01*
X455841Y103728D01*
X458023Y102824D01*
X459694Y101153D01*
X460598Y98971D01*
X460598Y96609D01*
X459694Y94427D01*
X458023Y92756D01*
X455841Y91852D01*
X453479Y91852D01*
G37*
%LPD*%
%LPC*%
G36*
X191890Y226697D02*
X191890Y226697D01*
X189764Y227578D01*
X188138Y229204D01*
X187257Y231330D01*
X187257Y233630D01*
X188138Y235756D01*
X189764Y237382D01*
X191890Y238263D01*
X194190Y238263D01*
X196316Y237382D01*
X197942Y235756D01*
X198823Y233630D01*
X198823Y231330D01*
X197942Y229204D01*
X196316Y227578D01*
X194190Y226697D01*
X191890Y226697D01*
G37*
%LPD*%
%LPC*%
G36*
X236340Y203767D02*
X236340Y203767D01*
X234214Y204648D01*
X232588Y206274D01*
X231707Y208400D01*
X231707Y210700D01*
X232588Y212826D01*
X234214Y214452D01*
X236340Y215333D01*
X238640Y215333D01*
X240766Y214452D01*
X242392Y212826D01*
X243273Y210700D01*
X243273Y208400D01*
X242392Y206274D01*
X240766Y204648D01*
X238640Y203767D01*
X236340Y203767D01*
G37*
%LPD*%
%LPC*%
G36*
X247770Y160587D02*
X247770Y160587D01*
X245644Y161468D01*
X244018Y163094D01*
X243137Y165220D01*
X243137Y167520D01*
X244018Y169646D01*
X245644Y171272D01*
X247770Y172153D01*
X250070Y172153D01*
X252196Y171272D01*
X253822Y169646D01*
X254703Y167520D01*
X254703Y165220D01*
X253822Y163094D01*
X252196Y161468D01*
X250070Y160587D01*
X247770Y160587D01*
G37*
%LPD*%
%LPC*%
G36*
X212210Y269807D02*
X212210Y269807D01*
X210084Y270688D01*
X208458Y272314D01*
X207577Y274440D01*
X207577Y276740D01*
X208458Y278866D01*
X210084Y280492D01*
X212210Y281373D01*
X214510Y281373D01*
X216636Y280492D01*
X218262Y278866D01*
X219143Y276740D01*
X219143Y274440D01*
X218262Y272314D01*
X216636Y270688D01*
X214510Y269807D01*
X212210Y269807D01*
G37*
%LPD*%
%LPC*%
G36*
X180229Y257291D02*
X180229Y257291D01*
X176988Y260532D01*
X176988Y265116D01*
X180229Y268357D01*
X184812Y268357D01*
X188053Y265116D01*
X188053Y260532D01*
X184812Y257291D01*
X180229Y257291D01*
G37*
%LPD*%
%LPC*%
G36*
X81624Y223297D02*
X81624Y223297D01*
X78517Y226404D01*
X78517Y230796D01*
X81624Y233903D01*
X86016Y233903D01*
X89123Y230796D01*
X89123Y226404D01*
X86016Y223297D01*
X81624Y223297D01*
G37*
%LPD*%
%LPC*%
G36*
X136234Y96297D02*
X136234Y96297D01*
X133127Y99404D01*
X133127Y103796D01*
X136234Y106903D01*
X140626Y106903D01*
X143733Y103796D01*
X143733Y99404D01*
X140626Y96297D01*
X136234Y96297D01*
G37*
%LPD*%
%LPC*%
G36*
X76544Y96297D02*
X76544Y96297D01*
X73437Y99404D01*
X73437Y103796D01*
X76544Y106903D01*
X80936Y106903D01*
X84043Y103796D01*
X84043Y99404D01*
X80936Y96297D01*
X76544Y96297D01*
G37*
%LPD*%
%LPC*%
G36*
X127344Y145827D02*
X127344Y145827D01*
X124237Y148934D01*
X124237Y153326D01*
X127344Y156433D01*
X131736Y156433D01*
X134843Y153326D01*
X134843Y148934D01*
X131736Y145827D01*
X127344Y145827D01*
G37*
%LPD*%
%LPC*%
G36*
X76544Y145827D02*
X76544Y145827D01*
X73437Y148934D01*
X73437Y153326D01*
X76544Y156433D01*
X80936Y156433D01*
X84043Y153326D01*
X84043Y148934D01*
X80936Y145827D01*
X76544Y145827D01*
G37*
%LPD*%
%LPC*%
G36*
X531075Y262667D02*
X531075Y262667D01*
X529126Y263475D01*
X527635Y264966D01*
X526827Y266915D01*
X526827Y269025D01*
X527635Y270974D01*
X529126Y272465D01*
X531075Y273273D01*
X533185Y273273D01*
X535134Y272465D01*
X536625Y270974D01*
X537433Y269025D01*
X537433Y266915D01*
X536625Y264966D01*
X535134Y263475D01*
X533185Y262667D01*
X531075Y262667D01*
G37*
%LPD*%
%LPC*%
G36*
X259295Y202977D02*
X259295Y202977D01*
X257346Y203785D01*
X255855Y205276D01*
X255047Y207225D01*
X255047Y209335D01*
X255855Y211284D01*
X257346Y212775D01*
X259295Y213583D01*
X261405Y213583D01*
X263354Y212775D01*
X264845Y211284D01*
X265653Y209335D01*
X265653Y207225D01*
X264845Y205276D01*
X263354Y203785D01*
X261405Y202977D01*
X259295Y202977D01*
G37*
%LPD*%
%LPC*%
G36*
X268185Y180117D02*
X268185Y180117D01*
X266236Y180925D01*
X264745Y182416D01*
X263937Y184365D01*
X263937Y186475D01*
X264745Y188424D01*
X266236Y189915D01*
X268185Y190723D01*
X270295Y190723D01*
X272244Y189915D01*
X273735Y188424D01*
X274543Y186475D01*
X274543Y184365D01*
X273735Y182416D01*
X272244Y180925D01*
X270295Y180117D01*
X268185Y180117D01*
G37*
%LPD*%
%LPC*%
G36*
X453659Y69897D02*
X453659Y69897D01*
X451809Y70663D01*
X450393Y72079D01*
X449627Y73929D01*
X449627Y75931D01*
X450393Y77781D01*
X451809Y79197D01*
X453659Y79963D01*
X455661Y79963D01*
X457511Y79197D01*
X458927Y77781D01*
X459693Y75931D01*
X459693Y73929D01*
X458927Y72079D01*
X457511Y70663D01*
X455661Y69897D01*
X453659Y69897D01*
G37*
%LPD*%
D10*
X406800Y56800D03*
X493200Y56800D03*
X406800Y15000D03*
X493200Y15000D03*
D11*
X869500Y113050D03*
X869500Y138450D03*
X869500Y163850D03*
X869500Y189250D03*
X869500Y214650D03*
X869500Y240050D03*
X869500Y265450D03*
X869500Y290850D03*
X30000Y87650D03*
X30000Y113050D03*
X30000Y138450D03*
X30000Y163850D03*
X30000Y189250D03*
X30000Y214650D03*
X30000Y240050D03*
X30000Y265450D03*
X30000Y290850D03*
X30000Y316250D03*
D12*
X337820Y60960D03*
X363220Y132080D03*
X622300Y81280D03*
D13*
X532130Y267970D03*
X496570Y327660D03*
X490220Y321310D03*
X502920Y321310D03*
X509270Y327660D03*
X515620Y321310D03*
X521970Y327660D03*
X78740Y101600D03*
X138430Y101600D03*
X83820Y228600D03*
D14*
X106680Y92710D03*
X106680Y82550D03*
X96520Y82550D03*
X96520Y92710D03*
X96520Y102870D03*
X109220Y237490D03*
X109220Y207010D03*
X115570Y214630D03*
X109220Y222250D03*
X115570Y229870D03*
D15*
X186690Y167640D03*
D13*
X219710Y168910D03*
X218440Y160020D03*
D14*
X205740Y99060D03*
X214630Y104140D03*
X214630Y93980D03*
X214630Y83820D03*
X205740Y88900D03*
X205740Y78740D03*
X214630Y73660D03*
X769620Y314960D03*
X518160Y46990D03*
X528320Y46990D03*
X528320Y36830D03*
X518160Y36830D03*
X534670Y27940D03*
X542290Y20320D03*
X615950Y36830D03*
X615950Y26670D03*
X595630Y26670D03*
D11*
X637540Y247650D03*
X656590Y247650D03*
X656590Y228600D03*
X637540Y228600D03*
D16*
X454660Y74930D03*
D14*
X426720Y114300D03*
X485140Y116840D03*
D17*
X193040Y293370D03*
X193040Y283210D03*
X182880Y283210D03*
X182880Y293370D03*
D14*
X67310Y323850D03*
X67310Y334010D03*
X87630Y334010D03*
X97790Y334010D03*
X107950Y334010D03*
X77470Y323850D03*
X77470Y334010D03*
X87630Y323850D03*
X97790Y323850D03*
X107950Y323850D03*
X67310Y313690D03*
X77470Y313690D03*
X67310Y303530D03*
X77470Y303530D03*
X87630Y303530D03*
X87630Y313690D03*
X107950Y313690D03*
X118110Y313690D03*
X128270Y313690D03*
X97790Y303530D03*
X97790Y313690D03*
X107950Y303530D03*
X118110Y303530D03*
X128270Y303530D03*
X87630Y293370D03*
X107950Y293370D03*
X118110Y293370D03*
X128270Y293370D03*
X97790Y293370D03*
X67310Y293370D03*
X77470Y293370D03*
X444500Y227330D03*
X444500Y217170D03*
X454660Y217170D03*
X454660Y227330D03*
X118110Y334010D03*
X128270Y334010D03*
X118110Y323850D03*
X128270Y323850D03*
D13*
X554990Y262890D03*
X490220Y304800D03*
X496570Y311150D03*
X502920Y304800D03*
X509270Y311150D03*
X515620Y304800D03*
X521970Y311150D03*
D14*
X185420Y104140D03*
X194310Y99060D03*
X194310Y88900D03*
X185420Y93980D03*
X185420Y83820D03*
X185420Y73660D03*
X194310Y78740D03*
X603250Y80010D03*
X593090Y80010D03*
X593090Y90170D03*
X603250Y90170D03*
X603250Y100330D03*
X582930Y100330D03*
X582930Y90170D03*
X582930Y80010D03*
X582930Y69850D03*
X593090Y69850D03*
X603250Y69850D03*
X593090Y100330D03*
X190500Y210820D03*
D18*
X435610Y138430D03*
X473710Y138430D03*
D13*
X129540Y151130D03*
X78740Y151130D03*
X260350Y208280D03*
X269240Y185420D03*
D14*
X118110Y116840D03*
X118110Y106680D03*
X118110Y96520D03*
X118110Y86360D03*
X127000Y101600D03*
X127000Y91440D03*
X130810Y377190D03*
X130810Y367030D03*
X130810Y387350D03*
X151130Y387350D03*
X161290Y387350D03*
X171450Y387350D03*
X140970Y377190D03*
X140970Y387350D03*
X151130Y377190D03*
X161290Y377190D03*
X171450Y377190D03*
X130810Y356870D03*
X191770Y387350D03*
X201930Y387350D03*
X212090Y387350D03*
X181610Y377190D03*
X181610Y387350D03*
X191770Y377190D03*
X201930Y377190D03*
X212090Y377190D03*
X232410Y387350D03*
X242570Y387350D03*
X222250Y377190D03*
X222250Y387350D03*
X232410Y377190D03*
X242570Y377190D03*
X222250Y365760D03*
X212090Y365760D03*
D17*
X252730Y257810D03*
X248920Y166370D03*
X237490Y209550D03*
X193040Y232480D03*
D19*
X182521Y262824D03*
D14*
X391160Y111760D03*
X401320Y111760D03*
X411480Y111760D03*
X411480Y101600D03*
X401320Y101600D03*
X391160Y101600D03*
X391160Y91440D03*
X391160Y81280D03*
X401320Y81280D03*
X411480Y81280D03*
X411480Y91440D03*
X401320Y91440D03*
X412750Y294640D03*
X422910Y294640D03*
X433070Y284480D03*
X422910Y284480D03*
X412750Y284480D03*
X412750Y274320D03*
X412750Y264160D03*
X422910Y264160D03*
X433070Y264160D03*
X433070Y274320D03*
X422910Y274320D03*
X433070Y294640D03*
X454660Y97790D03*
X381000Y101600D03*
X381000Y111760D03*
X381000Y121920D03*
X391160Y121920D03*
X401320Y121920D03*
X411480Y121920D03*
X391160Y142240D03*
X401320Y142240D03*
X411480Y142240D03*
X381000Y132080D03*
X381000Y142240D03*
X381000Y152400D03*
X391160Y132080D03*
X401320Y132080D03*
X411480Y132080D03*
X391160Y152400D03*
X401320Y152400D03*
X411480Y152400D03*
X381000Y81280D03*
X381000Y91440D03*
X546100Y83820D03*
X556260Y83820D03*
X566420Y83820D03*
X546100Y93980D03*
X556260Y93980D03*
X566420Y93980D03*
X546100Y104140D03*
X556260Y104140D03*
X566420Y104140D03*
X535940Y83820D03*
X535940Y93980D03*
X535940Y104140D03*
X505460Y104140D03*
X515620Y104140D03*
X525780Y104140D03*
X505460Y93980D03*
X515620Y93980D03*
X525780Y93980D03*
X505460Y83820D03*
X515620Y83820D03*
X525780Y83820D03*
X495300Y83820D03*
X495300Y93980D03*
X495300Y104140D03*
X412750Y340360D03*
X422910Y340360D03*
X433070Y330200D03*
X422910Y330200D03*
X412750Y330200D03*
X412750Y320040D03*
X412750Y309880D03*
X422910Y309880D03*
X433070Y309880D03*
X433070Y320040D03*
X422910Y320040D03*
X433070Y340360D03*
X412750Y387350D03*
X422910Y387350D03*
X433070Y377190D03*
X422910Y377190D03*
X412750Y377190D03*
X412750Y367030D03*
X412750Y356870D03*
X422910Y356870D03*
X433070Y356870D03*
X433070Y367030D03*
X422910Y367030D03*
X433070Y387350D03*
D17*
X138430Y280670D03*
X138430Y270510D03*
D14*
X605790Y26670D03*
D17*
X213360Y275590D03*
X252730Y289560D03*
D20*
X210820Y210820D03*
M02*
