G04 EAGLE Gerber RS-274X export*
G75*
%MOMM*%
%FSLAX34Y34*%
%LPD*%
%INCopper Layer 2*%
%IPPOS*%
%AMOC8*
5,1,8,0,0,1.08239X$1,22.5*%
G01*
%ADD10C,1.108000*%
%ADD11C,1.524000*%
%ADD12C,1.981200*%
%ADD13C,0.660400*%
%ADD14C,0.787400*%
%ADD15C,1.168400*%
%ADD16C,0.606400*%
%ADD17C,1.016000*%
%ADD18C,0.756400*%
%ADD19C,0.806400*%
%ADD20C,0.706400*%
%ADD21C,0.906400*%

G36*
X850010Y3765D02*
X850010Y3765D01*
X850021Y3763D01*
X855156Y4052D01*
X855182Y4059D01*
X855219Y4061D01*
X865230Y6346D01*
X865261Y6361D01*
X865311Y6374D01*
X874562Y10829D01*
X874589Y10851D01*
X874634Y10874D01*
X882663Y17277D01*
X882684Y17304D01*
X882723Y17337D01*
X889126Y25366D01*
X889140Y25397D01*
X889171Y25438D01*
X893626Y34689D01*
X893634Y34723D01*
X893654Y34770D01*
X895939Y44781D01*
X895939Y44808D01*
X895948Y44844D01*
X896237Y49979D01*
X896235Y49988D01*
X896237Y50000D01*
X896237Y350000D01*
X896235Y350009D01*
X896237Y350021D01*
X895948Y355156D01*
X895941Y355182D01*
X895939Y355219D01*
X893654Y365230D01*
X893639Y365261D01*
X893626Y365311D01*
X889171Y374562D01*
X889149Y374589D01*
X889126Y374634D01*
X882723Y382663D01*
X882696Y382684D01*
X882663Y382723D01*
X874634Y389126D01*
X874603Y389140D01*
X874562Y389171D01*
X865311Y393626D01*
X865277Y393634D01*
X865230Y393654D01*
X855219Y395939D01*
X855192Y395939D01*
X855156Y395948D01*
X850021Y396237D01*
X850012Y396235D01*
X850000Y396237D01*
X772070Y396237D01*
X772054Y396233D01*
X772033Y396235D01*
X770890Y396123D01*
X770853Y396110D01*
X770782Y396096D01*
X768670Y395221D01*
X768669Y395220D01*
X768667Y395220D01*
X768547Y395139D01*
X766931Y393523D01*
X766930Y393521D01*
X766929Y393520D01*
X766849Y393400D01*
X765974Y391288D01*
X765968Y391249D01*
X765947Y391180D01*
X765835Y390037D01*
X765837Y390021D01*
X765833Y390000D01*
X765833Y337262D01*
X763737Y332204D01*
X759866Y328333D01*
X754808Y326237D01*
X569332Y326237D01*
X564274Y328333D01*
X560403Y332204D01*
X558307Y337262D01*
X558307Y390000D01*
X558303Y390016D01*
X558305Y390037D01*
X558193Y391180D01*
X558180Y391217D01*
X558166Y391288D01*
X557291Y393400D01*
X557290Y393401D01*
X557290Y393403D01*
X557209Y393523D01*
X555593Y395139D01*
X555591Y395140D01*
X555590Y395141D01*
X555470Y395221D01*
X553358Y396096D01*
X553319Y396102D01*
X553250Y396123D01*
X552107Y396235D01*
X552091Y396233D01*
X552070Y396237D01*
X448310Y396237D01*
X448260Y396226D01*
X448209Y396224D01*
X448177Y396206D01*
X448141Y396198D01*
X448102Y396165D01*
X448057Y396141D01*
X448036Y396111D01*
X448008Y396088D01*
X447987Y396041D01*
X447957Y395999D01*
X447949Y395957D01*
X447937Y395929D01*
X447938Y395899D01*
X447930Y395857D01*
X447930Y247667D01*
X447741Y245511D01*
X447185Y243437D01*
X446278Y241491D01*
X445046Y239732D01*
X443528Y238214D01*
X441769Y236982D01*
X439823Y236075D01*
X437749Y235519D01*
X435593Y235330D01*
X198688Y235330D01*
X198650Y235321D01*
X198612Y235323D01*
X198567Y235302D01*
X198519Y235291D01*
X198489Y235266D01*
X198454Y235250D01*
X198423Y235212D01*
X198385Y235181D01*
X198370Y235145D01*
X198345Y235116D01*
X198335Y235068D01*
X198314Y235022D01*
X198316Y234984D01*
X198307Y234946D01*
X198320Y234887D01*
X198321Y234849D01*
X198331Y234831D01*
X198336Y234805D01*
X198823Y233630D01*
X198823Y231330D01*
X197942Y229204D01*
X196316Y227578D01*
X194190Y226697D01*
X191890Y226697D01*
X189764Y227578D01*
X188138Y229204D01*
X187257Y231330D01*
X187257Y233630D01*
X187342Y233836D01*
X187348Y233869D01*
X187363Y233900D01*
X187362Y233954D01*
X187370Y234007D01*
X187360Y234039D01*
X187360Y234073D01*
X187335Y234121D01*
X187320Y234172D01*
X187296Y234197D01*
X187281Y234227D01*
X187238Y234259D01*
X187201Y234298D01*
X187169Y234310D01*
X187141Y234330D01*
X187089Y234340D01*
X187038Y234358D01*
X187004Y234355D01*
X186971Y234361D01*
X186905Y234344D01*
X186866Y234340D01*
X186851Y234331D01*
X186830Y234326D01*
X185259Y233593D01*
X185237Y233576D01*
X185202Y233560D01*
X183389Y232290D01*
X183370Y232269D01*
X183338Y232248D01*
X181772Y230682D01*
X181757Y230658D01*
X181730Y230632D01*
X180460Y228818D01*
X180450Y228792D01*
X180427Y228761D01*
X179491Y226754D01*
X179485Y226727D01*
X179469Y226692D01*
X178896Y224554D01*
X178895Y224526D01*
X178884Y224488D01*
X178691Y222283D01*
X178693Y222268D01*
X178690Y222250D01*
X178690Y81299D01*
X178549Y79868D01*
X178137Y78510D01*
X177468Y77259D01*
X176568Y76162D01*
X175471Y75262D01*
X174220Y74593D01*
X172862Y74181D01*
X171431Y74040D01*
X158769Y74040D01*
X157338Y74181D01*
X155980Y74593D01*
X154729Y75262D01*
X153632Y76162D01*
X152732Y77259D01*
X152063Y78510D01*
X151651Y79868D01*
X151510Y81299D01*
X151510Y243840D01*
X151506Y243856D01*
X151508Y243877D01*
X151362Y245364D01*
X151352Y245393D01*
X151347Y245437D01*
X150914Y246866D01*
X150898Y246893D01*
X150885Y246935D01*
X150181Y248253D01*
X150161Y248276D01*
X150140Y248315D01*
X149192Y249469D01*
X149167Y249488D01*
X149139Y249522D01*
X147985Y250470D01*
X147957Y250484D01*
X147923Y250511D01*
X146605Y251215D01*
X146575Y251223D01*
X146536Y251244D01*
X145107Y251677D01*
X145076Y251679D01*
X145034Y251692D01*
X143547Y251838D01*
X143545Y251838D01*
X143543Y251839D01*
X141591Y252010D01*
X139731Y252508D01*
X137986Y253322D01*
X136408Y254426D01*
X135046Y255788D01*
X133942Y257366D01*
X133128Y259111D01*
X132630Y260971D01*
X132460Y262907D01*
X132460Y334010D01*
X132456Y334028D01*
X132458Y334053D01*
X132362Y334900D01*
X132351Y334933D01*
X132343Y334983D01*
X132062Y335789D01*
X132043Y335818D01*
X132025Y335865D01*
X131571Y336588D01*
X131546Y336612D01*
X131518Y336654D01*
X130914Y337258D01*
X130885Y337276D01*
X130848Y337311D01*
X130125Y337765D01*
X130093Y337776D01*
X130049Y337802D01*
X129243Y338083D01*
X129209Y338087D01*
X129160Y338102D01*
X128313Y338198D01*
X128294Y338196D01*
X128270Y338200D01*
X4143Y338200D01*
X4093Y338189D01*
X4042Y338187D01*
X4010Y338169D01*
X3974Y338161D01*
X3935Y338128D01*
X3890Y338104D01*
X3869Y338074D01*
X3841Y338051D01*
X3820Y338004D01*
X3790Y337962D01*
X3782Y337920D01*
X3770Y337892D01*
X3771Y337862D01*
X3763Y337820D01*
X3763Y50000D01*
X3765Y49990D01*
X3763Y49979D01*
X4052Y44844D01*
X4059Y44818D01*
X4061Y44781D01*
X6346Y34770D01*
X6361Y34739D01*
X6374Y34689D01*
X10829Y25438D01*
X10851Y25411D01*
X10874Y25366D01*
X17277Y17337D01*
X17304Y17316D01*
X17337Y17277D01*
X25366Y10874D01*
X25397Y10860D01*
X25438Y10829D01*
X34689Y6374D01*
X34723Y6366D01*
X34770Y6346D01*
X44781Y4061D01*
X44808Y4061D01*
X44844Y4052D01*
X49979Y3763D01*
X49988Y3765D01*
X50000Y3763D01*
X850000Y3763D01*
X850010Y3765D01*
G37*
%LPC*%
G36*
X379819Y75342D02*
X379819Y75342D01*
X377637Y76246D01*
X375966Y77917D01*
X375062Y80099D01*
X375062Y82461D01*
X375966Y84643D01*
X377414Y86091D01*
X377441Y86134D01*
X377475Y86172D01*
X377486Y86207D01*
X377505Y86238D01*
X377510Y86289D01*
X377525Y86338D01*
X377518Y86374D01*
X377522Y86411D01*
X377504Y86458D01*
X377495Y86509D01*
X377471Y86544D01*
X377460Y86573D01*
X377438Y86594D01*
X377414Y86629D01*
X375966Y88077D01*
X375062Y90259D01*
X375062Y92621D01*
X375966Y94803D01*
X377414Y96251D01*
X377441Y96294D01*
X377475Y96332D01*
X377486Y96367D01*
X377505Y96398D01*
X377510Y96449D01*
X377525Y96498D01*
X377518Y96534D01*
X377522Y96571D01*
X377504Y96618D01*
X377495Y96669D01*
X377471Y96704D01*
X377460Y96733D01*
X377438Y96754D01*
X377414Y96789D01*
X375966Y98237D01*
X375062Y100419D01*
X375062Y102781D01*
X375966Y104963D01*
X377414Y106411D01*
X377441Y106454D01*
X377475Y106492D01*
X377486Y106527D01*
X377505Y106558D01*
X377510Y106609D01*
X377525Y106658D01*
X377518Y106694D01*
X377522Y106731D01*
X377504Y106778D01*
X377495Y106829D01*
X377471Y106864D01*
X377460Y106893D01*
X377438Y106914D01*
X377414Y106949D01*
X375966Y108397D01*
X375062Y110579D01*
X375062Y112941D01*
X375966Y115123D01*
X377414Y116571D01*
X377441Y116614D01*
X377475Y116652D01*
X377486Y116687D01*
X377505Y116718D01*
X377510Y116769D01*
X377525Y116818D01*
X377518Y116854D01*
X377522Y116891D01*
X377504Y116938D01*
X377495Y116989D01*
X377471Y117024D01*
X377460Y117053D01*
X377438Y117074D01*
X377414Y117109D01*
X375966Y118557D01*
X375062Y120739D01*
X375062Y123101D01*
X375966Y125283D01*
X377414Y126731D01*
X377441Y126774D01*
X377475Y126812D01*
X377486Y126847D01*
X377505Y126878D01*
X377510Y126929D01*
X377525Y126978D01*
X377518Y127014D01*
X377522Y127051D01*
X377504Y127098D01*
X377495Y127149D01*
X377471Y127184D01*
X377460Y127213D01*
X377438Y127234D01*
X377414Y127269D01*
X375966Y128717D01*
X375692Y129379D01*
X375677Y129400D01*
X375669Y129425D01*
X375627Y129470D01*
X375591Y129520D01*
X375568Y129532D01*
X375550Y129551D01*
X375492Y129572D01*
X375438Y129601D01*
X375412Y129602D01*
X375388Y129611D01*
X375326Y129605D01*
X375264Y129606D01*
X375241Y129596D01*
X375215Y129593D01*
X375163Y129560D01*
X375107Y129534D01*
X375091Y129514D01*
X375069Y129500D01*
X375022Y129428D01*
X374998Y129399D01*
X374996Y129390D01*
X374989Y129379D01*
X373314Y125335D01*
X369965Y121986D01*
X365588Y120173D01*
X360852Y120173D01*
X356475Y121986D01*
X353126Y125335D01*
X351313Y129712D01*
X351313Y134448D01*
X353126Y138825D01*
X356475Y142174D01*
X360852Y143987D01*
X365588Y143987D01*
X369965Y142174D01*
X373314Y138825D01*
X374989Y134781D01*
X375004Y134760D01*
X375012Y134735D01*
X375045Y134700D01*
X375047Y134696D01*
X375051Y134693D01*
X375054Y134690D01*
X375090Y134640D01*
X375113Y134628D01*
X375131Y134609D01*
X375189Y134588D01*
X375243Y134559D01*
X375269Y134558D01*
X375293Y134549D01*
X375354Y134555D01*
X375416Y134554D01*
X375440Y134564D01*
X375465Y134567D01*
X375518Y134600D01*
X375574Y134626D01*
X375590Y134646D01*
X375612Y134660D01*
X375648Y134715D01*
X375652Y134718D01*
X375656Y134726D01*
X375659Y134732D01*
X375683Y134761D01*
X375685Y134770D01*
X375692Y134781D01*
X375966Y135443D01*
X377414Y136891D01*
X377441Y136934D01*
X377475Y136972D01*
X377486Y137007D01*
X377505Y137038D01*
X377510Y137089D01*
X377525Y137138D01*
X377518Y137174D01*
X377522Y137211D01*
X377504Y137259D01*
X377495Y137309D01*
X377471Y137344D01*
X377460Y137373D01*
X377438Y137394D01*
X377414Y137429D01*
X375966Y138877D01*
X375062Y141059D01*
X375062Y143421D01*
X375966Y145603D01*
X377414Y147051D01*
X377441Y147094D01*
X377475Y147132D01*
X377486Y147167D01*
X377505Y147198D01*
X377510Y147249D01*
X377525Y147298D01*
X377518Y147334D01*
X377522Y147371D01*
X377504Y147418D01*
X377495Y147469D01*
X377471Y147504D01*
X377460Y147533D01*
X377438Y147554D01*
X377414Y147589D01*
X375966Y149037D01*
X375062Y151219D01*
X375062Y153581D01*
X375966Y155763D01*
X377637Y157434D01*
X379819Y158338D01*
X382181Y158338D01*
X384363Y157434D01*
X385811Y155986D01*
X385854Y155959D01*
X385892Y155925D01*
X385927Y155914D01*
X385958Y155895D01*
X386009Y155890D01*
X386058Y155875D01*
X386094Y155882D01*
X386131Y155878D01*
X386178Y155896D01*
X386229Y155905D01*
X386264Y155929D01*
X386293Y155940D01*
X386314Y155962D01*
X386349Y155986D01*
X387797Y157434D01*
X389979Y158338D01*
X392341Y158338D01*
X394523Y157434D01*
X395971Y155986D01*
X396014Y155959D01*
X396052Y155925D01*
X396087Y155914D01*
X396118Y155895D01*
X396169Y155890D01*
X396218Y155875D01*
X396254Y155882D01*
X396291Y155878D01*
X396338Y155896D01*
X396389Y155905D01*
X396424Y155929D01*
X396453Y155940D01*
X396474Y155962D01*
X396509Y155986D01*
X397957Y157434D01*
X400139Y158338D01*
X402501Y158338D01*
X404683Y157434D01*
X406131Y155986D01*
X406174Y155959D01*
X406212Y155925D01*
X406247Y155914D01*
X406278Y155895D01*
X406329Y155890D01*
X406378Y155875D01*
X406414Y155882D01*
X406451Y155878D01*
X406498Y155896D01*
X406549Y155905D01*
X406584Y155929D01*
X406613Y155940D01*
X406634Y155962D01*
X406669Y155986D01*
X408117Y157434D01*
X410299Y158338D01*
X412661Y158338D01*
X414843Y157434D01*
X416514Y155763D01*
X417418Y153581D01*
X417418Y151219D01*
X416514Y149037D01*
X415066Y147589D01*
X415039Y147546D01*
X415005Y147508D01*
X414994Y147473D01*
X414975Y147442D01*
X414970Y147391D01*
X414955Y147342D01*
X414962Y147306D01*
X414958Y147269D01*
X414976Y147222D01*
X414985Y147171D01*
X415009Y147136D01*
X415020Y147107D01*
X415042Y147086D01*
X415066Y147051D01*
X416514Y145603D01*
X417418Y143421D01*
X417418Y141059D01*
X416514Y138877D01*
X415066Y137429D01*
X415039Y137386D01*
X415005Y137348D01*
X414994Y137313D01*
X414975Y137282D01*
X414970Y137231D01*
X414955Y137182D01*
X414962Y137146D01*
X414958Y137109D01*
X414976Y137061D01*
X414985Y137011D01*
X415009Y136976D01*
X415020Y136947D01*
X415042Y136926D01*
X415066Y136891D01*
X416514Y135443D01*
X417418Y133261D01*
X417418Y130899D01*
X416514Y128717D01*
X415066Y127269D01*
X415039Y127226D01*
X415005Y127188D01*
X414994Y127153D01*
X414975Y127122D01*
X414970Y127071D01*
X414955Y127022D01*
X414962Y126986D01*
X414958Y126949D01*
X414976Y126902D01*
X414985Y126851D01*
X415009Y126816D01*
X415020Y126787D01*
X415042Y126766D01*
X415066Y126731D01*
X416514Y125283D01*
X417418Y123101D01*
X417418Y120739D01*
X416514Y118557D01*
X415066Y117109D01*
X415039Y117066D01*
X415005Y117028D01*
X414994Y116993D01*
X414975Y116962D01*
X414970Y116911D01*
X414955Y116862D01*
X414962Y116826D01*
X414958Y116789D01*
X414976Y116741D01*
X414985Y116691D01*
X415009Y116656D01*
X415020Y116627D01*
X415042Y116606D01*
X415066Y116571D01*
X416514Y115123D01*
X417418Y112941D01*
X417418Y110579D01*
X416514Y108397D01*
X415066Y106949D01*
X415039Y106906D01*
X415005Y106868D01*
X414994Y106833D01*
X414975Y106802D01*
X414970Y106751D01*
X414955Y106702D01*
X414962Y106666D01*
X414958Y106629D01*
X414976Y106582D01*
X414985Y106531D01*
X415009Y106496D01*
X415020Y106467D01*
X415042Y106446D01*
X415066Y106411D01*
X416514Y104963D01*
X417418Y102781D01*
X417418Y100419D01*
X416514Y98237D01*
X415066Y96789D01*
X415058Y96776D01*
X415056Y96774D01*
X415054Y96770D01*
X415039Y96746D01*
X415005Y96708D01*
X414994Y96673D01*
X414975Y96642D01*
X414970Y96591D01*
X414955Y96542D01*
X414962Y96506D01*
X414958Y96469D01*
X414976Y96422D01*
X414985Y96371D01*
X415009Y96336D01*
X415020Y96307D01*
X415042Y96286D01*
X415066Y96251D01*
X416514Y94803D01*
X417418Y92621D01*
X417418Y90259D01*
X416514Y88077D01*
X415066Y86629D01*
X415039Y86586D01*
X415005Y86548D01*
X414994Y86513D01*
X414975Y86482D01*
X414970Y86431D01*
X414955Y86382D01*
X414962Y86346D01*
X414958Y86309D01*
X414976Y86261D01*
X414985Y86211D01*
X415009Y86176D01*
X415020Y86147D01*
X415042Y86126D01*
X415066Y86091D01*
X416514Y84643D01*
X417418Y82461D01*
X417418Y80099D01*
X416514Y77917D01*
X414843Y76246D01*
X412661Y75342D01*
X410299Y75342D01*
X408117Y76246D01*
X406669Y77694D01*
X406626Y77721D01*
X406588Y77755D01*
X406553Y77766D01*
X406522Y77785D01*
X406471Y77790D01*
X406422Y77805D01*
X406386Y77798D01*
X406349Y77802D01*
X406301Y77784D01*
X406251Y77775D01*
X406216Y77751D01*
X406187Y77740D01*
X406166Y77718D01*
X406131Y77694D01*
X404683Y76246D01*
X402501Y75342D01*
X400139Y75342D01*
X397957Y76246D01*
X396509Y77694D01*
X396466Y77721D01*
X396428Y77755D01*
X396393Y77766D01*
X396362Y77785D01*
X396311Y77790D01*
X396262Y77805D01*
X396226Y77798D01*
X396189Y77802D01*
X396141Y77784D01*
X396091Y77775D01*
X396056Y77751D01*
X396027Y77740D01*
X396006Y77718D01*
X395971Y77694D01*
X394523Y76246D01*
X392341Y75342D01*
X389979Y75342D01*
X387797Y76246D01*
X386349Y77694D01*
X386306Y77721D01*
X386268Y77755D01*
X386233Y77766D01*
X386202Y77785D01*
X386151Y77790D01*
X386102Y77805D01*
X386066Y77798D01*
X386029Y77802D01*
X385981Y77784D01*
X385931Y77775D01*
X385896Y77751D01*
X385867Y77740D01*
X385846Y77718D01*
X385811Y77694D01*
X384363Y76246D01*
X382181Y75342D01*
X379819Y75342D01*
G37*
%LPD*%
%LPC*%
G36*
X494119Y77882D02*
X494119Y77882D01*
X491937Y78786D01*
X490266Y80457D01*
X489362Y82639D01*
X489362Y85001D01*
X490266Y87183D01*
X491714Y88631D01*
X491741Y88674D01*
X491775Y88712D01*
X491786Y88747D01*
X491805Y88778D01*
X491810Y88829D01*
X491825Y88878D01*
X491818Y88914D01*
X491822Y88951D01*
X491804Y88998D01*
X491795Y89049D01*
X491771Y89084D01*
X491760Y89113D01*
X491738Y89134D01*
X491714Y89169D01*
X490266Y90617D01*
X489362Y92799D01*
X489362Y95161D01*
X490266Y97343D01*
X491714Y98791D01*
X491741Y98834D01*
X491775Y98872D01*
X491786Y98907D01*
X491805Y98938D01*
X491810Y98989D01*
X491825Y99038D01*
X491818Y99074D01*
X491822Y99111D01*
X491804Y99158D01*
X491795Y99209D01*
X491771Y99244D01*
X491760Y99273D01*
X491738Y99294D01*
X491714Y99329D01*
X490266Y100777D01*
X489362Y102959D01*
X489362Y105321D01*
X490266Y107503D01*
X491937Y109174D01*
X494119Y110078D01*
X496481Y110078D01*
X498663Y109174D01*
X500111Y107726D01*
X500154Y107699D01*
X500192Y107665D01*
X500227Y107654D01*
X500258Y107635D01*
X500309Y107630D01*
X500358Y107615D01*
X500394Y107622D01*
X500431Y107618D01*
X500479Y107636D01*
X500529Y107645D01*
X500564Y107669D01*
X500593Y107680D01*
X500614Y107702D01*
X500649Y107726D01*
X502097Y109174D01*
X504279Y110078D01*
X506641Y110078D01*
X508823Y109174D01*
X510271Y107726D01*
X510314Y107699D01*
X510352Y107665D01*
X510387Y107654D01*
X510418Y107635D01*
X510469Y107630D01*
X510518Y107615D01*
X510554Y107622D01*
X510591Y107618D01*
X510638Y107636D01*
X510689Y107645D01*
X510724Y107669D01*
X510753Y107680D01*
X510774Y107702D01*
X510809Y107726D01*
X512257Y109174D01*
X514439Y110078D01*
X516801Y110078D01*
X518983Y109174D01*
X520431Y107726D01*
X520474Y107699D01*
X520512Y107665D01*
X520547Y107654D01*
X520578Y107635D01*
X520629Y107630D01*
X520678Y107615D01*
X520714Y107622D01*
X520751Y107618D01*
X520798Y107636D01*
X520849Y107645D01*
X520884Y107669D01*
X520913Y107680D01*
X520934Y107702D01*
X520969Y107726D01*
X522417Y109174D01*
X524599Y110078D01*
X526961Y110078D01*
X529143Y109174D01*
X530591Y107726D01*
X530634Y107699D01*
X530672Y107665D01*
X530707Y107654D01*
X530738Y107635D01*
X530789Y107630D01*
X530838Y107615D01*
X530874Y107622D01*
X530911Y107618D01*
X530959Y107636D01*
X531009Y107645D01*
X531044Y107669D01*
X531073Y107680D01*
X531094Y107702D01*
X531129Y107726D01*
X532577Y109174D01*
X534759Y110078D01*
X537121Y110078D01*
X539303Y109174D01*
X540751Y107726D01*
X540794Y107699D01*
X540832Y107665D01*
X540867Y107654D01*
X540898Y107635D01*
X540949Y107630D01*
X540998Y107615D01*
X541034Y107622D01*
X541071Y107618D01*
X541119Y107636D01*
X541169Y107645D01*
X541204Y107669D01*
X541233Y107680D01*
X541254Y107702D01*
X541289Y107726D01*
X542737Y109174D01*
X544919Y110078D01*
X547281Y110078D01*
X549463Y109174D01*
X550911Y107726D01*
X550954Y107699D01*
X550992Y107665D01*
X551027Y107654D01*
X551058Y107635D01*
X551109Y107630D01*
X551158Y107615D01*
X551194Y107622D01*
X551231Y107618D01*
X551278Y107636D01*
X551329Y107645D01*
X551364Y107669D01*
X551393Y107680D01*
X551414Y107702D01*
X551449Y107726D01*
X552897Y109174D01*
X555079Y110078D01*
X557441Y110078D01*
X559623Y109174D01*
X561071Y107726D01*
X561114Y107699D01*
X561152Y107665D01*
X561187Y107654D01*
X561218Y107635D01*
X561269Y107630D01*
X561318Y107615D01*
X561354Y107622D01*
X561391Y107618D01*
X561438Y107636D01*
X561489Y107645D01*
X561524Y107669D01*
X561553Y107680D01*
X561574Y107702D01*
X561609Y107726D01*
X563057Y109174D01*
X565239Y110078D01*
X567601Y110078D01*
X569783Y109174D01*
X571454Y107503D01*
X572358Y105321D01*
X572358Y102959D01*
X571454Y100777D01*
X570006Y99329D01*
X569979Y99286D01*
X569945Y99248D01*
X569934Y99213D01*
X569915Y99182D01*
X569910Y99131D01*
X569895Y99082D01*
X569902Y99046D01*
X569898Y99009D01*
X569916Y98961D01*
X569925Y98911D01*
X569949Y98876D01*
X569960Y98847D01*
X569982Y98826D01*
X570006Y98791D01*
X571454Y97343D01*
X572358Y95161D01*
X572358Y92799D01*
X571454Y90617D01*
X570006Y89169D01*
X569979Y89126D01*
X569945Y89088D01*
X569934Y89053D01*
X569915Y89022D01*
X569910Y88971D01*
X569895Y88922D01*
X569902Y88886D01*
X569898Y88849D01*
X569916Y88801D01*
X569925Y88751D01*
X569949Y88716D01*
X569960Y88687D01*
X569982Y88666D01*
X570006Y88631D01*
X571454Y87183D01*
X572358Y85001D01*
X572358Y82639D01*
X571454Y80457D01*
X569783Y78786D01*
X567601Y77882D01*
X565239Y77882D01*
X563057Y78786D01*
X561609Y80234D01*
X561566Y80261D01*
X561528Y80295D01*
X561493Y80306D01*
X561462Y80325D01*
X561411Y80330D01*
X561362Y80345D01*
X561326Y80338D01*
X561289Y80342D01*
X561241Y80324D01*
X561191Y80315D01*
X561156Y80291D01*
X561127Y80280D01*
X561106Y80258D01*
X561071Y80234D01*
X559623Y78786D01*
X557441Y77882D01*
X555079Y77882D01*
X552897Y78786D01*
X551449Y80234D01*
X551406Y80261D01*
X551368Y80295D01*
X551333Y80306D01*
X551302Y80325D01*
X551251Y80330D01*
X551202Y80345D01*
X551166Y80338D01*
X551129Y80342D01*
X551081Y80324D01*
X551031Y80315D01*
X550996Y80291D01*
X550967Y80280D01*
X550946Y80258D01*
X550911Y80234D01*
X549463Y78786D01*
X547281Y77882D01*
X544919Y77882D01*
X542737Y78786D01*
X541289Y80234D01*
X541246Y80261D01*
X541208Y80295D01*
X541173Y80306D01*
X541142Y80325D01*
X541091Y80330D01*
X541042Y80345D01*
X541006Y80338D01*
X540969Y80342D01*
X540922Y80324D01*
X540871Y80315D01*
X540836Y80291D01*
X540807Y80280D01*
X540786Y80258D01*
X540751Y80234D01*
X539303Y78786D01*
X537121Y77882D01*
X534759Y77882D01*
X532577Y78786D01*
X531129Y80234D01*
X531086Y80261D01*
X531048Y80295D01*
X531013Y80306D01*
X530982Y80325D01*
X530931Y80330D01*
X530882Y80345D01*
X530846Y80338D01*
X530809Y80342D01*
X530762Y80324D01*
X530711Y80315D01*
X530676Y80291D01*
X530647Y80280D01*
X530626Y80258D01*
X530591Y80234D01*
X529143Y78786D01*
X526961Y77882D01*
X524599Y77882D01*
X522417Y78786D01*
X520969Y80234D01*
X520926Y80261D01*
X520888Y80295D01*
X520853Y80306D01*
X520822Y80325D01*
X520771Y80330D01*
X520722Y80345D01*
X520686Y80338D01*
X520649Y80342D01*
X520601Y80324D01*
X520551Y80315D01*
X520516Y80291D01*
X520487Y80280D01*
X520466Y80258D01*
X520431Y80234D01*
X518983Y78786D01*
X516801Y77882D01*
X514439Y77882D01*
X512257Y78786D01*
X510809Y80234D01*
X510766Y80261D01*
X510728Y80295D01*
X510693Y80306D01*
X510662Y80325D01*
X510611Y80330D01*
X510562Y80345D01*
X510526Y80338D01*
X510489Y80342D01*
X510441Y80324D01*
X510391Y80315D01*
X510356Y80291D01*
X510327Y80280D01*
X510306Y80258D01*
X510271Y80234D01*
X508823Y78786D01*
X506641Y77882D01*
X504279Y77882D01*
X502097Y78786D01*
X500649Y80234D01*
X500606Y80261D01*
X500568Y80295D01*
X500533Y80306D01*
X500502Y80325D01*
X500451Y80330D01*
X500402Y80345D01*
X500366Y80338D01*
X500329Y80342D01*
X500282Y80324D01*
X500231Y80315D01*
X500196Y80291D01*
X500167Y80280D01*
X500146Y80258D01*
X500111Y80234D01*
X498663Y78786D01*
X496481Y77882D01*
X494119Y77882D01*
G37*
%LPD*%
%LPC*%
G36*
X581749Y63912D02*
X581749Y63912D01*
X579567Y64816D01*
X577896Y66487D01*
X576992Y68669D01*
X576992Y71031D01*
X577896Y73213D01*
X579344Y74661D01*
X579371Y74704D01*
X579405Y74742D01*
X579416Y74777D01*
X579435Y74808D01*
X579440Y74859D01*
X579455Y74908D01*
X579448Y74944D01*
X579452Y74981D01*
X579434Y75029D01*
X579425Y75079D01*
X579401Y75114D01*
X579390Y75143D01*
X579368Y75164D01*
X579344Y75199D01*
X577896Y76647D01*
X576992Y78829D01*
X576992Y81191D01*
X577896Y83373D01*
X579344Y84821D01*
X579371Y84864D01*
X579405Y84902D01*
X579416Y84937D01*
X579435Y84968D01*
X579440Y85019D01*
X579455Y85068D01*
X579448Y85104D01*
X579452Y85141D01*
X579434Y85189D01*
X579425Y85239D01*
X579401Y85274D01*
X579390Y85303D01*
X579368Y85324D01*
X579344Y85359D01*
X577896Y86807D01*
X576992Y88989D01*
X576992Y91351D01*
X577896Y93533D01*
X579344Y94981D01*
X579371Y95024D01*
X579405Y95062D01*
X579416Y95097D01*
X579435Y95128D01*
X579440Y95179D01*
X579455Y95228D01*
X579448Y95264D01*
X579452Y95301D01*
X579434Y95349D01*
X579425Y95399D01*
X579401Y95434D01*
X579390Y95463D01*
X579368Y95484D01*
X579344Y95519D01*
X577896Y96967D01*
X576992Y99149D01*
X576992Y101511D01*
X577896Y103693D01*
X579567Y105364D01*
X581749Y106268D01*
X584111Y106268D01*
X586293Y105364D01*
X587741Y103916D01*
X587784Y103889D01*
X587822Y103855D01*
X587857Y103844D01*
X587888Y103825D01*
X587939Y103820D01*
X587988Y103805D01*
X588024Y103812D01*
X588061Y103808D01*
X588108Y103826D01*
X588159Y103835D01*
X588194Y103859D01*
X588223Y103870D01*
X588244Y103892D01*
X588279Y103916D01*
X589727Y105364D01*
X591909Y106268D01*
X594271Y106268D01*
X596453Y105364D01*
X597901Y103916D01*
X597944Y103889D01*
X597982Y103855D01*
X598017Y103844D01*
X598048Y103825D01*
X598099Y103820D01*
X598148Y103805D01*
X598184Y103812D01*
X598221Y103808D01*
X598269Y103826D01*
X598319Y103835D01*
X598354Y103859D01*
X598383Y103870D01*
X598404Y103892D01*
X598439Y103916D01*
X599887Y105364D01*
X602069Y106268D01*
X604431Y106268D01*
X606613Y105364D01*
X608284Y103693D01*
X609188Y101511D01*
X609188Y99149D01*
X608284Y96967D01*
X606836Y95519D01*
X606809Y95476D01*
X606775Y95438D01*
X606764Y95403D01*
X606745Y95372D01*
X606740Y95321D01*
X606725Y95272D01*
X606732Y95236D01*
X606728Y95199D01*
X606746Y95151D01*
X606755Y95101D01*
X606779Y95066D01*
X606790Y95037D01*
X606812Y95016D01*
X606836Y94981D01*
X608284Y93533D01*
X609188Y91351D01*
X609188Y88989D01*
X608284Y86807D01*
X606836Y85359D01*
X606809Y85316D01*
X606775Y85278D01*
X606764Y85243D01*
X606745Y85212D01*
X606740Y85161D01*
X606725Y85112D01*
X606732Y85076D01*
X606728Y85039D01*
X606746Y84991D01*
X606755Y84941D01*
X606779Y84906D01*
X606790Y84877D01*
X606812Y84856D01*
X606836Y84821D01*
X608284Y83373D01*
X609188Y81191D01*
X609188Y78829D01*
X608284Y76647D01*
X606836Y75199D01*
X606809Y75156D01*
X606775Y75118D01*
X606764Y75083D01*
X606745Y75052D01*
X606740Y75001D01*
X606725Y74952D01*
X606732Y74916D01*
X606728Y74879D01*
X606746Y74832D01*
X606755Y74781D01*
X606779Y74746D01*
X606790Y74717D01*
X606812Y74696D01*
X606836Y74661D01*
X608284Y73213D01*
X609188Y71031D01*
X609188Y68669D01*
X608284Y66487D01*
X606613Y64816D01*
X604431Y63912D01*
X602069Y63912D01*
X599887Y64816D01*
X598439Y66264D01*
X598396Y66291D01*
X598358Y66325D01*
X598323Y66336D01*
X598292Y66355D01*
X598241Y66360D01*
X598192Y66375D01*
X598156Y66368D01*
X598119Y66372D01*
X598071Y66354D01*
X598021Y66345D01*
X597986Y66321D01*
X597957Y66310D01*
X597936Y66288D01*
X597901Y66264D01*
X596453Y64816D01*
X594271Y63912D01*
X591909Y63912D01*
X589727Y64816D01*
X588279Y66264D01*
X588236Y66291D01*
X588198Y66325D01*
X588163Y66336D01*
X588132Y66355D01*
X588081Y66360D01*
X588032Y66375D01*
X587996Y66368D01*
X587959Y66372D01*
X587911Y66354D01*
X587861Y66345D01*
X587826Y66321D01*
X587797Y66310D01*
X587776Y66288D01*
X587741Y66264D01*
X586293Y64816D01*
X584111Y63912D01*
X581749Y63912D01*
G37*
%LPD*%
%LPC*%
G36*
X101668Y18249D02*
X101668Y18249D01*
X95511Y20799D01*
X90799Y25511D01*
X88249Y31668D01*
X88249Y38332D01*
X90799Y44489D01*
X95511Y49201D01*
X101668Y51751D01*
X108332Y51751D01*
X114489Y49201D01*
X119201Y44489D01*
X121751Y38332D01*
X121751Y31668D01*
X119201Y25511D01*
X114489Y20799D01*
X108332Y18249D01*
X101668Y18249D01*
G37*
%LPD*%
%LPC*%
G36*
X791168Y352149D02*
X791168Y352149D01*
X785011Y354699D01*
X780299Y359411D01*
X777749Y365568D01*
X777749Y372232D01*
X780299Y378389D01*
X785011Y383101D01*
X791168Y385651D01*
X797832Y385651D01*
X803989Y383101D01*
X808701Y378389D01*
X811251Y372232D01*
X811251Y365568D01*
X808701Y359411D01*
X803989Y354699D01*
X797832Y352149D01*
X791168Y352149D01*
G37*
%LPD*%
%LPC*%
G36*
X791168Y18249D02*
X791168Y18249D01*
X785011Y20799D01*
X780299Y25511D01*
X777749Y31668D01*
X777749Y38332D01*
X780299Y44489D01*
X785011Y49201D01*
X791168Y51751D01*
X797832Y51751D01*
X803989Y49201D01*
X808701Y44489D01*
X811251Y38332D01*
X811251Y31668D01*
X808701Y25511D01*
X803989Y20799D01*
X797832Y18249D01*
X791168Y18249D01*
G37*
%LPD*%
%LPC*%
G36*
X184239Y67722D02*
X184239Y67722D01*
X182057Y68626D01*
X180386Y70297D01*
X179482Y72479D01*
X179482Y74841D01*
X180386Y77023D01*
X181834Y78471D01*
X181861Y78514D01*
X181895Y78552D01*
X181906Y78587D01*
X181925Y78618D01*
X181930Y78669D01*
X181945Y78718D01*
X181938Y78754D01*
X181942Y78791D01*
X181924Y78839D01*
X181915Y78889D01*
X181891Y78924D01*
X181880Y78953D01*
X181858Y78974D01*
X181834Y79009D01*
X180386Y80457D01*
X179482Y82639D01*
X179482Y85001D01*
X180386Y87183D01*
X181834Y88631D01*
X181861Y88674D01*
X181895Y88712D01*
X181906Y88747D01*
X181925Y88778D01*
X181930Y88829D01*
X181945Y88878D01*
X181938Y88914D01*
X181942Y88951D01*
X181924Y88999D01*
X181915Y89049D01*
X181891Y89084D01*
X181880Y89113D01*
X181858Y89134D01*
X181834Y89169D01*
X180386Y90617D01*
X179482Y92799D01*
X179482Y95161D01*
X180386Y97343D01*
X181834Y98791D01*
X181861Y98834D01*
X181895Y98872D01*
X181906Y98907D01*
X181925Y98938D01*
X181930Y98989D01*
X181945Y99038D01*
X181938Y99074D01*
X181942Y99111D01*
X181924Y99159D01*
X181915Y99209D01*
X181891Y99244D01*
X181880Y99273D01*
X181858Y99294D01*
X181834Y99329D01*
X180386Y100777D01*
X179482Y102959D01*
X179482Y105321D01*
X180386Y107503D01*
X182057Y109174D01*
X184239Y110078D01*
X186601Y110078D01*
X188783Y109174D01*
X190454Y107503D01*
X191358Y105321D01*
X191358Y104833D01*
X191367Y104796D01*
X191365Y104757D01*
X191386Y104712D01*
X191397Y104664D01*
X191422Y104635D01*
X191438Y104600D01*
X191476Y104569D01*
X191507Y104531D01*
X191543Y104515D01*
X191572Y104491D01*
X191620Y104480D01*
X191666Y104460D01*
X191704Y104461D01*
X191742Y104453D01*
X191801Y104465D01*
X191839Y104466D01*
X191857Y104476D01*
X191884Y104482D01*
X193129Y104998D01*
X195491Y104998D01*
X197673Y104094D01*
X199344Y102423D01*
X200248Y100241D01*
X200248Y97879D01*
X199344Y95697D01*
X197896Y94249D01*
X197869Y94206D01*
X197835Y94168D01*
X197824Y94133D01*
X197805Y94102D01*
X197800Y94051D01*
X197785Y94002D01*
X197792Y93966D01*
X197788Y93929D01*
X197806Y93882D01*
X197815Y93831D01*
X197839Y93796D01*
X197850Y93767D01*
X197872Y93746D01*
X197896Y93711D01*
X199344Y92263D01*
X200248Y90081D01*
X200248Y87719D01*
X199344Y85537D01*
X197896Y84089D01*
X197869Y84046D01*
X197835Y84008D01*
X197824Y83973D01*
X197805Y83942D01*
X197800Y83891D01*
X197785Y83842D01*
X197792Y83806D01*
X197788Y83769D01*
X197806Y83722D01*
X197815Y83671D01*
X197839Y83636D01*
X197850Y83607D01*
X197872Y83586D01*
X197896Y83551D01*
X199344Y82103D01*
X200248Y79921D01*
X200248Y77559D01*
X199344Y75377D01*
X197673Y73706D01*
X195491Y72802D01*
X193129Y72802D01*
X191884Y73318D01*
X191846Y73324D01*
X191810Y73340D01*
X191761Y73338D01*
X191713Y73346D01*
X191676Y73335D01*
X191637Y73334D01*
X191594Y73310D01*
X191547Y73296D01*
X191519Y73269D01*
X191485Y73251D01*
X191457Y73210D01*
X191421Y73177D01*
X191408Y73141D01*
X191385Y73109D01*
X191374Y73049D01*
X191361Y73014D01*
X191363Y72993D01*
X191358Y72967D01*
X191358Y72479D01*
X190454Y70297D01*
X188783Y68626D01*
X186601Y67722D01*
X184239Y67722D01*
G37*
%LPD*%
%LPC*%
G36*
X116929Y80422D02*
X116929Y80422D01*
X114747Y81326D01*
X113076Y82997D01*
X112172Y85179D01*
X112172Y87541D01*
X113076Y89723D01*
X114524Y91171D01*
X114551Y91214D01*
X114585Y91252D01*
X114596Y91287D01*
X114615Y91318D01*
X114620Y91369D01*
X114635Y91418D01*
X114628Y91454D01*
X114632Y91491D01*
X114614Y91539D01*
X114605Y91589D01*
X114581Y91624D01*
X114570Y91653D01*
X114548Y91674D01*
X114524Y91709D01*
X113076Y93157D01*
X112172Y95339D01*
X112172Y97701D01*
X113076Y99883D01*
X114524Y101331D01*
X114551Y101374D01*
X114585Y101412D01*
X114596Y101447D01*
X114615Y101478D01*
X114620Y101529D01*
X114635Y101578D01*
X114628Y101614D01*
X114632Y101651D01*
X114614Y101698D01*
X114605Y101749D01*
X114581Y101784D01*
X114570Y101813D01*
X114548Y101834D01*
X114524Y101869D01*
X113076Y103317D01*
X112172Y105499D01*
X112172Y107861D01*
X113076Y110043D01*
X114524Y111491D01*
X114536Y111511D01*
X114551Y111523D01*
X114561Y111546D01*
X114585Y111572D01*
X114596Y111607D01*
X114615Y111638D01*
X114619Y111674D01*
X114622Y111681D01*
X114622Y111694D01*
X114635Y111738D01*
X114628Y111774D01*
X114632Y111811D01*
X114615Y111854D01*
X114615Y111855D01*
X114614Y111859D01*
X114605Y111909D01*
X114581Y111944D01*
X114570Y111973D01*
X114548Y111994D01*
X114524Y112029D01*
X113076Y113477D01*
X112172Y115659D01*
X112172Y118021D01*
X113076Y120203D01*
X114747Y121874D01*
X116929Y122778D01*
X119291Y122778D01*
X121473Y121874D01*
X123144Y120203D01*
X124048Y118021D01*
X124048Y115659D01*
X123144Y113477D01*
X121696Y112029D01*
X121669Y111986D01*
X121635Y111948D01*
X121624Y111913D01*
X121605Y111882D01*
X121600Y111831D01*
X121599Y111829D01*
X121598Y111826D01*
X121598Y111825D01*
X121585Y111782D01*
X121592Y111746D01*
X121588Y111709D01*
X121604Y111668D01*
X121605Y111653D01*
X121609Y111644D01*
X121615Y111611D01*
X121639Y111576D01*
X121650Y111547D01*
X121672Y111526D01*
X121678Y111518D01*
X121687Y111501D01*
X121692Y111498D01*
X121696Y111491D01*
X123144Y110043D01*
X124048Y107861D01*
X124048Y107373D01*
X124057Y107336D01*
X124055Y107297D01*
X124076Y107252D01*
X124087Y107204D01*
X124112Y107175D01*
X124128Y107140D01*
X124166Y107109D01*
X124197Y107071D01*
X124233Y107055D01*
X124262Y107031D01*
X124310Y107020D01*
X124356Y107000D01*
X124394Y107001D01*
X124432Y106993D01*
X124491Y107005D01*
X124529Y107006D01*
X124547Y107016D01*
X124574Y107022D01*
X125819Y107538D01*
X128181Y107538D01*
X130363Y106634D01*
X132034Y104963D01*
X132938Y102781D01*
X132938Y100419D01*
X132034Y98237D01*
X130586Y96789D01*
X130578Y96776D01*
X130576Y96774D01*
X130574Y96770D01*
X130559Y96746D01*
X130525Y96708D01*
X130514Y96673D01*
X130495Y96642D01*
X130490Y96591D01*
X130475Y96542D01*
X130482Y96506D01*
X130478Y96469D01*
X130496Y96422D01*
X130505Y96371D01*
X130529Y96336D01*
X130540Y96307D01*
X130562Y96286D01*
X130586Y96251D01*
X132034Y94803D01*
X132938Y92621D01*
X132938Y90259D01*
X132034Y88077D01*
X130363Y86406D01*
X128181Y85502D01*
X125819Y85502D01*
X124574Y86018D01*
X124536Y86024D01*
X124500Y86040D01*
X124451Y86038D01*
X124403Y86046D01*
X124366Y86035D01*
X124327Y86034D01*
X124284Y86010D01*
X124237Y85996D01*
X124209Y85969D01*
X124175Y85951D01*
X124147Y85910D01*
X124111Y85877D01*
X124098Y85841D01*
X124075Y85809D01*
X124064Y85749D01*
X124051Y85714D01*
X124053Y85693D01*
X124048Y85667D01*
X124048Y85179D01*
X123144Y82997D01*
X121473Y81326D01*
X119291Y80422D01*
X116929Y80422D01*
G37*
%LPD*%
%LPC*%
G36*
X488024Y299497D02*
X488024Y299497D01*
X484917Y302604D01*
X484917Y306996D01*
X488024Y310103D01*
X490887Y310103D01*
X490937Y310114D01*
X490988Y310116D01*
X491020Y310134D01*
X491056Y310142D01*
X491095Y310175D01*
X491140Y310199D01*
X491161Y310229D01*
X491189Y310252D01*
X491210Y310299D01*
X491240Y310341D01*
X491248Y310383D01*
X491260Y310411D01*
X491259Y310441D01*
X491267Y310483D01*
X491267Y313346D01*
X494374Y316453D01*
X498766Y316453D01*
X501873Y313346D01*
X501873Y310483D01*
X501884Y310433D01*
X501886Y310382D01*
X501904Y310350D01*
X501912Y310314D01*
X501945Y310275D01*
X501969Y310230D01*
X501999Y310209D01*
X502022Y310181D01*
X502069Y310160D01*
X502111Y310130D01*
X502153Y310122D01*
X502181Y310110D01*
X502211Y310111D01*
X502253Y310103D01*
X503587Y310103D01*
X503637Y310114D01*
X503688Y310116D01*
X503720Y310134D01*
X503756Y310142D01*
X503795Y310175D01*
X503840Y310199D01*
X503861Y310229D01*
X503889Y310252D01*
X503910Y310299D01*
X503940Y310341D01*
X503948Y310383D01*
X503960Y310411D01*
X503959Y310441D01*
X503967Y310483D01*
X503967Y313346D01*
X507074Y316453D01*
X511466Y316453D01*
X514573Y313346D01*
X514573Y310483D01*
X514584Y310433D01*
X514586Y310382D01*
X514604Y310350D01*
X514612Y310314D01*
X514645Y310275D01*
X514669Y310230D01*
X514699Y310209D01*
X514722Y310181D01*
X514769Y310160D01*
X514811Y310130D01*
X514853Y310122D01*
X514881Y310110D01*
X514911Y310111D01*
X514953Y310103D01*
X516287Y310103D01*
X516337Y310114D01*
X516388Y310116D01*
X516420Y310134D01*
X516456Y310142D01*
X516495Y310175D01*
X516540Y310199D01*
X516561Y310229D01*
X516589Y310252D01*
X516610Y310299D01*
X516640Y310341D01*
X516648Y310383D01*
X516660Y310411D01*
X516659Y310441D01*
X516667Y310483D01*
X516667Y313346D01*
X519774Y316453D01*
X524166Y316453D01*
X527273Y313346D01*
X527273Y308954D01*
X524166Y305847D01*
X521303Y305847D01*
X521253Y305836D01*
X521202Y305834D01*
X521170Y305816D01*
X521134Y305808D01*
X521095Y305775D01*
X521050Y305751D01*
X521029Y305721D01*
X521001Y305698D01*
X520980Y305651D01*
X520950Y305609D01*
X520942Y305567D01*
X520930Y305539D01*
X520931Y305509D01*
X520923Y305467D01*
X520923Y302604D01*
X517816Y299497D01*
X513424Y299497D01*
X510317Y302604D01*
X510317Y305467D01*
X510306Y305517D01*
X510304Y305568D01*
X510286Y305600D01*
X510278Y305636D01*
X510245Y305675D01*
X510221Y305720D01*
X510191Y305741D01*
X510168Y305769D01*
X510121Y305790D01*
X510079Y305820D01*
X510037Y305828D01*
X510009Y305840D01*
X509979Y305839D01*
X509937Y305847D01*
X508603Y305847D01*
X508553Y305836D01*
X508502Y305834D01*
X508470Y305816D01*
X508434Y305808D01*
X508395Y305775D01*
X508350Y305751D01*
X508329Y305721D01*
X508301Y305698D01*
X508280Y305651D01*
X508250Y305609D01*
X508242Y305567D01*
X508230Y305539D01*
X508231Y305509D01*
X508223Y305467D01*
X508223Y302604D01*
X505116Y299497D01*
X500724Y299497D01*
X497617Y302604D01*
X497617Y305467D01*
X497606Y305517D01*
X497604Y305568D01*
X497586Y305600D01*
X497578Y305636D01*
X497545Y305675D01*
X497521Y305720D01*
X497491Y305741D01*
X497468Y305769D01*
X497421Y305790D01*
X497379Y305820D01*
X497337Y305828D01*
X497309Y305840D01*
X497279Y305839D01*
X497237Y305847D01*
X495903Y305847D01*
X495853Y305836D01*
X495802Y305834D01*
X495770Y305816D01*
X495734Y305808D01*
X495695Y305775D01*
X495650Y305751D01*
X495629Y305721D01*
X495601Y305698D01*
X495580Y305651D01*
X495550Y305609D01*
X495542Y305567D01*
X495530Y305539D01*
X495531Y305509D01*
X495523Y305467D01*
X495523Y302604D01*
X492416Y299497D01*
X488024Y299497D01*
G37*
%LPD*%
%LPC*%
G36*
X619932Y69373D02*
X619932Y69373D01*
X615555Y71186D01*
X612206Y74535D01*
X610393Y78912D01*
X610393Y83648D01*
X612206Y88025D01*
X615555Y91374D01*
X619932Y93187D01*
X624668Y93187D01*
X629045Y91374D01*
X632394Y88025D01*
X634207Y83648D01*
X634207Y78912D01*
X632394Y74535D01*
X629045Y71186D01*
X624668Y69373D01*
X619932Y69373D01*
G37*
%LPD*%
%LPC*%
G36*
X867586Y128829D02*
X867586Y128829D01*
X864050Y130294D01*
X861344Y133000D01*
X859879Y136536D01*
X859879Y140364D01*
X861344Y143900D01*
X864050Y146606D01*
X867586Y148071D01*
X871414Y148071D01*
X874950Y146606D01*
X877656Y143900D01*
X879121Y140364D01*
X879121Y136536D01*
X877656Y133000D01*
X874950Y130294D01*
X871414Y128829D01*
X867586Y128829D01*
G37*
%LPD*%
%LPC*%
G36*
X867586Y230429D02*
X867586Y230429D01*
X864050Y231894D01*
X861344Y234600D01*
X859879Y238136D01*
X859879Y241964D01*
X861344Y245500D01*
X864050Y248206D01*
X867586Y249671D01*
X871414Y249671D01*
X874950Y248206D01*
X877656Y245500D01*
X879121Y241964D01*
X879121Y238136D01*
X877656Y234600D01*
X874950Y231894D01*
X871414Y230429D01*
X867586Y230429D01*
G37*
%LPD*%
%LPC*%
G36*
X28086Y78029D02*
X28086Y78029D01*
X24550Y79494D01*
X21844Y82200D01*
X20379Y85736D01*
X20379Y89564D01*
X21844Y93100D01*
X24550Y95806D01*
X28086Y97271D01*
X31914Y97271D01*
X35450Y95806D01*
X38156Y93100D01*
X39621Y89564D01*
X39621Y85736D01*
X38156Y82200D01*
X35450Y79494D01*
X31914Y78029D01*
X28086Y78029D01*
G37*
%LPD*%
%LPC*%
G36*
X28086Y255829D02*
X28086Y255829D01*
X24550Y257294D01*
X21844Y260000D01*
X20379Y263536D01*
X20379Y267364D01*
X21844Y270900D01*
X24550Y273606D01*
X28086Y275071D01*
X31914Y275071D01*
X35450Y273606D01*
X38156Y270900D01*
X39621Y267364D01*
X39621Y263536D01*
X38156Y260000D01*
X35450Y257294D01*
X31914Y255829D01*
X28086Y255829D01*
G37*
%LPD*%
%LPC*%
G36*
X867586Y179629D02*
X867586Y179629D01*
X864050Y181094D01*
X861344Y183800D01*
X859879Y187336D01*
X859879Y191164D01*
X861344Y194700D01*
X864050Y197406D01*
X867586Y198871D01*
X871414Y198871D01*
X874950Y197406D01*
X877656Y194700D01*
X879121Y191164D01*
X879121Y187336D01*
X877656Y183800D01*
X874950Y181094D01*
X871414Y179629D01*
X867586Y179629D01*
G37*
%LPD*%
%LPC*%
G36*
X28086Y179629D02*
X28086Y179629D01*
X24550Y181094D01*
X21844Y183800D01*
X20379Y187336D01*
X20379Y191164D01*
X21844Y194700D01*
X24550Y197406D01*
X28086Y198871D01*
X31914Y198871D01*
X35450Y197406D01*
X38156Y194700D01*
X39621Y191164D01*
X39621Y187336D01*
X38156Y183800D01*
X35450Y181094D01*
X31914Y179629D01*
X28086Y179629D01*
G37*
%LPD*%
%LPC*%
G36*
X28086Y230429D02*
X28086Y230429D01*
X24550Y231894D01*
X21844Y234600D01*
X20379Y238136D01*
X20379Y241964D01*
X21844Y245500D01*
X24550Y248206D01*
X28086Y249671D01*
X31914Y249671D01*
X35450Y248206D01*
X38156Y245500D01*
X39621Y241964D01*
X39621Y238136D01*
X38156Y234600D01*
X35450Y231894D01*
X31914Y230429D01*
X28086Y230429D01*
G37*
%LPD*%
%LPC*%
G36*
X867586Y154229D02*
X867586Y154229D01*
X864050Y155694D01*
X861344Y158400D01*
X859879Y161936D01*
X859879Y165764D01*
X861344Y169300D01*
X864050Y172006D01*
X867586Y173471D01*
X871414Y173471D01*
X874950Y172006D01*
X877656Y169300D01*
X879121Y165764D01*
X879121Y161936D01*
X877656Y158400D01*
X874950Y155694D01*
X871414Y154229D01*
X867586Y154229D01*
G37*
%LPD*%
%LPC*%
G36*
X28086Y154229D02*
X28086Y154229D01*
X24550Y155694D01*
X21844Y158400D01*
X20379Y161936D01*
X20379Y165764D01*
X21844Y169300D01*
X24550Y172006D01*
X28086Y173471D01*
X31914Y173471D01*
X35450Y172006D01*
X38156Y169300D01*
X39621Y165764D01*
X39621Y161936D01*
X38156Y158400D01*
X35450Y155694D01*
X31914Y154229D01*
X28086Y154229D01*
G37*
%LPD*%
%LPC*%
G36*
X28086Y306629D02*
X28086Y306629D01*
X24550Y308094D01*
X21844Y310800D01*
X20379Y314336D01*
X20379Y318164D01*
X21844Y321700D01*
X24550Y324406D01*
X28086Y325871D01*
X31914Y325871D01*
X35450Y324406D01*
X38156Y321700D01*
X39621Y318164D01*
X39621Y314336D01*
X38156Y310800D01*
X35450Y308094D01*
X31914Y306629D01*
X28086Y306629D01*
G37*
%LPD*%
%LPC*%
G36*
X28086Y205029D02*
X28086Y205029D01*
X24550Y206494D01*
X21844Y209200D01*
X20379Y212736D01*
X20379Y216564D01*
X21844Y220100D01*
X24550Y222806D01*
X28086Y224271D01*
X31914Y224271D01*
X35450Y222806D01*
X38156Y220100D01*
X39621Y216564D01*
X39621Y212736D01*
X38156Y209200D01*
X35450Y206494D01*
X31914Y205029D01*
X28086Y205029D01*
G37*
%LPD*%
%LPC*%
G36*
X867586Y255829D02*
X867586Y255829D01*
X864050Y257294D01*
X861344Y260000D01*
X859879Y263536D01*
X859879Y267364D01*
X861344Y270900D01*
X864050Y273606D01*
X867586Y275071D01*
X871414Y275071D01*
X874950Y273606D01*
X877656Y270900D01*
X879121Y267364D01*
X879121Y263536D01*
X877656Y260000D01*
X874950Y257294D01*
X871414Y255829D01*
X867586Y255829D01*
G37*
%LPD*%
%LPC*%
G36*
X867586Y205029D02*
X867586Y205029D01*
X864050Y206494D01*
X861344Y209200D01*
X859879Y212736D01*
X859879Y216564D01*
X861344Y220100D01*
X864050Y222806D01*
X867586Y224271D01*
X871414Y224271D01*
X874950Y222806D01*
X877656Y220100D01*
X879121Y216564D01*
X879121Y212736D01*
X877656Y209200D01*
X874950Y206494D01*
X871414Y205029D01*
X867586Y205029D01*
G37*
%LPD*%
%LPC*%
G36*
X28086Y128829D02*
X28086Y128829D01*
X24550Y130294D01*
X21844Y133000D01*
X20379Y136536D01*
X20379Y140364D01*
X21844Y143900D01*
X24550Y146606D01*
X28086Y148071D01*
X31914Y148071D01*
X35450Y146606D01*
X38156Y143900D01*
X39621Y140364D01*
X39621Y136536D01*
X38156Y133000D01*
X35450Y130294D01*
X31914Y128829D01*
X28086Y128829D01*
G37*
%LPD*%
%LPC*%
G36*
X406843Y44886D02*
X406843Y44886D01*
X406808Y44882D01*
X406757Y44886D01*
X406380Y44843D01*
X406328Y44885D01*
X406297Y44900D01*
X406272Y44922D01*
X406207Y44943D01*
X406171Y44959D01*
X406154Y44959D01*
X406133Y44966D01*
X406040Y44976D01*
X406007Y44972D01*
X405973Y44978D01*
X405907Y44960D01*
X405868Y44956D01*
X405854Y44946D01*
X405833Y44941D01*
X405772Y44912D01*
X405414Y45037D01*
X405380Y45041D01*
X405331Y45056D01*
X404954Y45098D01*
X404912Y45151D01*
X404885Y45172D01*
X404866Y45200D01*
X404807Y45234D01*
X404776Y45258D01*
X404759Y45262D01*
X404740Y45273D01*
X404652Y45304D01*
X404618Y45307D01*
X404587Y45320D01*
X404519Y45318D01*
X404480Y45322D01*
X404464Y45316D01*
X404442Y45315D01*
X404377Y45300D01*
X404055Y45502D01*
X404023Y45514D01*
X403979Y45539D01*
X403620Y45665D01*
X403591Y45725D01*
X403570Y45752D01*
X403557Y45783D01*
X403507Y45830D01*
X403482Y45860D01*
X403467Y45867D01*
X403451Y45882D01*
X403372Y45932D01*
X403346Y45941D01*
X403343Y45943D01*
X403338Y45944D01*
X403312Y45962D01*
X403245Y45975D01*
X403208Y45988D01*
X403191Y45986D01*
X403169Y45990D01*
X403102Y45990D01*
X402834Y46258D01*
X402805Y46277D01*
X402767Y46312D01*
X402446Y46513D01*
X402431Y46579D01*
X402416Y46610D01*
X402410Y46643D01*
X402372Y46700D01*
X402355Y46735D01*
X402341Y46745D01*
X402329Y46763D01*
X402263Y46829D01*
X402234Y46847D01*
X402211Y46873D01*
X402149Y46900D01*
X402116Y46921D01*
X402099Y46922D01*
X402079Y46931D01*
X402013Y46946D01*
X401812Y47267D01*
X401787Y47292D01*
X401758Y47334D01*
X401490Y47602D01*
X401490Y47669D01*
X401482Y47703D01*
X401484Y47737D01*
X401460Y47800D01*
X401451Y47838D01*
X401440Y47851D01*
X401432Y47872D01*
X401382Y47951D01*
X401358Y47975D01*
X401341Y48005D01*
X401287Y48045D01*
X401259Y48073D01*
X401243Y48078D01*
X401225Y48091D01*
X401165Y48120D01*
X401039Y48479D01*
X401021Y48508D01*
X401002Y48555D01*
X400800Y48877D01*
X400815Y48942D01*
X400815Y48976D01*
X400825Y49009D01*
X400815Y49076D01*
X400814Y49115D01*
X400807Y49131D01*
X400804Y49152D01*
X400773Y49241D01*
X400754Y49269D01*
X400745Y49302D01*
X400701Y49354D01*
X400680Y49387D01*
X400665Y49396D01*
X400651Y49412D01*
X400598Y49454D01*
X400556Y49831D01*
X400547Y49856D01*
X400546Y49874D01*
X400542Y49883D01*
X400537Y49914D01*
X400412Y50272D01*
X400436Y50323D01*
X400452Y50395D01*
X400473Y50466D01*
X400471Y50479D01*
X400474Y50492D01*
X400456Y50564D01*
X400443Y50637D01*
X400435Y50649D01*
X400432Y50660D01*
X400408Y50690D01*
X400399Y50702D01*
X400399Y51200D01*
X400395Y51218D01*
X400397Y51243D01*
X400341Y51738D01*
X400372Y51781D01*
X400379Y51818D01*
X400391Y51843D01*
X400390Y51876D01*
X400399Y51923D01*
X400399Y61677D01*
X400387Y61730D01*
X400383Y61785D01*
X400366Y61819D01*
X400360Y61846D01*
X400342Y61868D01*
X400397Y62357D01*
X400395Y62376D01*
X400399Y62400D01*
X400399Y62903D01*
X400401Y62906D01*
X400444Y62966D01*
X400447Y62979D01*
X400454Y62990D01*
X400461Y63064D01*
X400473Y63137D01*
X400469Y63151D01*
X400470Y63163D01*
X400457Y63199D01*
X400436Y63277D01*
X400412Y63328D01*
X400537Y63686D01*
X400541Y63720D01*
X400556Y63769D01*
X400598Y64146D01*
X400651Y64188D01*
X400672Y64214D01*
X400700Y64234D01*
X400734Y64293D01*
X400758Y64324D01*
X400762Y64341D01*
X400773Y64359D01*
X400804Y64448D01*
X400807Y64482D01*
X400820Y64513D01*
X400818Y64581D01*
X400822Y64620D01*
X400816Y64636D01*
X400815Y64658D01*
X400800Y64723D01*
X401002Y65045D01*
X401014Y65077D01*
X401039Y65121D01*
X401165Y65480D01*
X401225Y65509D01*
X401252Y65530D01*
X401283Y65543D01*
X401330Y65593D01*
X401360Y65618D01*
X401367Y65633D01*
X401382Y65649D01*
X401432Y65728D01*
X401443Y65760D01*
X401462Y65788D01*
X401475Y65855D01*
X401488Y65892D01*
X401486Y65909D01*
X401490Y65931D01*
X401490Y65998D01*
X401758Y66266D01*
X401777Y66295D01*
X401812Y66333D01*
X402013Y66654D01*
X402079Y66669D01*
X402110Y66684D01*
X402143Y66690D01*
X402200Y66728D01*
X402235Y66745D01*
X402245Y66759D01*
X402263Y66771D01*
X402329Y66837D01*
X402347Y66866D01*
X402373Y66889D01*
X402400Y66951D01*
X402421Y66984D01*
X402422Y67001D01*
X402431Y67021D01*
X402446Y67087D01*
X402767Y67288D01*
X402792Y67313D01*
X402834Y67342D01*
X403102Y67610D01*
X403169Y67610D01*
X403203Y67618D01*
X403237Y67616D01*
X403300Y67640D01*
X403338Y67649D01*
X403351Y67660D01*
X403372Y67668D01*
X403451Y67718D01*
X403475Y67742D01*
X403505Y67759D01*
X403545Y67813D01*
X403573Y67841D01*
X403578Y67857D01*
X403591Y67875D01*
X403620Y67935D01*
X403979Y68061D01*
X404008Y68079D01*
X404055Y68098D01*
X404377Y68300D01*
X404442Y68285D01*
X404476Y68285D01*
X404509Y68275D01*
X404576Y68285D01*
X404615Y68286D01*
X404631Y68293D01*
X404652Y68296D01*
X404741Y68327D01*
X404769Y68346D01*
X404802Y68355D01*
X404854Y68399D01*
X404887Y68420D01*
X404896Y68435D01*
X404912Y68449D01*
X404954Y68502D01*
X405331Y68544D01*
X405364Y68556D01*
X405414Y68563D01*
X405772Y68688D01*
X405833Y68659D01*
X405866Y68652D01*
X405896Y68636D01*
X405964Y68630D01*
X406002Y68622D01*
X406019Y68626D01*
X406040Y68624D01*
X406133Y68634D01*
X406165Y68646D01*
X406199Y68648D01*
X406260Y68680D01*
X406297Y68693D01*
X406308Y68705D01*
X406328Y68715D01*
X406380Y68757D01*
X406757Y68714D01*
X406792Y68718D01*
X406843Y68714D01*
X407220Y68757D01*
X407272Y68715D01*
X407303Y68700D01*
X407328Y68678D01*
X407393Y68657D01*
X407429Y68641D01*
X407446Y68641D01*
X407467Y68634D01*
X407560Y68624D01*
X407593Y68628D01*
X407627Y68622D01*
X407693Y68640D01*
X407732Y68644D01*
X407746Y68654D01*
X407767Y68659D01*
X407828Y68688D01*
X408186Y68563D01*
X408220Y68559D01*
X408269Y68544D01*
X408646Y68502D01*
X408688Y68449D01*
X408715Y68428D01*
X408734Y68400D01*
X408793Y68366D01*
X408824Y68342D01*
X408841Y68338D01*
X408860Y68327D01*
X408948Y68296D01*
X408982Y68293D01*
X409013Y68280D01*
X409081Y68282D01*
X409120Y68278D01*
X409136Y68284D01*
X409158Y68285D01*
X409223Y68300D01*
X409545Y68098D01*
X409577Y68086D01*
X409621Y68061D01*
X409980Y67935D01*
X410009Y67875D01*
X410030Y67848D01*
X410043Y67817D01*
X410091Y67772D01*
X410092Y67772D01*
X410093Y67770D01*
X410118Y67740D01*
X410133Y67733D01*
X410149Y67718D01*
X410228Y67668D01*
X410260Y67657D01*
X410288Y67638D01*
X410355Y67625D01*
X410392Y67612D01*
X410409Y67614D01*
X410431Y67610D01*
X410498Y67610D01*
X410766Y67342D01*
X410795Y67323D01*
X410833Y67288D01*
X411154Y67087D01*
X411169Y67021D01*
X411184Y66990D01*
X411190Y66957D01*
X411228Y66900D01*
X411245Y66865D01*
X411259Y66855D01*
X411271Y66837D01*
X411337Y66771D01*
X411366Y66753D01*
X411389Y66727D01*
X411451Y66700D01*
X411484Y66679D01*
X411501Y66678D01*
X411521Y66669D01*
X411587Y66654D01*
X411788Y66333D01*
X411813Y66308D01*
X411842Y66266D01*
X412110Y65998D01*
X412110Y65931D01*
X412118Y65897D01*
X412116Y65863D01*
X412140Y65800D01*
X412149Y65762D01*
X412160Y65749D01*
X412168Y65728D01*
X412218Y65649D01*
X412242Y65625D01*
X412259Y65595D01*
X412313Y65555D01*
X412341Y65527D01*
X412357Y65522D01*
X412375Y65509D01*
X412435Y65480D01*
X412561Y65121D01*
X412579Y65092D01*
X412598Y65045D01*
X412800Y64723D01*
X412785Y64658D01*
X412785Y64624D01*
X412776Y64591D01*
X412785Y64524D01*
X412786Y64485D01*
X412793Y64469D01*
X412796Y64448D01*
X412827Y64360D01*
X412846Y64331D01*
X412855Y64298D01*
X412899Y64246D01*
X412920Y64213D01*
X412935Y64204D01*
X412949Y64188D01*
X413002Y64146D01*
X413044Y63769D01*
X413052Y63748D01*
X413052Y63742D01*
X413056Y63734D01*
X413063Y63686D01*
X413188Y63328D01*
X413164Y63277D01*
X413148Y63205D01*
X413127Y63134D01*
X413129Y63121D01*
X413126Y63108D01*
X413144Y63036D01*
X413157Y62963D01*
X413165Y62951D01*
X413168Y62940D01*
X413192Y62910D01*
X413201Y62898D01*
X413201Y62400D01*
X413205Y62382D01*
X413203Y62358D01*
X413259Y61863D01*
X413228Y61819D01*
X413221Y61782D01*
X413209Y61757D01*
X413210Y61724D01*
X413201Y61677D01*
X413201Y51923D01*
X413213Y51870D01*
X413217Y51815D01*
X413234Y51781D01*
X413240Y51754D01*
X413258Y51732D01*
X413203Y51243D01*
X413205Y51224D01*
X413201Y51200D01*
X413201Y50697D01*
X413199Y50694D01*
X413156Y50634D01*
X413153Y50621D01*
X413146Y50610D01*
X413139Y50536D01*
X413127Y50463D01*
X413131Y50449D01*
X413130Y50437D01*
X413143Y50401D01*
X413164Y50323D01*
X413188Y50272D01*
X413063Y49914D01*
X413059Y49880D01*
X413053Y49858D01*
X413047Y49845D01*
X413047Y49841D01*
X413044Y49831D01*
X413002Y49454D01*
X412949Y49412D01*
X412928Y49385D01*
X412900Y49366D01*
X412866Y49307D01*
X412842Y49276D01*
X412838Y49259D01*
X412827Y49240D01*
X412796Y49152D01*
X412793Y49118D01*
X412780Y49087D01*
X412782Y49019D01*
X412778Y48980D01*
X412784Y48964D01*
X412785Y48942D01*
X412800Y48877D01*
X412598Y48555D01*
X412586Y48523D01*
X412561Y48479D01*
X412435Y48120D01*
X412375Y48091D01*
X412348Y48070D01*
X412317Y48057D01*
X412270Y48007D01*
X412240Y47982D01*
X412233Y47967D01*
X412218Y47951D01*
X412168Y47872D01*
X412157Y47840D01*
X412138Y47812D01*
X412125Y47745D01*
X412112Y47708D01*
X412114Y47691D01*
X412110Y47669D01*
X412110Y47602D01*
X411842Y47334D01*
X411823Y47305D01*
X411788Y47267D01*
X411587Y46946D01*
X411521Y46931D01*
X411490Y46916D01*
X411457Y46910D01*
X411400Y46872D01*
X411365Y46855D01*
X411355Y46841D01*
X411337Y46829D01*
X411271Y46763D01*
X411253Y46734D01*
X411227Y46711D01*
X411200Y46649D01*
X411179Y46616D01*
X411178Y46599D01*
X411169Y46579D01*
X411154Y46513D01*
X410833Y46312D01*
X410808Y46287D01*
X410766Y46258D01*
X410498Y45990D01*
X410431Y45990D01*
X410397Y45982D01*
X410363Y45984D01*
X410300Y45960D01*
X410262Y45951D01*
X410249Y45940D01*
X410228Y45932D01*
X410149Y45882D01*
X410125Y45858D01*
X410095Y45841D01*
X410055Y45787D01*
X410027Y45759D01*
X410022Y45743D01*
X410009Y45725D01*
X409980Y45665D01*
X409621Y45539D01*
X409592Y45521D01*
X409545Y45502D01*
X409223Y45300D01*
X409158Y45315D01*
X409124Y45315D01*
X409091Y45325D01*
X409024Y45315D01*
X408985Y45314D01*
X408969Y45307D01*
X408948Y45304D01*
X408860Y45273D01*
X408831Y45254D01*
X408798Y45245D01*
X408746Y45201D01*
X408713Y45180D01*
X408704Y45165D01*
X408688Y45151D01*
X408646Y45098D01*
X408269Y45056D01*
X408236Y45044D01*
X408186Y45037D01*
X407828Y44912D01*
X407767Y44941D01*
X407734Y44948D01*
X407704Y44964D01*
X407636Y44970D01*
X407598Y44978D01*
X407581Y44974D01*
X407560Y44976D01*
X407467Y44966D01*
X407435Y44954D01*
X407401Y44952D01*
X407340Y44920D01*
X407303Y44907D01*
X407291Y44895D01*
X407272Y44885D01*
X407220Y44843D01*
X406843Y44886D01*
G37*
%LPD*%
%LPC*%
G36*
X493243Y44886D02*
X493243Y44886D01*
X493208Y44882D01*
X493157Y44886D01*
X492780Y44843D01*
X492728Y44885D01*
X492697Y44900D01*
X492672Y44922D01*
X492607Y44943D01*
X492571Y44959D01*
X492554Y44959D01*
X492533Y44966D01*
X492440Y44976D01*
X492407Y44972D01*
X492373Y44978D01*
X492307Y44960D01*
X492268Y44956D01*
X492254Y44946D01*
X492233Y44941D01*
X492172Y44912D01*
X491814Y45037D01*
X491780Y45041D01*
X491731Y45056D01*
X491354Y45098D01*
X491312Y45151D01*
X491285Y45172D01*
X491266Y45200D01*
X491207Y45234D01*
X491176Y45258D01*
X491159Y45262D01*
X491140Y45273D01*
X491052Y45304D01*
X491018Y45307D01*
X490987Y45320D01*
X490919Y45318D01*
X490880Y45322D01*
X490864Y45316D01*
X490842Y45315D01*
X490777Y45300D01*
X490455Y45502D01*
X490423Y45514D01*
X490379Y45539D01*
X490020Y45665D01*
X489991Y45725D01*
X489970Y45752D01*
X489957Y45783D01*
X489907Y45830D01*
X489882Y45860D01*
X489867Y45867D01*
X489851Y45882D01*
X489772Y45932D01*
X489746Y45941D01*
X489743Y45943D01*
X489738Y45944D01*
X489712Y45962D01*
X489645Y45975D01*
X489608Y45988D01*
X489591Y45986D01*
X489569Y45990D01*
X489502Y45990D01*
X489234Y46258D01*
X489205Y46277D01*
X489167Y46312D01*
X488846Y46513D01*
X488831Y46579D01*
X488816Y46610D01*
X488810Y46643D01*
X488772Y46700D01*
X488755Y46735D01*
X488741Y46745D01*
X488729Y46763D01*
X488663Y46829D01*
X488634Y46847D01*
X488611Y46873D01*
X488549Y46900D01*
X488516Y46921D01*
X488499Y46922D01*
X488479Y46931D01*
X488413Y46946D01*
X488212Y47267D01*
X488187Y47292D01*
X488158Y47334D01*
X487890Y47602D01*
X487890Y47669D01*
X487882Y47703D01*
X487884Y47737D01*
X487860Y47800D01*
X487851Y47838D01*
X487840Y47851D01*
X487832Y47872D01*
X487782Y47951D01*
X487758Y47975D01*
X487741Y48005D01*
X487687Y48045D01*
X487659Y48073D01*
X487643Y48078D01*
X487625Y48091D01*
X487565Y48120D01*
X487439Y48479D01*
X487421Y48508D01*
X487402Y48555D01*
X487200Y48877D01*
X487215Y48942D01*
X487215Y48976D01*
X487225Y49009D01*
X487215Y49076D01*
X487214Y49115D01*
X487207Y49131D01*
X487204Y49152D01*
X487173Y49240D01*
X487154Y49269D01*
X487145Y49302D01*
X487101Y49354D01*
X487080Y49387D01*
X487065Y49396D01*
X487051Y49412D01*
X486998Y49454D01*
X486956Y49831D01*
X486947Y49856D01*
X486946Y49874D01*
X486942Y49883D01*
X486937Y49914D01*
X486812Y50272D01*
X486836Y50323D01*
X486852Y50395D01*
X486873Y50466D01*
X486871Y50479D01*
X486874Y50492D01*
X486856Y50564D01*
X486843Y50637D01*
X486835Y50649D01*
X486832Y50660D01*
X486808Y50690D01*
X486799Y50702D01*
X486799Y51200D01*
X486795Y51219D01*
X486797Y51243D01*
X486741Y51738D01*
X486772Y51781D01*
X486779Y51818D01*
X486791Y51843D01*
X486790Y51876D01*
X486799Y51923D01*
X486799Y61677D01*
X486787Y61730D01*
X486783Y61785D01*
X486766Y61819D01*
X486760Y61846D01*
X486742Y61868D01*
X486797Y62357D01*
X486795Y62376D01*
X486799Y62400D01*
X486799Y62903D01*
X486801Y62906D01*
X486844Y62966D01*
X486847Y62979D01*
X486854Y62990D01*
X486861Y63064D01*
X486873Y63137D01*
X486869Y63151D01*
X486870Y63163D01*
X486857Y63199D01*
X486836Y63277D01*
X486812Y63328D01*
X486937Y63686D01*
X486941Y63720D01*
X486956Y63769D01*
X486998Y64146D01*
X487051Y64188D01*
X487072Y64215D01*
X487100Y64234D01*
X487134Y64293D01*
X487158Y64324D01*
X487162Y64341D01*
X487173Y64360D01*
X487204Y64448D01*
X487207Y64482D01*
X487220Y64513D01*
X487218Y64581D01*
X487222Y64620D01*
X487216Y64636D01*
X487215Y64658D01*
X487200Y64723D01*
X487402Y65045D01*
X487414Y65077D01*
X487439Y65121D01*
X487565Y65480D01*
X487625Y65509D01*
X487652Y65530D01*
X487683Y65543D01*
X487730Y65593D01*
X487760Y65618D01*
X487767Y65633D01*
X487782Y65649D01*
X487832Y65728D01*
X487843Y65760D01*
X487862Y65788D01*
X487875Y65855D01*
X487888Y65892D01*
X487886Y65909D01*
X487890Y65931D01*
X487890Y65998D01*
X488158Y66266D01*
X488177Y66295D01*
X488212Y66333D01*
X488413Y66654D01*
X488479Y66669D01*
X488510Y66684D01*
X488543Y66690D01*
X488600Y66728D01*
X488635Y66745D01*
X488645Y66759D01*
X488663Y66771D01*
X488729Y66837D01*
X488747Y66866D01*
X488773Y66889D01*
X488800Y66951D01*
X488821Y66984D01*
X488822Y67001D01*
X488831Y67021D01*
X488846Y67087D01*
X489167Y67288D01*
X489192Y67313D01*
X489234Y67342D01*
X489502Y67610D01*
X489569Y67610D01*
X489603Y67618D01*
X489637Y67616D01*
X489700Y67640D01*
X489738Y67649D01*
X489751Y67660D01*
X489772Y67668D01*
X489851Y67718D01*
X489875Y67742D01*
X489905Y67759D01*
X489945Y67813D01*
X489973Y67841D01*
X489978Y67857D01*
X489991Y67875D01*
X490020Y67935D01*
X490379Y68061D01*
X490408Y68079D01*
X490455Y68098D01*
X490777Y68300D01*
X490842Y68285D01*
X490876Y68285D01*
X490909Y68275D01*
X490976Y68285D01*
X491015Y68286D01*
X491031Y68293D01*
X491052Y68296D01*
X491141Y68327D01*
X491169Y68346D01*
X491202Y68355D01*
X491254Y68399D01*
X491287Y68420D01*
X491296Y68435D01*
X491312Y68449D01*
X491354Y68502D01*
X491731Y68544D01*
X491764Y68556D01*
X491814Y68563D01*
X492172Y68688D01*
X492233Y68659D01*
X492266Y68652D01*
X492296Y68636D01*
X492364Y68630D01*
X492402Y68622D01*
X492419Y68626D01*
X492440Y68624D01*
X492533Y68634D01*
X492565Y68646D01*
X492599Y68648D01*
X492660Y68680D01*
X492697Y68693D01*
X492708Y68705D01*
X492728Y68715D01*
X492780Y68757D01*
X493157Y68714D01*
X493192Y68718D01*
X493243Y68714D01*
X493620Y68757D01*
X493672Y68715D01*
X493703Y68700D01*
X493728Y68678D01*
X493793Y68657D01*
X493829Y68641D01*
X493846Y68641D01*
X493867Y68634D01*
X493960Y68624D01*
X493993Y68628D01*
X494027Y68622D01*
X494093Y68640D01*
X494132Y68644D01*
X494146Y68654D01*
X494167Y68659D01*
X494228Y68688D01*
X494586Y68563D01*
X494620Y68559D01*
X494669Y68544D01*
X495046Y68502D01*
X495088Y68449D01*
X495114Y68428D01*
X495134Y68400D01*
X495193Y68366D01*
X495224Y68342D01*
X495241Y68338D01*
X495259Y68327D01*
X495348Y68296D01*
X495382Y68293D01*
X495413Y68280D01*
X495481Y68282D01*
X495520Y68278D01*
X495536Y68284D01*
X495558Y68285D01*
X495623Y68300D01*
X495945Y68098D01*
X495977Y68086D01*
X496021Y68061D01*
X496380Y67935D01*
X496409Y67875D01*
X496430Y67848D01*
X496443Y67817D01*
X496491Y67772D01*
X496492Y67772D01*
X496493Y67770D01*
X496518Y67740D01*
X496533Y67733D01*
X496549Y67718D01*
X496628Y67668D01*
X496660Y67657D01*
X496688Y67638D01*
X496755Y67625D01*
X496792Y67612D01*
X496809Y67614D01*
X496831Y67610D01*
X496898Y67610D01*
X497166Y67342D01*
X497195Y67323D01*
X497233Y67288D01*
X497554Y67087D01*
X497569Y67021D01*
X497584Y66990D01*
X497590Y66957D01*
X497628Y66900D01*
X497645Y66865D01*
X497659Y66855D01*
X497671Y66837D01*
X497737Y66771D01*
X497766Y66753D01*
X497789Y66727D01*
X497851Y66700D01*
X497884Y66679D01*
X497901Y66678D01*
X497921Y66669D01*
X497987Y66654D01*
X498188Y66333D01*
X498213Y66308D01*
X498242Y66266D01*
X498510Y65998D01*
X498510Y65931D01*
X498518Y65897D01*
X498516Y65863D01*
X498540Y65800D01*
X498549Y65762D01*
X498560Y65749D01*
X498568Y65728D01*
X498618Y65649D01*
X498642Y65625D01*
X498659Y65595D01*
X498713Y65555D01*
X498741Y65527D01*
X498757Y65522D01*
X498775Y65509D01*
X498835Y65480D01*
X498961Y65121D01*
X498979Y65092D01*
X498998Y65045D01*
X499200Y64723D01*
X499185Y64658D01*
X499185Y64624D01*
X499175Y64591D01*
X499185Y64524D01*
X499186Y64485D01*
X499193Y64469D01*
X499196Y64448D01*
X499227Y64360D01*
X499246Y64331D01*
X499255Y64298D01*
X499299Y64246D01*
X499320Y64213D01*
X499335Y64204D01*
X499349Y64188D01*
X499402Y64146D01*
X499444Y63769D01*
X499452Y63748D01*
X499452Y63742D01*
X499456Y63734D01*
X499463Y63686D01*
X499588Y63328D01*
X499564Y63277D01*
X499548Y63205D01*
X499527Y63134D01*
X499529Y63121D01*
X499526Y63108D01*
X499544Y63036D01*
X499557Y62963D01*
X499565Y62951D01*
X499568Y62940D01*
X499592Y62910D01*
X499601Y62898D01*
X499601Y62400D01*
X499605Y62382D01*
X499603Y62357D01*
X499659Y61862D01*
X499628Y61819D01*
X499621Y61782D01*
X499609Y61757D01*
X499610Y61724D01*
X499601Y61677D01*
X499601Y51923D01*
X499613Y51870D01*
X499617Y51815D01*
X499634Y51781D01*
X499640Y51754D01*
X499658Y51732D01*
X499603Y51243D01*
X499605Y51224D01*
X499601Y51200D01*
X499601Y50697D01*
X499599Y50694D01*
X499556Y50634D01*
X499553Y50621D01*
X499546Y50610D01*
X499539Y50536D01*
X499527Y50463D01*
X499531Y50449D01*
X499530Y50437D01*
X499543Y50401D01*
X499564Y50323D01*
X499588Y50272D01*
X499463Y49914D01*
X499459Y49880D01*
X499453Y49858D01*
X499447Y49845D01*
X499447Y49841D01*
X499444Y49831D01*
X499402Y49454D01*
X499349Y49412D01*
X499328Y49385D01*
X499300Y49366D01*
X499266Y49307D01*
X499242Y49276D01*
X499238Y49259D01*
X499227Y49240D01*
X499196Y49152D01*
X499193Y49118D01*
X499180Y49087D01*
X499182Y49019D01*
X499178Y48980D01*
X499184Y48964D01*
X499185Y48942D01*
X499200Y48877D01*
X498998Y48555D01*
X498986Y48523D01*
X498961Y48479D01*
X498835Y48120D01*
X498775Y48091D01*
X498748Y48070D01*
X498717Y48057D01*
X498670Y48007D01*
X498640Y47982D01*
X498633Y47967D01*
X498618Y47951D01*
X498568Y47872D01*
X498557Y47840D01*
X498538Y47812D01*
X498525Y47745D01*
X498512Y47708D01*
X498514Y47691D01*
X498510Y47669D01*
X498510Y47602D01*
X498242Y47334D01*
X498223Y47305D01*
X498188Y47267D01*
X497987Y46946D01*
X497921Y46931D01*
X497890Y46916D01*
X497857Y46910D01*
X497800Y46872D01*
X497765Y46855D01*
X497755Y46841D01*
X497737Y46829D01*
X497671Y46763D01*
X497653Y46734D01*
X497627Y46711D01*
X497600Y46649D01*
X497579Y46616D01*
X497578Y46599D01*
X497569Y46579D01*
X497554Y46513D01*
X497233Y46312D01*
X497208Y46287D01*
X497166Y46258D01*
X496898Y45990D01*
X496831Y45990D01*
X496797Y45982D01*
X496763Y45984D01*
X496700Y45960D01*
X496662Y45951D01*
X496649Y45940D01*
X496628Y45932D01*
X496549Y45882D01*
X496525Y45858D01*
X496495Y45841D01*
X496455Y45787D01*
X496427Y45759D01*
X496422Y45743D01*
X496409Y45725D01*
X496380Y45665D01*
X496021Y45539D01*
X495992Y45521D01*
X495945Y45502D01*
X495623Y45300D01*
X495558Y45315D01*
X495524Y45315D01*
X495491Y45325D01*
X495424Y45315D01*
X495385Y45314D01*
X495369Y45307D01*
X495348Y45304D01*
X495260Y45273D01*
X495231Y45254D01*
X495198Y45245D01*
X495146Y45201D01*
X495113Y45180D01*
X495104Y45165D01*
X495088Y45151D01*
X495046Y45098D01*
X494669Y45056D01*
X494636Y45044D01*
X494586Y45037D01*
X494228Y44912D01*
X494167Y44941D01*
X494134Y44948D01*
X494104Y44964D01*
X494036Y44970D01*
X493998Y44978D01*
X493981Y44974D01*
X493960Y44976D01*
X493867Y44966D01*
X493835Y44954D01*
X493801Y44952D01*
X493740Y44920D01*
X493703Y44907D01*
X493692Y44895D01*
X493672Y44885D01*
X493620Y44843D01*
X493243Y44886D01*
G37*
%LPD*%
%LPC*%
G36*
X493243Y4586D02*
X493243Y4586D01*
X493208Y4582D01*
X493157Y4586D01*
X492780Y4543D01*
X492728Y4585D01*
X492697Y4600D01*
X492672Y4622D01*
X492607Y4643D01*
X492571Y4659D01*
X492554Y4659D01*
X492533Y4666D01*
X492440Y4676D01*
X492407Y4672D01*
X492373Y4678D01*
X492307Y4660D01*
X492268Y4656D01*
X492254Y4646D01*
X492233Y4641D01*
X492172Y4612D01*
X491814Y4737D01*
X491780Y4741D01*
X491731Y4756D01*
X491354Y4798D01*
X491312Y4851D01*
X491285Y4872D01*
X491266Y4900D01*
X491207Y4934D01*
X491176Y4958D01*
X491159Y4962D01*
X491140Y4973D01*
X491052Y5004D01*
X491018Y5007D01*
X490987Y5020D01*
X490919Y5018D01*
X490880Y5022D01*
X490864Y5016D01*
X490842Y5015D01*
X490777Y5000D01*
X490455Y5202D01*
X490423Y5214D01*
X490379Y5239D01*
X490020Y5365D01*
X489991Y5425D01*
X489970Y5452D01*
X489957Y5483D01*
X489907Y5530D01*
X489882Y5560D01*
X489867Y5567D01*
X489851Y5582D01*
X489772Y5632D01*
X489740Y5643D01*
X489712Y5662D01*
X489645Y5675D01*
X489608Y5688D01*
X489591Y5686D01*
X489569Y5690D01*
X489502Y5690D01*
X489234Y5958D01*
X489205Y5977D01*
X489167Y6012D01*
X488846Y6213D01*
X488831Y6279D01*
X488816Y6310D01*
X488810Y6343D01*
X488772Y6400D01*
X488755Y6435D01*
X488741Y6445D01*
X488729Y6463D01*
X488663Y6529D01*
X488634Y6547D01*
X488611Y6573D01*
X488549Y6600D01*
X488516Y6621D01*
X488499Y6622D01*
X488479Y6631D01*
X488413Y6646D01*
X488212Y6967D01*
X488187Y6992D01*
X488158Y7034D01*
X487890Y7302D01*
X487890Y7369D01*
X487882Y7403D01*
X487884Y7437D01*
X487860Y7500D01*
X487851Y7538D01*
X487840Y7551D01*
X487832Y7572D01*
X487782Y7651D01*
X487758Y7675D01*
X487741Y7705D01*
X487687Y7745D01*
X487659Y7773D01*
X487643Y7778D01*
X487625Y7791D01*
X487565Y7820D01*
X487439Y8179D01*
X487421Y8208D01*
X487402Y8255D01*
X487200Y8577D01*
X487215Y8642D01*
X487215Y8676D01*
X487225Y8709D01*
X487215Y8776D01*
X487214Y8815D01*
X487207Y8831D01*
X487204Y8852D01*
X487173Y8941D01*
X487154Y8969D01*
X487145Y9002D01*
X487101Y9054D01*
X487080Y9087D01*
X487065Y9096D01*
X487051Y9112D01*
X486998Y9154D01*
X486956Y9531D01*
X486948Y9554D01*
X486947Y9567D01*
X486943Y9576D01*
X486937Y9614D01*
X486812Y9972D01*
X486836Y10023D01*
X486852Y10095D01*
X486873Y10166D01*
X486871Y10179D01*
X486874Y10192D01*
X486856Y10264D01*
X486843Y10337D01*
X486835Y10349D01*
X486832Y10360D01*
X486808Y10390D01*
X486799Y10402D01*
X486799Y10900D01*
X486795Y10918D01*
X486797Y10943D01*
X486741Y11438D01*
X486772Y11481D01*
X486779Y11518D01*
X486791Y11543D01*
X486790Y11576D01*
X486799Y11623D01*
X486799Y18377D01*
X486787Y18430D01*
X486783Y18485D01*
X486766Y18519D01*
X486760Y18546D01*
X486742Y18568D01*
X486797Y19057D01*
X486795Y19076D01*
X486799Y19100D01*
X486799Y19603D01*
X486801Y19606D01*
X486844Y19666D01*
X486847Y19679D01*
X486854Y19690D01*
X486861Y19764D01*
X486873Y19837D01*
X486869Y19851D01*
X486870Y19863D01*
X486857Y19899D01*
X486836Y19977D01*
X486812Y20028D01*
X486937Y20386D01*
X486939Y20408D01*
X486945Y20421D01*
X486945Y20433D01*
X486956Y20469D01*
X486998Y20846D01*
X487051Y20888D01*
X487072Y20915D01*
X487100Y20934D01*
X487134Y20993D01*
X487158Y21024D01*
X487162Y21041D01*
X487173Y21060D01*
X487204Y21148D01*
X487206Y21170D01*
X487211Y21182D01*
X487211Y21191D01*
X487220Y21213D01*
X487218Y21281D01*
X487222Y21320D01*
X487216Y21336D01*
X487215Y21358D01*
X487200Y21423D01*
X487402Y21745D01*
X487414Y21777D01*
X487439Y21821D01*
X487565Y22180D01*
X487625Y22209D01*
X487652Y22230D01*
X487683Y22243D01*
X487730Y22293D01*
X487760Y22318D01*
X487767Y22333D01*
X487782Y22349D01*
X487832Y22428D01*
X487843Y22460D01*
X487862Y22488D01*
X487875Y22555D01*
X487888Y22592D01*
X487886Y22609D01*
X487890Y22631D01*
X487890Y22698D01*
X488158Y22966D01*
X488177Y22995D01*
X488212Y23033D01*
X488413Y23354D01*
X488479Y23369D01*
X488510Y23384D01*
X488543Y23390D01*
X488600Y23428D01*
X488635Y23445D01*
X488645Y23459D01*
X488663Y23471D01*
X488729Y23537D01*
X488747Y23566D01*
X488773Y23589D01*
X488800Y23651D01*
X488821Y23684D01*
X488822Y23701D01*
X488831Y23721D01*
X488846Y23787D01*
X489167Y23988D01*
X489192Y24013D01*
X489234Y24042D01*
X489502Y24310D01*
X489569Y24310D01*
X489603Y24318D01*
X489637Y24316D01*
X489700Y24340D01*
X489738Y24349D01*
X489751Y24360D01*
X489772Y24368D01*
X489851Y24418D01*
X489875Y24442D01*
X489905Y24459D01*
X489945Y24513D01*
X489973Y24541D01*
X489978Y24557D01*
X489991Y24575D01*
X490020Y24635D01*
X490379Y24761D01*
X490408Y24779D01*
X490455Y24798D01*
X490777Y25000D01*
X490842Y24985D01*
X490876Y24985D01*
X490909Y24975D01*
X490976Y24985D01*
X491015Y24986D01*
X491031Y24993D01*
X491052Y24996D01*
X491140Y25027D01*
X491169Y25046D01*
X491202Y25055D01*
X491254Y25099D01*
X491287Y25120D01*
X491296Y25135D01*
X491312Y25149D01*
X491354Y25202D01*
X491731Y25244D01*
X491764Y25256D01*
X491814Y25263D01*
X492172Y25388D01*
X492233Y25359D01*
X492266Y25352D01*
X492296Y25336D01*
X492364Y25330D01*
X492402Y25322D01*
X492419Y25326D01*
X492440Y25324D01*
X492533Y25334D01*
X492565Y25346D01*
X492599Y25348D01*
X492660Y25380D01*
X492697Y25393D01*
X492708Y25405D01*
X492728Y25415D01*
X492780Y25457D01*
X493157Y25414D01*
X493192Y25418D01*
X493243Y25414D01*
X493620Y25457D01*
X493672Y25415D01*
X493703Y25400D01*
X493728Y25378D01*
X493793Y25357D01*
X493829Y25341D01*
X493846Y25341D01*
X493867Y25334D01*
X493960Y25324D01*
X493993Y25328D01*
X494027Y25322D01*
X494093Y25340D01*
X494132Y25344D01*
X494146Y25354D01*
X494167Y25359D01*
X494228Y25388D01*
X494586Y25263D01*
X494620Y25259D01*
X494669Y25244D01*
X495046Y25202D01*
X495088Y25149D01*
X495115Y25128D01*
X495134Y25100D01*
X495193Y25066D01*
X495224Y25042D01*
X495241Y25038D01*
X495260Y25027D01*
X495348Y24996D01*
X495382Y24993D01*
X495413Y24980D01*
X495481Y24982D01*
X495520Y24978D01*
X495536Y24984D01*
X495558Y24985D01*
X495623Y25000D01*
X495945Y24798D01*
X495977Y24786D01*
X496021Y24761D01*
X496380Y24635D01*
X496409Y24575D01*
X496430Y24548D01*
X496443Y24517D01*
X496493Y24470D01*
X496518Y24440D01*
X496533Y24433D01*
X496549Y24418D01*
X496628Y24368D01*
X496660Y24357D01*
X496688Y24338D01*
X496755Y24325D01*
X496792Y24312D01*
X496809Y24314D01*
X496831Y24310D01*
X496898Y24310D01*
X497166Y24042D01*
X497195Y24023D01*
X497233Y23988D01*
X497554Y23787D01*
X497569Y23721D01*
X497584Y23690D01*
X497590Y23657D01*
X497628Y23600D01*
X497645Y23565D01*
X497659Y23555D01*
X497671Y23537D01*
X497737Y23471D01*
X497766Y23453D01*
X497789Y23427D01*
X497851Y23400D01*
X497884Y23379D01*
X497901Y23378D01*
X497921Y23369D01*
X497987Y23354D01*
X498188Y23033D01*
X498213Y23008D01*
X498242Y22966D01*
X498510Y22698D01*
X498510Y22631D01*
X498518Y22597D01*
X498516Y22563D01*
X498540Y22500D01*
X498549Y22462D01*
X498560Y22449D01*
X498568Y22428D01*
X498618Y22349D01*
X498642Y22325D01*
X498659Y22295D01*
X498713Y22255D01*
X498741Y22227D01*
X498757Y22222D01*
X498775Y22209D01*
X498835Y22180D01*
X498961Y21821D01*
X498979Y21792D01*
X498998Y21745D01*
X499200Y21423D01*
X499185Y21358D01*
X499185Y21324D01*
X499175Y21291D01*
X499185Y21224D01*
X499186Y21185D01*
X499193Y21169D01*
X499195Y21156D01*
X499195Y21154D01*
X499196Y21153D01*
X499196Y21148D01*
X499227Y21060D01*
X499246Y21031D01*
X499255Y20998D01*
X499299Y20946D01*
X499320Y20913D01*
X499335Y20904D01*
X499349Y20888D01*
X499402Y20846D01*
X499444Y20469D01*
X499456Y20436D01*
X499461Y20398D01*
X499461Y20393D01*
X499462Y20392D01*
X499463Y20386D01*
X499588Y20028D01*
X499564Y19977D01*
X499548Y19905D01*
X499527Y19834D01*
X499529Y19821D01*
X499526Y19808D01*
X499544Y19736D01*
X499557Y19663D01*
X499565Y19651D01*
X499568Y19640D01*
X499592Y19610D01*
X499601Y19598D01*
X499601Y19100D01*
X499605Y19082D01*
X499603Y19057D01*
X499659Y18562D01*
X499628Y18519D01*
X499621Y18482D01*
X499609Y18457D01*
X499610Y18424D01*
X499601Y18377D01*
X499601Y11623D01*
X499613Y11570D01*
X499617Y11515D01*
X499634Y11481D01*
X499640Y11454D01*
X499658Y11432D01*
X499603Y10943D01*
X499605Y10924D01*
X499601Y10900D01*
X499601Y10397D01*
X499599Y10394D01*
X499556Y10334D01*
X499553Y10321D01*
X499546Y10310D01*
X499539Y10236D01*
X499527Y10163D01*
X499531Y10149D01*
X499530Y10137D01*
X499543Y10101D01*
X499564Y10023D01*
X499588Y9972D01*
X499463Y9614D01*
X499459Y9580D01*
X499447Y9542D01*
X499446Y9539D01*
X499446Y9538D01*
X499444Y9531D01*
X499402Y9154D01*
X499349Y9112D01*
X499328Y9085D01*
X499300Y9066D01*
X499266Y9007D01*
X499242Y8976D01*
X499238Y8959D01*
X499227Y8940D01*
X499196Y8852D01*
X499193Y8818D01*
X499180Y8787D01*
X499182Y8719D01*
X499178Y8680D01*
X499184Y8664D01*
X499185Y8642D01*
X499200Y8577D01*
X498998Y8255D01*
X498986Y8223D01*
X498961Y8179D01*
X498835Y7820D01*
X498775Y7791D01*
X498748Y7770D01*
X498717Y7757D01*
X498670Y7707D01*
X498640Y7682D01*
X498633Y7667D01*
X498618Y7651D01*
X498568Y7572D01*
X498557Y7540D01*
X498538Y7512D01*
X498525Y7445D01*
X498512Y7408D01*
X498514Y7391D01*
X498510Y7370D01*
X498510Y7302D01*
X498241Y7034D01*
X498223Y7005D01*
X498188Y6967D01*
X497986Y6646D01*
X497921Y6631D01*
X497891Y6616D01*
X497857Y6610D01*
X497800Y6572D01*
X497765Y6555D01*
X497755Y6542D01*
X497737Y6529D01*
X497671Y6463D01*
X497653Y6434D01*
X497627Y6411D01*
X497600Y6349D01*
X497579Y6316D01*
X497578Y6299D01*
X497569Y6279D01*
X497554Y6213D01*
X497233Y6012D01*
X497208Y5987D01*
X497166Y5958D01*
X496898Y5690D01*
X496831Y5690D01*
X496797Y5682D01*
X496763Y5684D01*
X496700Y5660D01*
X496662Y5651D01*
X496649Y5640D01*
X496628Y5632D01*
X496549Y5582D01*
X496525Y5558D01*
X496495Y5541D01*
X496455Y5487D01*
X496427Y5459D01*
X496422Y5443D01*
X496409Y5425D01*
X496380Y5365D01*
X496021Y5239D01*
X495992Y5221D01*
X495945Y5202D01*
X495623Y5000D01*
X495558Y5015D01*
X495524Y5015D01*
X495491Y5024D01*
X495424Y5015D01*
X495385Y5014D01*
X495369Y5007D01*
X495348Y5004D01*
X495260Y4973D01*
X495231Y4954D01*
X495198Y4945D01*
X495146Y4901D01*
X495113Y4880D01*
X495104Y4865D01*
X495088Y4851D01*
X495046Y4798D01*
X494669Y4756D01*
X494636Y4744D01*
X494586Y4737D01*
X494228Y4612D01*
X494167Y4641D01*
X494134Y4648D01*
X494104Y4664D01*
X494036Y4670D01*
X493998Y4678D01*
X493981Y4674D01*
X493960Y4676D01*
X493867Y4666D01*
X493835Y4654D01*
X493801Y4652D01*
X493740Y4620D01*
X493703Y4607D01*
X493692Y4595D01*
X493672Y4585D01*
X493620Y4543D01*
X493243Y4586D01*
G37*
%LPD*%
%LPC*%
G36*
X406843Y4586D02*
X406843Y4586D01*
X406808Y4582D01*
X406757Y4586D01*
X406380Y4543D01*
X406328Y4585D01*
X406297Y4600D01*
X406272Y4622D01*
X406207Y4643D01*
X406171Y4659D01*
X406154Y4659D01*
X406133Y4666D01*
X406040Y4676D01*
X406007Y4672D01*
X405973Y4678D01*
X405907Y4660D01*
X405868Y4656D01*
X405854Y4646D01*
X405833Y4641D01*
X405772Y4612D01*
X405414Y4737D01*
X405380Y4741D01*
X405331Y4756D01*
X404954Y4798D01*
X404912Y4851D01*
X404885Y4872D01*
X404866Y4900D01*
X404807Y4934D01*
X404776Y4958D01*
X404759Y4962D01*
X404740Y4973D01*
X404652Y5004D01*
X404618Y5007D01*
X404587Y5020D01*
X404519Y5018D01*
X404480Y5022D01*
X404464Y5016D01*
X404442Y5015D01*
X404377Y5000D01*
X404055Y5202D01*
X404023Y5214D01*
X403979Y5239D01*
X403620Y5365D01*
X403591Y5425D01*
X403570Y5452D01*
X403557Y5483D01*
X403507Y5530D01*
X403482Y5560D01*
X403467Y5567D01*
X403451Y5582D01*
X403372Y5632D01*
X403340Y5643D01*
X403312Y5662D01*
X403245Y5675D01*
X403208Y5688D01*
X403191Y5686D01*
X403169Y5690D01*
X403102Y5690D01*
X402834Y5958D01*
X402805Y5977D01*
X402767Y6012D01*
X402446Y6213D01*
X402431Y6279D01*
X402416Y6310D01*
X402410Y6343D01*
X402372Y6400D01*
X402355Y6435D01*
X402341Y6445D01*
X402329Y6463D01*
X402263Y6529D01*
X402234Y6547D01*
X402211Y6573D01*
X402149Y6600D01*
X402116Y6621D01*
X402099Y6622D01*
X402079Y6631D01*
X402013Y6646D01*
X401812Y6967D01*
X401787Y6992D01*
X401758Y7034D01*
X401490Y7302D01*
X401490Y7369D01*
X401482Y7403D01*
X401484Y7437D01*
X401460Y7500D01*
X401451Y7538D01*
X401440Y7551D01*
X401432Y7572D01*
X401382Y7651D01*
X401358Y7675D01*
X401341Y7705D01*
X401287Y7745D01*
X401259Y7773D01*
X401243Y7778D01*
X401225Y7791D01*
X401165Y7820D01*
X401039Y8179D01*
X401021Y8208D01*
X401002Y8255D01*
X400800Y8577D01*
X400815Y8642D01*
X400815Y8676D01*
X400825Y8709D01*
X400815Y8776D01*
X400814Y8815D01*
X400807Y8831D01*
X400804Y8852D01*
X400773Y8940D01*
X400754Y8969D01*
X400745Y9002D01*
X400701Y9054D01*
X400680Y9087D01*
X400665Y9096D01*
X400651Y9112D01*
X400598Y9154D01*
X400556Y9531D01*
X400548Y9554D01*
X400547Y9567D01*
X400543Y9576D01*
X400537Y9614D01*
X400412Y9972D01*
X400436Y10023D01*
X400452Y10095D01*
X400473Y10166D01*
X400471Y10179D01*
X400474Y10192D01*
X400456Y10264D01*
X400443Y10337D01*
X400435Y10349D01*
X400432Y10360D01*
X400408Y10390D01*
X400399Y10402D01*
X400399Y10900D01*
X400395Y10918D01*
X400397Y10943D01*
X400341Y11438D01*
X400372Y11481D01*
X400379Y11518D01*
X400391Y11543D01*
X400390Y11576D01*
X400399Y11623D01*
X400399Y18377D01*
X400387Y18430D01*
X400383Y18485D01*
X400366Y18519D01*
X400360Y18546D01*
X400342Y18568D01*
X400397Y19057D01*
X400395Y19076D01*
X400399Y19100D01*
X400399Y19603D01*
X400401Y19606D01*
X400444Y19666D01*
X400447Y19679D01*
X400454Y19690D01*
X400461Y19764D01*
X400473Y19837D01*
X400469Y19851D01*
X400470Y19863D01*
X400457Y19899D01*
X400436Y19977D01*
X400412Y20028D01*
X400537Y20386D01*
X400539Y20408D01*
X400545Y20421D01*
X400545Y20433D01*
X400556Y20469D01*
X400598Y20846D01*
X400651Y20888D01*
X400672Y20915D01*
X400700Y20934D01*
X400734Y20993D01*
X400758Y21024D01*
X400762Y21041D01*
X400773Y21060D01*
X400804Y21148D01*
X400806Y21170D01*
X400811Y21182D01*
X400811Y21191D01*
X400820Y21213D01*
X400818Y21281D01*
X400822Y21320D01*
X400816Y21336D01*
X400815Y21358D01*
X400800Y21423D01*
X401002Y21745D01*
X401014Y21777D01*
X401039Y21821D01*
X401165Y22180D01*
X401225Y22209D01*
X401252Y22230D01*
X401283Y22243D01*
X401330Y22293D01*
X401360Y22318D01*
X401367Y22333D01*
X401382Y22349D01*
X401432Y22428D01*
X401443Y22460D01*
X401462Y22488D01*
X401475Y22555D01*
X401488Y22592D01*
X401486Y22609D01*
X401490Y22631D01*
X401490Y22698D01*
X401758Y22966D01*
X401777Y22995D01*
X401812Y23033D01*
X402013Y23354D01*
X402079Y23369D01*
X402110Y23384D01*
X402143Y23390D01*
X402200Y23428D01*
X402235Y23445D01*
X402245Y23459D01*
X402263Y23471D01*
X402329Y23537D01*
X402347Y23566D01*
X402373Y23589D01*
X402400Y23651D01*
X402421Y23684D01*
X402422Y23701D01*
X402431Y23721D01*
X402446Y23787D01*
X402767Y23988D01*
X402792Y24013D01*
X402834Y24042D01*
X403102Y24310D01*
X403169Y24310D01*
X403203Y24318D01*
X403237Y24316D01*
X403300Y24340D01*
X403338Y24349D01*
X403351Y24360D01*
X403372Y24368D01*
X403451Y24418D01*
X403475Y24442D01*
X403505Y24459D01*
X403545Y24513D01*
X403573Y24541D01*
X403578Y24557D01*
X403591Y24575D01*
X403620Y24635D01*
X403979Y24761D01*
X404008Y24779D01*
X404055Y24798D01*
X404377Y25000D01*
X404442Y24985D01*
X404476Y24985D01*
X404509Y24975D01*
X404576Y24985D01*
X404615Y24986D01*
X404631Y24993D01*
X404652Y24996D01*
X404740Y25027D01*
X404769Y25046D01*
X404802Y25055D01*
X404854Y25099D01*
X404887Y25120D01*
X404896Y25135D01*
X404912Y25149D01*
X404954Y25202D01*
X405331Y25244D01*
X405364Y25256D01*
X405414Y25263D01*
X405772Y25388D01*
X405833Y25359D01*
X405866Y25352D01*
X405896Y25336D01*
X405964Y25330D01*
X406002Y25322D01*
X406019Y25326D01*
X406040Y25324D01*
X406133Y25334D01*
X406165Y25346D01*
X406199Y25348D01*
X406260Y25380D01*
X406297Y25393D01*
X406309Y25405D01*
X406328Y25415D01*
X406380Y25457D01*
X406757Y25414D01*
X406792Y25418D01*
X406843Y25414D01*
X407220Y25457D01*
X407272Y25415D01*
X407303Y25400D01*
X407328Y25378D01*
X407393Y25357D01*
X407429Y25341D01*
X407446Y25341D01*
X407467Y25334D01*
X407560Y25324D01*
X407593Y25328D01*
X407627Y25322D01*
X407693Y25340D01*
X407732Y25344D01*
X407746Y25354D01*
X407767Y25359D01*
X407828Y25388D01*
X408186Y25263D01*
X408220Y25259D01*
X408269Y25244D01*
X408646Y25202D01*
X408688Y25149D01*
X408714Y25128D01*
X408734Y25100D01*
X408793Y25066D01*
X408824Y25042D01*
X408841Y25038D01*
X408859Y25027D01*
X408948Y24996D01*
X408982Y24993D01*
X409013Y24980D01*
X409081Y24982D01*
X409120Y24978D01*
X409136Y24984D01*
X409158Y24985D01*
X409223Y25000D01*
X409545Y24798D01*
X409577Y24786D01*
X409621Y24761D01*
X409980Y24635D01*
X410009Y24575D01*
X410030Y24548D01*
X410043Y24517D01*
X410093Y24470D01*
X410118Y24440D01*
X410133Y24433D01*
X410149Y24418D01*
X410228Y24368D01*
X410260Y24357D01*
X410288Y24338D01*
X410355Y24325D01*
X410392Y24312D01*
X410409Y24314D01*
X410431Y24310D01*
X410498Y24310D01*
X410766Y24042D01*
X410795Y24023D01*
X410833Y23988D01*
X411154Y23787D01*
X411169Y23721D01*
X411184Y23690D01*
X411190Y23657D01*
X411228Y23600D01*
X411245Y23565D01*
X411259Y23555D01*
X411271Y23537D01*
X411337Y23471D01*
X411366Y23453D01*
X411389Y23427D01*
X411451Y23400D01*
X411484Y23379D01*
X411501Y23378D01*
X411521Y23369D01*
X411587Y23354D01*
X411788Y23033D01*
X411813Y23008D01*
X411842Y22966D01*
X412110Y22698D01*
X412110Y22631D01*
X412118Y22597D01*
X412116Y22563D01*
X412140Y22500D01*
X412149Y22462D01*
X412160Y22449D01*
X412168Y22428D01*
X412218Y22349D01*
X412242Y22325D01*
X412259Y22295D01*
X412313Y22255D01*
X412341Y22227D01*
X412357Y22222D01*
X412375Y22209D01*
X412435Y22180D01*
X412561Y21821D01*
X412579Y21792D01*
X412598Y21745D01*
X412800Y21423D01*
X412785Y21358D01*
X412785Y21324D01*
X412775Y21291D01*
X412785Y21224D01*
X412786Y21185D01*
X412793Y21169D01*
X412795Y21156D01*
X412795Y21154D01*
X412796Y21153D01*
X412796Y21148D01*
X412827Y21059D01*
X412846Y21031D01*
X412855Y20998D01*
X412899Y20946D01*
X412920Y20913D01*
X412935Y20904D01*
X412949Y20888D01*
X413002Y20846D01*
X413044Y20469D01*
X413056Y20436D01*
X413061Y20398D01*
X413061Y20393D01*
X413062Y20392D01*
X413063Y20386D01*
X413188Y20028D01*
X413164Y19977D01*
X413148Y19905D01*
X413127Y19834D01*
X413129Y19821D01*
X413126Y19808D01*
X413144Y19736D01*
X413157Y19663D01*
X413165Y19651D01*
X413168Y19640D01*
X413192Y19610D01*
X413201Y19598D01*
X413201Y19100D01*
X413205Y19082D01*
X413203Y19057D01*
X413259Y18562D01*
X413228Y18519D01*
X413221Y18482D01*
X413209Y18457D01*
X413210Y18424D01*
X413201Y18377D01*
X413201Y11623D01*
X413213Y11570D01*
X413217Y11515D01*
X413234Y11481D01*
X413240Y11454D01*
X413258Y11432D01*
X413203Y10943D01*
X413205Y10924D01*
X413201Y10900D01*
X413201Y10397D01*
X413199Y10394D01*
X413156Y10334D01*
X413153Y10321D01*
X413146Y10310D01*
X413139Y10236D01*
X413127Y10163D01*
X413131Y10149D01*
X413130Y10137D01*
X413143Y10101D01*
X413164Y10023D01*
X413188Y9972D01*
X413063Y9614D01*
X413059Y9580D01*
X413047Y9542D01*
X413046Y9539D01*
X413046Y9538D01*
X413044Y9531D01*
X413002Y9154D01*
X412949Y9112D01*
X412928Y9085D01*
X412900Y9066D01*
X412866Y9007D01*
X412842Y8976D01*
X412838Y8959D01*
X412827Y8940D01*
X412796Y8852D01*
X412793Y8818D01*
X412780Y8787D01*
X412782Y8719D01*
X412778Y8680D01*
X412784Y8664D01*
X412785Y8642D01*
X412800Y8577D01*
X412598Y8255D01*
X412586Y8223D01*
X412561Y8179D01*
X412435Y7820D01*
X412375Y7791D01*
X412348Y7770D01*
X412317Y7757D01*
X412270Y7707D01*
X412240Y7682D01*
X412233Y7667D01*
X412218Y7651D01*
X412168Y7572D01*
X412157Y7540D01*
X412138Y7512D01*
X412125Y7445D01*
X412112Y7408D01*
X412114Y7391D01*
X412110Y7369D01*
X412110Y7302D01*
X411842Y7034D01*
X411823Y7005D01*
X411788Y6967D01*
X411587Y6646D01*
X411521Y6631D01*
X411490Y6616D01*
X411457Y6610D01*
X411400Y6572D01*
X411365Y6555D01*
X411355Y6541D01*
X411337Y6529D01*
X411271Y6463D01*
X411253Y6434D01*
X411227Y6411D01*
X411200Y6349D01*
X411179Y6316D01*
X411178Y6299D01*
X411169Y6279D01*
X411154Y6213D01*
X410833Y6012D01*
X410808Y5987D01*
X410766Y5958D01*
X410498Y5690D01*
X410431Y5690D01*
X410397Y5682D01*
X410363Y5684D01*
X410300Y5660D01*
X410262Y5651D01*
X410249Y5640D01*
X410228Y5632D01*
X410149Y5582D01*
X410125Y5558D01*
X410095Y5541D01*
X410055Y5487D01*
X410027Y5459D01*
X410022Y5443D01*
X410009Y5425D01*
X409980Y5365D01*
X409621Y5239D01*
X409592Y5221D01*
X409545Y5202D01*
X409223Y5000D01*
X409158Y5015D01*
X409124Y5015D01*
X409091Y5025D01*
X409024Y5015D01*
X408985Y5014D01*
X408969Y5007D01*
X408948Y5004D01*
X408859Y4973D01*
X408831Y4954D01*
X408798Y4945D01*
X408746Y4901D01*
X408713Y4880D01*
X408704Y4865D01*
X408688Y4851D01*
X408646Y4798D01*
X408269Y4756D01*
X408236Y4744D01*
X408186Y4737D01*
X407828Y4612D01*
X407767Y4641D01*
X407734Y4648D01*
X407704Y4664D01*
X407636Y4670D01*
X407598Y4678D01*
X407581Y4674D01*
X407560Y4676D01*
X407467Y4666D01*
X407435Y4654D01*
X407401Y4652D01*
X407340Y4620D01*
X407303Y4607D01*
X407291Y4595D01*
X407272Y4585D01*
X407220Y4543D01*
X406843Y4586D01*
G37*
%LPD*%
G36*
X407969Y45929D02*
X407969Y45929D01*
X408010Y45943D01*
X408077Y45954D01*
X409134Y46324D01*
X409155Y46336D01*
X409171Y46340D01*
X409194Y46355D01*
X409235Y46372D01*
X410183Y46968D01*
X410214Y46998D01*
X410270Y47038D01*
X411062Y47830D01*
X411086Y47866D01*
X411132Y47917D01*
X411728Y48865D01*
X411743Y48905D01*
X411776Y48966D01*
X412146Y50023D01*
X412152Y50065D01*
X412171Y50132D01*
X412296Y51244D01*
X412294Y51269D01*
X412299Y51300D01*
X412299Y62300D01*
X412294Y62324D01*
X412296Y62356D01*
X412171Y63469D01*
X412157Y63510D01*
X412146Y63577D01*
X411776Y64634D01*
X411754Y64671D01*
X411728Y64735D01*
X411132Y65683D01*
X411102Y65714D01*
X411062Y65770D01*
X410270Y66562D01*
X410234Y66586D01*
X410183Y66632D01*
X409235Y67228D01*
X409195Y67243D01*
X409134Y67276D01*
X408077Y67646D01*
X408035Y67652D01*
X407969Y67671D01*
X406856Y67796D01*
X406813Y67792D01*
X406744Y67796D01*
X405632Y67671D01*
X405590Y67657D01*
X405523Y67646D01*
X404466Y67276D01*
X404429Y67254D01*
X404365Y67228D01*
X403417Y66632D01*
X403386Y66602D01*
X403330Y66562D01*
X402538Y65770D01*
X402514Y65734D01*
X402468Y65683D01*
X401872Y64735D01*
X401857Y64695D01*
X401824Y64634D01*
X401454Y63577D01*
X401448Y63535D01*
X401429Y63469D01*
X401304Y62356D01*
X401306Y62331D01*
X401301Y62300D01*
X401301Y51300D01*
X401304Y51286D01*
X401302Y51276D01*
X401305Y51263D01*
X401304Y51244D01*
X401429Y50132D01*
X401443Y50090D01*
X401454Y50023D01*
X401824Y48966D01*
X401846Y48929D01*
X401872Y48865D01*
X402468Y47917D01*
X402498Y47886D01*
X402538Y47830D01*
X403330Y47038D01*
X403366Y47014D01*
X403417Y46968D01*
X404365Y46372D01*
X404405Y46357D01*
X404466Y46324D01*
X405523Y45954D01*
X405565Y45948D01*
X405632Y45929D01*
X406744Y45804D01*
X406787Y45808D01*
X406856Y45804D01*
X407969Y45929D01*
G37*
G36*
X494369Y45929D02*
X494369Y45929D01*
X494410Y45943D01*
X494477Y45954D01*
X495534Y46324D01*
X495555Y46336D01*
X495571Y46340D01*
X495594Y46355D01*
X495635Y46372D01*
X496583Y46968D01*
X496614Y46998D01*
X496670Y47038D01*
X497462Y47830D01*
X497486Y47866D01*
X497532Y47917D01*
X498128Y48865D01*
X498143Y48905D01*
X498176Y48966D01*
X498546Y50023D01*
X498552Y50065D01*
X498571Y50132D01*
X498696Y51244D01*
X498694Y51269D01*
X498699Y51300D01*
X498699Y62300D01*
X498694Y62324D01*
X498696Y62356D01*
X498571Y63469D01*
X498557Y63510D01*
X498546Y63577D01*
X498176Y64634D01*
X498154Y64671D01*
X498128Y64735D01*
X497532Y65683D01*
X497502Y65714D01*
X497462Y65770D01*
X496670Y66562D01*
X496634Y66586D01*
X496583Y66632D01*
X495635Y67228D01*
X495595Y67243D01*
X495534Y67276D01*
X494477Y67646D01*
X494435Y67652D01*
X494369Y67671D01*
X493256Y67796D01*
X493213Y67792D01*
X493144Y67796D01*
X492032Y67671D01*
X491990Y67657D01*
X491923Y67646D01*
X490866Y67276D01*
X490829Y67254D01*
X490765Y67228D01*
X489817Y66632D01*
X489786Y66602D01*
X489730Y66562D01*
X488938Y65770D01*
X488914Y65734D01*
X488868Y65683D01*
X488272Y64735D01*
X488257Y64695D01*
X488224Y64634D01*
X487854Y63577D01*
X487848Y63535D01*
X487829Y63469D01*
X487704Y62356D01*
X487706Y62331D01*
X487701Y62300D01*
X487701Y51300D01*
X487704Y51286D01*
X487702Y51276D01*
X487705Y51263D01*
X487704Y51244D01*
X487829Y50132D01*
X487843Y50090D01*
X487854Y50023D01*
X488224Y48966D01*
X488246Y48929D01*
X488272Y48865D01*
X488868Y47917D01*
X488898Y47886D01*
X488938Y47830D01*
X489730Y47038D01*
X489766Y47014D01*
X489817Y46968D01*
X490765Y46372D01*
X490805Y46357D01*
X490866Y46324D01*
X491923Y45954D01*
X491965Y45948D01*
X492032Y45929D01*
X493144Y45804D01*
X493187Y45808D01*
X493256Y45804D01*
X494369Y45929D01*
G37*
G36*
X407969Y5629D02*
X407969Y5629D01*
X408010Y5643D01*
X408077Y5654D01*
X409134Y6024D01*
X409155Y6036D01*
X409171Y6040D01*
X409194Y6055D01*
X409235Y6072D01*
X410183Y6668D01*
X410214Y6698D01*
X410270Y6738D01*
X411062Y7530D01*
X411086Y7566D01*
X411132Y7617D01*
X411728Y8565D01*
X411743Y8605D01*
X411776Y8666D01*
X412146Y9723D01*
X412152Y9765D01*
X412171Y9832D01*
X412296Y10944D01*
X412294Y10969D01*
X412299Y11000D01*
X412299Y19000D01*
X412294Y19024D01*
X412296Y19056D01*
X412171Y20169D01*
X412157Y20210D01*
X412146Y20277D01*
X411776Y21334D01*
X411754Y21371D01*
X411728Y21435D01*
X411132Y22383D01*
X411102Y22414D01*
X411062Y22470D01*
X410270Y23262D01*
X410234Y23286D01*
X410183Y23332D01*
X409235Y23928D01*
X409195Y23943D01*
X409134Y23976D01*
X408077Y24346D01*
X408035Y24352D01*
X407969Y24371D01*
X406856Y24496D01*
X406813Y24492D01*
X406744Y24496D01*
X405632Y24371D01*
X405590Y24357D01*
X405523Y24346D01*
X404466Y23976D01*
X404429Y23954D01*
X404365Y23928D01*
X403417Y23332D01*
X403386Y23302D01*
X403330Y23262D01*
X402538Y22470D01*
X402514Y22434D01*
X402468Y22383D01*
X401872Y21435D01*
X401857Y21395D01*
X401824Y21334D01*
X401454Y20277D01*
X401448Y20235D01*
X401429Y20169D01*
X401304Y19056D01*
X401306Y19031D01*
X401301Y19000D01*
X401301Y11000D01*
X401304Y10986D01*
X401302Y10976D01*
X401305Y10963D01*
X401304Y10944D01*
X401429Y9832D01*
X401443Y9790D01*
X401454Y9723D01*
X401824Y8666D01*
X401846Y8629D01*
X401872Y8565D01*
X402468Y7617D01*
X402498Y7586D01*
X402538Y7530D01*
X403330Y6738D01*
X403366Y6714D01*
X403417Y6668D01*
X404365Y6072D01*
X404405Y6057D01*
X404466Y6024D01*
X405523Y5654D01*
X405565Y5648D01*
X405632Y5629D01*
X406744Y5504D01*
X406787Y5508D01*
X406856Y5504D01*
X407969Y5629D01*
G37*
G36*
X494369Y5629D02*
X494369Y5629D01*
X494410Y5643D01*
X494477Y5654D01*
X495534Y6024D01*
X495555Y6036D01*
X495571Y6040D01*
X495594Y6055D01*
X495635Y6072D01*
X496583Y6668D01*
X496614Y6698D01*
X496670Y6738D01*
X497462Y7530D01*
X497486Y7566D01*
X497532Y7617D01*
X498128Y8565D01*
X498143Y8605D01*
X498176Y8666D01*
X498546Y9723D01*
X498552Y9765D01*
X498571Y9832D01*
X498696Y10944D01*
X498694Y10969D01*
X498699Y11000D01*
X498699Y19000D01*
X498694Y19024D01*
X498696Y19056D01*
X498571Y20169D01*
X498557Y20210D01*
X498546Y20277D01*
X498176Y21334D01*
X498154Y21371D01*
X498128Y21435D01*
X497532Y22383D01*
X497502Y22414D01*
X497462Y22470D01*
X496670Y23262D01*
X496634Y23286D01*
X496583Y23332D01*
X495635Y23928D01*
X495595Y23943D01*
X495534Y23976D01*
X494477Y24346D01*
X494435Y24352D01*
X494369Y24371D01*
X493256Y24496D01*
X493213Y24492D01*
X493144Y24496D01*
X492032Y24371D01*
X491990Y24357D01*
X491923Y24346D01*
X490866Y23976D01*
X490829Y23954D01*
X490765Y23928D01*
X489817Y23332D01*
X489786Y23302D01*
X489730Y23262D01*
X488938Y22470D01*
X488914Y22434D01*
X488868Y22383D01*
X488272Y21435D01*
X488257Y21395D01*
X488224Y21334D01*
X487854Y20277D01*
X487848Y20235D01*
X487829Y20169D01*
X487704Y19056D01*
X487706Y19031D01*
X487701Y19000D01*
X487701Y11000D01*
X487704Y10986D01*
X487702Y10976D01*
X487705Y10963D01*
X487704Y10944D01*
X487829Y9832D01*
X487843Y9790D01*
X487854Y9723D01*
X488224Y8666D01*
X488246Y8629D01*
X488272Y8565D01*
X488868Y7617D01*
X488898Y7586D01*
X488938Y7530D01*
X489730Y6738D01*
X489766Y6714D01*
X489817Y6668D01*
X490765Y6072D01*
X490805Y6057D01*
X490866Y6024D01*
X491923Y5654D01*
X491965Y5648D01*
X492032Y5629D01*
X493144Y5504D01*
X493187Y5508D01*
X493256Y5504D01*
X494369Y5629D01*
G37*
%LPC*%
G36*
X209521Y204287D02*
X209521Y204287D01*
X207119Y205282D01*
X205282Y207119D01*
X204287Y209521D01*
X204287Y212119D01*
X205282Y214521D01*
X207119Y216358D01*
X209521Y217353D01*
X212119Y217353D01*
X214521Y216358D01*
X216358Y214521D01*
X217353Y212119D01*
X217353Y209521D01*
X216358Y207119D01*
X214521Y205282D01*
X212119Y204287D01*
X209521Y204287D01*
G37*
%LPD*%
%LPC*%
G36*
X419857Y45549D02*
X419857Y45549D01*
X417559Y46501D01*
X415801Y48259D01*
X414849Y50557D01*
X414849Y53043D01*
X415801Y55341D01*
X417559Y57099D01*
X419857Y58051D01*
X422343Y58051D01*
X424641Y57099D01*
X426399Y55341D01*
X427351Y53043D01*
X427351Y50557D01*
X426399Y48259D01*
X424641Y46501D01*
X422343Y45549D01*
X419857Y45549D01*
G37*
%LPD*%
%LPC*%
G36*
X477657Y45549D02*
X477657Y45549D01*
X475359Y46501D01*
X473601Y48259D01*
X472649Y50557D01*
X472649Y53043D01*
X473601Y55341D01*
X475359Y57099D01*
X477657Y58051D01*
X480143Y58051D01*
X482441Y57099D01*
X484199Y55341D01*
X485151Y53043D01*
X485151Y50557D01*
X484199Y48259D01*
X482441Y46501D01*
X480143Y45549D01*
X477657Y45549D01*
G37*
%LPD*%
%LPC*%
G36*
X434410Y132397D02*
X434410Y132397D01*
X432193Y133316D01*
X430496Y135013D01*
X429577Y137230D01*
X429577Y139630D01*
X430496Y141847D01*
X432193Y143544D01*
X434410Y144463D01*
X436810Y144463D01*
X439027Y143544D01*
X440724Y141847D01*
X441643Y139630D01*
X441643Y137230D01*
X440724Y135013D01*
X439027Y133316D01*
X436810Y132397D01*
X434410Y132397D01*
G37*
%LPD*%
%LPC*%
G36*
X472510Y132397D02*
X472510Y132397D01*
X470293Y133316D01*
X468596Y135013D01*
X467677Y137230D01*
X467677Y139630D01*
X468596Y141847D01*
X470293Y143544D01*
X472510Y144463D01*
X474910Y144463D01*
X477127Y143544D01*
X478824Y141847D01*
X479743Y139630D01*
X479743Y137230D01*
X478824Y135013D01*
X477127Y133316D01*
X474910Y132397D01*
X472510Y132397D01*
G37*
%LPD*%
%LPC*%
G36*
X189319Y204882D02*
X189319Y204882D01*
X187137Y205786D01*
X185466Y207457D01*
X184562Y209639D01*
X184562Y212001D01*
X185466Y214183D01*
X187137Y215854D01*
X189319Y216758D01*
X191681Y216758D01*
X193863Y215854D01*
X195534Y214183D01*
X196438Y212001D01*
X196438Y209639D01*
X195534Y207457D01*
X193863Y205786D01*
X191681Y204882D01*
X189319Y204882D01*
G37*
%LPD*%
%LPC*%
G36*
X453479Y91852D02*
X453479Y91852D01*
X451297Y92756D01*
X449626Y94427D01*
X448722Y96609D01*
X448722Y98971D01*
X449626Y101153D01*
X451297Y102824D01*
X453479Y103728D01*
X455841Y103728D01*
X458023Y102824D01*
X459694Y101153D01*
X460598Y98971D01*
X460598Y96609D01*
X459694Y94427D01*
X458023Y92756D01*
X455841Y91852D01*
X453479Y91852D01*
G37*
%LPD*%
%LPC*%
G36*
X604609Y20732D02*
X604609Y20732D01*
X602427Y21636D01*
X600756Y23307D01*
X599852Y25489D01*
X599852Y27851D01*
X600756Y30033D01*
X602427Y31704D01*
X604609Y32608D01*
X606971Y32608D01*
X609153Y31704D01*
X610824Y30033D01*
X611728Y27851D01*
X611728Y25489D01*
X610824Y23307D01*
X609153Y21636D01*
X606971Y20732D01*
X604609Y20732D01*
G37*
%LPD*%
%LPC*%
G36*
X236340Y203767D02*
X236340Y203767D01*
X234214Y204648D01*
X232588Y206274D01*
X231707Y208400D01*
X231707Y210700D01*
X232588Y212826D01*
X234214Y214452D01*
X236340Y215333D01*
X238640Y215333D01*
X240766Y214452D01*
X242392Y212826D01*
X243273Y210700D01*
X243273Y208400D01*
X242392Y206274D01*
X240766Y204648D01*
X238640Y203767D01*
X236340Y203767D01*
G37*
%LPD*%
%LPC*%
G36*
X247770Y160587D02*
X247770Y160587D01*
X245644Y161468D01*
X244018Y163094D01*
X243137Y165220D01*
X243137Y167520D01*
X244018Y169646D01*
X245644Y171272D01*
X247770Y172153D01*
X250070Y172153D01*
X252196Y171272D01*
X253822Y169646D01*
X254703Y167520D01*
X254703Y165220D01*
X253822Y163094D01*
X252196Y161468D01*
X250070Y160587D01*
X247770Y160587D01*
G37*
%LPD*%
%LPC*%
G36*
X127344Y145827D02*
X127344Y145827D01*
X124237Y148934D01*
X124237Y153326D01*
X127344Y156433D01*
X131736Y156433D01*
X134843Y153326D01*
X134843Y148934D01*
X131736Y145827D01*
X127344Y145827D01*
G37*
%LPD*%
%LPC*%
G36*
X267044Y180117D02*
X267044Y180117D01*
X263937Y183224D01*
X263937Y187616D01*
X267044Y190723D01*
X271436Y190723D01*
X274543Y187616D01*
X274543Y183224D01*
X271436Y180117D01*
X267044Y180117D01*
G37*
%LPD*%
%LPC*%
G36*
X258154Y202977D02*
X258154Y202977D01*
X255047Y206084D01*
X255047Y210476D01*
X258154Y213583D01*
X262546Y213583D01*
X265653Y210476D01*
X265653Y206084D01*
X262546Y202977D01*
X258154Y202977D01*
G37*
%LPD*%
%LPC*%
G36*
X76544Y145827D02*
X76544Y145827D01*
X73437Y148934D01*
X73437Y153326D01*
X76544Y156433D01*
X80936Y156433D01*
X84043Y153326D01*
X84043Y148934D01*
X80936Y145827D01*
X76544Y145827D01*
G37*
%LPD*%
%LPC*%
G36*
X552794Y257587D02*
X552794Y257587D01*
X549687Y260694D01*
X549687Y265086D01*
X552794Y268193D01*
X557186Y268193D01*
X560293Y265086D01*
X560293Y260694D01*
X557186Y257587D01*
X552794Y257587D01*
G37*
%LPD*%
D10*
X406800Y56800D03*
X493200Y56800D03*
X406800Y15000D03*
X493200Y15000D03*
D11*
X869500Y113050D03*
X869500Y138450D03*
X869500Y163850D03*
X869500Y189250D03*
X869500Y214650D03*
X869500Y240050D03*
X869500Y265450D03*
X869500Y290850D03*
X30000Y87650D03*
X30000Y113050D03*
X30000Y138450D03*
X30000Y163850D03*
X30000Y189250D03*
X30000Y214650D03*
X30000Y240050D03*
X30000Y265450D03*
X30000Y290850D03*
X30000Y316250D03*
D12*
X337820Y60960D03*
X363220Y132080D03*
X622300Y81280D03*
D13*
X532130Y267970D03*
X496570Y327660D03*
X490220Y321310D03*
X502920Y321310D03*
X509270Y327660D03*
X515620Y321310D03*
X521970Y327660D03*
X78740Y101600D03*
X138430Y101600D03*
X83820Y228600D03*
D14*
X106680Y92710D03*
X106680Y82550D03*
X96520Y82550D03*
X96520Y92710D03*
X96520Y102870D03*
X109220Y237490D03*
X109220Y207010D03*
X115570Y214630D03*
X109220Y222250D03*
X115570Y229870D03*
D15*
X186690Y167640D03*
D13*
X219710Y168910D03*
X218440Y160020D03*
D14*
X205740Y99060D03*
X214630Y104140D03*
X214630Y93980D03*
X214630Y83820D03*
X205740Y88900D03*
X205740Y78740D03*
X214630Y73660D03*
X769620Y314960D03*
X518160Y46990D03*
X528320Y46990D03*
X528320Y36830D03*
X518160Y36830D03*
X534670Y27940D03*
X542290Y20320D03*
X615950Y36830D03*
X615950Y26670D03*
X595630Y26670D03*
D11*
X637540Y247650D03*
X656590Y247650D03*
X656590Y228600D03*
X637540Y228600D03*
D16*
X454660Y74930D03*
D14*
X426720Y114300D03*
X485140Y116840D03*
D17*
X406800Y56800D02*
X406800Y15000D01*
X493200Y15000D01*
X493200Y36830D01*
X493200Y56800D01*
X493200Y36830D02*
X518160Y36830D01*
D18*
X193040Y293370D03*
X193040Y283210D03*
X182880Y283210D03*
X182880Y293370D03*
D14*
X67310Y323850D03*
X67310Y334010D03*
X87630Y334010D03*
X97790Y334010D03*
X107950Y334010D03*
X77470Y323850D03*
X77470Y334010D03*
X87630Y323850D03*
X97790Y323850D03*
X107950Y323850D03*
X67310Y313690D03*
X77470Y313690D03*
X67310Y303530D03*
X77470Y303530D03*
X87630Y303530D03*
X87630Y313690D03*
X107950Y313690D03*
X118110Y313690D03*
X128270Y313690D03*
X97790Y303530D03*
X97790Y313690D03*
X107950Y303530D03*
X118110Y303530D03*
X128270Y303530D03*
X87630Y293370D03*
X107950Y293370D03*
X118110Y293370D03*
X128270Y293370D03*
X97790Y293370D03*
X67310Y293370D03*
X77470Y293370D03*
X444500Y227330D03*
X444500Y217170D03*
X454660Y217170D03*
X454660Y227330D03*
X118110Y334010D03*
X128270Y334010D03*
X118110Y323850D03*
X128270Y323850D03*
D13*
X554990Y262890D03*
X490220Y304800D03*
X496570Y311150D03*
X502920Y304800D03*
X509270Y311150D03*
X515620Y304800D03*
X521970Y311150D03*
D14*
X185420Y104140D03*
X194310Y99060D03*
X194310Y88900D03*
X185420Y93980D03*
X185420Y83820D03*
X185420Y73660D03*
X194310Y78740D03*
X603250Y80010D03*
X593090Y80010D03*
X593090Y90170D03*
X603250Y90170D03*
X603250Y100330D03*
X582930Y100330D03*
X582930Y90170D03*
X582930Y80010D03*
X582930Y69850D03*
X593090Y69850D03*
X603250Y69850D03*
X593090Y100330D03*
X190500Y210820D03*
D19*
X435610Y138430D03*
X473710Y138430D03*
D13*
X129540Y151130D03*
X78740Y151130D03*
X260350Y208280D03*
X269240Y185420D03*
D14*
X118110Y116840D03*
X118110Y106680D03*
X118110Y96520D03*
X118110Y86360D03*
X127000Y101600D03*
X127000Y91440D03*
X130810Y377190D03*
X130810Y367030D03*
X130810Y387350D03*
X151130Y387350D03*
X161290Y387350D03*
X171450Y387350D03*
X140970Y377190D03*
X140970Y387350D03*
X151130Y377190D03*
X161290Y377190D03*
X171450Y377190D03*
X130810Y356870D03*
X191770Y387350D03*
X201930Y387350D03*
X212090Y387350D03*
X181610Y377190D03*
X181610Y387350D03*
X191770Y377190D03*
X201930Y377190D03*
X212090Y377190D03*
X232410Y387350D03*
X242570Y387350D03*
X222250Y377190D03*
X222250Y387350D03*
X232410Y377190D03*
X242570Y377190D03*
X222250Y365760D03*
X212090Y365760D03*
D18*
X252730Y257810D03*
X248920Y166370D03*
X237490Y209550D03*
X193040Y232480D03*
D20*
X182521Y262824D03*
D14*
X391160Y111760D03*
X401320Y111760D03*
X411480Y111760D03*
X411480Y101600D03*
X401320Y101600D03*
X391160Y101600D03*
X391160Y91440D03*
X391160Y81280D03*
X401320Y81280D03*
X411480Y81280D03*
X411480Y91440D03*
X401320Y91440D03*
X412750Y294640D03*
X422910Y294640D03*
X433070Y284480D03*
X422910Y284480D03*
X412750Y284480D03*
X412750Y274320D03*
X412750Y264160D03*
X422910Y264160D03*
X433070Y264160D03*
X433070Y274320D03*
X422910Y274320D03*
X433070Y294640D03*
X454660Y97790D03*
X381000Y101600D03*
X381000Y111760D03*
X381000Y121920D03*
X391160Y121920D03*
X401320Y121920D03*
X411480Y121920D03*
X391160Y142240D03*
X401320Y142240D03*
X411480Y142240D03*
X381000Y132080D03*
X381000Y142240D03*
X381000Y152400D03*
X391160Y132080D03*
X401320Y132080D03*
X411480Y132080D03*
X391160Y152400D03*
X401320Y152400D03*
X411480Y152400D03*
X381000Y81280D03*
X381000Y91440D03*
X546100Y83820D03*
X556260Y83820D03*
X566420Y83820D03*
X546100Y93980D03*
X556260Y93980D03*
X566420Y93980D03*
X546100Y104140D03*
X556260Y104140D03*
X566420Y104140D03*
X535940Y83820D03*
X535940Y93980D03*
X535940Y104140D03*
X505460Y104140D03*
X515620Y104140D03*
X525780Y104140D03*
X505460Y93980D03*
X515620Y93980D03*
X525780Y93980D03*
X505460Y83820D03*
X515620Y83820D03*
X525780Y83820D03*
X495300Y83820D03*
X495300Y93980D03*
X495300Y104140D03*
X412750Y340360D03*
X422910Y340360D03*
X433070Y330200D03*
X422910Y330200D03*
X412750Y330200D03*
X412750Y320040D03*
X412750Y309880D03*
X422910Y309880D03*
X433070Y309880D03*
X433070Y320040D03*
X422910Y320040D03*
X433070Y340360D03*
X412750Y387350D03*
X422910Y387350D03*
X433070Y377190D03*
X422910Y377190D03*
X412750Y377190D03*
X412750Y367030D03*
X412750Y356870D03*
X422910Y356870D03*
X433070Y356870D03*
X433070Y367030D03*
X422910Y367030D03*
X433070Y387350D03*
D18*
X138430Y280670D03*
X138430Y270510D03*
D14*
X605790Y26670D03*
D18*
X213360Y275590D03*
X252730Y289560D03*
D21*
X210820Y210820D03*
M02*
