G04 EAGLE Gerber RS-274X export*
G75*
%MOMM*%
%FSLAX34Y34*%
%LPD*%
%INSolderpaste Top*%
%IPPOS*%
%AMOC8*
5,1,8,0,0,1.08239X$1,22.5*%
G01*
%ADD10R,0.900000X0.700000*%
%ADD11R,0.700000X0.900000*%
%ADD12R,1.000000X1.100000*%
%ADD13R,0.355600X1.676400*%
%ADD14R,0.300000X1.150000*%
%ADD15R,0.600000X0.700000*%
%ADD16R,0.700000X0.600000*%
%ADD17R,0.558800X0.977900*%
%ADD18R,1.473200X0.558800*%
%ADD19R,1.154800X0.229200*%
%ADD20R,0.229200X1.154800*%
%ADD21R,1.800000X1.800000*%
%ADD22R,0.900000X0.900000*%
%ADD23R,1.500000X0.900000*%
%ADD24R,0.900000X1.500000*%
%ADD25R,1.550000X2.330000*%
%ADD26R,1.800000X1.600000*%
%ADD27R,4.749800X13.995400*%
%ADD28R,1.500000X1.300000*%
%ADD29R,0.812800X0.254000*%
%ADD30R,0.254000X0.812800*%
%ADD31R,1.752600X1.752600*%

G36*
X477047Y56687D02*
X477047Y56687D01*
X477042Y56694D01*
X477049Y56700D01*
X477049Y68200D01*
X477013Y68247D01*
X477006Y68242D01*
X477000Y68249D01*
X471000Y68249D01*
X470953Y68213D01*
X470958Y68206D01*
X470951Y68200D01*
X470951Y56700D01*
X470987Y56653D01*
X470994Y56658D01*
X471000Y56651D01*
X477000Y56651D01*
X477047Y56687D01*
G37*
G36*
X485047Y56687D02*
X485047Y56687D01*
X485042Y56694D01*
X485049Y56700D01*
X485049Y68200D01*
X485013Y68247D01*
X485006Y68242D01*
X485000Y68249D01*
X479000Y68249D01*
X478953Y68213D01*
X478958Y68206D01*
X478951Y68200D01*
X478951Y56700D01*
X478987Y56653D01*
X478994Y56658D01*
X479000Y56651D01*
X485000Y56651D01*
X485047Y56687D01*
G37*
G36*
X429047Y56687D02*
X429047Y56687D01*
X429042Y56694D01*
X429049Y56700D01*
X429049Y68200D01*
X429013Y68247D01*
X429006Y68242D01*
X429000Y68249D01*
X423000Y68249D01*
X422953Y68213D01*
X422958Y68206D01*
X422951Y68200D01*
X422951Y56700D01*
X422987Y56653D01*
X422994Y56658D01*
X423000Y56651D01*
X429000Y56651D01*
X429047Y56687D01*
G37*
G36*
X421047Y56687D02*
X421047Y56687D01*
X421042Y56694D01*
X421049Y56700D01*
X421049Y68200D01*
X421013Y68247D01*
X421006Y68242D01*
X421000Y68249D01*
X415000Y68249D01*
X414953Y68213D01*
X414958Y68206D01*
X414951Y68200D01*
X414951Y56700D01*
X414987Y56653D01*
X414994Y56658D01*
X415000Y56651D01*
X421000Y56651D01*
X421047Y56687D01*
G37*
D10*
X106680Y118260D03*
X106680Y105260D03*
D11*
X190350Y137160D03*
X203350Y137160D03*
D12*
X539750Y307730D03*
X539750Y324730D03*
D10*
X554990Y309730D03*
X554990Y322730D03*
X543560Y279250D03*
X543560Y292250D03*
D11*
X190350Y114300D03*
X203350Y114300D03*
D12*
X595630Y55490D03*
X595630Y38490D03*
D11*
X190350Y125730D03*
X203350Y125730D03*
D10*
X538480Y46840D03*
X538480Y59840D03*
D11*
X571650Y25400D03*
X558650Y25400D03*
D13*
X89720Y136906D03*
X96220Y136906D03*
X102720Y136906D03*
X109220Y136906D03*
X115720Y136906D03*
X122220Y136906D03*
X128720Y136906D03*
X128720Y193294D03*
X122220Y193294D03*
X115720Y193294D03*
X109220Y193294D03*
X102720Y193294D03*
X96220Y193294D03*
X89720Y193294D03*
D14*
X432500Y62450D03*
X437500Y62450D03*
X442500Y62450D03*
X447500Y62450D03*
X452500Y62450D03*
X457500Y62450D03*
X462500Y62450D03*
X467500Y62450D03*
D15*
X93900Y218440D03*
X83900Y218440D03*
D16*
X483870Y94060D03*
X483870Y104060D03*
X554990Y280750D03*
X554990Y290750D03*
D15*
X128350Y111760D03*
X138350Y111760D03*
X88820Y111760D03*
X78820Y111760D03*
X93900Y208280D03*
X83900Y208280D03*
X128350Y121920D03*
X138350Y121920D03*
X88820Y121920D03*
X78820Y121920D03*
D16*
X426720Y104060D03*
X426720Y94060D03*
D17*
X445160Y85408D03*
X454660Y85408D03*
X464160Y85408D03*
X464160Y112713D03*
X454660Y112713D03*
X445160Y112713D03*
D18*
X553212Y57760D03*
X553212Y48260D03*
X553212Y38760D03*
X577088Y38760D03*
X577088Y57760D03*
D19*
X170416Y175140D03*
X170416Y170140D03*
X170416Y165140D03*
X170416Y160140D03*
D20*
X179190Y151366D03*
X184190Y151366D03*
X189190Y151366D03*
X194190Y151366D03*
D19*
X202964Y160140D03*
X202964Y165140D03*
X202964Y170140D03*
X202964Y175140D03*
D20*
X194190Y183914D03*
X189190Y183914D03*
X184190Y183914D03*
X179190Y183914D03*
D21*
X186690Y167640D03*
D22*
X646670Y238290D03*
D23*
X574170Y315490D03*
D22*
X632670Y238290D03*
X660670Y238290D03*
X632670Y224290D03*
X646670Y224290D03*
X660670Y224290D03*
X632670Y252290D03*
X646670Y252290D03*
X660670Y252290D03*
D23*
X574170Y302790D03*
X574170Y290090D03*
X574170Y277390D03*
X574170Y264690D03*
X574170Y251990D03*
X574170Y239290D03*
X574170Y226590D03*
X574170Y213890D03*
X574170Y201190D03*
X574170Y188490D03*
X574170Y175790D03*
X574170Y163090D03*
X574170Y150390D03*
D24*
X591820Y137890D03*
D23*
X749170Y150390D03*
X749170Y163090D03*
X749170Y175790D03*
X749170Y188490D03*
X749170Y201190D03*
X749170Y213890D03*
X749170Y226590D03*
X749170Y239290D03*
X749170Y251990D03*
X749170Y264690D03*
X749170Y277390D03*
X749170Y290090D03*
X749170Y302790D03*
X749170Y315490D03*
D24*
X604520Y137890D03*
X617220Y137890D03*
X629920Y137890D03*
X642620Y137890D03*
X655320Y137890D03*
X668020Y137890D03*
X680720Y137890D03*
X693420Y137890D03*
X706120Y137890D03*
X718820Y137890D03*
X731520Y137890D03*
D11*
X214780Y261620D03*
X201780Y261620D03*
X214780Y250190D03*
X201780Y250190D03*
D15*
X228680Y261620D03*
X238680Y261620D03*
D11*
X235100Y287020D03*
X222100Y287020D03*
D16*
X171450Y252650D03*
X171450Y242650D03*
D25*
X238760Y357900D03*
X238760Y315200D03*
D16*
X252730Y269320D03*
X252730Y279320D03*
D15*
X224870Y276860D03*
X234870Y276860D03*
D26*
X190500Y330140D03*
X190500Y358140D03*
D12*
X212090Y334790D03*
X212090Y351790D03*
D27*
X286512Y323850D03*
X378968Y323850D03*
D12*
X156210Y263670D03*
X156210Y280670D03*
D10*
X161290Y308760D03*
X161290Y295760D03*
D26*
X168910Y330140D03*
X168910Y358140D03*
X147320Y330140D03*
X147320Y358140D03*
D28*
X419100Y225450D03*
X419100Y244450D03*
D29*
X173228Y295792D03*
X173228Y290791D03*
X173228Y285789D03*
X173228Y280788D03*
D30*
X180458Y273558D03*
X185459Y273558D03*
X190461Y273558D03*
X195462Y273558D03*
D29*
X202692Y280788D03*
X202692Y285789D03*
X202692Y290791D03*
X202692Y295792D03*
D30*
X195462Y303022D03*
X190461Y303022D03*
X185459Y303022D03*
X180458Y303022D03*
D31*
X187960Y288290D03*
D16*
X181610Y252650D03*
X181610Y242650D03*
M02*
