M48
;GenerationSoftware,Autodesk,EAGLE,9.6.2*%
;CreationDate,2024-06-17T18:30:28Z*%
FMAT,2
ICI,OFF
METRIC,TZ,000.000
T13C0.200
T12C0.254
T11C0.300
T10C0.350
T9C0.381
T8C0.400
T7C0.500
T6C0.600
T5C0.650
T4C0.762
T3C1.016
T2C1.321
T1C2.750
%
G90
M71
T1
X10500Y3500
X79450Y3500
X10500Y36890
X79450Y36890
T2
X62230Y8128
X36322Y13208
X33782Y6096
T3
X3000Y21465
X3000Y18925
X3000Y16385
X3000Y13845
X3000Y11305
X3000Y8765
X86950Y29085
X86950Y26545
X86950Y24005
X86950Y21465
X86950Y18925
X86950Y16385
X86950Y13845
X65659Y24765
X86950Y11305
X65659Y22860
X63754Y24765
X63754Y22860
X3000Y31625
X3000Y24005
X3000Y26545
X3000Y29085
T4
X18669Y16764
T5
X47890Y5180
X42110Y5180
T6
X40680Y5680
X49320Y5680
X49320Y1500
X40680Y1500
T7
X21082Y21082
T8
X47371Y13843
X43561Y13843
T9
X59563Y2667
X61595Y2667
X61595Y3683
X54229Y2032
X53467Y2794
X10668Y9271
X42672Y11430
X48514Y11684
X10668Y8255
X9652Y8255
X9652Y9271
X9652Y10287
X6731Y32385
X6731Y33401
X8763Y33401
X9779Y33401
X10795Y33401
X7747Y32385
X7747Y33401
X8763Y32385
X9779Y32385
X10795Y32385
X6731Y31369
X7747Y31369
X6731Y30353
X7747Y30353
X8763Y30353
X8763Y31369
X10795Y31369
X11811Y31369
X12827Y31369
X9779Y30353
X9779Y31369
X10795Y30353
X11811Y30353
X12827Y30353
X8763Y29337
X10795Y29337
X11811Y29337
X12827Y29337
X9779Y29337
X6731Y29337
X7747Y29337
X44450Y22733
X44450Y21717
X45466Y21717
X45466Y22733
X11811Y33401
X12827Y33401
X11811Y32385
X12827Y32385
X10922Y23749
X10922Y20701
X11557Y21463
X10922Y22225
X11557Y22987
X20574Y9906
X21463Y10414
X18542Y10414
X19431Y9906
X19431Y8890
X18542Y9398
X18542Y8382
X18542Y7366
X19431Y7874
X60325Y8001
X59309Y8001
X59309Y9017
X60325Y9017
X60325Y10033
X58293Y10033
X58293Y9017
X58293Y8001
X58293Y6985
X59309Y6985
X60325Y6985
X59309Y10033
X19050Y21082
X51816Y3683
X52832Y3683
X21463Y9398
X21463Y8382
X20574Y8890
X20574Y7874
X11811Y11684
X11811Y10668
X11811Y9652
X11811Y8636
X12700Y10160
X12700Y9144
X13081Y37719
X13081Y36703
X13081Y38735
X15113Y38735
X16129Y38735
X17145Y38735
X14097Y37719
X14097Y38735
X15113Y37719
X16129Y37719
X17145Y37719
X13081Y35687
X19177Y38735
X20193Y38735
X21209Y38735
X18161Y37719
X18161Y38735
X19177Y37719
X20193Y37719
X21209Y37719
X23241Y38735
X24257Y38735
X22225Y37719
X22225Y38735
X23241Y37719
X24257Y37719
X22225Y36576
X21209Y36576
X21463Y7366
X76962Y31496
X51816Y4699
X52832Y4699
X60579Y2667
X39116Y11176
X40132Y11176
X41148Y11176
X41148Y10160
X40132Y10160
X39116Y10160
X39116Y9144
X39116Y8128
X40132Y8128
X41148Y8128
X41148Y9144
X40132Y9144
X41275Y29464
X42291Y29464
X43307Y28448
X42291Y28448
X41275Y28448
X41275Y27432
X41275Y26416
X42291Y26416
X43307Y26416
X43307Y27432
X42291Y27432
X43307Y29464
X45466Y9779
X38100Y10160
X38100Y11176
X38100Y12192
X39116Y12192
X40132Y12192
X41148Y12192
X39116Y14224
X40132Y14224
X41148Y14224
X38100Y13208
X38100Y14224
X38100Y15240
X39116Y13208
X40132Y13208
X41148Y13208
X39116Y15240
X40132Y15240
X41148Y15240
X38100Y8128
X38100Y9144
X54610Y8382
X55626Y8382
X56642Y8382
X54610Y9398
X55626Y9398
X56642Y9398
X54610Y10414
X55626Y10414
X56642Y10414
X53594Y8382
X53594Y9398
X53594Y10414
X50546Y10414
X51562Y10414
X52578Y10414
X50546Y9398
X51562Y9398
X52578Y9398
X50546Y8382
X51562Y8382
X52578Y8382
X49530Y8382
X49530Y9398
X49530Y10414
X41275Y34036
X42291Y34036
X43307Y33020
X42291Y33020
X41275Y33020
X41275Y32004
X41275Y30988
X42291Y30988
X43307Y30988
X43307Y32004
X42291Y32004
X43307Y34036
X41275Y38735
X42291Y38735
X43307Y37719
X42291Y37719
X41275Y37719
X41275Y36703
X41275Y35687
X42291Y35687
X43307Y35687
X43307Y36703
X42291Y36703
X43307Y38735
T10
X13843Y28067
X13843Y27051
X21336Y27559
X25273Y28956
X19304Y23248
X23749Y20955
X24892Y16637
X25273Y25781
X19304Y29337
X19304Y28321
X18288Y28321
X18288Y29337
T11
X18252Y26282
T12
X52197Y31115
X51562Y30480
X21844Y16002
X21971Y16891
X50927Y31115
X50292Y30480
X49657Y31115
X49022Y30480
X55499Y26289
X12954Y15113
X7874Y15113
X26035Y20828
X26924Y18542
X8382Y22860
X13843Y10160
X7874Y10160
X52197Y32766
X51562Y32131
X50927Y32766
X50292Y32131
X49022Y32131
X49657Y32766
X53213Y26797
T13
X45466Y7493
M30